<svg width="15" height="16" viewBox="0 0 15 16" fill="none" xmlns="http://www.w3.org/2000/svg">
<path fill-rule="evenodd" clip-rule="evenodd" d="M7.83128 11.1435C7.78774 11.1872 7.73601 11.2218 7.67906 11.2455C7.62212 11.2691 7.56106 11.2812 7.49941 11.2812C7.43775 11.2812 7.3767 11.2691 7.31975 11.2455C7.2628 11.2218 7.21108 11.1872 7.16753 11.1435L1.54253 5.51854C1.45451 5.43052 1.40507 5.31114 1.40507 5.18666C1.40507 5.06219 1.45451 4.94281 1.54253 4.85479C1.63055 4.76677 1.74993 4.71732 1.87441 4.71732C1.99889 4.71732 2.11826 4.76677 2.20628 4.85479L7.49941 10.1489L12.7925 4.85479C12.8806 4.76677 12.9999 4.71732 13.1244 4.71732C13.2489 4.71732 13.3683 4.76677 13.4563 4.85479C13.5443 4.94281 13.5938 5.06219 13.5938 5.18666C13.5938 5.31114 13.5443 5.43052 13.4563 5.51854L7.83128 11.1435V11.1435Z" fill="white"/>
</svg>
