<svg width="26" height="26" viewBox="0 0 26 26" fill="none" xmlns="http://www.w3.org/2000/svg">
<path d="M21.2225 16.7917L19.2508 15.3833C19.5758 14.2133 19.5975 12.9458 19.2508 11.6783L21.2225 10.2917L19.6517 7.58333L17.4525 8.58C16.5967 7.71333 15.5133 7.04167 14.2458 6.7275L14.0292 4.33333H10.8875L10.6708 6.7275C9.40333 7.04167 8.32 7.71333 7.46416 8.58L5.265 7.58333L3.69417 10.2917L5.66583 11.6783C5.31916 12.9458 5.34083 14.2133 5.66583 15.3833L3.69417 16.7917L5.265 19.5L7.46416 18.4925C8.32 19.3483 9.40333 19.9983 10.6708 20.3342L10.8875 22.75H14.0292L14.2458 20.3342C15.5133 19.9983 16.5967 19.3483 17.4525 18.4925L19.6517 19.5L21.2225 16.7917ZM14.625 3.25C14.9175 3.25 15.1667 3.46667 15.1667 3.74833L15.3617 5.95833C16.185 6.26167 16.9217 6.70583 17.5825 7.23667L19.5867 6.29417C19.8358 6.16417 20.15 6.25083 20.3017 6.5L22.4683 10.2917C22.62 10.5192 22.5333 10.8333 22.295 10.9958L20.4858 12.2633C20.6267 13.13 20.6158 13.9858 20.4858 14.82L22.295 16.0875C22.5333 16.25 22.62 16.5642 22.4683 16.7917L20.3017 20.5833C20.15 20.8108 19.8358 20.8975 19.5867 20.7675L17.5825 19.8358C16.9217 20.3667 16.185 20.8 15.3617 21.125L15.1667 23.2917C15.1667 23.6058 14.9175 23.8333 14.625 23.8333H10.2917C10.148 23.8333 10.0102 23.7763 9.90865 23.6747C9.80707 23.5731 9.75 23.4353 9.75 23.2917L9.555 21.125C8.73166 20.8 7.995 20.3667 7.33417 19.8358L5.33 20.7675C5.08083 20.8975 4.76667 20.8108 4.615 20.5833L2.44833 16.7917C2.29667 16.5642 2.38333 16.25 2.62167 16.0875L4.43083 14.82C4.30083 13.9858 4.29 13.13 4.43083 12.2633L2.62167 10.9958C2.38333 10.8333 2.29667 10.5192 2.44833 10.2917L4.615 6.5C4.76667 6.25083 5.08083 6.16417 5.33 6.29417L7.33417 7.23667C7.995 6.70583 8.73166 6.26167 9.555 5.95833L9.75 3.74833C9.75 3.46667 9.99916 3.25 10.2917 3.25H14.625ZM12.4583 9.75C13.4639 9.75 14.4284 10.1495 15.1394 10.8606C15.8505 11.5716 16.25 12.5361 16.25 13.5417C16.25 14.5473 15.8505 15.5117 15.1394 16.2228C14.4284 16.9339 13.4639 17.3333 12.4583 17.3333C11.4527 17.3333 10.4883 16.9339 9.77722 16.2228C9.06614 15.5117 8.66666 14.5473 8.66666 13.5417C8.66666 12.5361 9.06614 11.5716 9.77722 10.8606C10.4883 10.1495 11.4527 9.75 12.4583 9.75ZM12.4583 10.8333C11.74 10.8333 11.0512 11.1187 10.5433 11.6266C10.0353 12.1345 9.75 12.8234 9.75 13.5417C9.75 14.26 10.0353 14.9488 10.5433 15.4567C11.0512 15.9647 11.74 16.25 12.4583 16.25C13.1766 16.25 13.8655 15.9647 14.3734 15.4567C14.8813 14.9488 15.1667 14.26 15.1667 13.5417C15.1667 12.8234 14.8813 12.1345 14.3734 11.6266C13.8655 11.1187 13.1766 10.8333 12.4583 10.8333Z" fill="white"/>
</svg>
