<svg width="140" height="70" viewBox="0 0 140 70" fill="none" xmlns="http://www.w3.org/2000/svg">
<g clip-path="url(#clip0_1_92)">
<path d="M33.2119 57.2227H41.6553V58.1719H34.2089V63.0409H41.6553V63.9738H34.2089V68.8774H41.6553V69.8266H33.2119V57.2227Z" fill="white"/>
<path d="M44.6416 57.2227H45.7422L53.6702 68.3418V57.2227H54.6328V69.8266H53.5668L45.6042 58.6557V69.8266H44.6416V57.2227Z" fill="white"/>
<path d="M61.1652 58.1371H57.0723V57.2217H66.2551V58.1371H62.145V69.8266H61.1652V58.1371Z" fill="white"/>
<path d="M68.6934 57.2227H77.1367V58.1719H69.6904V63.0409H77.1367V63.9738H69.6904V68.8774H77.1367V69.8266H68.6934V57.2227Z" fill="white"/>
<path d="M79.8066 57.2227H84.8965C85.481 57.2227 86.0259 57.3264 86.5306 57.5333C87.0354 57.7401 87.4736 58.0227 87.8463 58.3796C88.2188 58.7364 88.5085 59.1541 88.7145 59.6312C88.9205 60.1092 89.024 60.6183 89.024 61.159C89.024 61.5734 88.9575 61.9763 88.8261 62.3678C88.6941 62.7592 88.5078 63.116 88.2672 63.4382C88.0268 63.7602 87.7371 64.0455 87.399 64.2927C87.0608 64.5406 86.685 64.7269 86.273 64.8538L89.0928 69.8266H87.975L85.3612 65.1306H80.8038V69.8266H79.8066V57.2227ZM80.8038 58.1374V64.2152H84.8104C85.2922 64.2152 85.7272 64.132 86.1179 63.9646C86.5078 63.7982 86.8459 63.5707 87.1322 63.2824C87.4186 62.9947 87.6393 62.6693 87.7945 62.3068C87.9496 61.9442 88.0268 61.5619 88.0268 61.159C88.0268 60.733 87.9496 60.3357 87.7945 59.9675C87.6393 59.5991 87.422 59.2793 87.1412 59.0091C86.8597 58.7388 86.5225 58.5254 86.1268 58.3704C85.7313 58.2147 85.2988 58.1374 84.8285 58.1374H80.8038Z" fill="white"/>
<path d="M91.793 57.2227H96.3676C97.0668 57.2227 97.7029 57.3347 98.2765 57.5597C98.8494 57.7838 99.3369 58.0895 99.7382 58.4752C100.14 58.8608 100.449 59.3213 100.666 59.8562C100.884 60.3918 100.993 60.9702 100.993 61.5916C100.993 62.2129 100.884 62.7913 100.666 63.3269C100.448 63.8625 100.136 64.3255 99.7292 64.717C99.3221 65.1085 98.8347 65.4166 98.2676 65.6407C97.6995 65.8648 97.0726 65.9777 96.3847 65.9777H92.7909V69.8283H91.7937V57.2227H91.793ZM92.7902 58.1374V65.0441H96.3332C96.9059 65.0441 97.419 64.9551 97.8718 64.7763C98.3249 64.5984 98.7057 64.3537 99.0152 64.0421C99.3246 63.7315 99.5625 63.3665 99.7292 62.9454C99.8948 62.5252 99.9786 62.0735 99.9786 61.5899C99.9786 61.0956 99.8958 60.6373 99.7292 60.2171C99.5625 59.7969 99.3221 59.4319 99.007 59.1204C98.6918 58.8098 98.3077 58.5675 97.8547 58.3952C97.4016 58.2222 96.8887 58.1364 96.3158 58.1364H92.7902V58.1374Z" fill="white"/>
<path d="M103.744 57.2227H108.834C109.418 57.2227 109.963 57.3264 110.468 57.5333C110.973 57.7401 111.411 58.0227 111.784 58.3796C112.156 58.7364 112.446 59.1541 112.652 59.6312C112.858 60.1092 112.961 60.6183 112.961 61.159C112.961 61.5734 112.895 61.9763 112.764 62.3678C112.631 62.7592 112.445 63.116 112.205 63.4382C111.964 63.7602 111.675 64.0455 111.336 64.2927C110.998 64.5406 110.622 64.7269 110.21 64.8538L113.03 69.8266H111.912L109.298 65.1306H104.74V69.8266H103.743V57.2227H103.744ZM104.741 58.1374V64.2152H108.748C109.23 64.2152 109.665 64.132 110.055 63.9646C110.445 63.7982 110.783 63.5707 111.07 63.2824C111.356 62.9947 111.577 62.6693 111.732 62.3068C111.887 61.9442 111.964 61.5619 111.964 61.159C111.964 60.733 111.887 60.3357 111.732 59.9675C111.577 59.5991 111.359 59.2793 111.079 59.0091C110.798 58.7388 110.46 58.5254 110.064 58.3704C109.669 58.2147 109.236 58.1374 108.766 58.1374H104.741Z" fill="white"/>
<path d="M115.524 57.2227H116.504V69.8266H115.524V57.2227Z" fill="white"/>
<path d="M124.174 69.9998C122.924 69.9998 121.864 69.7667 120.992 69.3004C120.121 68.8338 119.393 68.2036 118.808 67.41L119.651 66.7541C120.144 67.514 120.761 68.0924 121.5 68.4895C122.24 68.8867 123.131 69.0853 124.174 69.0853C125.252 69.0853 126.083 68.8289 126.667 68.3174C127.252 67.8056 127.545 67.1349 127.545 66.3059C127.545 65.8452 127.433 65.4688 127.209 65.1754C126.986 64.8819 126.687 64.643 126.315 64.4585C125.942 64.2746 125.512 64.1247 125.024 64.0095C124.537 63.8948 124.03 63.7796 123.503 63.6642C123.01 63.5604 122.525 63.4425 122.049 63.3098C121.573 63.1779 121.147 62.9934 120.768 62.757C120.39 62.5213 120.086 62.2163 119.856 61.8413C119.627 61.4673 119.513 60.9927 119.513 60.4168C119.513 59.9446 119.607 59.5045 119.796 59.0958C119.985 58.6872 120.261 58.3303 120.622 58.0255C120.983 57.7205 121.416 57.4816 121.921 57.3086C122.425 57.1356 122.998 57.0498 123.64 57.0498C124.752 57.0498 125.68 57.2658 126.426 57.6974C127.171 58.1293 127.79 58.6789 128.283 59.3463L127.492 59.9504C127.091 59.3176 126.578 58.8223 125.953 58.4654C125.328 58.1086 124.557 57.9298 123.641 57.9298C122.575 57.9298 121.784 58.1572 121.267 58.6121C120.751 59.067 120.493 59.6571 120.493 60.382C120.493 60.8197 120.582 61.1706 120.76 61.4352C120.937 61.7006 121.181 61.9156 121.49 62.0829C121.8 62.2501 122.167 62.3852 122.591 62.4882C123.015 62.592 123.479 62.7016 123.984 62.8163C124.488 62.9201 125.01 63.0469 125.549 63.1961C126.088 63.3461 126.578 63.547 127.02 63.8C127.461 64.053 127.825 64.3786 128.112 64.7757C128.398 65.1728 128.542 65.6763 128.542 66.2861C128.542 66.7929 128.436 67.27 128.224 67.7191C128.011 68.1682 127.713 68.5621 127.329 68.9016C126.945 69.2411 126.486 69.5089 125.953 69.704C125.421 69.9018 124.827 69.9998 124.174 69.9998Z" fill="white"/>
<path d="M131.273 57.2228H139.716V58.1721H132.27V63.0411H139.716V63.974H132.27V68.8776H139.716V69.8268H131.273V57.2228Z" fill="white"/>
<path fill-rule="evenodd" clip-rule="evenodd" d="M32.0264 45.1147V45.0364C32.0264 39.5171 36.3095 34.7305 42.1735 34.7305C48.0037 34.7305 52.246 39.4406 52.246 44.9623V45.0364C52.246 50.558 47.9628 55.3488 42.0989 55.3488C36.271 55.3488 32.0264 50.6362 32.0264 45.1147ZM50.2008 45.1147V45.0364C50.2008 40.2884 46.6512 36.5054 42.0989 36.5054C37.4299 36.5054 34.0707 40.328 34.0707 44.9623V45.0364C34.0707 49.7876 37.6211 53.5706 42.1727 53.5706C46.8434 53.5699 50.2008 49.7489 50.2008 45.1147Z" fill="white"/>
<path fill-rule="evenodd" clip-rule="evenodd" d="M56.4316 45.1147V45.0364C56.4316 39.5171 60.8184 34.7305 66.4361 34.7305C70.1292 34.7305 72.4387 36.4272 74.286 38.3594L72.9393 39.7455C71.2462 38.0126 69.3201 36.5054 66.3967 36.5054C61.9344 36.5054 58.4711 40.2498 58.4711 44.9623V45.0364C58.4711 49.7876 62.0494 53.5706 66.5509 53.5706C69.3201 53.5706 71.4744 52.1451 73.1305 50.2894L74.4387 51.4488C72.4378 53.7247 70.0505 55.3497 66.4352 55.3497C60.7789 55.3488 56.4316 50.6362 56.4316 45.1147Z" fill="white"/>
<path fill-rule="evenodd" clip-rule="evenodd" d="M77.916 45.0792V44.9976C77.916 39.284 81.9226 34.7305 87.2317 34.7305C92.7371 34.7305 96.2398 39.2082 96.2398 45.0364C96.2398 45.3849 96.2398 45.502 96.2012 45.8102H79.9184C80.2665 50.7154 83.7659 53.5723 87.6192 53.5723C90.6558 53.5723 92.7371 52.2217 94.3513 50.4848L95.6603 51.644C93.6586 53.8063 91.3132 55.3497 87.5413 55.3497C82.3839 55.3497 77.916 51.2165 77.916 45.0792ZM94.1996 44.111C93.9295 40.136 91.6594 36.4658 87.1562 36.4658C83.2661 36.4658 80.2665 39.747 79.9184 44.111H94.1996Z" fill="white"/>
<path fill-rule="evenodd" clip-rule="evenodd" d="M100.03 49.121V49.0452C100.03 44.9203 103.557 42.5866 108.678 42.5866C111.428 42.5866 113.329 42.9385 115.23 43.4461V42.5866C115.23 38.5778 112.784 36.5186 108.715 36.5186C106.308 36.5186 104.333 37.182 102.511 38.1156L101.812 36.4396C103.984 35.431 106.118 34.7305 108.832 34.7305C111.505 34.7305 113.638 35.468 115.074 36.9084C116.393 38.2318 117.09 40.0595 117.09 42.51V54.88H115.23V51.5723C113.872 53.4783 111.428 55.348 107.669 55.348C103.985 55.3488 100.03 53.2476 100.03 49.121ZM115.266 47.4523V45.1922C113.6 44.7662 111.391 44.3013 108.561 44.3013C104.373 44.3013 102.046 46.1669 102.046 48.929V49.0063C102.046 51.8846 104.759 53.5582 107.787 53.5582C111.818 53.5582 115.266 51.0697 115.266 47.4523Z" fill="white"/>
<path fill-rule="evenodd" clip-rule="evenodd" d="M123.172 35.1961H125.053V38.8901C126.351 36.554 128.536 34.7305 132.1 34.7305C137.041 34.7305 139.917 38.1526 139.917 42.8981V55.0316H138.04V43.2483C138.04 39.1637 135.779 36.4782 131.834 36.4782C128.001 36.4782 125.053 39.4364 125.053 43.5572V55.0323H123.172V35.1961Z" fill="white"/>
<path d="M3.25901 56.0395C5.05892 56.0395 6.51804 54.5745 6.51804 52.7673C6.51804 50.9602 5.05892 49.4951 3.25901 49.4951C1.45911 49.4951 0 50.9602 0 52.7673C0 54.5745 1.45911 56.0395 3.25901 56.0395Z" fill="white"/>
<path d="M5.76487 45.5168C7.56478 45.5168 9.0239 44.0519 9.0239 42.2448C9.0239 40.4376 7.56478 38.9727 5.76487 38.9727C3.96496 38.9727 2.50586 40.4376 2.50586 42.2448C2.50586 44.0519 3.96496 45.5168 5.76487 45.5168Z" fill="white"/>
<path d="M8.23168 35.1262C10.0316 35.1262 11.4907 33.6613 11.4907 31.854C11.4907 30.047 10.0316 28.582 8.23168 28.582C6.43178 28.582 4.97266 30.047 4.97266 31.854C4.97266 33.6613 6.43178 35.1262 8.23168 35.1262Z" fill="white"/>
<path d="M51.2217 6.54425C53.0217 6.54425 54.4808 5.07926 54.4808 3.27212C54.4808 1.46498 53.0217 0 51.2217 0C49.4219 0 47.9628 1.46498 47.9628 3.27212C47.9628 5.07926 49.4219 6.54425 51.2217 6.54425Z" fill="white"/>
<path d="M48.6634 16.9827C50.4632 16.9827 51.9224 15.5177 51.9224 13.7106C51.9224 11.9034 50.4632 10.4385 48.6634 10.4385C46.8634 10.4385 45.4043 11.9034 45.4043 13.7106C45.4043 15.5177 46.8634 16.9827 48.6634 16.9827Z" fill="white"/>
<path d="M46.1888 27.4213C47.9886 27.4213 49.4476 25.9562 49.4476 24.1491C49.4476 22.3419 47.9886 20.877 46.1888 20.877C44.3888 20.877 42.9297 22.3419 42.9297 24.1491C42.9297 25.9562 44.3888 27.4213 46.1888 27.4213Z" fill="white"/>
<path d="M38.3747 27.4222C39.7784 27.4222 40.9164 26.2796 40.9164 24.8703C40.9164 23.4609 39.7784 22.3184 38.3747 22.3184C36.971 22.3184 35.833 23.4609 35.833 24.8703C35.833 26.2796 36.971 27.4222 38.3747 27.4222Z" fill="white"/>
<path d="M40.3874 19.1439C41.7911 19.1439 42.9291 18.0014 42.9291 16.592C42.9291 15.1826 41.7911 14.04 40.3874 14.04C38.9836 14.04 37.8457 15.1826 37.8457 16.592C37.8457 18.0014 38.9836 19.1439 40.3874 19.1439Z" fill="white"/>
<path d="M42.3673 10.9964C43.771 10.9964 44.909 9.8538 44.909 8.4444C44.909 7.03501 43.771 5.89246 42.3673 5.89246C40.9636 5.89246 39.8254 7.03501 39.8254 8.4444C39.8254 9.8538 40.9636 10.9964 42.3673 10.9964Z" fill="white"/>
<path d="M12.1257 50.1108C13.5295 50.1108 14.6674 48.9683 14.6674 47.5587C14.6674 46.1494 13.5295 45.0068 12.1257 45.0068C10.7219 45.0068 9.58398 46.1494 9.58398 47.5587C9.58398 48.9683 10.7219 50.1108 12.1257 50.1108Z" fill="white"/>
<path d="M13.9568 41.8333C15.3605 41.8333 16.4985 40.6908 16.4985 39.2814C16.4985 37.872 15.3605 36.7295 13.9568 36.7295C12.553 36.7295 11.415 37.872 11.415 39.2814C11.415 40.6908 12.553 41.8333 13.9568 41.8333Z" fill="white"/>
<path d="M15.9372 33.6858C17.341 33.6858 18.4789 32.5433 18.4789 31.1339C18.4789 29.7246 17.341 28.582 15.9372 28.582C14.5335 28.582 13.3955 29.7246 13.3955 31.1339C13.3955 32.5433 14.5335 33.6858 15.9372 33.6858Z" fill="white"/>
<path d="M34.536 16.435C35.5362 16.435 36.3472 15.6208 36.3472 14.6164C36.3472 13.612 35.5362 12.7979 34.536 12.7979C33.5356 12.7979 32.7246 13.612 32.7246 14.6164C32.7246 15.6208 33.5356 16.435 34.536 16.435Z" fill="white"/>
<path d="M29.156 21.3007C29.6564 21.3007 30.0622 20.8935 30.0622 20.3911C30.0622 19.8887 29.6564 19.4814 29.156 19.4814C28.6556 19.4814 28.25 19.8887 28.25 20.3911C28.25 20.8935 28.6556 21.3007 29.156 21.3007Z" fill="white"/>
<path d="M28.1365 25.3302C28.6368 25.3302 29.0424 24.9229 29.0424 24.4206C29.0424 23.9182 28.6368 23.5107 28.1365 23.5107C27.6361 23.5107 27.2305 23.9182 27.2305 24.4206C27.2305 24.9229 27.6361 25.3302 28.1365 25.3302Z" fill="white"/>
<path d="M27.1706 29.3595C27.671 29.3595 28.0766 28.9522 28.0766 28.4497C28.0766 27.9473 27.671 27.54 27.1706 27.54C26.6703 27.54 26.2646 27.9473 26.2646 28.4497C26.2646 28.9522 26.6703 29.3595 27.1706 29.3595Z" fill="white"/>
<path d="M26.2654 33.2823C26.7657 33.2823 27.1715 32.8751 27.1715 32.3727C27.1715 31.8703 26.7657 31.4629 26.2654 31.4629C25.765 31.4629 25.3594 31.8703 25.3594 32.3727C25.3594 32.8751 25.765 33.2823 26.2654 33.2823Z" fill="white"/>
<path d="M25.2821 37.2989C25.7825 37.2989 26.1881 36.8915 26.1881 36.3891C26.1881 35.8867 25.7825 35.4795 25.2821 35.4795C24.7816 35.4795 24.376 35.8867 24.376 36.3891C24.376 36.8915 24.7816 37.2989 25.2821 37.2989Z" fill="white"/>
<path d="M33.0858 22.3178C34.0862 22.3178 34.897 21.5036 34.897 20.4992C34.897 19.495 34.0862 18.6807 33.0858 18.6807C32.0854 18.6807 31.2744 19.495 31.2744 20.4992C31.2744 21.5036 32.0854 22.3178 33.0858 22.3178Z" fill="white"/>
<path d="M31.7663 27.9663C32.7667 27.9663 33.5777 27.152 33.5777 26.1476C33.5777 25.1432 32.7667 24.3291 31.7663 24.3291C30.7659 24.3291 29.9551 25.1432 29.9551 26.1476C29.9551 27.152 30.7659 27.9663 31.7663 27.9663Z" fill="white"/>
<path d="M22.5759 31.6548C23.5762 31.6548 24.3873 30.8405 24.3873 29.8361C24.3873 28.8317 23.5762 28.0176 22.5759 28.0176C21.5755 28.0176 20.7646 28.8317 20.7646 29.8361C20.7646 30.8405 21.5755 31.6548 22.5759 31.6548Z" fill="white"/>
<path d="M21.2035 37.381C22.2039 37.381 23.015 36.5669 23.015 35.5625C23.015 34.5581 22.2039 33.744 21.2035 33.744C20.2034 33.744 19.3923 34.5581 19.3923 35.5625C19.3923 36.5669 20.2034 37.381 21.2035 37.381Z" fill="white"/>
<path d="M19.8581 43.185C20.8585 43.185 21.6695 42.3709 21.6695 41.3665C21.6695 40.3621 20.8585 39.5479 19.8581 39.5479C18.8578 39.5479 18.0469 40.3621 18.0469 41.3665C18.0469 42.3709 18.8578 43.185 19.8581 43.185Z" fill="white"/>
</g>
<defs>
<clipPath id="clip0_1_92">
<rect width="140" height="70" fill="white"/>
</clipPath>
</defs>
</svg>
