<svg width="172" height="55" viewBox="0 0 172 55" fill="none" xmlns="http://www.w3.org/2000/svg">
<g opacity="0.75">
<path d="M74.4584 36.9349H72.7479V34.2981C71.6655 36.0983 69.829 37.0618 67.6395 37.0618C63.8654 37.0618 61.046 34.2981 61.046 30.2668C61.046 26.2355 63.8637 23.4967 67.6395 23.4967C69.7528 23.4967 71.5644 24.4102 72.6733 26.1336V18.1211H74.4584V36.9349ZM72.6965 30.2668C72.6965 27.1489 70.5832 25.0698 67.7887 25.0698C64.9709 25.0698 62.856 27.1489 62.856 30.2668C62.856 33.3846 64.9693 35.4637 67.7887 35.4637C70.5815 35.4654 72.6965 33.3863 72.6965 30.2668Z" fill="white"/>
<path d="M90.3372 30.8245H79.2651C79.4657 33.6134 81.5806 35.4637 84.4746 35.4637C86.0857 35.4637 87.5194 34.8809 88.5255 33.7136L89.5316 34.8792C88.3482 36.2987 86.5117 37.0602 84.4232 37.0602C80.2961 37.0602 77.4784 34.2212 77.4784 30.2651C77.4784 26.3106 80.2215 23.4951 83.9459 23.4951C87.6703 23.4951 90.3637 26.2589 90.3637 30.2651C90.362 30.4187 90.3372 30.6225 90.3372 30.8245ZM79.2635 29.4802H88.6498C88.4228 26.8684 86.5365 25.0431 83.9442 25.0431C81.3784 25.0431 79.4905 26.8701 79.2635 29.4802Z" fill="white"/>
<path d="M93.3803 18.1228H95.1671V36.9349H93.3803V18.1228Z" fill="white"/>
<path d="M107.045 36.1233C106.34 36.7579 105.283 37.0618 104.252 37.0618C101.761 37.0618 100.377 35.6424 100.377 33.1825V25.1199H98.0113V23.5986H100.377V20.6829H102.163V23.5986H106.189V25.1199H102.163V33.0806C102.163 34.6521 102.969 35.5155 104.454 35.5155C105.183 35.5155 105.914 35.2867 106.416 34.8308L107.045 36.1233Z" fill="white"/>
<path d="M120.155 28.6703V36.9366H118.445V34.8575C117.639 36.2269 116.08 37.0635 113.89 37.0635C110.895 37.0635 109.059 35.4921 109.059 33.1842C109.059 31.1301 110.366 29.4067 114.167 29.4067H118.369V28.5951C118.369 26.314 117.086 25.0715 114.619 25.0715C112.909 25.0715 111.298 25.6794 110.215 26.6429L109.41 25.2986C110.744 24.158 112.707 23.4984 114.795 23.4984C118.218 23.4967 120.155 25.2218 120.155 28.6703ZM118.369 32.9287V30.7477H114.217C111.649 30.7477 110.819 31.7614 110.819 33.1307C110.819 34.6771 112.052 35.6407 114.165 35.6407C116.179 35.6424 117.664 34.6788 118.369 32.9287Z" fill="white"/>
<path d="M131.174 36.9333H125.449C124.649 36.9333 123.999 36.2786 123.999 35.472V26.2572C123.999 25.4506 124.649 24.796 125.449 24.796C126.25 24.796 126.9 25.4506 126.9 26.2572V34.0108H131.07C131.116 34.0075 131.164 34.0058 131.213 34.0075H131.229C134.748 34.0075 137.61 31.1235 137.61 27.5781C137.61 24.0328 134.748 21.1488 131.229 21.1488H131.173C131.024 21.1488 130.881 21.1271 130.747 21.0853H125.449C124.649 21.0853 123.999 20.4307 123.999 19.6241C123.999 18.8175 124.649 18.1629 125.449 18.1629H131.173C131.33 18.1629 131.483 18.1879 131.625 18.2347C136.561 18.4451 140.513 22.5566 140.513 27.5798C140.513 32.7233 136.371 36.9099 131.272 36.9333C131.241 36.9316 131.208 36.9333 131.174 36.9333Z" fill="white"/>
<path d="M157.2 36.9349H142.729C141.915 36.9349 141.255 36.2703 141.255 35.4503C141.255 34.6304 141.915 33.9657 142.729 33.9657H154.669L148.295 22.6684L146.485 25.8748C146.082 26.5878 145.183 26.8367 144.476 26.4309C143.768 26.0251 143.521 25.1199 143.924 24.4069L147.013 18.9311C147.275 18.4668 147.764 18.1813 148.295 18.1813C148.825 18.1813 149.314 18.4685 149.576 18.9311L158.482 34.7139C158.74 35.1731 158.738 35.7376 158.475 36.1935C158.21 36.6527 157.726 36.9349 157.2 36.9349Z" fill="white"/>
<path d="M163.749 36.8982C163.023 36.8982 162.39 36.3588 162.289 35.614C162.178 34.8007 162.743 34.0509 163.55 33.939C166.684 33.5048 169.048 30.7711 169.048 27.5781C169.048 24.0378 166.191 21.1571 162.677 21.1571C160.835 21.1571 159.083 21.962 157.87 23.3648C157.335 23.9844 156.403 24.0495 155.788 23.5101C155.173 22.9707 155.109 22.0322 155.644 21.4126C157.417 19.3602 159.98 18.1846 162.677 18.1846C167.818 18.1846 172 22.3996 172 27.5781C172 32.249 168.541 36.2502 163.953 36.8848C163.885 36.8932 163.817 36.8982 163.749 36.8982Z" fill="white"/>
<path d="M11.2981 47.6795C15.7137 47.439 22.506 44.3629 32.8372 35.6557C46.1336 24.4486 49.2612 17.4264 48.5916 13.1096L52.0276 33.1692C52.5215 35.4937 51.8801 38.1206 49.8944 39.7956C49.8944 39.7956 46.8065 42.8115 42.0462 46.8244C37.2859 50.8374 33.7936 53.3657 33.7936 53.3657C32.4245 54.5196 30.7753 55.0106 29.189 54.9304C29.189 54.9304 28.6968 54.9755 26.605 54.6933C24.5149 54.4111 9.01574 47.9099 8.37263 47.3722C8.37263 47.3722 9.17983 47.6294 9.8047 47.6878C10.6169 47.7613 11.2981 47.6795 11.2981 47.6795Z" fill="white"/>
<path d="M48.5701 13.1179C48.2651 11.1557 47.1562 9.73459 45.8269 8.70255L45.9048 8.76267C45.4175 8.38693 44.9518 8.1832 44.423 7.98948C44.423 7.98948 40.5031 6.20763 34.6737 4.06006C28.8443 1.91249 24.7072 0.725147 24.7072 0.725147C24.1453 0.541452 23.5818 0.429564 23.0248 0.386145C23.0248 0.386145 19.4297 -1.88166 12.8777 4.57441C6.32564 11.0305 2.05594 15.3006 2.05594 15.3006C2.05594 15.3006 3.87421 13.9112 5.26153 13.6056C9.59586 12.6503 16.9767 13.138 29.6697 17.8139C42.2202 22.438 48.2866 26.6814 50.753 30.4104C50.753 30.4104 51.6083 31.591 52.0276 33.1692L48.5701 13.1179Z" fill="white"/>
<path d="M48.5701 13.1179C48.2651 11.1557 47.1562 9.73459 45.8269 8.70255L45.9048 8.76267C45.4175 8.38693 44.9518 8.1832 44.423 7.98948C44.423 7.98948 40.5031 6.20763 34.6737 4.06006C28.8443 1.91249 24.7072 0.725147 24.7072 0.725147C24.1453 0.541452 23.5818 0.429564 23.0248 0.386145C23.0248 0.386145 19.4297 -1.88166 12.8777 4.57441C6.32564 11.0305 2.05594 15.3006 2.05594 15.3006C2.05594 15.3006 3.87421 13.9112 5.26153 13.6056C9.59586 12.6503 16.9767 13.138 29.6697 17.8139C42.2202 22.438 48.2866 26.6814 50.753 30.4104C50.753 30.4104 51.6083 31.591 52.0276 33.1692L48.5701 13.1179Z" fill="white"/>
<path d="M8.37263 47.3738C6.13668 46.6357 4.16593 44.7871 3.71675 42.1936C3.71675 42.1936 2.66755 37.992 1.59847 31.8315C0.529393 25.671 0.101761 21.3609 0.101761 21.3609C-0.302666 19.0263 0.53105 16.8119 2.02279 15.3356L2.05594 15.3039C2.05594 15.3039 6.32563 11.0338 12.8777 4.57775C19.4297 -1.87832 23.0248 0.389485 23.0248 0.389485L23.0613 0.392825C17.5137 -0.0146455 11.6976 4.97186 15.9225 29.3216C19.3933 49.3277 24.558 54.6983 29.189 54.9338C29.189 54.9338 28.657 55.1893 26.605 54.6966C21.606 53.4909 8.37263 47.3738 8.37263 47.3738Z" fill="white"/>
</g>
</svg>
