<svg xmlns="http://www.w3.org/2000/svg" fill="none" viewBox="-0.5 -0.5 200 200" id="Office-Desk--Streamline-Bangalore"><desc>Office Desk Streamline Illustration: https://streamlinehq.com</desc><g id="Work-Office-desk-01"><g id="color 2"><path id="Vector" fill="#000000" d="M122.11038 108.15650000000001c-2.37407 1.46265 -9.902239999999999 2.430785 -13.101165 2.6088899999999997h14.4275c-0.38009 -0.8994800000000001 -0.822865 -1.772095 -1.326335 -2.6088899999999997Z" stroke-width="1"></path><path id="Vector_2" fill="#000000" d="M124.47449999999999 114.05685H77.173195l-17.3926 36.109545c0.825253 0.729335 1.7021465 1.397975 2.623815 2.000945l-2.60491 5.484439999999999c3.7424934999999997 1.0278349999999998 7.6850815 1.08654 11.45643 0.17014500000000002l0.9591799999999999 -2.237755c0.9564935 0.09353 1.917564 0.134325 2.878535 0.120395l6.81177 -12.466355 -2.04771 10.348c0.9202755 0.45372 1.866819 0.852715 2.8347550000000004 1.194l-0.755205 3.0397250000000002c3.4103625 0.974105 7.0251975 0.974105 10.435559999999999 0l0.32039 -1.431805c0.914405 -0.0059700000000000005 1.83478 -0.04179 2.761125 -0.118405l7.505285 -30.36143 2.2685999999999997 0.34029000000000004 15.785675 -1.266635c3.24569 -2.6536649999999997 4.659585 -5.95209 3.4606100000000004 -10.9251Z" stroke-width="1"></path><path id="Vector_3" fill="#000000" d="M64.52574999999999 83.941185c-0.057013499999999995 0.693515 -0.314818 1.3553890000000002 -0.7417725000000001 1.9047284999999998 -0.42705400000000004 0.5493395 -1.0048505 0.9624635 -1.6627445 1.1888260000000002 -0.6579935 0.226462 -1.3676275 0.256312 -2.0422375 0.085968 -0.6747095000000001 -0.170344 -1.285142 -0.5334195 -1.756772 -1.0450485 -0.47163 -0.5115295 -0.78406 -1.149424 -0.8990819999999999 -1.8356755 -0.1151215 -0.6862515 -0.0277605 -1.3911095 0.2512375 -2.0285064999999998 0.27899799999999997 -0.6374965 0.7375934999999999 -1.179871 1.319768 -1.5608564999999999 0.5821744999999999 -0.381085 1.2627544999999998 -0.5843635 1.958558 -0.5849605 0.987637 0.040396999999999995 1.9188575 0.4713315 2.5888905 1.1980795 0.670033 0.7267480000000001 1.0240539999999998 1.6898084999999998 0.9841544999999999 2.6774455Z" stroke-width="1"></path><path id="Vector_4" fill="#000000" d="M63.107875 78.43983c-0.572921 0.4229745 -1.2736 0.6365015 -1.985025 0.6049599999999999 0.06965 -0.7081415 0.38387099999999996 -1.369916 0.888535 -1.871595 0.572921 -0.4229745 1.2736 -0.6365015 1.985025 -0.6049599999999999 -0.06965 0.7081415 -0.38387099999999996 1.369916 -0.888535 1.871595Z" stroke-width="1"></path></g><g id="color 1"><path id="Vector_5" fill="#000000" d="M104.67997 74.625c-0.03184 0.496704 -0.132335 0.986642 -0.2985 1.4556850000000001l1.81488 -1.70145c-0.49352 0.144872 -1.00296 0.227457 -1.51638 0.24576499999999998Z" stroke-width="1"></path><path id="Vector_6" fill="#000000" d="M111.90168 90.65246v8.809729999999998c0.49152999999999997 -0.07561999999999999 0.9830599999999999 -0.15123999999999999 1.47459 -0.24576499999999998 -0.26268 -2.8893805 -0.7562 -5.75309 -1.47459 -8.563965Z" stroke-width="1"></path><path id="Vector_7" fill="#000000" d="m100.880065 103.71581499999999 -2.30641 -0.850725c-0.26467 -0.22686 -0.52934 -0.47262499999999996 -0.775105 -0.71839 0.60695 -2.627795 2.23079 -1.644735 3.081515 1.569115Z" stroke-width="1"></path><path id="Vector_8" fill="#000000" d="M83.260605 71.199215v23.895919999999997c-0.0004975 0.872217 -0.347255 1.708614 -0.9640555 2.3254145 -0.6168005 0.6168005 -1.453098 0.9634585 -2.3254145 0.9640555h-1.24773c0.8723165 -0.000597 1.708614 -0.347255 2.3254145 -0.9640555 0.6168005 -0.6168005 0.963558 -1.4531975 0.9640555 -2.3254145V71.199215c-0.0004975 -0.8723165 -0.347255 -1.7087135 -0.9640555 -2.3254145 -0.6168005 -0.6168005 -1.453098 -0.963558 -2.3254145 -0.9640555h1.24773c0.8723165 0.0004975 1.708614 0.347255 2.3254145 0.9640555 0.6168005 0.616701 0.963558 1.453098 0.9640555 2.3254145Z" stroke-width="1"></path><path id="Vector_9" fill="#000000" d="M71.33155 109.93556h-2.45765c-0.394219 0.00398 -0.7758014999999999 -0.1393 -1.0702219999999998 -0.40098500000000004 -0.2944205 -0.26268 -0.480386 -0.62486 -0.521778 -1.01689L66.246105 98.4055h-1.24773l1.380065 12.59073h5.992884999999999c0.0026865 -0.138305 -0.022288 -0.275615 -0.07333150000000001 -0.40397000000000005s-0.12726050000000003 -0.24576499999999998 -0.2239745 -0.34426999999999996c-0.0968135 -0.09850500000000001 -0.212333 -0.17711 -0.3397925 -0.23084000000000002 -0.1274595 -0.05373 -0.2643715 -0.08159000000000001 -0.4026765 -0.08159000000000001Z" stroke-width="1"></path><path id="Vector_10" fill="#000000" d="M113.319555 67.796315c0.22288 -0.268252 0.343275 -0.607348 0.33830000000000005 -0.9562944999999999 -0.004975 -0.348847 -0.13333 -0.68456 -0.36417 -0.9467425 -0.22984500000000002 -0.262083 -0.546255 -0.433422 -0.89152 -0.483172 -0.345265 -0.0496505 -0.697495 0.0255715 -0.992015 0.212134 0.160195 -0.28765450000000004 0.217905 -0.6207805 0.16517 -0.945648 -0.051739999999999994 -0.32486750000000003 -0.21193499999999998 -0.6225715 -0.45471500000000004 -0.845153 -0.24278 -0.222681 -0.5522250000000001 -0.35730449999999997 -0.880575 -0.382279 -0.32835000000000003 -0.0249745 -0.65471 0.061292 -0.928335 0.24477 0.88157 -1.587025 -1.64573 -2.94321 -2.587 -1.417875 -0.582075 1.7222455 -1.30942 3.3918555 -2.174075 4.99092 2.4198399999999998 -3.383 4.045669999999999 0.207955 3.8944300000000003 2.3253150000000002 0.018904999999999998 0.41591 0.22686 0.52934 0.90744 0.037809999999999996 1.3989699999999998 -1.02087 2.4009349999999996 1.3611600000000001 -0.207955 2.53327 -0.80396 1.546429 -1.03878 3.3267825 -0.661675 5.02873 -0.018904999999999998 -0.26467 -0.32138500000000003 -5.539165000000001 5.63369 -6.635655 0.30845 -0.0653715 0.5850599999999999 -0.2341235 0.78406 -0.4782965 0.199 -0.2440735 0.30845 -0.5489415 0.31044 -0.8639585 0.00199 -0.230044 -0.04975 -0.4574015 -0.152235 -0.6635655 -0.10149 -0.20626350000000002 -0.25074 -0.38556250000000003 -0.434815 -0.523569s-0.398 -0.23084000000000002 -0.62486 -0.270839c-0.22686 -0.0400985 -0.45969000000000004 -0.0263675 -0.679585 0.0400985Z" stroke-width="1"></path><path id="Vector_11" fill="#000000" d="M107.34557500000001 83.336225c0 0.18049300000000001 -0.07164 0.35362299999999997 -0.199 0.481182 -0.128355 0.1276585 -0.301485 0.199398 -0.48158 0.199398s-0.35322499999999996 -0.0717395 -0.48158 -0.199398c-0.12736 -0.127559 -0.199 -0.30068900000000004 -0.199 -0.481182 0 -0.18049300000000001 0.07164 -0.35362299999999997 0.199 -0.48128150000000003 0.128355 -0.1276585 0.301485 -0.19929850000000002 0.48158 -0.19929850000000002s0.35322499999999996 0.07164 0.48158 0.19929850000000002c0.12736 0.1276585 0.199 0.3007885 0.199 0.48128150000000003Z" stroke-width="1"></path><path id="Vector_12" fill="#000000" d="M100.804445 89.63158999999999c0 0.18049300000000001 -0.07164 0.35362299999999997 -0.199 0.481182 -0.128355 0.1276585 -0.301485 0.199398 -0.48158 0.199398s-0.35322499999999996 -0.0717395 -0.48158 -0.199398c-0.12736 -0.127559 -0.19890049999999998 -0.30068900000000004 -0.19890049999999998 -0.481182 0 -0.18049300000000001 0.0715405 -0.35362299999999997 0.19890049999999998 -0.48128150000000003 0.128355 -0.1276585 0.301485 -0.19929850000000002 0.48158 -0.19929850000000002s0.35322499999999996 0.07164 0.48158 0.19929850000000002c0.12736 0.1276585 0.199 0.3007885 0.199 0.48128150000000003Z" stroke-width="1"></path><path id="Vector_13" fill="#000000" d="M105.88989 96.758775c0 0.18049300000000001 -0.07164 0.35362299999999997 -0.199 0.481182 -0.128355 0.1276585 -0.301485 0.199398 -0.48158 0.199398s-0.35322499999999996 -0.0717395 -0.48158 -0.199398c-0.12736 -0.127559 -0.199 -0.30068900000000004 -0.199 -0.481182 0 -0.18049300000000001 0.07164 -0.35362299999999997 0.199 -0.48128150000000003 0.128355 -0.1276585 0.301485 -0.19929850000000002 0.48158 -0.19929850000000002s0.35322499999999996 0.07164 0.48158 0.19929850000000002c0.12736 0.1276585 0.199 0.3007885 0.199 0.48128150000000003Z" stroke-width="1"></path><path id="Vector_14" fill="#000000" d="M143.28 98.89504h-6.8058c-0.24079 0 -0.47163 0.09561950000000001 -0.641775 0.2657645 -0.17014500000000002 0.17014500000000002 -0.26566500000000004 0.4008855 -0.26566500000000004 0.6416755000000001v10.05746c0 0.24079 0.09552000000000001 0.47163 0.26566500000000004 0.641775 0.17014500000000002 0.17014500000000002 0.40098500000000004 0.26566500000000004 0.641775 0.26566500000000004H143.28c0.23979499999999998 -0.0029850000000000002 0.468645 -0.100495 0.637795 -0.269645 0.17014500000000002 -0.16915000000000002 0.26666 -0.398 0.269645 -0.637795V99.79849999999999c-0.000995 -0.23979499999999998 -0.09751 -0.469839 -0.26666 -0.6390885 -0.17014500000000002 -0.169349 -0.40098500000000004 -0.2643715 -0.64078 -0.2643715Z" stroke-width="1"></path><path id="Vector_15" fill="#000000" d="m142.285 51.043499999999995 -9.206735 2.514365c-0.16417500000000002 0.044377 -0.31442 0.13124049999999998 -0.434815 0.2518345 -0.120395 0.12069350000000001 -0.20695999999999998 0.27093849999999997 -0.251735 0.4357105 -0.04378 0.1646725 -0.04378 0.338101 0 0.5027735 0.044774999999999995 0.1646725 0.13134 0.3149175 0.251735 0.4355115l8.280389999999999 8.20477c0.120395 0.1204945 0.27064 0.20715899999999998 0.43581 0.251337 0.16417500000000002 0.044178 0.33830000000000005 0.044178 0.502475 0.0000995 0.16517 -0.043979000000000004 0.315415 -0.1306435 0.43581 -0.2510385 0.120395 -0.1204945 0.20695999999999998 -0.27054049999999996 0.251735 -0.435213l2.45765 -9.37688L142.285 51.043499999999995Z" stroke-width="1"></path><path id="Vector_16" fill="#000000" d="M148.663945 47.197227999999996c-0.16517 -0.1628815 -0.361185 -0.291535 -0.576105 -0.378697 -0.213925 -0.087162 -0.44377 -0.1310415 -0.675605 -0.12935 -0.231835 0.0017909999999999998 -0.46168000000000003 0.049252500000000005 -0.67461 0.13959850000000001 -0.213925 0.0904455 -0.40695499999999996 0.222084 -0.56914 0.38735349999999996l-3.837715 3.875525 2.587 2.4009349999999996 3.762095 -3.799905c0.32437 -0.3350165 0.50546 -0.784259 0.502475 -1.2510135 -0.0029850000000000002 -0.4667545 -0.190045 -0.9137085 -0.518395 -1.2444465Z" stroke-width="1"></path><path id="Vector_17" fill="#000000" d="M67.47492999999999 34.526500000000006c-0.000597 0.239198 -0.0721375 0.4729235 -0.2054675 0.671625 -0.1334295 0.198602 -0.3226785 0.35322499999999996 -0.5439664999999999 0.4442675 -0.2211885 0.0910425 -0.464466 0.114425 -0.699087 0.06726199999999999 -0.2345215 -0.047163 -0.4498395 -0.1628815 -0.618691 -0.33233 -0.1688515 -0.169548 -0.28357499999999997 -0.38536349999999997 -0.32984250000000004 -0.620084 -0.046167999999999994 -0.2347205 -0.0217905 -0.4778985 0.07014749999999999 -0.6987885 0.0920375 -0.22089 0.247357 -0.409542 0.44655599999999995 -0.5421755 0.199199 -0.132534 0.433223 -0.2030795 0.6724209999999999 -0.2026815 0.15910049999999998 -0.0002985 0.3167085 0.0309445 0.4637695 0.09183849999999999 0.1469615 0.0609935 0.2804905 0.15034450000000002 0.3927265 0.26307800000000003 0.1123355 0.112833 0.20118899999999998 0.2466605 0.261486 0.39392049999999995 0.060297 0.14726 0.09084350000000001 0.3049675 0.089948 0.464068Z" stroke-width="1"></path><path id="Vector_18" fill="#000000" d="M92.372815 157.82192500000002c-3.4103625 0.974105 -7.0251975 0.974105 -10.435559999999999 0 -3.1949449999999997 0.9263450000000001 -9.471405 5.387925 -9.471405 5.387925h21.116885c-0.199796 -1.835775 -0.6056565 -3.642695 -1.2099199999999999 -5.387925Z" stroke-width="1"></path><path id="Vector_19" fill="#000000" d="M71.25593 157.82192500000002c-3.7713484999999998 0.9163950000000001 -7.7139365 0.85769 -11.45643 -0.17014500000000002 -3.4262824999999997 1.123355 -6.545508 3.025795 -9.11221 5.55807h21.759655c-0.265267 -1.82284 -0.6632669999999999 -3.62379 -1.1910150000000002 -5.387925Z" stroke-width="1"></path><path id="Vector_20" fill="#000000" d="m108.971405 125.94809500000001 -3.74319 0.30247999999999997 -2.2685999999999997 -0.34029000000000004 0.47262499999999996 -1.909405 5.539165000000001 1.9472150000000001Z" stroke-width="1"></path><path id="Vector_21" fill="#000000" d="M174.43942 110.76738H27.47195c-0.436208 0 -0.854506 0.17312999999999998 -1.162956 0.48158 -0.30845 0.30845 -0.481779 0.727345 -0.481779 1.163155 0 0.43581 0.17332899999999998 0.8547049999999999 0.481779 1.163155 0.30845 0.30845 0.7267480000000001 0.48158 1.162956 0.48158h20.141785l-9.27141 51.327075c-0.015621499999999998 0.09353 -0.021989500000000002 0.18905 -0.018904999999999998 0.28357499999999997h3.32728l9.31718 -51.61065h100.010435l9.320165000000001 51.629555h3.32728c-0.018904999999999998 -0.094525 -0.018904999999999998 -0.18905 -0.037809999999999996 -0.2985l-9.270415 -51.327075h20.121885c0.43581 0 0.8547049999999999 -0.17312999999999998 1.163155 -0.48158 0.30845 -0.30845 0.48158 -0.727345 0.48158 -1.163155 0 -0.43581 -0.17312999999999998 -0.8547049999999999 -0.48158 -1.163155 -0.30845 -0.30845 -0.727345 -0.48158 -1.163155 -0.48158v-0.00398Z" stroke-width="1"></path></g><g id="outlines"><path id="Vector_22" stroke="#000000" d="M67.47492999999999 34.526500000000006c-0.000597 0.239198 -0.0721375 0.4729235 -0.2054675 0.671625 -0.1334295 0.198602 -0.3226785 0.35322499999999996 -0.5439664999999999 0.4442675 -0.2211885 0.0910425 -0.464466 0.114425 -0.699087 0.06726199999999999 -0.2345215 -0.047163 -0.4498395 -0.1628815 -0.618691 -0.33233 -0.1688515 -0.169548 -0.28357499999999997 -0.38536349999999997 -0.32984250000000004 -0.620084 -0.046167999999999994 -0.2347205 -0.0217905 -0.4778985 0.07014749999999999 -0.6987885 0.0920375 -0.22089 0.247357 -0.409542 0.44655599999999995 -0.5421755 0.199199 -0.132534 0.433223 -0.2030795 0.6724209999999999 -0.2026815 0.15910049999999998 -0.0002985 0.3167085 0.0309445 0.4637695 0.09183849999999999 0.1469615 0.0609935 0.2804905 0.15034450000000002 0.3927265 0.26307800000000003 0.1123355 0.112833 0.20118899999999998 0.2466605 0.261486 0.39392049999999995 0.060297 0.14726 0.09084350000000001 0.3049675 0.089948 0.464068Z" stroke-width="1"></path><path id="Vector_23" stroke="#000000" stroke-linejoin="round" d="M148.663945 47.197227999999996c-0.16517 -0.1628815 -0.361185 -0.291535 -0.576105 -0.378697 -0.213925 -0.087162 -0.44377 -0.1310415 -0.675605 -0.12935 -0.231835 0.0017909999999999998 -0.46168000000000003 0.049252500000000005 -0.67461 0.13959850000000001 -0.213925 0.0904455 -0.40695499999999996 0.222084 -0.56914 0.38735349999999996l-3.837715 3.875525 2.587 2.4009349999999996 3.762095 -3.799905c0.32437 -0.3350165 0.50546 -0.784259 0.502475 -1.2510135 -0.0029850000000000002 -0.4667545 -0.190045 -0.9137085 -0.518395 -1.2444465Z" stroke-width="1"></path><path id="Vector_24" stroke="#000000" stroke-linejoin="round" d="M174.43942 110.76738H27.47195c-0.436208 0 -0.854506 0.17312999999999998 -1.162956 0.48158 -0.30845 0.30845 -0.481779 0.727345 -0.481779 1.163155 0 0.43581 0.17332899999999998 0.8547049999999999 0.481779 1.163155 0.30845 0.30845 0.7267480000000001 0.48158 1.162956 0.48158h20.141785l-9.27141 51.327075c-0.015621499999999998 0.09353 -0.021989500000000002 0.18905 -0.018904999999999998 0.28357499999999997h3.32728l9.31718 -51.61065h100.010435l9.320165000000001 51.629555h3.32728c-0.018904999999999998 -0.094525 -0.018904999999999998 -0.18905 -0.037809999999999996 -0.2985l-9.270415 -51.327075h20.121885c0.43581 0 0.8547049999999999 -0.17312999999999998 1.163155 -0.48158 0.30845 -0.30845 0.48158 -0.727345 0.48158 -1.163155 0 -0.43581 -0.17312999999999998 -0.8547049999999999 -0.48158 -1.163155 -0.30845 -0.30845 -0.727345 -0.48158 -1.163155 -0.48158v-0.00398Z" stroke-width="1"></path><path id="Vector_25" stroke="#000000" stroke-linecap="round" stroke-linejoin="round" d="M96.58863 108.1963c-0.7847565 1.0626600000000002 -1.8635355 1.87259 -3.1032059999999997 2.329295 -1.2396705 0.456705 -2.5859055 0.54128 -3.8727389999999997 0.241785" stroke-width="1"></path><path id="Vector_26" stroke="#000000" stroke-linecap="round" stroke-linejoin="round" d="M53.8295 105.02026000000001s-9.192805 -0.84973 -10.45944 5.74712" stroke-width="1"></path><path id="Vector_27" stroke="#000000" stroke-linecap="round" stroke-linejoin="round" d="M57.096085 106.49485c-0.28357499999999997 -0.15123999999999999 -0.512425 -0.2985 -0.737295 -0.434815 -1.06863 -0.645755 -1.4556850000000001 -1.077585 -2.4009349999999996 -1.70145 -0.909032 -0.60297 -1.7518965 -1.2994700000000001 -2.514365 -2.07955 -2.09945 -2.154175 -1.3989699999999998 -2.53327 0.964155 -1.115395 0.014327999999999999 0.00199 0.027660999999999998 0.008955 0.037809999999999996 0.018904999999999998 1.569115 0.950225 3.2055914999999997 1.7850300000000001 4.896395 2.496455" stroke-width="1"></path><path id="Vector_28" stroke="#000000" stroke-linecap="round" stroke-linejoin="round" d="M56.358790000000006 106.060035c-2.0655205 -0.91341 -4.1936265 -1.678565 -6.368 -2.2885 -1.8327900000000001 -0.51541 -1.5124 -0.928335 -1.2099199999999999 -0.9830599999999999 1.1167880000000001 -0.08457500000000001 2.2396455 -0.040795000000000005 3.346185 0.132335" stroke-width="1"></path><path id="Vector_29" stroke="#000000" stroke-linecap="round" stroke-linejoin="round" d="M56.755795 109.93556c-0.41591 -0.056715 -0.8129149999999999 -0.082585 -1.153205 -0.094525 -3.2685750000000002 -0.11939999999999999 -2.1163649999999996 -0.846745 -0.9830599999999999 -1.17211 0.58705 -0.168155 1.55021 -0.359195 2.3253150000000002 -0.623865" stroke-width="1"></path><path id="Vector_30" stroke="#000000" stroke-linecap="round" stroke-linejoin="round" d="m127.460495 127.876405 5.387925 37.81" stroke-width="1"></path><path id="Vector_31" stroke="#000000" stroke-linecap="round" stroke-linejoin="round" d="m133.30214 100.426345 -8.847539999999999 -0.6427700000000001" stroke-width="1"></path><path id="Vector_32" stroke="#000000" stroke-linecap="round" stroke-linejoin="round" d="m92.693205 156.39012 -0.32039 1.431805" stroke-width="1"></path><path id="Vector_33" stroke="#000000" stroke-linecap="round" stroke-linejoin="round" d="m81.91835 157.82192500000002 0.7741100000000001 -3.0397250000000002" stroke-width="1"></path><path id="Vector_34" stroke="#000000" stroke-linecap="round" stroke-linejoin="round" d="m72.220085 155.57223000000002 -0.964155 2.249695" stroke-width="1"></path><path id="Vector_35" stroke="#000000" stroke-linecap="round" stroke-linejoin="round" d="m59.780595000000005 157.670685 2.623815 -5.5033449999999995" stroke-width="1"></path><path id="Vector_36" stroke="#000000" stroke-linecap="round" stroke-linejoin="round" d="m81.91835 143.18945499999998 -6.824705 12.51511c-5.6268245 0.19303 -11.111563 -1.7900049999999998 -15.31305 -5.53817l17.3926 -36.109545" stroke-width="1"></path><path id="Vector_37" stroke="#000000" stroke-linecap="round" stroke-linejoin="round" d="m90.028595 156.31449999999998 6.975945 -33.06982c0.10149 -0.48357 0.2978035 -0.9412699999999999 0.577697 -1.348225 0.279794 -0.40596 0.6376955 -0.753215 1.05271 -1.02087s0.878983 -0.44974000000000003 1.3645429999999998 -0.536305c0.486555 -0.08656499999999999 0.98505 -0.07561999999999999 1.4666299999999999 0.03184 5.869505 1.312405 16.904055 2.518345 18.014475 -6.27049" stroke-width="1"></path><path id="Vector_38" stroke="#000000" stroke-linecap="round" stroke-linejoin="round" d="m65.44314 102.34172 21.428320000000003 -3.4825c3.535235 -5.373 7.734134999999999 -17.81846 13.819555 -19.54777 0.9979849999999999 -0.25452100000000005 1.90642 -0.7775925 2.627795 -1.5124" stroke-width="1"></path><path id="Vector_39" stroke="#000000" stroke-linecap="round" stroke-linejoin="round" d="M104.67997 74.625c0.50148 -0.01791 0.99898 -0.091341 1.4835450000000001 -0.2189l-1.791 1.674585" stroke-width="1"></path><path id="Vector_40" stroke="#000000" stroke-linecap="round" stroke-linejoin="round" d="M108.782355 77.9483c0.29252999999999996 0.537698 0.779085 0.9433595 1.3611600000000001 1.1342999999999999 3.0238050000000003 1.1287280000000002 5.82672 2.778836 8.280389999999999 4.875500000000001 2.7999300000000003 2.5690899999999997 5.273499999999999 11.982785 6.35208 18.186609999999998 0.26069000000000003 1.45867 -0.038805 2.9611199999999998 -0.8377899999999999 4.20885 -0.7989850000000001 1.24773 -2.038755 2.148205 -3.47255 2.52133 -3.740205 1.03878 -7.580905 1.672595 -11.45643 1.8904999999999998" stroke-width="1"></path><path id="Vector_41" stroke="#000000" stroke-linecap="round" stroke-linejoin="round" d="M115.53143999999999 98.78161c-5.487425 1.05868 -11.05047 1.67757 -16.6364 1.8526900000000002" stroke-width="1"></path><path id="Vector_42" stroke="#000000" stroke-linecap="round" stroke-linejoin="round" d="M113.357365 99.2015c-0.24576499999999998 -2.89147 -0.739285 -5.756672 -1.47459 -8.563965v8.828634999999998" stroke-width="1"></path><path id="Vector_43" stroke="#000000" stroke-linecap="round" stroke-linejoin="round" d="M68.703755 101.80641c1.722345 2.64073 2.3337725 5.853585 1.70145 8.942065" stroke-width="1"></path><path id="Vector_44" stroke="#000000" stroke-linecap="round" stroke-linejoin="round" d="M92.070335 103.20538c-1.4556850000000001 0.6427700000000001 -5.17997 1.702445 -7.1838999999999995 2.34422 -0.9452499999999999 0.2985 0.737295 1.380065 6.446605 -0.26467" stroke-width="1"></path><path id="Vector_45" stroke="#000000" stroke-linecap="round" stroke-linejoin="round" d="M92.35391 104.67997c-1.380065 0.86963 -3.383 1.8705999999999998 -5.198874999999999 2.83575 -0.850725 0.452725 -0.07561999999999999 1.43678 4.95311 -0.6427700000000001" stroke-width="1"></path><path id="Vector_46" stroke="#000000" stroke-linecap="round" stroke-linejoin="round" d="M92.75091499999999 106.060035c-0.796 0.9830599999999999 -1.485535 1.93627 -2.816845 3.36509 -0.619885 0.665655 0.518395 1.069625 4.72625 -1.8904999999999998 0.7761 -0.546255 1.194 0.052735 2.2118849999999997 0.90744 1.346235 1.129325 2.249695 2.438745 3.232755 2.30641" stroke-width="1"></path><path id="Vector_47" stroke="#000000" stroke-linecap="round" stroke-linejoin="round" d="M95.208565 101.65517c-1.5124 -3.4825 -0.52934 -3.6815 0 -2.7979399999999996 0.8972910000000001 1.44872 1.983831 2.7700799999999997 3.230765 3.931245" stroke-width="1"></path><path id="Vector_48" stroke="#000000" stroke-linecap="round" stroke-linejoin="round" d="M97.79855 102.1467c0.47163 -2.0497 1.565135 -1.90244 2.426805 -0.21293 0.995 1.95418 1.90244 8.83361 -0.17711 8.83361" stroke-width="1"></path><path id="Vector_49" stroke="#000000" stroke-linecap="round" stroke-linejoin="round" d="M100.81041499999999 103.689945c-2.2238249999999997 -0.82983 -5.791894999999999 -2.28054 -6.755055 -2.28054 -0.359195 0 -4.46158 1.194 -6.446605 1.73926 -1.3044449999999999 0.36019 -1.9273150000000001 0.9621649999999999 0.18905 0.888535 0.888535 -0.030845 1.871595 -0.15123999999999999 2.76013 -0.26467" stroke-width="1"></path><path id="Vector_50" stroke="#000000" stroke-linecap="round" stroke-linejoin="round" d="M96.66425000000001 88.953c-0.8198799999999999 4.0033825 -0.768339 8.136413500000002 0.15123999999999999 12.118105" stroke-width="1"></path><path id="Vector_51" stroke="#000000" stroke-linecap="round" stroke-linejoin="round" d="M66.37844 110.74847500000001h-9.71717l1.2099199999999999 -12.344965h7.14609l1.3611600000000001 12.344965Z" stroke-width="1"></path><path id="Vector_52" stroke="#000000" stroke-linecap="round" stroke-linejoin="round" d="M64.52574999999999 83.941185c-0.057013499999999995 0.693515 -0.314818 1.3553890000000002 -0.7417725000000001 1.9047284999999998 -0.42705400000000004 0.5493395 -1.0048505 0.9624635 -1.6627445 1.1888260000000002 -0.6579935 0.226462 -1.3676275 0.256312 -2.0422375 0.085968 -0.6747095000000001 -0.170344 -1.285142 -0.5334195 -1.756772 -1.0450485 -0.47163 -0.5115295 -0.78406 -1.149424 -0.8990819999999999 -1.8356755 -0.1151215 -0.6862515 -0.0277605 -1.3911095 0.2512375 -2.0285064999999998 0.27899799999999997 -0.6374965 0.7375934999999999 -1.179871 1.319768 -1.5608564999999999 0.5821744999999999 -0.381085 1.2627544999999998 -0.5843635 1.958558 -0.5849605 0.987637 0.040396999999999995 1.9188575 0.4713315 2.5888905 1.1980795 0.670033 0.7267480000000001 1.0240539999999998 1.6898084999999998 0.9841544999999999 2.6774455v0Z" stroke-width="1"></path><path id="Vector_53" stroke="#000000" stroke-linecap="round" stroke-linejoin="round" d="M63.107875 78.43983c-0.572921 0.4229745 -1.2736 0.6365015 -1.985025 0.6049599999999999 0.06965 -0.7081415 0.38387099999999996 -1.369916 0.888535 -1.871595 0.572921 -0.4229745 1.2736 -0.6365015 1.985025 -0.6049599999999999 -0.06965 0.7081415 -0.38387099999999996 1.369916 -0.888535 1.871595Z" stroke-width="1"></path><path id="Vector_54" stroke="#000000" stroke-linecap="round" stroke-linejoin="round" d="M104.547635 67.28587999999999c0.862665 -1.5998605000000001 1.5900100000000001 -3.269371 2.174075 -4.99092 0.180095 -0.26447099999999996 0.43979 -0.46456549999999996 0.741275 -0.5711299999999999 0.301485 -0.1065645 0.62884 -0.1139275 0.9352999999999999 -0.0209945 0.30646 0.0928335 0.5741149999999999 0.2810875 0.76615 0.5373 0.19104000000000002 0.25611300000000004 0.29551499999999997 0.5668515 0.2985 0.8866445 -0.00199 0.204771 -0.05373 0.40586049999999996 -0.15123999999999999 0.586055 0.273625 -0.183478 0.599985 -0.269645 0.928335 -0.24477 0.32835000000000003 0.0249745 0.637795 0.159598 0.880575 0.382279 0.241785 0.222681 0.402975 0.520385 0.45471500000000004 0.8452525000000001 0.052735 0.324768 -0.004975 0.657894 -0.16517 0.9455485 0.29452 -0.1865625 0.64675 -0.2617845 0.992015 -0.212134 0.345265 0.04975 0.661675 0.221089 0.89152 0.4832715 0.23084000000000002 0.262083 0.359195 0.5978955 0.36417 0.9467425 0.004975 0.348847 -0.11542000000000001 0.687943 -0.33830000000000005 0.9561949999999999 0.182085 -0.058505999999999996 0.373125 -0.079998 0.5641649999999999 -0.0631825 0.190045 0.016915 0.375115 0.0717395 0.54327 0.161389 0.16915000000000002 0.08954999999999999 0.317405 0.212134 0.4378 0.3602895 0.120395 0.1481555 0.209945 0.3190965 0.263675 0.502475 0.052735 0.1833785 0.06865500000000001 0.3756125 0.046765 0.5652595 -0.022885 0.18964699999999998 -0.082585 0.37292600000000004 -0.17711 0.5388919999999999 -0.094525 0.165966 -0.22089 0.3113355 -0.373125 0.42755150000000003 -0.15123999999999999 0.1161165 -0.32437 0.200592 -0.50944 0.248551 -1.6099100000000002 0.173727 -3.09246 0.9588814999999999 -4.14119 2.1936765 -1.0477349999999999 1.2346955 -1.5820500000000002 2.8247055000000003 -1.4925 4.441978499999999" stroke-width="1"></path><path id="Vector_55" stroke="#000000" stroke-linecap="round" stroke-linejoin="round" d="m108.782355 77.9483 -0.359195 2.83575 -2.892465 -2.287505 -3.270565 1.644735 1.05868 -2.34422" stroke-width="1"></path><path id="Vector_56" stroke="#000000" stroke-linecap="round" stroke-linejoin="round" d="M105.53069500000001 78.49654500000001c-2.3820300000000003 6.0117899999999995 -3.232755 13.554884999999999 -3.270565 21.948705" stroke-width="1"></path><path id="Vector_57" stroke="#000000" stroke-linecap="round" stroke-linejoin="round" d="M144.19142 102.127795c0.717395 0 1.4049399999999999 0.28457 1.911395 0.7920200000000001 0.50745 0.506455 0.7920200000000001 1.194 0.7920200000000001 1.911395 0 0.717395 -0.28457 1.4049399999999999 -0.7920200000000001 1.911395 -0.506455 0.50745 -1.194 0.7920200000000001 -1.911395 0.7920200000000001" stroke-width="1"></path><path id="Vector_58" stroke="#000000" stroke-linecap="round" stroke-linejoin="round" d="M168.975875 77.04086c0 0.3290465 -0.09751 0.65073 -0.28058999999999995 0.9242554999999999 -0.182085 0.273625 -0.44277500000000003 0.4868535 -0.74625 0.612721 -0.30447 0.125967 -0.63879 0.1589015 -0.96117 0.094724 -0.323375 -0.0641775 -0.6188899999999999 -0.222681 -0.85172 -0.455312 -0.23283 -0.232631 -0.391035 -0.5291410000000001 -0.45571 -0.8518195 -0.06368 -0.3226785 -0.030845 -0.6571975 0.094525 -0.96117 0.126365 -0.3039725 0.339295 -0.5638664999999999 0.61292 -0.746648 0.273625 -0.1827815 0.5950099999999999 -0.280391 0.924355 -0.280391 0.2189 -0.0012935 0.43581 0.040795000000000005 0.637795 0.123977 0.20298 0.0830825 0.38705500000000004 0.2056665 0.54128 0.360389 0.15522 0.15472249999999999 0.27760500000000005 0.33859849999999997 0.36019 0.5410809999999999 0.08358 0.20248249999999998 0.12537 0.4193925 0.124375 0.638193v0Z" stroke-width="1"></path><path id="Vector_59" stroke="#000000" stroke-linecap="round" stroke-linejoin="round" d="M155.61004 105.96551000000001 167.312235 78.7045" stroke-width="1"></path><path id="Vector_60" stroke="#000000" stroke-linecap="round" stroke-linejoin="round" d="m167.312235 75.37722 -17.052310000000002 -19.131860000000003" stroke-width="1"></path><path id="Vector_61" stroke="#000000" stroke-linecap="round" stroke-linejoin="round" d="m148.218185 54.940915 -2.892465 -1.8526900000000002" stroke-width="1"></path><path id="Vector_62" stroke="#000000" stroke-linecap="round" stroke-linejoin="round" d="M138.51992 61.009420000000006c-0.30646 0.2392975 -0.6696350000000001 0.396408 -1.0547 0.45650599999999997 -0.38407 0.060098 -0.777095 0.021094 -1.1422599999999998 -0.1133305 -0.36616 -0.134325 -0.69053 -0.359593 -0.944255 -0.6545110000000001 -0.25472 -0.294918 -0.428845 -0.6497350000000001 -0.50745 -1.0309195 -0.066665 -0.3218825 -0.06169 -0.654312 0.012934999999999999 -0.974304 0.07561999999999999 -0.319992 0.2189 -0.6196860000000001 0.42188 -0.878386" stroke-width="1"></path><path id="Vector_63" stroke="#000000" stroke-linecap="round" stroke-linejoin="round" d="M150.54350000000002 55.470255c0 0.24307849999999998 -0.07164 0.480585 -0.20695999999999998 0.6826695 -0.13532 0.2020845 -0.327355 0.359593 -0.55123 0.4526255 -0.22487000000000001 0.0930325 -0.47163 0.1173105 -0.71043 0.0699485 -0.237805 -0.0474615 -0.4577 -0.1644735 -0.62884 -0.33631 -0.17213499999999998 -0.1718365 -0.289545 -0.39083599999999996 -0.33631 -0.629238 -0.047760000000000004 -0.2383025 -0.022885 -0.485361 0.06965 -0.7099325 0.09353 -0.2245715 0.25074 -0.416507 0.452725 -0.5515285s0.43979 -0.2070595 0.68257 -0.2070595c0.32437 0.0041789999999999996 0.63481 0.134922 0.864655 0.36446850000000003 0.22885 0.2295465 0.36019 0.5397875 0.36417 0.8643565v0Z" stroke-width="1"></path><path id="Vector_64" stroke="#000000" stroke-linecap="round" stroke-linejoin="round" d="M156.81996 107.19433500000001c0 0.24278 -0.07164 0.480585 -0.20695999999999998 0.68257 -0.13532 0.20198500000000003 -0.327355 0.36019 -0.55123 0.452725 -0.22487000000000001 0.09253499999999999 -0.47163 0.11740999999999999 -0.71043 0.06965 -0.237805 -0.046765 -0.4577 -0.16417500000000002 -0.62884 -0.33631 -0.17213499999999998 -0.17114 -0.289545 -0.391035 -0.33631 -0.62884 -0.047760000000000004 -0.23879999999999998 -0.022885 -0.48556 0.06965 -0.71043 0.09253499999999999 -0.223875 0.25074 -0.41591 0.452725 -0.55123 0.20198500000000003 -0.13532 0.43979 -0.20695999999999998 0.68257 -0.20695999999999998 0.16119 0 0.32138500000000003 0.030845 0.47063499999999997 0.09253499999999999 0.14925 0.06169 0.28457 0.152235 0.39899500000000004 0.26666 0.114425 0.114425 0.20496999999999999 0.249745 0.26666 0.39899500000000004 0.06169 0.14925 0.09253499999999999 0.30944499999999997 0.09253499999999999 0.47063499999999997Z" stroke-width="1"></path><path id="Vector_65" stroke="#000000" stroke-linecap="round" stroke-linejoin="round" d="m105.228215 130.46639000000002 -2.2685999999999997 35.220015" stroke-width="1"></path><path id="Vector_66" stroke="#000000" stroke-linecap="round" stroke-linejoin="round" d="M68.19332 51.235535H56.925940000000004V39.968154999999996h11.26738v11.26738Z" stroke-width="1"></path><path id="Vector_67" stroke="#000000" stroke-linecap="round" stroke-linejoin="round" d="m62.55963 42.539235 3.28947 -6.938135" stroke-width="1"></path><path id="Vector_68" stroke="#000000" stroke-linecap="round" stroke-linejoin="round" d="M30.137555000000003 132.42256h-8.601775" stroke-width="1"></path><path id="Vector_69" stroke="#000000" stroke-linecap="round" stroke-linejoin="round" d="M25.827215 136.72394500000001v-8.601775" stroke-width="1"></path><path id="Vector_70" stroke="#000000" stroke-linecap="round" stroke-linejoin="round" d="M169.316165 126.968965c0.044774999999999995 0.49352 -0.057710000000000004 0.98903 -0.29452 1.423845 -0.23681 0.43581 -0.5979949999999999 0.7910250000000001 -1.03679 1.02087 -0.438795 0.23084000000000002 -0.9352999999999999 0.325365 -1.4278250000000001 0.273625 -0.49352 -0.052735 -0.9591799999999999 -0.249745 -1.340265 -0.5671499999999999 -0.38009 -0.317405 -0.65869 -0.7402799999999999 -0.7989850000000001 -1.214895 -0.14029499999999998 -0.47561 -0.13631500000000002 -0.982065 0.010945 -1.45469 0.14726 -0.47362 0.43183 -0.8925150000000001 0.8168949999999999 -1.2039499999999999 0.38606 -0.311435 0.8547049999999999 -0.50148 1.348225 -0.546255 0.32835000000000003 -0.03383 0.6596850000000001 -0.000995 0.9760949999999999 0.09552000000000001 0.315415 0.096515 0.607945 0.25472 0.8616699999999999 0.466655 0.253725 0.21094 0.462675 0.47063499999999997 0.61491 0.7641600000000001 0.15123999999999999 0.29252999999999996 0.24278 0.61292 0.269645 0.9422649999999999v0Z" stroke-width="1"></path><path id="Vector_71" stroke="#000000" stroke-linecap="round" stroke-linejoin="round" d="M4.975 165.686405h189.05" stroke-width="1"></path><path id="Vector_72" stroke="#000000" stroke-linecap="round" stroke-linejoin="round" d="M72.46585 163.20985h21.116885" stroke-width="1"></path><path id="Vector_73" stroke="#000000" stroke-linecap="round" stroke-linejoin="round" d="M50.668385 163.20985h21.759655" stroke-width="1"></path><path id="Vector_74" stroke="#000000" stroke-linecap="round" stroke-linejoin="round" d="M72.464855 163.18c-0.2002935 -1.825825 -0.6058555 -3.62379 -1.208925 -5.35907 -3.7713484999999998 0.9163950000000001 -7.7139365 0.85769 -11.45643 -0.17014500000000002 -4.4852609999999995 1.523345 -8.436505499999999 4.306360000000001 -11.38081 8.016715 8.734110000000001 0 14.537945 0.018904999999999998 21.116885 0" stroke-width="1"></path><path id="Vector_75" stroke="#000000" stroke-linecap="round" stroke-linejoin="round" d="M92.372815 157.82192500000002c-3.4103625 0.974105 -7.0251975 0.974105 -10.435559999999999 0 -4.70834 1.36514 -10.733065000000002 6.17696 -12.40168 7.845575 9.98184 0 16.2583 -0.094525 24.103875000000002 -0.094525 0.0691525 -2.64073 -0.360588 -5.270515 -1.266635 -7.75105Z" stroke-width="1"></path><path id="Vector_76" stroke="#000000" stroke-linecap="round" stroke-linejoin="round" d="m102.959615 125.910285 0.47262499999999996 -1.909405 5.539165000000001 1.9472150000000001" stroke-width="1"></path><path id="Vector_77" stroke="#000000" stroke-linecap="round" stroke-linejoin="round" d="m102.959615 125.910285 2.2685999999999997 0.34029000000000004 20.414414999999998 -1.6676199999999999" stroke-width="1"></path><path id="Vector_78" stroke="#000000" stroke-linecap="round" stroke-linejoin="round" d="m128.27341 124.775985 -6.4277 -0.47262499999999996" stroke-width="1"></path><path id="Vector_79" stroke="#000000" stroke-linecap="round" stroke-linejoin="round" d="m68.89280500000001 155.00508 15.993630000000001 -26.826195" stroke-width="1"></path><path id="Vector_80" stroke="#000000" stroke-linecap="round" stroke-linejoin="round" d="M103.791435 100.33182c1.70145 2.514365 2.136265 5.992884999999999 1.266635 10.435559999999999" stroke-width="1"></path><path id="Vector_81" stroke="#000000" stroke-linecap="round" stroke-linejoin="round" d="m101.91984000000001 130.08829 3.3083750000000003 0.3781 20.696 -1.720355c0.434815 -0.03383 0.8477399999999999 -0.203975 1.18007 -0.48556 0.33233 -0.281585 0.5681449999999999 -0.66068 0.67262 -1.083555l8.942065 -43.349165c0.09751 -0.465262 0.09253499999999999 -0.9461455 -0.014924999999999999 -1.409318 -0.106465 -0.463272 -0.31243 -0.897689 -0.603965 -1.273401 -0.291535 -0.375712 -0.66068 -0.6836645 -1.08256 -0.902664 -0.42188 -0.21899949999999999 -0.886545 -0.3437725 -1.3611600000000001 -0.365762L109.425125 78.7045" stroke-width="1"></path><path id="Vector_82" stroke="#000000" stroke-linecap="round" stroke-linejoin="round" d="M94.074265 113.4897c-1.9360709999999999 0.373125 -3.716922 1.31539 -5.114499 2.7064000000000004 -1.3976765 1.3910099999999999 -2.3484985000000003 3.1670849999999997 -2.7310760000000003 5.1013649999999995l-6.368 32.289739999999995c4.857391 2.29845 10.2501915 3.22778 15.596625000000001 2.6865 0 -0.09353 5.789905 -23.443195 7.505285 -30.36143" stroke-width="1"></path><path id="Vector_83" stroke="#000000" stroke-linecap="round" stroke-linejoin="round" d="M78.723405 67.909745c0.8723165 0.0004975 1.708614 0.347255 2.3254145 0.9640555 0.6168005 0.6168005 0.963558 1.4531975 0.9640555 2.3254145v23.914825c0 0.872615 -0.346459 1.7095095 -0.963359 2.326708 -0.6168005 0.6171985 -1.4534960000000001 0.9642544999999999 -2.326111 0.964752H46.03666c-0.8731125 -0.0002985 -1.710604 -0.34665799999999997 -2.328897 -0.96316 -0.6181935 -0.6166015 -0.9668415 -1.453098 -0.9695280000000001 -2.32631V71.199215c-0.000796 -0.4317305 0.08358 -0.859282 0.2482525 -1.2583765 0.1646725 -0.3990945 0.406358 -0.7617719999999999 0.7113254999999999 -1.067237 0.3049675 -0.30556449999999996 0.6672469999999999 -0.5479465 1.0660429999999999 -0.7133155 0.3986965 -0.165369 0.8261485000000001 -0.250541 1.257879 -0.250541h32.70167Z" stroke-width="1"></path><path id="Vector_84" stroke="#000000" stroke-linecap="round" stroke-linejoin="round" d="M83.260605 71.199215v23.895919999999997c-0.0004975 0.872217 -0.347255 1.708614 -0.9640555 2.3254145 -0.6168005 0.6168005 -1.453098 0.963558 -2.3254145 0.9640555h-1.24773c0.8723165 -0.0004975 1.708614 -0.347255 2.3254145 -0.9640555 0.6168005 -0.6168005 0.963558 -1.4531975 0.9640555 -2.3254145V71.199215c-0.0004975 -0.872217 -0.347255 -1.708614 -0.9640555 -2.3254145 -0.6168005 -0.6168005 -1.453098 -0.963558 -2.3254145 -0.9640555h1.24773c0.8723165 0.0004975 1.708614 0.347255 2.3254145 0.9640555 0.6168005 0.6168005 0.963558 1.4531975 0.9640555 2.3254145v0Z" stroke-width="1"></path><path id="Vector_85" stroke="#000000" stroke-linecap="round" stroke-linejoin="round" d="M109.35050000000001 69.65c1.393 -1.02684 2.388 1.346235 -0.207955 2.53327 -0.361185 0.16517 -1.47459 3.799905 -0.359195 5.771 -1.78105 0.586055 -3.9322399999999997 0.9352999999999999 -5.463545 -0.15123999999999999 0.808935 -0.8690329999999999 1.28952 -1.9927860000000002 1.360165 -3.17803 -4.9153 0.07561999999999999 -0.22686 -7.354045 -0.132335 -7.354045 2.402925 -3.360115 4.022785 0.17512 3.8974149999999996 2.28054 -0.036815 0.621875 0.39899500000000004 0.46963999999999995 0.90545 0.09850500000000001Z" stroke-width="1"></path><path id="Vector_86" stroke="#000000" stroke-linecap="round" stroke-linejoin="round" d="M121.11538 124.92224999999999c1.25569 -0.9412699999999999 2.25865 -2.17905 2.918335 -3.602895 0.66068 -1.423845 0.9561949999999999 -2.989975 0.862665 -4.556105 -0.06865500000000001 -0.89749 -0.199995 -1.78702 -0.391035 -2.66063" stroke-width="1"></path><path id="Vector_87" stroke="#000000" stroke-linecap="round" stroke-linejoin="round" d="M122.11038 108.15650000000001c0.51342 0.836795 0.960175 1.7094099999999999 1.3382749999999999 2.6098850000000002" stroke-width="1"></path><path id="Vector_88" stroke="#000000" stroke-linecap="round" stroke-linejoin="round" d="M144.19142 109.85994000000001c0 0.24079 -0.09552000000000001 0.47163 -0.26566500000000004 0.641775 -0.17014500000000002 0.17014500000000002 -0.40098500000000004 0.26566500000000004 -0.641775 0.26566500000000004h-6.8058c-0.24079 0 -0.47163 -0.09552000000000001 -0.641775 -0.26566500000000004 -0.17014500000000002 -0.17014500000000002 -0.26566500000000004 -0.40098500000000004 -0.26566500000000004 -0.641775V99.79849999999999c0 -0.24079 0.09552000000000001 -0.471431 0.26566500000000004 -0.6416755000000001 0.17014500000000002 -0.17014500000000002 0.40098500000000004 -0.2657645 0.641775 -0.2657645H143.28c0.11939999999999999 0 0.23681 0.023482 0.347255 0.069053 0.110445 0.0456705 0.209945 0.11243500000000001 0.29452 0.19671149999999998 0.08457500000000001 0.08427649999999999 0.15123999999999999 0.184274 0.19701000000000002 0.2944205 0.044774999999999995 0.110445 0.06865500000000001 0.227855 0.06865500000000001 0.347255l0.00398 10.06144Z" stroke-width="1"></path><path id="Vector_89" stroke="#000000" stroke-linecap="round" stroke-linejoin="round" d="M164.15509999999998 108.40425499999999c0.074625 0.00199 0.14526999999999998 0.029849999999999998 0.199 0.07761 0.052735 0.047760000000000004 0.082585 0.11243500000000001 0.08457500000000001 0.18109v1.843735c-0.00199 0.06865500000000001 -0.03184 0.13333 -0.08457500000000001 0.18109 -0.05373 0.047760000000000004 -0.124375 0.07561999999999999 -0.199 0.07761h-17.109025c-0.074625 -0.00199 -0.14526999999999998 -0.029849999999999998 -0.199 -0.07761 -0.052735 -0.047760000000000004 -0.082585 -0.11243500000000001 -0.08457500000000001 -0.18109v-1.843735c0.00199 -0.06865500000000001 0.03184 -0.13333 0.08457500000000001 -0.18109 0.05373 -0.047760000000000004 0.124375 -0.07561999999999999 0.199 -0.07761h17.109025Z" stroke-width="1"></path><path id="Vector_90" stroke="#000000" stroke-linecap="round" stroke-linejoin="round" d="M105.228215 130.46639000000002v-4.215815" stroke-width="1"></path><path id="Vector_91" stroke="#000000" stroke-linejoin="round" d="m142.285 51.043499999999995 -9.206735 2.514365c-0.16417500000000002 0.044377 -0.31442 0.13124049999999998 -0.434815 0.2518345 -0.120395 0.12069350000000001 -0.20695999999999998 0.27093849999999997 -0.251735 0.4357105 -0.04378 0.1646725 -0.04378 0.338101 0 0.5027735 0.044774999999999995 0.1646725 0.13134 0.3149175 0.251735 0.4355115l8.280389999999999 8.20477c0.120395 0.1204945 0.27064 0.20715899999999998 0.43581 0.251337 0.16417500000000002 0.044178 0.33830000000000005 0.044178 0.502475 0.0000995 0.16517 -0.043979000000000004 0.315415 -0.1306435 0.43581 -0.2510385 0.120395 -0.1204945 0.20695999999999998 -0.27054049999999996 0.251735 -0.435213l2.45765 -9.37688L142.285 51.043499999999995Z" stroke-width="1"></path></g></g></svg>