<?xml version="1.0" encoding="UTF-8"?>
<svg id="Layer_1" xmlns="http://www.w3.org/2000/svg" xmlns:xlink="http://www.w3.org/1999/xlink" version="1.1" viewBox="0 0 500 500">
  <!-- Generator: Adobe Illustrator 29.4.0, SVG Export Plug-In . SVG Version: 2.1.0 Build 152)  -->
  <defs>
    <style>
      .st0 {
        fill: none;
      }

      .st1 {
        fill: #2c2c2c;
      }

      .st2 {
        fill: #c38b5f;
      }

      .st3 {
        clip-path: url(#clippath);
      }
    </style>
    <clipPath id="clippath">
      <rect class="st0" x="62.5" y="202.1" width="98.5" height="95.8"/>
    </clipPath>
  </defs>
  <g id="Layer_1-2">
    <path class="st1" d="M203.8,274.6c-4.8,0-9.2-1.1-13.1-3.2-3.9-2.1-7-5.1-9.2-8.8s-3.3-8-3.3-12.7,1.1-8.9,3.3-12.7c2.2-3.7,5.3-6.7,9.2-8.8s8.3-3.2,13.1-3.2,7.5.7,10.7,2.1c3.2,1.4,6,3.4,8.2,6l-5.8,5.4c-3.5-3.7-7.8-5.6-12.8-5.6s-6.2.7-8.8,2.2c-2.6,1.4-4.6,3.4-6.1,6s-2.2,5.4-2.2,8.7.7,6.1,2.2,8.7,3.5,4.5,6.1,6c2.6,1.4,5.5,2.2,8.8,2.2,5.1,0,9.3-1.9,12.8-5.7l5.8,5.5c-2.2,2.6-5,4.6-8.3,6s-6.9,2.1-10.8,2.1h0l.2-.2Z"/>
    <path class="st1" d="M235.4,226h8.9v40.4h25.1v7.5h-33.9v-47.9h-.1Z"/>
    <path class="st1" d="M280.4,226h8.9v47.9h-8.9v-47.9h0Z"/>
    <path class="st1" d="M328.5,274.6c-4.9,0-9.3-1.1-13.2-3.2-3.9-2.1-7-5.1-9.3-8.8-2.2-3.8-3.3-8-3.3-12.6s1.1-8.9,3.3-12.6c2.2-3.8,5.3-6.7,9.3-8.9s8.3-3.2,13.2-3.2,9.3,1.1,13.2,3.2c3.9,2.1,7,5.1,9.2,8.8s3.4,8,3.4,12.7-1.1,8.9-3.4,12.7c-2.2,3.7-5.3,6.7-9.2,8.8-3.9,2.1-8.3,3.2-13.2,3.2h0ZM328.5,266.8c3.2,0,6.1-.7,8.6-2.2,2.6-1.4,4.6-3.4,6-6,1.5-2.6,2.2-5.5,2.2-8.7s-.7-6.1-2.2-8.6c-1.5-2.6-3.5-4.6-6-6s-5.4-2.2-8.6-2.2-6.1.7-8.6,2.2c-2.6,1.4-4.6,3.5-6,6-1.5,2.6-2.2,5.4-2.2,8.6s.7,6.1,2.2,8.7,3.5,4.6,6,6,5.4,2.2,8.6,2.2Z"/>
    <path class="st1" d="M365.4,251.3h18.8v7.1h-18.8v-7.1Z"/>
    <path class="st1" d="M427.2,273.9l-13-18.2-12.9,18.2h-10.1l17.8-24.4-16.8-23.5h10.1l12.2,17,12.1-17h9.7l-16.8,23.1,18,24.8h-10.3Z"/>
    <path class="st2" d="M122.6,296.4h-21.6v-49.5c0-6,4.9-10.8,10.8-10.8s10.8,4.9,10.8,10.8v49.5"/>
    <g class="st3">
      <path class="st1" d="M70,282.5h21.6v3.1h-21.6v-3.1ZM73.1,233h3.1v46.4h-3.1v-46.4ZM66.9,219.1v-3.1c0-2.6,2.1-4.6,4.6-4.6h18.6c2.6,0,4.6,2.1,4.6,4.6v3.1c0,2.6-2.1,4.6-4.6,4.6s-4.6-2.1-4.6-4.6.7-1.5,1.5-1.5,1.5.7,1.5,1.5v1.5h3.1v-1.5c0-2.6-2.1-4.6-4.6-4.6s-4.6,2.1-4.6,4.6,0,1,.2,1.5h-3.4c0-.5.2-1,.2-1.5,0-2.6-2.1-4.6-4.6-4.6s-4.6,2.1-4.6,4.6v1.5h3.1v-1.5c0-.8.7-1.5,1.5-1.5s1.5.7,1.5,1.5c0,2.6-2.1,4.6-4.6,4.6s-4.6-2.1-4.6-4.6h-.2ZM66.9,205.2h89.7v3.1h-89.7s0-3.1,0-3.1ZM156.6,219.1c0,2.6-2.1,4.6-4.6,4.6s-4.6-2.1-4.6-4.6.7-1.5,1.5-1.5,1.5.7,1.5,1.5v1.5h3.1v-1.5c0-2.6-2.1-4.6-4.6-4.6s-4.6,2.1-4.6,4.6,0,1,.1,1.5h-3.4c0-.5.1-1,.1-1.5,0-2.6-2.1-4.6-4.6-4.6s-4.6,2.1-4.6,4.6v1.5h3.1v-1.5c0-.8.7-1.5,1.5-1.5s1.5.7,1.5,1.5c0,2.6-2.1,4.6-4.6,4.6s-4.6-2.1-4.6-4.6v-3.1c0-2.6,2.1-4.6,4.6-4.6h18.6c2.6,0,4.6,2.1,4.6,4.6v3.1h0ZM147.3,279.4v-46.4h3.1v46.4h-3.1ZM153.5,285.6h-21.6v-3.1h21.6v3.1h0ZM130.1,294.8l4.1-6.2h16.9l4.1,6.2h-25.2,0ZM141.1,229.9v-.3c0-1.8.6-3.6,1.5-5,1,1.5,1.5,3.2,1.5,5v.3h-3.1.1ZM135,233h3.1v46.4h-3.1v-46.4ZM141.1,279.4v-46.4h3.1v46.4h-3.1ZM150.4,226.7v3.2h-3.1v-.3c0-2.1-.6-4.1-1.6-5.9h0c1.1,1.5,2.7,2.6,4.6,2.9h.1ZM139.6,223.7h0c-1,1.8-1.6,3.8-1.6,5.9v.3h-3.1v-3.2c1.9-.4,3.5-1.5,4.6-2.9h.1ZM85.5,233h3.1v46.4h-3.1v-46.4ZM82.4,233v46.4h-3.1v-46.4h3.1ZM79.3,229.6c0-1.8.6-3.6,1.5-5,1,1.5,1.5,3.2,1.5,5v.3h-3.1v-.3h0ZM88.6,226.7v3.2h-3.1v-.3c0-2.1-.6-4.1-1.6-5.9h0c1.1,1.5,2.7,2.6,4.6,2.9h0ZM77.7,223.7h0c-1,1.8-1.6,3.8-1.6,5.9v.3h-3.1v-3.2c1.9-.4,3.5-1.5,4.6-2.9h0ZM91.7,279.4v-52.7c3.5-.7,6.2-3.8,6.2-7.6v-3.1c0-1.7-.6-3.3-1.6-4.6h31c-1,1.3-1.6,2.9-1.6,4.6v3.1c0,3.7,2.7,6.9,6.2,7.6v52.7c-1.7,0-3.1,1.4-3.1,3.1v3.1c0,1.3.8,2.4,1.9,2.8l-4.3,6.4h-29.3l-4.3-6.4c1.1-.5,1.9-1.6,1.9-2.8v-3.1c0-1.7-1.4-3.1-3.1-3.1h.1ZM89.3,288.7l4.1,6.2h-25.1l4.1-6.2h16.9ZM161,297.9l-6.3-9.5c1.1-.5,1.9-1.6,1.9-2.8v-3.1c0-1.7-1.4-3.1-3.1-3.1v-52.7c3.5-.7,6.2-3.8,6.2-7.6v-3.1c0-1.9-.7-3.6-1.8-4.9,1.1-.5,1.8-1.6,1.8-2.8v-3.1c0-1.7-1.4-3.1-3.1-3.1h-89.7c-1.7,0-3.1,1.4-3.1,3.1v3.1c0,1.2.7,2.3,1.8,2.8-1.1,1.3-1.8,3-1.8,4.9v3.1c0,3.7,2.7,6.9,6.2,7.6v52.7c-1.7,0-3.1,1.4-3.1,3.1v3.1c0,1.3.8,2.4,1.9,2.8l-6.3,9.5h98.5"/>
    </g>
    <path class="st1" d="M97.9,233h27.8v46.4h3.1v-49.5h-34v49.5h3.1v-46.4"/>
    <path class="st1" d="M110.2,223.7h-3.1v3.1h3.1v-3.1"/>
    <path class="st1" d="M116.4,223.7h-3.1v3.1h3.1v-3.1"/>
    <path class="st1" d="M104,223.7h-3.1v3.1h3.1v-3.1"/>
    <path class="st1" d="M122.6,223.7h-3.1v3.1h3.1v-3.1"/>
  </g>
</svg>