<svg xmlns="http://www.w3.org/2000/svg" xmlns:xlink="http://www.w3.org/1999/xlink" width="500" zoomAndPan="magnify" viewBox="0 0 375 374.999991" height="500" preserveAspectRatio="xMidYMid meet" version="1.0"><defs><g/><clipPath id="7cfe8dd91c"><path d="M 123.144531 110.476562 L 251.847656 110.476562 L 251.847656 235.726562 L 123.144531 235.726562 Z M 123.144531 110.476562 " clip-rule="nonzero"/></clipPath></defs><g fill="#2c2c2c" fill-opacity="1"><g transform="translate(110.706864, 272.990094)"><g><path d="M 16.71875 0.40625 C 13.894531 0.40625 11.34375 -0.210938 9.0625 -1.453125 C 6.78125 -2.691406 4.992188 -4.40625 3.703125 -6.59375 C 2.410156 -8.78125 1.765625 -11.25 1.765625 -14 C 1.765625 -16.75 2.414062 -19.21875 3.71875 -21.40625 C 5.03125 -23.59375 6.820312 -25.304688 9.09375 -26.546875 C 11.375 -27.785156 13.929688 -28.40625 16.765625 -28.40625 C 19.054688 -28.40625 21.144531 -28.003906 23.03125 -27.203125 C 24.925781 -26.398438 26.53125 -25.238281 27.84375 -23.71875 L 24.484375 -20.5625 C 22.453125 -22.75 19.957031 -23.84375 17 -23.84375 C 15.082031 -23.84375 13.363281 -23.421875 11.84375 -22.578125 C 10.320312 -21.734375 9.132812 -20.566406 8.28125 -19.078125 C 7.425781 -17.585938 7 -15.894531 7 -14 C 7 -12.101562 7.425781 -10.410156 8.28125 -8.921875 C 9.132812 -7.429688 10.320312 -6.265625 11.84375 -5.421875 C 13.363281 -4.578125 15.082031 -4.15625 17 -4.15625 C 19.957031 -4.15625 22.453125 -5.265625 24.484375 -7.484375 L 27.84375 -4.28125 C 26.53125 -2.757812 24.921875 -1.597656 23.015625 -0.796875 C 21.109375 0.00390625 19.007812 0.40625 16.71875 0.40625 Z M 16.71875 0.40625 "/></g></g></g><g fill="#2c2c2c" fill-opacity="1"><g transform="translate(142.103956, 272.990094)"><g><path d="M 3.765625 -28 L 8.953125 -28 L 8.953125 -4.40625 L 23.59375 -4.40625 L 23.59375 0 L 3.765625 0 Z M 3.765625 -28 "/></g></g></g><g fill="#2c2c2c" fill-opacity="1"><g transform="translate(168.381558, 272.990094)"><g><path d="M 3.765625 -28 L 8.953125 -28 L 8.953125 0 L 3.765625 0 Z M 3.765625 -28 "/></g></g></g><g fill="#2c2c2c" fill-opacity="1"><g transform="translate(183.460269, 272.990094)"><g><path d="M 16.84375 0.40625 C 13.988281 0.40625 11.414062 -0.210938 9.125 -1.453125 C 6.832031 -2.691406 5.03125 -4.410156 3.71875 -6.609375 C 2.414062 -8.816406 1.765625 -11.28125 1.765625 -14 C 1.765625 -16.71875 2.414062 -19.175781 3.71875 -21.375 C 5.03125 -23.582031 6.832031 -25.304688 9.125 -26.546875 C 11.414062 -27.785156 13.988281 -28.40625 16.84375 -28.40625 C 19.695312 -28.40625 22.269531 -27.785156 24.5625 -26.546875 C 26.851562 -25.304688 28.648438 -23.59375 29.953125 -21.40625 C 31.265625 -19.21875 31.921875 -16.75 31.921875 -14 C 31.921875 -11.25 31.265625 -8.78125 29.953125 -6.59375 C 28.648438 -4.40625 26.851562 -2.691406 24.5625 -1.453125 C 22.269531 -0.210938 19.695312 0.40625 16.84375 0.40625 Z M 16.84375 -4.15625 C 18.707031 -4.15625 20.382812 -4.578125 21.875 -5.421875 C 23.375 -6.265625 24.550781 -7.4375 25.40625 -8.9375 C 26.257812 -10.445312 26.6875 -12.132812 26.6875 -14 C 26.6875 -15.863281 26.257812 -17.546875 25.40625 -19.046875 C 24.550781 -20.554688 23.375 -21.734375 21.875 -22.578125 C 20.382812 -23.421875 18.707031 -23.84375 16.84375 -23.84375 C 14.976562 -23.84375 13.296875 -23.421875 11.796875 -22.578125 C 10.304688 -21.734375 9.132812 -20.554688 8.28125 -19.046875 C 7.425781 -17.546875 7 -15.863281 7 -14 C 7 -12.132812 7.425781 -10.445312 8.28125 -8.9375 C 9.132812 -7.4375 10.304688 -6.265625 11.796875 -5.421875 C 13.296875 -4.578125 14.976562 -4.15625 16.84375 -4.15625 Z M 16.84375 -4.15625 "/></g></g></g><g fill="#2c2c2c" fill-opacity="1"><g transform="translate(219.656888, 272.990094)"><g><path d="M 2.203125 -13.203125 L 13.203125 -13.203125 L 13.203125 -9.046875 L 2.203125 -9.046875 Z M 2.203125 -13.203125 "/></g></g></g><g fill="#2c2c2c" fill-opacity="1"><g transform="translate(236.575386, 272.990094)"><g><path d="M 21.40625 0 L 13.796875 -10.640625 L 6.28125 0 L 0.359375 0 L 10.765625 -14.28125 L 0.921875 -28 L 6.796875 -28 L 13.953125 -18.046875 L 21.046875 -28 L 26.6875 -28 L 16.875 -14.484375 L 27.40625 0 Z M 21.40625 0 "/></g></g></g><g fill="#2c2c2c" fill-opacity="1"><g transform="translate(266.613104, 272.990094)"><g/></g></g><path fill="#c38b5f" d="M 201.671875 233.71875 L 173.386719 233.71875 L 173.386719 169.066406 C 173.386719 161.269531 179.730469 154.925781 187.527344 154.925781 C 195.328125 154.925781 201.671875 161.269531 201.671875 169.066406 L 201.671875 233.71875 " fill-opacity="1" fill-rule="nonzero"/><g clip-path="url(#7cfe8dd91c)"><path fill="#2c2c2c" d="M 132.980469 215.535156 L 161.265625 215.535156 L 161.273438 219.574219 L 132.980469 219.574219 Z M 137.019531 150.882812 L 141.0625 150.882812 L 141.0625 211.492188 L 137.019531 211.492188 Z M 128.9375 132.699219 L 128.9375 128.660156 C 128.9375 125.3125 131.660156 122.597656 135 122.597656 L 159.242188 122.597656 C 162.589844 122.597656 165.304688 125.3125 165.304688 128.660156 L 165.304688 132.699219 C 165.304688 136.046875 162.589844 138.761719 159.242188 138.761719 C 155.90625 138.761719 153.183594 136.046875 153.183594 132.699219 C 153.183594 131.585938 154.089844 130.679688 155.203125 130.679688 C 156.316406 130.679688 157.222656 131.585938 157.222656 132.699219 L 157.222656 134.71875 L 161.265625 134.71875 L 161.265625 132.699219 C 161.265625 129.355469 158.550781 126.640625 155.203125 126.640625 C 151.863281 126.640625 149.140625 129.355469 149.140625 132.699219 C 149.140625 133.394531 149.214844 134.066406 149.347656 134.71875 L 144.894531 134.71875 C 145.03125 134.066406 145.101562 133.394531 145.101562 132.699219 C 145.101562 129.355469 142.386719 126.640625 139.039062 126.640625 C 135.703125 126.640625 132.980469 129.355469 132.980469 132.699219 L 132.980469 134.71875 L 137.019531 134.71875 L 137.019531 132.699219 C 137.019531 131.585938 137.929688 130.679688 139.039062 130.679688 C 140.152344 130.679688 141.0625 131.585938 141.0625 132.699219 C 141.0625 136.046875 138.347656 138.761719 135 138.761719 C 131.660156 138.761719 128.9375 136.046875 128.9375 132.699219 Z M 128.9375 114.515625 L 246.121094 114.515625 L 246.128906 118.558594 L 128.9375 118.558594 Z M 246.121094 132.699219 C 246.121094 136.046875 243.40625 138.761719 240.058594 138.761719 C 236.71875 138.761719 233.996094 136.046875 233.996094 132.699219 C 233.996094 131.585938 234.90625 130.679688 236.015625 130.679688 C 237.128906 130.679688 238.039062 131.585938 238.039062 132.699219 L 238.039062 134.71875 L 242.078125 134.71875 L 242.078125 132.699219 C 242.078125 129.355469 239.363281 126.640625 236.015625 126.640625 C 232.679688 126.640625 229.957031 129.355469 229.957031 132.699219 C 229.957031 133.394531 230.027344 134.066406 230.160156 134.71875 L 225.710938 134.71875 C 225.84375 134.066406 225.914062 133.394531 225.914062 132.699219 C 225.914062 129.355469 223.199219 126.640625 219.855469 126.640625 C 216.515625 126.640625 213.792969 129.355469 213.792969 132.699219 L 213.792969 134.71875 L 217.835938 134.71875 L 217.835938 132.699219 C 217.835938 131.585938 218.742188 130.679688 219.855469 130.679688 C 220.96875 130.679688 221.875 131.585938 221.875 132.699219 C 221.875 136.046875 219.160156 138.761719 215.8125 138.761719 C 212.476562 138.761719 209.753906 136.046875 209.753906 132.699219 L 209.753906 128.660156 C 209.753906 125.3125 212.476562 122.597656 215.8125 122.597656 L 240.058594 122.597656 C 243.40625 122.597656 246.121094 125.3125 246.121094 128.660156 Z M 233.996094 211.492188 L 233.996094 150.882812 L 238.039062 150.882812 L 238.039062 211.492188 Z M 242.085938 219.574219 L 213.792969 219.574219 L 213.792969 215.535156 L 242.078125 215.535156 Z M 211.503906 231.699219 L 216.894531 223.617188 L 238.976562 223.617188 L 244.367188 231.699219 Z M 225.914062 146.84375 L 225.914062 146.496094 C 225.914062 144.152344 226.640625 141.847656 227.9375 139.914062 C 229.238281 141.847656 229.957031 144.152344 229.957031 146.496094 L 229.957031 146.84375 Z M 217.835938 150.882812 L 221.875 150.882812 L 221.875 211.492188 L 217.835938 211.492188 Z M 225.914062 211.492188 L 225.914062 150.882812 L 229.957031 150.882812 L 229.957031 211.492188 Z M 238.039062 142.597656 L 238.039062 146.84375 L 233.996094 146.84375 L 233.996094 146.496094 C 233.996094 143.78125 233.269531 141.113281 231.953125 138.761719 L 232.03125 138.761719 C 233.484375 140.6875 235.589844 142.101562 238.039062 142.597656 Z M 223.847656 138.761719 L 223.917969 138.761719 C 222.601562 141.113281 221.875 143.78125 221.875 146.496094 L 221.875 146.84375 L 217.835938 146.84375 L 217.835938 142.597656 C 220.289062 142.101562 222.386719 140.6875 223.847656 138.761719 Z M 153.183594 150.882812 L 157.222656 150.882812 L 157.222656 211.492188 L 153.183594 211.492188 Z M 149.140625 150.882812 L 149.140625 211.492188 L 145.101562 211.492188 L 145.101562 150.882812 Z M 145.101562 146.496094 C 145.101562 144.152344 145.828125 141.847656 147.121094 139.914062 C 148.425781 141.847656 149.140625 144.152344 149.140625 146.496094 L 149.140625 146.84375 L 145.101562 146.84375 Z M 157.222656 142.597656 L 157.222656 146.84375 L 153.183594 146.84375 L 153.183594 146.496094 C 153.183594 143.78125 152.457031 141.113281 151.140625 138.761719 L 151.21875 138.761719 C 152.671875 140.6875 154.777344 142.101562 157.222656 142.597656 Z M 143.035156 138.761719 L 143.105469 138.761719 C 141.792969 141.113281 141.0625 143.78125 141.0625 146.496094 L 141.0625 146.84375 L 137.019531 146.84375 L 137.019531 142.597656 C 139.476562 142.101562 141.574219 140.6875 143.035156 138.761719 Z M 161.265625 211.492188 L 161.265625 142.597656 C 165.875 141.65625 169.347656 137.578125 169.347656 132.699219 L 169.347656 128.660156 C 169.347656 126.378906 168.558594 124.296875 167.277344 122.597656 L 207.789062 122.597656 C 206.5 124.296875 205.710938 126.378906 205.710938 128.660156 L 205.710938 132.699219 C 205.710938 137.578125 209.191406 141.65625 213.792969 142.597656 L 213.792969 211.492188 C 211.566406 211.492188 209.753906 213.308594 209.753906 215.535156 L 209.753906 219.574219 C 209.753906 221.257812 210.785156 222.691406 212.246094 223.300781 L 206.652344 231.699219 L 168.40625 231.699219 L 162.8125 223.300781 C 164.269531 222.691406 165.304688 221.257812 165.304688 219.574219 L 165.304688 215.535156 C 165.304688 213.308594 163.488281 211.492188 161.265625 211.492188 Z M 158.164062 223.617188 L 163.554688 231.699219 L 130.699219 231.699219 L 136.082031 223.617188 Z M 251.910156 235.738281 L 243.625 223.300781 C 245.085938 222.691406 246.121094 221.257812 246.121094 219.574219 L 246.121094 215.535156 C 246.121094 213.308594 244.304688 211.492188 242.078125 211.492188 L 242.078125 142.597656 C 246.6875 141.65625 250.160156 137.578125 250.160156 132.699219 L 250.160156 128.660156 C 250.160156 126.207031 249.246094 123.980469 247.785156 122.226562 C 249.179688 121.597656 250.160156 120.191406 250.160156 118.558594 L 250.160156 114.515625 C 250.160156 112.292969 248.34375 110.476562 246.121094 110.476562 L 128.9375 110.476562 C 126.714844 110.476562 124.898438 112.292969 124.898438 114.515625 L 124.898438 118.558594 C 124.898438 120.191406 125.875 121.597656 127.273438 122.226562 C 125.8125 123.980469 124.898438 126.207031 124.898438 128.660156 L 124.898438 132.699219 C 124.898438 137.578125 128.378906 141.65625 132.980469 142.597656 L 132.980469 211.492188 C 130.753906 211.492188 128.9375 213.308594 128.9375 215.535156 L 128.9375 219.574219 C 128.9375 221.257812 129.972656 222.691406 131.433594 223.300781 L 123.144531 235.738281 L 251.910156 235.738281 " fill-opacity="1" fill-rule="nonzero"/></g><path fill="#2c2c2c" d="M 169.347656 150.882812 L 205.710938 150.882812 L 205.710938 211.492188 L 209.753906 211.492188 L 209.753906 146.84375 L 165.304688 146.84375 L 165.304688 211.492188 L 169.347656 211.492188 L 169.347656 150.882812 " fill-opacity="1" fill-rule="nonzero"/><path fill="#2c2c2c" d="M 185.507812 138.761719 L 181.46875 138.761719 L 181.46875 142.800781 L 185.507812 142.800781 L 185.507812 138.761719 " fill-opacity="1" fill-rule="nonzero"/><path fill="#2c2c2c" d="M 193.589844 138.761719 L 189.550781 138.761719 L 189.550781 142.800781 L 193.589844 142.800781 L 193.589844 138.761719 " fill-opacity="1" fill-rule="nonzero"/><path fill="#2c2c2c" d="M 177.425781 138.761719 L 173.386719 138.761719 L 173.386719 142.800781 L 177.425781 142.800781 L 177.425781 138.761719 " fill-opacity="1" fill-rule="nonzero"/><path fill="#2c2c2c" d="M 201.671875 138.761719 L 197.628906 138.761719 L 197.628906 142.800781 L 201.671875 142.800781 L 201.671875 138.761719 " fill-opacity="1" fill-rule="nonzero"/></svg>