<?xml version="1.0" encoding="utf-8"?>
<!-- Generator: Adobe Illustrator 29.4.0, SVG Export Plug-In . SVG Version: 9.03 Build 0)  -->
<svg version="1.0" id="Layer_1" xmlns="http://www.w3.org/2000/svg" xmlns:xlink="http://www.w3.org/1999/xlink" x="0px" y="0px"
	 viewBox="0 0 500 500" style="enable-background:new 0 0 500 500;" xml:space="preserve">
<style type="text/css">
	.st0{fill:#2C2C2C;}
</style>
<path class="st0" d="M129.6,278.6c-5.6,0-10.6-1.2-15.2-3.7c-4.5-2.5-8.1-5.9-10.6-10.2c-2.6-4.3-3.8-9.2-3.8-14.7
	s1.3-10.3,3.9-14.7c2.6-4.3,6.1-7.7,10.6-10.2c4.5-2.5,9.6-3.7,15.2-3.7c4.5,0,8.7,0.8,12.4,2.4c3.8,1.6,6.9,3.9,9.5,6.9l-6.7,6.2
	c-4-4.3-9-6.5-14.8-6.5c-3.8,0-7.2,0.8-10.2,2.5c-3,1.7-5.4,4-7.1,6.9c-1.7,2.9-2.5,6.3-2.5,10.1c0,3.8,0.8,7.1,2.5,10.1
	c1.7,2.9,4,5.3,7.1,6.9c3,1.7,6.4,2.5,10.2,2.5c5.9,0,10.8-2.2,14.8-6.6l6.7,6.3c-2.6,3-5.8,5.3-9.6,6.9
	C138.3,277.8,134.1,278.6,129.6,278.6L129.6,278.6z"/>
<path class="st0" d="M166.1,222.3h10.3v46.7h29v8.7h-39.3C166.1,277.8,166.1,222.3,166.1,222.3z"/>
<path class="st0" d="M218.2,222.3h10.3v55.4h-10.3V222.3z"/>
<path class="st0" d="M273.9,278.6c-5.6,0-10.8-1.2-15.3-3.7c-4.5-2.5-8.1-5.9-10.7-10.2c-2.6-4.4-3.9-9.2-3.9-14.6
	s1.3-10.2,3.9-14.6c2.6-4.4,6.2-7.8,10.7-10.2c4.5-2.5,9.6-3.7,15.3-3.7s10.7,1.2,15.3,3.7c4.5,2.5,8.1,5.8,10.7,10.2
	c2.6,4.3,3.9,9.2,3.9,14.7s-1.3,10.3-3.9,14.7c-2.6,4.3-6.1,7.7-10.7,10.2C284.6,277.4,279.5,278.6,273.9,278.6z M273.9,269.6
	c3.7,0,7-0.8,10-2.5c3-1.7,5.3-4,7-7c1.7-3,2.5-6.3,2.5-10s-0.9-7-2.5-10c-1.7-3-4-5.3-7-7c-3-1.7-6.3-2.5-10-2.5s-7,0.8-10,2.5
	c-3,1.7-5.3,4-7,7c-1.7,3-2.5,6.3-2.5,10s0.8,7,2.5,10c1.7,3,4,5.3,7,7C266.9,268.7,270.2,269.6,273.9,269.6z"/>
<path class="st0" d="M316.6,251.6h21.8v8.2h-21.8C316.6,259.9,316.6,251.6,316.6,251.6z"/>
<path class="st0" d="M388.1,277.8L373,256.7l-14.9,21.1h-11.7l20.6-28.3l-19.5-27.2h11.6l14.2,19.7l14-19.7h11.2l-19.4,26.8
	l20.9,28.7L388.1,277.8L388.1,277.8z"/>
</svg>
