<svg xmlns="http://www.w3.org/2000/svg" fill="none" viewBox="-0.5 -0.5 200 200" id="About-Us-About-Our-Team--Streamline-Bangalore"><desc>About Us About Our Team Streamline Illustration: https://streamlinehq.com</desc><g id="Work-About-Us-About-our-team-01"><g id="color 2"><path id="Vector" fill="#000000" d="M175.93192 88.06546c-2.26263 0 -3.11435 -11.015645 -0.850725 -11.191759999999999 -12.2385 1.302455 -24.804354999999997 3.304395 -33.346430000000005 1.9472150000000001 -2.9989299999999997 3.6981165 -5.445635 7.811844499999999 -7.2635 12.212629999999999 -1.1542 -4.1422845 -1.57409 -8.454813499999998 -1.2407650000000001 -12.741969999999998 -1.624835 -0.132335 -19.357725 -11.89025 -26.824205 -16.257305 -1.618865 1.095097 -2.997935 2.507599 -4.05363 4.1518365 -1.0566900000000001 1.644138 -1.76712 3.4857834999999997 -2.0904949999999998 5.413098499999999l26.1685 15.92 2.060645 -2.968085c-0.48158 1.1851445 -0.751225 2.4458094999999997 -0.796 3.724285 -0.07561999999999999 2.5710800000000003 0.7562 6.33218 3.855625 12.935 3.0248 0.90744 7.96 -0.49152999999999997 11.7211 -2.665605 -0.17014500000000002 -2.363125 0.9830599999999999 -5.25559 1.8526900000000002 -7.674435 -0.667645 -0.4890425 -1.36912 -0.9312204999999999 -2.098455 -1.32335 11.09027 0.73033 21.52583 -0.096515 32.905645 -1.4815550000000002Z" stroke-width="1"></path><path id="Vector_2" fill="#000000" d="M83.73721 105.43816c-5.747717 -0.44974000000000003 -11.514538 -0.607945 -17.278174999999997 -0.47262499999999996 0.359792 -1.2248450000000002 0.575508 -2.4875 0.6427700000000001 -3.762095 -4.72625 1.228825 -9.301260000000001 1.266635 -15.387675 0.398v-0.07561999999999999c-2.8277900000000002 1.8705999999999998 -5.296385000000001 8.503269999999999 -3.523295 13.37877L43.2825 125.2705l-13.988705 -8.92515c-4.215815 2.627795 -6.333175 5.992884999999999 -7.883385 11.15395l17.63737 12.0793c1.1831545 0.81192 2.5248125 1.364145 3.9366179999999997 1.6198599999999999 1.411905 0.25671 2.862018 0.21094 4.2549185 -0.134325 1.3929004999999999 -0.34426999999999996 2.697047 -0.980075 3.826571 -1.865625 1.129524 -0.884555 2.0588539999999997 -1.9989549999999998 2.7267975 -3.2685750000000002l5.63369 -10.71814 -7.11027 -5.43071c1.0428595 0.60894 2.162533 1.0746 3.32927 1.3850399999999998 5.803835 1.606925 14.291184999999999 0.964155 19.9995 0.26467 -1.6788635 6.67844 -2.9912685 13.443444999999999 -3.931245 20.265165 3.5994125 2.4218300000000004 7.9885565000000005 3.37504 12.26835 2.665605 3.197333 -8.96097 5.898857499999999 -18.091089999999998 8.092334999999999 -27.349565 0.327554 -1.31738 0.36426949999999997 -2.69048 0.1075595 -4.0237799999999995 -0.25671 -1.332305 -0.8006765 -2.5939650000000003 -1.5940895000000002 -3.69543 -0.7935125 -1.101465 -1.817268 -2.016865 -3.000323 -2.6825200000000002s-2.4969525 -1.065645 -3.8502520000000002 -1.17211Z" stroke-width="1"></path><path id="Vector_3" fill="#000000" d="M166.518225 46.796839999999996c-0.142285 -0.143479 -0.311435 -0.257307 -0.498495 -0.3350165 -0.186065 -0.0777095 -0.38606 -0.11770850000000001 -0.58904 -0.11770850000000001 -0.20198500000000003 0 -0.40198 0.039999 -0.5880449999999999 0.11770850000000001 -0.18706 0.0777095 -0.35620999999999997 0.1915375 -0.498495 0.3350165l-0.398 0.398 -0.398 -0.398c-0.28855 -0.2882515 -0.679585 -0.4502375 -1.087535 -0.45013800000000004 -0.40795 0.0000995 -0.7989850000000001 0.162185 -1.087535 0.4506355 -0.287555 0.2884505 -0.44974000000000003 0.679585 -0.44974000000000003 1.0874355 0 0.407751 0.162185 0.7988854999999999 0.450735 1.087137l2.587 2.5710800000000003 2.552175 -2.5710800000000003c0.144275 -0.1419865 0.2587 -0.311037 0.337305 -0.4975995 0.07761 -0.18646300000000002 0.118405 -0.386657 0.118405 -0.5889405 0.000995 -0.202184 -0.038805 -0.402577 -0.116415 -0.589438 -0.07761 -0.186861 -0.19104000000000002 -0.35640900000000003 -0.33432 -0.49909200000000004Z" stroke-width="1"></path><path id="Vector_4" fill="#000000" d="m58.27317 157.386115 -2.627795 -0.397005 -1.17211 -2.363125 -1.17211 2.363125 -2.6268000000000002 0.397005 1.909405 1.833785 -0.45372 2.6088899999999997 2.343225 -1.228825 2.34422 1.228825 -0.45372 -2.6088899999999997 1.909405 -1.833785Z" stroke-width="1"></path></g><g id="color 1"><path id="Vector_5" fill="#000000" d="m137.235375 74.52550000000001 -1.99 1.8904999999999998c0.184075 -0.524763 0.2985 -1.0713165 0.34029000000000004 -1.6258299999999999 0.558195 -0.0267655 1.111415 -0.1155195 1.64971 -0.26467Z" stroke-width="1"></path><path id="Vector_6" fill="#000000" d="M145.51576500000002 89.672385c-0.132335 0.3781 -0.26467 0.775105 -0.41591 1.194 -0.667645 -0.48914199999999997 -1.36912 -0.93132 -2.098455 -1.32335 0.850725 0.034825 1.682545 0.09154 2.514365 0.12935Z" stroke-width="1"></path><path id="Vector_7" fill="#000000" d="M160.90344 58.29108c-3.0964400000000003 -2.5710800000000003 -11.493245 4.6506300000000005 -11.493245 4.6506300000000005 1.549215 -7.63762 -9.79279 -1.0945 -13.6116 2.627795 1.9661199999999999 -1.569115 3.535235 1.8327900000000001 3.36509 3.7611 0 0.45471500000000004 0.24576499999999998 0.5492400000000001 0.9452499999999999 0.057710000000000004 1.4556850000000001 -1.05868 2.49546 1.4556850000000001 -0.24576499999999998 2.6268000000000002 -0.184075 0.1990995 -0.319395 0.437203 -0.398 0.6965 -0.502475 1.4267305 -0.5353100000000001 2.976841 -0.094525 4.423769999999999 12.723065 -2.60491 24.61431 -16.29213 21.532794999999997 -18.844305Z" stroke-width="1"></path><path id="Vector_8" fill="#000000" d="m139.050255 116.288635 -1.5124 1.3044449999999999 -1.32335 -5.6147849999999995 2.83575 4.31034Z" stroke-width="1"></path><path id="Vector_9" fill="#000000" d="M97.51796 28.308745000000002c-1.5152854999999998 0 -2.9965420000000003 0.449342 -4.2565105 1.2912115000000002 -1.259869 0.8418694999999999 -2.241934 2.038357 -2.8218199999999998 3.438322 -0.579886 1.3999650000000001 -0.731524 2.940424 -0.4359095 4.4266555 0.29561449999999995 1.486132 1.025248 2.8513715 2.0967635 3.9227875 1.0715155 1.0715155 2.4366555 1.8011490000000001 3.9227875 2.0967635 1.4862315 0.29571400000000003 3.0266905 0.1439765 4.426954 -0.4359095 1.3999650000000001 -0.579886 2.595955 -1.561951 3.437725 -2.8218199999999998 0.84177 -1.2599685 1.29151 -2.741225 1.29151 -4.2565105 0.00199 -1.0066415 -0.19502 -2.0037309999999997 -0.57909 -2.934056 -0.385065 -0.9304245 -0.9492299999999999 -1.7757764999999999 -1.660655 -2.4875 -0.7124199999999999 -0.711823 -1.557175 -1.2760875 -2.4875 -1.6604560000000002 -0.9303250000000001 -0.3843685 -1.9276135 -0.5812790000000001 -2.934255 -0.579488Zm0.18905 12.32606c0 0.050148 -0.0199 0.0982065 -0.055321999999999996 0.13372799999999999 -0.035521500000000004 0.035422 -0.08358 0.055321999999999996 -0.13372799999999999 0.055321999999999996 -0.025173499999999998 0.0014925000000000001 -0.050446500000000005 -0.0024875 -0.074028 -0.0114425 -0.0235815 -0.008955 -0.044974 -0.022885 -0.06288400000000001 -0.040695499999999996 -0.0178105 -0.01791 -0.031641 -0.0393025 -0.040695499999999996 -0.06288400000000001 -0.008955 -0.0235815 -0.0128355 -0.048854499999999995 -0.0114425 -0.074028v-5.93617c0.0002985 -0.050048499999999996 0.020298 -0.0980075 0.05572 -0.1334295 0.0353225 -0.0353225 0.0832815 -0.055321999999999996 0.13333 -0.055620499999999996 0.025173499999999998 -0.0014925000000000001 0.050446500000000005 0.0024875 0.074028 0.0114425 0.0235815 0.008955 0.0450735 0.022885 0.06288400000000001 0.040695499999999996 0.0178105 0.01791 0.0317405 0.0393025 0.040695499999999996 0.06288400000000001 0.008955 0.0235815 0.012934999999999999 0.048854499999999995 0.0114425 0.074028v5.93617Zm-0.71839 -8.808735c0.0059700000000000005 -0.138902 0.0653715 -0.2701425 0.165767 -0.36625949999999996 0.1003955 -0.0962165 0.23402399999999998 -0.149847 0.3730255 -0.149847 0.1390015 0 0.2727295 0.053630500000000005 0.3730255 0.149847 0.1003955 0.09611700000000001 0.159797 0.22735750000000002 0.165767 0.36625949999999996 -0.0059700000000000005 0.138902 -0.0653715 0.2701425 -0.165767 0.36625949999999996 -0.100296 0.0962165 -0.23402399999999998 0.149847 -0.3730255 0.149847 -0.1390015 0 -0.27263000000000004 -0.053630500000000005 -0.3730255 -0.149847 -0.1003955 -0.09611700000000001 -0.159797 -0.22735750000000002 -0.165767 -0.36625949999999996Z" stroke-width="1"></path><path id="Vector_10" fill="#000000" d="m52.204665 119.71043999999999 7.22171 5.501355 1.682545 -3.17604c-3.1073850000000003 -0.0796 -6.154472999999999 -0.8756 -8.904255 -2.3253150000000002Z" stroke-width="1"></path><path id="Vector_11" fill="#000000" d="m58.443315 78.04581 -2.2685999999999997 -1.53031c0.6522224999999999 0.07840599999999999 1.309818 0.10377850000000001 1.9661199999999999 0.07561999999999999 0.051839500000000004 0.4938185 0.1531305 0.9811695 0.30247999999999997 1.45469Z" stroke-width="1"></path><path id="Vector_12" fill="#000000" d="M128.46445 84.54913c-0.48158 1.1851445 -0.751225 2.4458094999999997 -0.796 3.724285l-1.266635 -0.775105 2.0626349999999998 -2.94918Z" stroke-width="1"></path><path id="Vector_13" fill="#000000" d="M68.122675 84.681465c0.16855299999999998 0.8240590000000001 0.28855 1.6572719999999999 0.359195 2.49546 0.359195 -0.17014500000000002 0.7562 -0.3781 1.153205 -0.586055l-1.5124 -1.909405Z" stroke-width="1"></path><path id="Vector_14" fill="#000000" d="M73.28274499999999 143.24617c-0.43382 1.24773 -0.9830599999999999 2.49546 -1.360165 3.590955 0.2934255 1.25768 0.7507275 2.47158 1.360165 3.610855 1.909405 3.535235 3.81881 10.47337 5.33121 12.212629999999999 0.83182 -2.476555 1.720355 -8.695305000000001 2.30641 -12.193725 -2.9506725 -1.939255 -5.53618 -4.382975 -7.63762 -7.220714999999999Z" stroke-width="1"></path><path id="Vector_15" fill="#000000" d="M22.96062 114.851855c-1.2896195 -0.056715 -2.5809305 0.064675 -3.837715 0.359195 -3.9322399999999997 0.90744 -11.13404005 0.90744 -13.19468505 1.909405 2.15517 1.47459 7.92019005 3.9889550000000003 11.13404005 5.463545 2.656849 -2.343225 5.7106035 -4.193925 9.017685 -5.463545 -1.115395 -0.7562 -2.174075 -1.606925 -3.119325 -2.2685999999999997Z" stroke-width="1"></path><path id="Vector_16" fill="#000000" d="M56.552815 65.96849999999999c-0.623865 -1.02087 -1.99 -0.964155 -1.8526900000000002 -0.18905 -0.84973 -0.7562 -2.3243199999999997 -0.398 -2.15517 0.47262499999999996 -1.0198749999999999 -0.83182 -2.21089 -0.17014500000000002 -1.9661199999999999 0.623865 -0.88754 -0.6805800000000001 -1.8516949999999999 0 -1.549215 0.8129149999999999 -1.266635 -0.5482450000000001 -2.3253150000000002 0.398 -0.83182 1.8904999999999998 0.6427700000000001 0.6427700000000001 3.4397149999999996 2.7213249999999998 5.00883 5.34912 0.096515 -0.3780005 0.08756 -0.775105 -0.025671 -1.148429 -0.1133305 -0.3732245 -0.32675800000000005 -0.7083404999999999 -0.617099 -0.968931 -1.55021 -1.17211 -0.49152999999999997 -2.570085 0.49152999999999997 -1.606925 0.86963 0.850725 0.58705 -0.398 -0.037809999999999996 -1.5124 0.1294495 0.11163899999999999 0.284968 0.18895050000000002 0.45212800000000003 0.224671 0.16716 0.03582 0.340688 0.0289545 0.504465 -0.0199 0.1638765 -0.048854499999999995 0.3127285 -0.138106 0.43302399999999996 -0.259695 0.120196 -0.1214895 0.207955 -0.271237 0.255118 -0.435611 0.123977 0.0936295 0.266859 0.1592 0.418696 0.19193549999999998 0.1519365 0.0327355 0.30904699999999996 0.032039 0.460685 -0.002189 0.1515385 -0.034228 0.2938235 -0.10099250000000001 0.41690499999999997 -0.195816 0.12308150000000001 -0.09482349999999999 0.2239745 -0.215318 0.29571400000000003 -0.3531255 0.6965 0.490535 1.644735 0.18905 1.682545 -0.5482450000000001 -0.41989 -0.72038 -0.8925150000000001 -1.51439 -1.384045 -2.3253150000000002Z" stroke-width="1"></path><path id="Vector_17" fill="#000000" d="m51.640499999999996 91.22160000000001 -1.3790699999999998 1.77707c-0.18905 -0.7363 -0.3781 -1.4556850000000001 -0.586055 -2.154175 0.639785 0.11343 1.965125 0.377105 1.965125 0.377105Z" stroke-width="1"></path><path id="Vector_18" fill="#000000" d="M32.35541 86.55306c-0.006567 0.165966 -0.077013 0.322977 -0.196811 0.4380985 -0.1196985 0.1151215 -0.279396 0.1793985 -0.4454615 0.1793985s-0.325763 -0.064277 -0.4454615 -0.1793985c-0.1196985 -0.1151215 -0.190244 -0.2721325 -0.196811 -0.4380985 0.006567 -0.165966 0.0771125 -0.322977 0.196811 -0.4380985 0.1196985 -0.1151215 0.279396 -0.1793985 0.4454615 -0.1793985s0.325763 0.064277 0.4454615 0.1793985c0.11979799999999999 0.1151215 0.190244 0.2721325 0.196811 0.4380985Z" stroke-width="1"></path><path id="Vector_19" fill="#000000" d="M40.97609 80.88156c0 0.1704435 -0.06766 0.333922 -0.188254 0.454516 -0.1204945 0.1204945 -0.28407249999999995 0.188254 -0.454516 0.188254s-0.333922 -0.0677595 -0.454516 -0.188254c-0.1204945 -0.120594 -0.188254 -0.28407249999999995 -0.188254 -0.454516s0.0677595 -0.333922 0.188254 -0.454516c0.120594 -0.1204945 0.28407249999999995 -0.188254 0.454516 -0.188254s0.33402149999999997 0.0677595 0.454516 0.188254c0.120594 0.120594 0.188254 0.28407249999999995 0.188254 0.454516Z" stroke-width="1"></path><path id="Vector_20" fill="#000000" d="M49.237575 87.19583c0 0.1704435 -0.0677595 0.333922 -0.188254 0.454516 -0.1204945 0.1204945 -0.28407249999999995 0.188254 -0.454516 0.188254s-0.333922 -0.0677595 -0.454516 -0.188254c-0.1204945 -0.120594 -0.188254 -0.28407249999999995 -0.188254 -0.454516s0.0677595 -0.333922 0.188254 -0.454516c0.120594 -0.1204945 0.28407249999999995 -0.188254 0.454516 -0.188254s0.33402149999999997 0.0677595 0.454516 0.188254c0.1204945 0.120594 0.188254 0.28407249999999995 0.188254 0.454516Z" stroke-width="1"></path><path id="Vector_21" fill="#000000" d="M60.50396 88.991805c0 0.1704435 -0.0677595 0.333922 -0.188254 0.454516 -0.120594 0.1204945 -0.28407249999999995 0.188254 -0.454516 0.188254s-0.333922 -0.0677595 -0.454516 -0.188254c-0.1204945 -0.120594 -0.188254 -0.28407249999999995 -0.188254 -0.454516s0.0677595 -0.333922 0.188254 -0.454516c0.120594 -0.1204945 0.28407249999999995 -0.188254 0.454516 -0.188254s0.333922 0.0677595 0.454516 0.188254c0.1204945 0.120594 0.188254 0.28407249999999995 0.188254 0.454516Z" stroke-width="1"></path><path id="Vector_22" fill="#000000" d="M66.3665 79.161205c0 0.1704435 -0.0677595 0.333922 -0.188254 0.454516 -0.120594 0.1204945 -0.28407249999999995 0.188254 -0.454516 0.188254s-0.333922 -0.0677595 -0.454516 -0.188254c-0.1204945 -0.120594 -0.188254 -0.28407249999999995 -0.188254 -0.454516s0.0677595 -0.333922 0.188254 -0.454516c0.120594 -0.1204945 0.28407249999999995 -0.188254 0.454516 -0.188254s0.333922 0.0677595 0.454516 0.188254c0.1204945 0.120594 0.188254 0.28407249999999995 0.188254 0.454516Z" stroke-width="1"></path><path id="Vector_23" fill="#000000" d="M77.32841499999999 79.02887c0 0.1704435 -0.06766 0.333922 -0.188254 0.454516 -0.1204945 0.1204945 -0.28407249999999995 0.188254 -0.454516 0.188254s-0.333922 -0.0677595 -0.454516 -0.188254c-0.1204945 -0.120594 -0.188254 -0.28407249999999995 -0.188254 -0.454516s0.0677595 -0.333922 0.188254 -0.454516c0.120594 -0.1204945 0.28407249999999995 -0.188254 0.454516 -0.188254s0.33402149999999997 0.0677595 0.454516 0.188254c0.120594 0.120594 0.188254 0.28407249999999995 0.188254 0.454516Z" stroke-width="1"></path><path id="Vector_24" fill="#000000" d="M81.033795 70.31466c0 0.1704435 -0.06766 0.333922 -0.188254 0.454516 -0.1204945 0.1204945 -0.28407249999999995 0.188254 -0.454516 0.188254s-0.333922 -0.0677595 -0.454516 -0.188254c-0.1204945 -0.120594 -0.188254 -0.28407249999999995 -0.188254 -0.454516s0.0677595 -0.333922 0.188254 -0.454516c0.120594 -0.1204945 0.28407249999999995 -0.188254 0.454516 -0.188254s0.33402149999999997 0.0677595 0.454516 0.188254c0.120594 0.120594 0.188254 0.28407249999999995 0.188254 0.454516Z" stroke-width="1"></path><path id="Vector_25" fill="#000000" d="M55.758805 97.819445c0 0.1704435 -0.0677595 0.33402149999999997 -0.188254 0.454516 -0.1204945 0.1204945 -0.28407249999999995 0.188254 -0.454516 0.188254s-0.333922 -0.0677595 -0.454516 -0.188254c-0.1204945 -0.1204945 -0.188254 -0.28407249999999995 -0.188254 -0.454516s0.0677595 -0.333922 0.188254 -0.454516c0.120594 -0.1204945 0.28407249999999995 -0.188254 0.454516 -0.188254s0.33402149999999997 0.0677595 0.454516 0.188254c0.1204945 0.120594 0.188254 0.28407249999999995 0.188254 0.454516Z" stroke-width="1"></path><path id="Vector_26" fill="#000000" d="M65.72174000000001 97.176675c0 0.1704435 -0.0677595 0.333922 -0.188254 0.454516 -0.1204945 0.1204945 -0.28407249999999995 0.188254 -0.454516 0.188254s-0.333922 -0.0677595 -0.454516 -0.188254c-0.1204945 -0.120594 -0.188254 -0.28407249999999995 -0.188254 -0.454516s0.0677595 -0.33402149999999997 0.188254 -0.454516c0.120594 -0.120594 0.28407249999999995 -0.188254 0.454516 -0.188254s0.33402149999999997 0.06766 0.454516 0.188254c0.1204945 0.1204945 0.188254 0.28407249999999995 0.188254 0.454516Z" stroke-width="1"></path><path id="Vector_27" fill="#000000" d="M176.253305 77.97018999999999c-0.661675 0.037809999999999996 -1.833785 0.094525 -2.098455 0.11343 0.49152999999999997 -1.56812 1.36315 -1.58802 2.098455 -0.11343Z" stroke-width="1"></path><path id="Vector_28" fill="#000000" d="M176.85826500000002 87.04459c-0.47262499999999996 1.2855400000000001 -1.24773 1.342255 -1.909405 0.15123999999999999 0.5482450000000001 -0.03383 1.2099199999999999 -0.094525 1.909405 -0.15123999999999999Z" stroke-width="1"></path><path id="Vector_29" fill="#000000" d="M107.31075 65.57050000000001c0 0.1704435 -0.06766 0.333922 -0.188055 0.454516 -0.120395 0.1204945 -0.28457 0.188254 -0.45471500000000004 0.188254 -0.17014500000000002 0 -0.33432 -0.0677595 -0.45471500000000004 -0.188254 -0.120395 -0.120594 -0.188055 -0.28407249999999995 -0.188055 -0.454516s0.06766 -0.333922 0.188055 -0.454516c0.120395 -0.1204945 0.28457 -0.188254 0.45471500000000004 -0.188254 0.17014500000000002 0 0.33432 0.0677595 0.45471500000000004 0.188254 0.120395 0.120594 0.188055 0.28407249999999995 0.188055 0.454516Z" stroke-width="1"></path><path id="Vector_30" fill="#000000" d="M171.82953500000002 80.44674499999999c-0.006965 0.165966 -0.076615 0.322977 -0.19701000000000002 0.4380985 -0.11939999999999999 0.1151215 -0.27959500000000004 0.1793985 -0.444765 0.1793985 -0.166165 0 -0.32636000000000004 -0.064277 -0.44576 -0.1793985 -0.120395 -0.1151215 -0.190045 -0.2721325 -0.19701000000000002 -0.4380985 0.006965 -0.165966 0.076615 -0.322977 0.19701000000000002 -0.4380985 0.11939999999999999 -0.1151215 0.27959500000000004 -0.1793985 0.44576 -0.1793985 0.16517 0 0.325365 0.064277 0.444765 0.1793985 0.120395 0.1151215 0.190045 0.2721325 0.19701000000000002 0.4380985Z" stroke-width="1"></path><path id="Vector_31" fill="#000000" d="M156.725435 122.82976500000001c-0.0059700000000000005 -1.08654 -0.06865500000000001 -2.1720849999999996 -0.18905 -3.2516599999999998l5.463545 -5.06654 -5.274495 8.3182Z" stroke-width="1"></path></g><g id="outlines"><path id="Vector_32" stroke="#000000" stroke-linecap="round" stroke-linejoin="round" d="M103.56756 148.53957c-7.3848899999999995 0.922365 -14.883011 0.126365 -21.9099 -2.3253150000000002" stroke-width="1"></path><path id="Vector_33" stroke="#000000" stroke-linecap="round" stroke-linejoin="round" d="M141.432285 119.8975c-4.556105 10.67038 -12.832515 19.3229 -23.289965 24.348645" stroke-width="1"></path><path id="Vector_34" stroke="#000000" stroke-linecap="round" stroke-linejoin="round" d="M144.45708499999998 92.639475c0.41889499999999996 2.259247 0.66466 4.547050499999999 0.737295 6.84361" stroke-width="1"></path><path id="Vector_35" stroke="#000000" stroke-linecap="round" stroke-linejoin="round" d="M104.98543500000001 54.075265c11.033555 1.7341855 21.104944999999997 7.2956385 28.450035 15.710054999999999" stroke-width="1"></path><path id="Vector_36" stroke="#000000" stroke-linecap="round" stroke-linejoin="round" d="M93.51010000000001 53.659355000000005c2.1514885 -0.1728315 4.311932 -0.20447249999999997 6.4675 -0.094525 0.3781 0.0199 0.775105 0.037809999999999996 1.153205 0.07561999999999999" stroke-width="1"></path><path id="Vector_37" stroke="#000000" stroke-linecap="round" stroke-linejoin="round" d="M59.78557 71.977305c7.039227 -9.0878325 17.1214625 -15.330363 28.394315 -17.580655" stroke-width="1"></path><path id="Vector_38" stroke="#000000" stroke-linecap="round" stroke-linejoin="round" d="M49.86144 103.54766c-0.077212 -1.59996 -0.0709435 -3.202905 0.018904999999999998 -4.801869999999999 0.090744 -1.703042 0.2673565 -3.400313 0.52934 -5.085445" stroke-width="1"></path><path id="Vector_39" stroke="#000000" stroke-linecap="round" stroke-linejoin="round" d="M71.808155 141.412385c-5.472699 -3.5093650000000003 -10.1741735 -8.094325 -13.81856 -13.47827" stroke-width="1"></path><path id="Vector_40" stroke="#000000" stroke-linecap="round" stroke-linejoin="round" d="M135.59063999999998 74.775245c0.550235 -0.0166165 1.0954949999999999 -0.099102 1.6258299999999999 -0.24576499999999998l-1.9661199999999999 1.871595" stroke-width="1"></path><path id="Vector_41" stroke="#000000" stroke-linecap="round" stroke-linejoin="round" d="m184.85508 79.8985 3.724285 -1.70145c2.36213 -1.077585 2.388 -2.22681 -0.434815 -1.32335 -0.17114 0.054725 -4.367055000000001 1.302455 -5.02873 1.3989699999999998 -0.510435 0.074625 -1.393 0.150245 -1.4925 -0.18905 -0.379095 -1.2935 1.194 -4.78794 0.094525 -5.1421600000000005 -0.717395 -0.22984500000000002 -1.943235 2.0248250000000003 -2.7223200000000003 3.648665 -0.5452600000000001 1.1362899999999998 -1.4925 1.32335 -2.741225 1.380065" stroke-width="1"></path><path id="Vector_42" stroke="#000000" stroke-linecap="round" stroke-linejoin="round" d="M184.1745 79.97412s5.6715 -0.6965 6.0496 -0.7562c2.94719 -0.428845 2.741225 0.6835650000000001 0.22686 1.380065 -2.4009349999999996 0.66466 -5.2934 1.4925 -5.2934 1.4925" stroke-width="1"></path><path id="Vector_43" stroke="#000000" stroke-linecap="round" stroke-linejoin="round" d="M184.1745 82.072575c1.8606500000000001 0.055521 3.722295 0.0050745 5.576975 -0.15123999999999999 2.9670900000000002 -0.231835 2.645705 0.7562 0.132335 1.380065 -1.55021 0.423671 -3.13027 0.7333149999999999 -4.72625 0.9263450000000001" stroke-width="1"></path><path id="Vector_44" stroke="#000000" stroke-linecap="round" stroke-linejoin="round" d="M176.85826500000002 87.04459s4.102385 -0.26865 4.896395 -0.34029000000000004c1.53031 -0.1393 3.10241 -0.383075 4.631725 -0.586055 0.52934 -0.070645 1.153205 -0.16716 1.871595 -0.2985 2.6486899999999998 -0.4975 3.04271 -1.4805599999999999 0.037809999999999996 -1.3989699999999998 -1.612895 0.038407000000000004 -3.2247950000000003 -0.1139275 -4.801869999999999 -0.45372" stroke-width="1"></path><path id="Vector_45" stroke="#000000" stroke-linecap="round" stroke-linejoin="round" d="M184.06107 79.06668c0.287555 2.354767 -0.225865 4.7376925 -1.4556850000000001 6.766" stroke-width="1"></path><path id="Vector_46" stroke="#000000" stroke-linecap="round" stroke-linejoin="round" d="M181.83028 79.02887c-0.44377 1.1732045 -1.12634 2.2411380000000003 -2.00592 3.13624 -0.878585 0.8950024999999999 -1.9332850000000001 1.597373 -3.09843 2.0626349999999998" stroke-width="1"></path><path id="Vector_47" stroke="#000000" stroke-linecap="round" stroke-linejoin="round" d="M145.527705 89.680345c-0.132335 0.3781 -0.26467 0.775105 -0.41591 1.194 -0.9830599999999999 -0.661675 -1.81687 -1.089525 -2.098455 -1.32335 0.850725 0.034825 1.682545 0.09154 2.514365 0.12935Z" stroke-width="1"></path><path id="Vector_48" stroke="#000000" stroke-linecap="round" stroke-linejoin="round" d="m126.403805 87.517215 2.060645 -2.968085c-0.5353100000000001 1.1694235 -0.8139099999999999 2.4401379999999997 -0.8159 3.7262750000000002" stroke-width="1"></path><path id="Vector_49" stroke="#000000" stroke-linecap="round" stroke-linejoin="round" d="M133.2305 78.29157500000001c0.6835650000000001 0 1.5671249999999999 -0.58705 2.0228349999999997 -1.8904999999999998 0.18308 -0.5248625 0.29750499999999996 -1.071416 0.34029000000000004 -1.6258299999999999 -1.77707 0.018904999999999998 -4.0596 -0.8955 -1.47459 -6.71028 0.5562050000000001 -1.24972 1.6357799999999998 -3.161115 2.97704 -2.868585 1.3044449999999999 0.28556499999999996 2.199945 2.59496 2.0895 4.0794999999999995 -0.044774999999999995 0.637795 0.398 0.48158 0.922365 0.108455 1.46464 -1.04674 2.49546 1.45469 -0.24576499999999998 2.6268000000000002 -0.182085 0.199995 -0.3184 0.4378 -0.398 0.6965 -0.707445 2.985 -0.73232 5.443645 2.2685999999999997 6.12522" stroke-width="1"></path><path id="Vector_50" stroke="#000000" stroke-linecap="round" stroke-linejoin="round" d="M135.8175 65.57050000000001c3.81881 -3.724285 15.16181 -10.265415 13.6116 -2.627795 0 0 8.391829999999999 -7.220714999999999 11.493245 -4.6506300000000005 3.0845000000000002 2.5531699999999997 -8.790825000000002 16.2384 -21.512895 18.84729" stroke-width="1"></path><path id="Vector_51" stroke="#000000" stroke-linecap="round" stroke-linejoin="round" d="M175.93192 88.06546c-2.237755 0 -3.1153449999999996 -11.015645 -0.850725 -11.191759999999999 -12.139 1.2935 -24.72774 3.3183249999999997 -33.346430000000005 1.9472150000000001 -2.9989299999999997 3.6981165 -5.445635 7.811844499999999 -7.2635 12.212629999999999 -1.1542 -4.1422845 -1.57409 -8.454813499999998 -1.2407650000000001 -12.741969999999998 -1.624835 -0.132335 -19.357725 -11.89025 -26.824205 -16.257305 -1.618865 1.095097 -2.997935 2.507599 -4.05363 4.1518365 -1.0566900000000001 1.644138 -1.76712 3.4857834999999997 -2.0904949999999998 5.413098499999999l27.389365 16.6762c-0.006965 0.305465 0 0.625855 0.016915 0.968135 0.14029499999999998 2.53526 1.1104200000000002 6.146115 3.841695 11.9599 3.378025 1.0079349999999998 8.613715 -0.8477399999999999 11.75891 -2.665605 -0.199 -2.763115 1.4109099999999999 -6.248600000000001 2.261635 -8.855500000000001 10.169895 0.46466500000000005 19.882089999999998 -0.341285 30.401229999999998 -1.616875Z" stroke-width="1"></path><path id="Vector_52" stroke="#000000" stroke-linecap="round" stroke-linejoin="round" d="m131.52606500000002 101.20344 -16.332925 17.486130000000003c-2.9501749999999998 3.1511649999999998 -5.10236 6.963010000000001 -6.2754650000000005 11.11614l-6.1063149999999995 21.341755000000003c1.68553 1.48852 3.7053800000000003 2.5472 5.889405 3.0845000000000002 2.18303 0.5373 4.464565 0.5373 6.647595 0l6.2684999999999995 -22.70789c18.549785 -16.236410000000003 15.371755 -13.461355 17.429415 -15.236435l10.114175 15.40658c0.594015 0.90346 1.3770799999999999 1.666625 2.29447 2.23875 0.918385 0.5711299999999999 1.94821 0.93729 3.0218149999999997 1.071615 1.07261 0.13532 2.16114 0.03582 3.1919600000000004 -0.291535 1.03082 -0.32636000000000004 1.97806 -0.872615 2.7770449999999998 -1.600955l19.11196 -17.448320000000002c-0.502475 -2.16711 -1.50842 -4.184970000000001 -2.936245 -5.8904 -1.42683 -1.70543 -3.236735 -3.0506699999999998 -5.28146 -3.92627l-14.80759 13.731s-2.552175 -16.84336 -13.28922 -21.04027" stroke-width="1"></path><path id="Vector_53" stroke="#000000" stroke-linecap="round" stroke-linejoin="round" d="m137.537855 117.59308 -1.32335 -5.6147849999999995 2.83575 4.31034" stroke-width="1"></path><path id="Vector_54" stroke="#000000" stroke-linecap="round" stroke-linejoin="round" d="M104.002375 152.054905c-0.745255 4.00985 -1.8855250000000001 7.935124999999999 -3.4029 11.7211 -1.439765 3.24967 -2.568095 6.160045 -2.15517 6.65456 1.4467299999999998 1.7303050000000002 6.368 -5.744135 10.01965 -7.656525 0.86963 -0.43183 1.6477199999999999 -1.0288300000000001 2.2885 -1.758165 1.282555 -1.51439 0.566155 -3.270565 2.05965 -6.4277" stroke-width="1"></path><path id="Vector_55" stroke="#000000" stroke-linecap="round" stroke-linejoin="round" d="M178.786575 113.339455c3.13027 -2.66461 6.412775 -5.145145 9.8306 -7.42867 2.9670900000000002 -1.9671150000000002 5.481455 -3.81881 5.405835 -4.4426749999999995 -0.26765500000000003 -2.23079 -8.46745 1.384045 -12.551925 1.039775 -0.97112 -0.10149 -1.9521899999999999 -0.01791 -2.892465 0.24576499999999998 -1.8904999999999998 0.5711299999999999 -2.136265 2.363125 -5.10435 4.23472" stroke-width="1"></path><path id="Vector_56" stroke="#000000" stroke-linecap="round" stroke-linejoin="round" d="M99.86218000000001 59.8791c0 -4.179 3.24967 -11.96985 4.518295 -12.608640000000001 0.03383 -0.015323 0.070645 -0.0217905 0.106465 -0.018507 0.036815 0.0032835 0.07164 0.0160195 0.10248499999999999 0.037014 0.029849999999999998 0.021094 0.05373 0.049551 0.06965 0.082784 0.01592 0.033233 0.022885 0.070048 0.0199 0.10666400000000001 -0.434815 4.46357 -3.330265 12.087259999999999 0.7054549999999999 15.298125" stroke-width="1"></path><path id="Vector_57" stroke="#000000" stroke-linecap="round" stroke-linejoin="round" d="M100.750715 69.690795c-1.4556850000000001 -0.9830599999999999 -3.5093650000000003 -2.6865 -3.44071 -4.34815 0.190045 -4.5929199999999994 0.16119 -6.749085 0.17014500000000002 -8.563965 0.006965 -1.342255 1.0626600000000002 -1.38106 1.77707 0.9452499999999999 0.62685 2.0407450000000003 1.2855400000000001 4.9153 1.2855400000000001 4.9153" stroke-width="1"></path><path id="Vector_58" stroke="#000000" stroke-linecap="round" stroke-linejoin="round" d="M103.79442 52.77082c0.398 -0.661675 0.828835 -1.34325 1.001965 -1.624835 1.26365 -2.0556699999999997 1.7711000000000001 -1.5522 1.66364 -1.17211 -0.420885 1.48653 -1.43678 3.72329 -1.77707 5.103355 -0.50745 2.030795 -1.3711099999999998 4.86555 0.23879999999999998 7.27743" stroke-width="1"></path><path id="Vector_59" stroke="#000000" stroke-linecap="round" stroke-linejoin="round" d="M84.49341000000001 119.997s-3.762095 0.8129149999999999 -8.847539999999999 1.43678" stroke-width="1"></path><path id="Vector_60" stroke="#000000" stroke-linecap="round" stroke-linejoin="round" d="M49.804725 103.642185c0.491331 -0.818885 1.1399715 -1.5323 1.90841 -2.098455v0.07561999999999999c6.08741 0.86963 10.66242 0.83182 15.38867 -0.398 -0.06726199999999999 1.274595 -0.282978 2.53725 -0.6427700000000001 3.762095 5.7458265 -0.132335 11.505185 0.024875 17.278174999999997 0.47262499999999996 1.351807 0.104475 2.664411 0.502475 3.8463715 1.167135 1.1819605 0.6636650000000001 2.2046215 1.57807 2.9966415 2.6785400000000004 0.7920200000000001 1.10047 1.3341954999999999 2.3611350000000004 1.588816 3.6924449999999998 0.2546205 1.33131 0.215517 2.70242 -0.11462399999999999 4.01781 -2.189398 9.260465 -4.8903255 18.392575 -8.090345000000001 27.35454 -4.280092 0.7094349999999999 -8.669634 -0.243775 -12.269345 -2.665605 0.9407725 -6.82172 2.253476 -13.586725 3.9322399999999997 -20.265165 -5.708315 0.6965 -14.19467 1.336285 -19.9995 -0.26467 -3.4397149999999996 -0.9482349999999999 -6.243625000000001 -2.9282850000000002 -7.4625 -6.295365 -1.392005 -3.8207999999999998 -0.138305 -8.455509999999999 1.6397599999999999 -11.23355Z" stroke-width="1"></path><path id="Vector_61" stroke="#000000" stroke-linecap="round" stroke-linejoin="round" d="M66.47794 105.00334500000001c-0.9452499999999999 0.018904999999999998 -1.871595 0.056715 -2.7979399999999996 0.094525" stroke-width="1"></path><path id="Vector_62" stroke="#000000" stroke-linecap="round" stroke-linejoin="round" d="m61.092999999999996 122.03475999999999 -7.3033 13.895175c-0.6679435 1.26962 -1.5972735 2.38402 -2.7267975 3.2685750000000002 -1.129524 0.8855500000000001 -2.4336705 1.521355 -3.826571 1.865625 -1.3929004999999999 0.345265 -2.8430135 0.391035 -4.2549185 0.134325 -1.4118055 -0.255715 -2.7534635 -0.8079400000000001 -3.9366179999999997 -1.6198599999999999l-17.634384999999998 -12.0793c1.5522 -5.167034999999999 3.672545 -8.534115 7.8983099999999995 -11.162904999999999l13.954875 8.934104999999999 4.9153 -10.397749999999998" stroke-width="1"></path><path id="Vector_63" stroke="#000000" stroke-linecap="round" stroke-linejoin="round" d="m52.223569999999995 119.71043999999999 7.202805 5.501355" stroke-width="1"></path><path id="Vector_64" stroke="#000000" stroke-linecap="round" stroke-linejoin="round" d="m58.443315 78.04581 -2.2685999999999997 -1.55021c0.6533169999999999 0.07313249999999999 1.311609 0.0920375 1.96811 0.056715" stroke-width="1"></path><path id="Vector_65" stroke="#000000" stroke-linecap="round" stroke-linejoin="round" d="M62.678035 78.518435c-0.34029000000000004 0.207955 -0.6805800000000001 0.398 -1.02087 0.6049599999999999 -0.369543 0.290341 -0.8268449999999999 0.44665550000000004 -1.2967834999999999 0.44317300000000004 -0.470038 -0.0033829999999999997 -0.924952 -0.16636399999999998 -1.2902164999999999 -0.462078 -0.579488 -0.7264495 -0.9042560000000001 -1.6231435 -0.924355 -2.552175 3.04072 -0.17810499999999999 3.226785 -2.22283 -0.209945 -8.279395 -0.03582 0.176314 -0.11780800000000001 0.3399915 -0.23750649999999998 0.47431650000000003 -0.1196985 0.1342255 -0.27292849999999996 0.234422 -0.443969 0.290142 -0.17114 0.05572 -0.3539215 0.065073 -0.5297379999999999 0.027063999999999998 -0.17591600000000002 -0.0379095 -0.338499 -0.1218875 -0.4713315 -0.2432775 -0.0679585 0.141489 -0.1670605 0.2657645 -0.2898435 0.363573 -0.12278299999999999 0.09780849999999999 -0.2661625 0.166563 -0.41929299999999997 0.2010895 -0.1531305 0.0345265 -0.312032 0.034029000000000004 -0.4649635 -0.001592 -0.1529315 -0.035521500000000004 -0.29571400000000003 -0.105271 -0.4179 -0.2038755 -0.0472625 0.1642745 -0.1350215 0.3139225 -0.255317 0.43541199999999997 -0.120196 0.1214895 -0.26904799999999995 0.21074099999999998 -0.4327255 0.259695 -0.163777 0.048954 -0.3372055 0.055918999999999996 -0.5043655 0.020397500000000002 -0.16716 -0.035621 -0.3226785 -0.112634 -0.452327 -0.2239745 0.6427700000000001 1.1144 0.90744 2.36213 0.037809999999999996 1.5114049999999999 -0.9830599999999999 -0.96316 -2.04174 0.45372 -0.490535 1.60792 0.290341 0.260292 0.5037685 0.595209 0.617099 0.9683339999999999s0.122186 0.7702295 0.025671 1.148031c0.8968929999999999 1.3083255 1.2553915 2.911768 1.00097 4.4775 -0.17014500000000002 0.796 -1.3044449999999999 1.417875 -2.6865 1.05868 1.648715 2.962115 5.041665 5.6914 8.341085 4.52526 3.630755 -1.278575 2.81585 -6.450584999999999 2.81585 -6.450584999999999Z" stroke-width="1"></path><path id="Vector_66" stroke="#000000" stroke-linecap="round" stroke-linejoin="round" d="M86.16699999999999 62.9835c4.669535 -3.531255 4.85361 -10.997735 4.85361 -16.35183 0 -0.17014500000000002 0.24477 -0.398 0.377105 -0.2985 1.181065 0.76814 2.75217 8.729135 2.37407 12.918085" stroke-width="1"></path><path id="Vector_67" stroke="#000000" stroke-linecap="round" stroke-linejoin="round" d="M91.525075 69.33160000000001c1.3395685 -0.539489 2.4491925 -1.5288175 3.13823 -2.7979399999999996 1.4394665 -3.2039 1.9433345 -6.7495825 1.453695 -10.227605 -0.25671 -1.51041 -1.04077 -1.380065 -1.720355 0.90744 -0.605955 2.04174 -1.55021 4.782965000000001 -1.55021 4.782965000000001" stroke-width="1"></path><path id="Vector_68" stroke="#000000" stroke-linecap="round" stroke-linejoin="round" d="M86.088395 62.933749999999996c1.30146 -1.592 2.5263050000000002 -4.417800000000001 2.46959 -5.909305 -0.1527325 -1.6721970000000002 -0.4436705 -3.328872 -0.86963 -4.95311 -0.08557 -0.398 0.410935 -0.92734 1.8526900000000002 1.791" stroke-width="1"></path><path id="Vector_69" stroke="#000000" stroke-linecap="round" stroke-linejoin="round" d="M68.48186999999999 87.176925c-0.070645 -0.838188 -0.19064199999999998 -1.671401 -0.359195 -2.49546L69.61318499999999 86.565" stroke-width="1"></path><path id="Vector_70" stroke="#000000" stroke-linecap="round" stroke-linejoin="round" d="M67.12071 101.22234499999999h0.018904999999999998c0.8129149999999999 -4.801869999999999 1.70145 -9.660454999999999 1.342255 -14.04542 7.549065 -3.9601 17.14385 -11.636525 23.084 -16.862265 0.6736150000000001 -0.6736150000000001 -1.68553 -3.656625 -2.33427 -4.42178 -0.665655 -0.7850550000000001 -3.2685750000000002 -3.6755299999999997 -4.18696 -3.21584 -6.9392295 5.965423 -14.421032499999999 11.268972 -22.3477 15.841394999999999" stroke-width="1"></path><path id="Vector_71" stroke="#000000" stroke-linecap="round" stroke-linejoin="round" d="M82.054665 144.60733c-0.487152 1.929305 -0.85968 3.88647 -1.115395 5.86055 -2.9582345 -1.937265 -5.545135 -4.38994 -7.63762 -7.240615 0.0757195 -0.16517 0.138902 -0.33531500000000003 0.18905 -0.510435" stroke-width="1"></path><path id="Vector_72" stroke="#000000" stroke-linecap="round" stroke-linejoin="round" d="M73.28274499999999 150.444c-0.6094375000000001 -1.139275 -1.0667395 -2.3531750000000002 -1.360165 -3.610855 -0.321584 0.76018 -0.4906345 1.5760800000000001 -0.4975 2.40193 0.237805 1.177085 0.652123 2.311385 1.228825 3.364095 1.9472150000000001 3.62976 3.8944300000000003 11.229569999999999 5.2934 11.135045 0.207955 -0.018904999999999998 0.434815 -0.41591 0.661675 -1.077585 -1.48852 -1.73528 -3.397925 -8.673415 -5.326235 -12.212629999999999Z" stroke-width="1"></path><path id="Vector_73" stroke="#000000" stroke-linecap="round" stroke-linejoin="round" d="M73.28274499999999 143.24617c-0.43382 1.24773 -0.9830599999999999 2.49546 -1.360165 3.590955 0.2934255 1.25768 0.7507275 2.47158 1.360165 3.610855 1.909405 3.535235 3.81881 10.47337 5.33121 12.212629999999999 0.83182 -2.476555 1.720355 -8.695305000000001 2.30641 -12.193725 -2.9506725 -1.939255 -5.53618 -4.382975 -7.63762 -7.220714999999999v0Z" stroke-width="1"></path><path id="Vector_74" stroke="#000000" stroke-linecap="round" stroke-linejoin="round" d="M22.223325 125.098365c-1.6683165 -0.9412699999999999 -3.391756 -1.78105 -5.161065000000001 -2.514365 2.6493865 -2.339245 5.69737 -4.18298 8.99878 -5.444640000000001 0.510435 0.34029000000000004 0.586055 0.47262499999999996 1.077585 0.7562" stroke-width="1"></path><path id="Vector_75" stroke="#000000" stroke-linecap="round" stroke-linejoin="round" d="M20.786544999999997 113.755365c-1.1985769999999998 -0.08954999999999999 -2.4038205 0.0059700000000000005 -3.573045 0.28457 -4.00786 0.92535 -11.87135495 0.7741100000000001 -12.13900995 2.154175 -0.037809999999999996 0.207955 0.28357499999999997 0.52934 0.850725 0.9263450000000001 2.060645 -1.001965 9.26246495 -1.001965 13.21360995 -1.8904999999999998 1.2565855 -0.29551499999999997 2.5480955 -0.41690499999999997 3.837715 -0.35819999999999996 -0.646949 -0.516405 -1.392005 -0.896495 -2.189995 -1.11639v0Z" stroke-width="1"></path><path id="Vector_76" stroke="#000000" stroke-linecap="round" stroke-linejoin="round" d="M22.96062 114.851855c-1.2896195 -0.056715 -2.5809305 0.064675 -3.837715 0.359195 -3.9322399999999997 0.90744 -11.13405995 0.90744 -13.19470495 1.909405 2.15517 1.47459 7.920209949999999 3.9889550000000003 11.13405995 5.463545 2.656849 -2.343225 5.7106035 -4.193925 9.017685 -5.463545 -1.115395 -0.7562 -2.174075 -1.606925 -3.119325 -2.2685999999999997Z" stroke-width="1"></path><path id="Vector_77" stroke="#000000" stroke-linecap="round" stroke-linejoin="round" d="M10.956940000000001 87.80079c-0.71839 0.24576499999999998 -1.64573995 0.52735 -2.58700995 0.8129149999999999 -1.740255 0.52536 -2.3820300000000003 0.207955 -0.6427700000000001 -0.9830599999999999 1.6444564 -1.116589 3.4589284499999997 -1.959354 5.37300995 -2.49546" stroke-width="1"></path><path id="Vector_78" stroke="#000000" stroke-linecap="round" stroke-linejoin="round" d="M14.831470000000001 82.942205c-0.5249619999999999 0.512624 -1.0000745000000002 1.0740029999999998 -1.4188699999999999 1.6765750000000001 -0.7516229999999999 1.1260415 -1.2599685 2.396557 -1.4925 3.730255" stroke-width="1"></path><path id="Vector_79" stroke="#000000" stroke-linecap="round" stroke-linejoin="round" d="M10.295264999999999 86.17496c-6.295374949999999 2.2118849999999997 -7.08540495 1.18007 -1.81488995 -1.228825 2.0335909500000002 -0.8705255 4.15055295 -1.531305 6.31825995 -1.97209" stroke-width="1"></path><path id="Vector_80" stroke="#000000" stroke-linecap="round" stroke-linejoin="round" d="M22.624309999999998 87.837605c-2.633765 -0.14726 -8.253525 0.834805 -12.329045 2.189 -1.77707995 0.586055 -2.72730495 0.199 -0.7562099499999999 -1.2855400000000001 0.83043695 -0.6207805 1.72036495 -1.1576825 2.65665995 -1.602945" stroke-width="1"></path><path id="Vector_81" stroke="#000000" stroke-linecap="round" stroke-linejoin="round" d="M11.712145000000001 83.736215c-2.11637495 0.49152999999999997 -6.94013495 0.67262 0.5671499999999999 -1.758165 1.17211 -0.379095 2.587 -0.6965 3.913335 -0.9830599999999999 0.0749235 -0.492923 -0.011343 -0.996791 -0.24576499999999998 -1.43678 -0.796 -1.3333000000000002 -0.52735 -1.87458 0.775105 -1.077585 1.6529935 1.1249470000000001 3.6157305 1.7065245 5.6147849999999995 1.66364" stroke-width="1"></path><path id="Vector_82" stroke="#000000" stroke-linecap="round" stroke-linejoin="round" d="M16.19263 80.99300000000001c-0.008357999999999999 0.49909200000000004 0.086366 0.994602 0.2783015 1.455486 0.19193549999999998 0.4607845 0.477003 0.8770924999999999 0.8372925 1.222656 0.36019 0.3455635 0.7879405 0.6130194999999999 1.2563864999999999 0.7857514999999999 0.4683465 0.1726325 0.967339 0.2466605 1.4657345000000002 0.2176065" stroke-width="1"></path><path id="Vector_83" stroke="#000000" stroke-linecap="round" stroke-linejoin="round" d="M57.93288 68.291825c-0.037809999999999996 0.737295 -0.9830599999999999 1.039775 -1.682545 0.5482450000000001 -0.07164 0.137907 -0.172533 0.2586005 -0.29551499999999997 0.353424 -0.12308150000000001 0.094923 -0.265466 0.16188650000000002 -0.41700449999999994 0.196015 -0.151638 0.034228 -0.308848 0.0349245 -0.4607845 0.0020894999999999998 -0.1519365 -0.0329345 -0.2948185 -0.09850500000000001 -0.418696 -0.1923335 -0.047362 0.16417500000000002 -0.1352205 0.31372350000000004 -0.25551599999999997 0.43511350000000004 -0.1202955 0.12139 -0.26914750000000004 0.210542 -0.4329245 0.2593965 -0.1636775 0.048854499999999995 -0.33710599999999996 0.05572 -0.5041665000000001 0.020099 -0.1670605 -0.035621 -0.322579 -0.1127335 -0.45212800000000003 -0.22407400000000002 0.623865 1.115395 0.90744 2.3641199999999998 0.037809999999999996 1.5124 -0.9830599999999999 -0.96316 -2.03776 0.43083499999999997 -0.49152999999999997 1.606925 0.290739 0.2601925 0.504465 0.5953085 0.617895 0.9686325 0.1133305 0.3734235 0.1218875 0.7707269999999999 0.024875 1.1487275000000001 -1.56812 -2.6268000000000002 -4.36606 -4.7063500000000005 -5.00883 -5.34912 -1.4925 -1.4925 -0.434815 -2.438745 0.83182 -1.8904999999999998 -0.2985 -0.8129149999999999 0.661675 -1.4925 1.549215 -0.8129149999999999 -0.24576499999999998 -0.796 0.946245 -1.4556850000000001 1.9661199999999999 -0.623865 -0.17014500000000002 -0.86963 1.3044449999999999 -1.228825 2.15517 -0.47262499999999996 -0.132335 -0.775105 1.23181 -0.8338099999999999 1.8526900000000002 0.18905 0.4975 0.8109249999999999 1.384045 2.3253150000000002 1.384045 2.3253150000000002Z" stroke-width="1"></path><path id="Vector_84" stroke="#000000" stroke-linecap="round" stroke-linejoin="round" d="M50.258445 92.99866999999999 51.640499999999996 91.22160000000001c-0.679585 -0.13134 -1.322355 -0.26467 -1.965125 -0.377105" stroke-width="1"></path><path id="Vector_85" stroke="#000000" stroke-linecap="round" stroke-linejoin="round" d="M51.525079999999996 80.44674499999999c-0.24576499999999998 -0.094525 -12.139 -3.1949449999999997 -28.848035 -1.592 -0.9061465 3.383796 -0.802368 6.958831 0.2985 10.284320000000001 8.934503 -0.7264495 17.927213499999997 -0.152235 26.696845 1.7044350000000001 1.065048 3.4822015 1.7493095 7.0695745 2.0407450000000003 10.699235" stroke-width="1"></path><path id="Vector_86" stroke="#000000" stroke-linecap="round" stroke-linejoin="round" d="M39.82288500000001 58.782610000000005c0.0442775 0.5122260000000001 -0.064277 1.026044 -0.3119325 1.47658 -0.247755 0.45043649999999996 -0.6233675 0.8173925 -1.079575 1.0545010000000001 -0.45620750000000004 0.237009 -0.9725130000000001 0.3334245 -1.4834455 0.27720700000000004 -0.5110319999999999 -0.056317 -0.9939055 -0.262879 -1.3875275 -0.5935175 -0.3937215 -0.330738 -0.6804804999999999 -0.7706274999999999 -0.8241585 -1.264247 -0.143678 -0.4936195 -0.1378075 -1.0187805 0.016915 -1.5090169999999998 0.154822 -0.490336 0.451332 -0.9236585 0.852317 -1.2454415 0.40098500000000004 -0.32168349999999996 0.8884355 -0.5174 1.4005619999999999 -0.562175 0.6868485 -0.057710000000000004 1.3686224999999999 0.1587025 1.8964699999999999 0.6020745 0.527748 0.443372 0.858685 1.0774854999999999 0.920375 1.7640354999999999v0Z" stroke-width="1"></path><path id="Vector_87" stroke="#000000" stroke-linecap="round" stroke-linejoin="round" d="M143.45512 148.91767h-8.185865" stroke-width="1"></path><path id="Vector_88" stroke="#000000" stroke-linecap="round" stroke-linejoin="round" d="M139.362685 153.01906v-8.203774999999998" stroke-width="1"></path><path id="Vector_89" stroke="#000000" stroke-linecap="round" stroke-linejoin="round" d="M28.656 78.46172c-0.9244545000000001 3.451456 -0.752618 7.1049964999999995 0.49152999999999997 10.454464999999999" stroke-width="1"></path><path id="Vector_90" stroke="#000000" stroke-linecap="round" stroke-linejoin="round" d="M81.49050000000001 65.66403c2.8415209999999997 1.9001515 5.1547965 4.4899375 6.723215 7.527175000000001" stroke-width="1"></path><path id="Vector_91" stroke="#000000" stroke-linecap="round" stroke-linejoin="round" d="M176.253305 77.97018999999999c-0.661675 0.037809999999999996 -1.833785 0.094525 -2.098455 0.11343 0.49152999999999997 -1.56812 1.36315 -1.58802 2.098455 -0.11343Z" stroke-width="1"></path><path id="Vector_92" stroke="#000000" stroke-linecap="round" stroke-linejoin="round" d="M176.85826500000002 87.04459c-0.47262499999999996 1.2855400000000001 -1.24773 1.342255 -1.909405 0.15123999999999999 0.5482450000000001 -0.03383 1.2099199999999999 -0.094525 1.909405 -0.15123999999999999Z" stroke-width="1"></path><path id="Vector_93" stroke="#000000" stroke-linecap="round" stroke-linejoin="round" d="M140.48703500000002 99.89800000000001c7.656525 5.373 9.751000000000001 12.00567 12.967835 23.7805 0.11243500000000001 0.410935 0.32835000000000003 0.78605 0.62685 1.0905200000000002 0.299495 0.303475 0.6706300000000001 0.52536 1.079575 0.645755 0.40894499999999995 0.11939999999999999 0.84177 0.132335 1.2566849999999998 0.037809999999999996 0.41591 -0.09552000000000001 0.79998 -0.29452 1.11639 -0.580085l17.98363 -16.29611" stroke-width="1"></path><path id="Vector_94" stroke="#000000" stroke-linecap="round" stroke-linejoin="round" d="m110.75146000000001 154.56927 6.52123 -24.99042 19.168675 -16.655305000000002" stroke-width="1"></path><path id="Vector_95" stroke="#000000" stroke-linecap="round" stroke-linejoin="round" d="M61.865120000000005 104.22824c-0.7232655 1.2248450000000002 -1.699261 2.2815350000000003 -2.863013 3.10042 -1.163752 0.8178899999999999 -2.4885945 1.3790699999999998 -3.886072 1.644735" stroke-width="1"></path><path id="Vector_96" stroke="#000000" stroke-linecap="round" stroke-linejoin="round" d="M72.7345 135.249355c1.9134845 1.380065 4.09343 2.3472049999999998 6.4011335 2.83973 2.307604 0.49152999999999997 4.69242 0.4975 7.0025115 0.016915" stroke-width="1"></path><path id="Vector_97" stroke="#000000" stroke-linecap="round" stroke-linejoin="round" d="M34.39715 119.599c-3.704385 2.49546 -6.0695 6.54113 -7.50429 11.641499999999999" stroke-width="1"></path><path id="Vector_98" stroke="#000000" stroke-linecap="round" stroke-linejoin="round" d="m161.99993 114.511565 -5.273499999999999 8.3182c-0.0059700000000000005 -1.08654 -0.06865500000000001 -2.1720849999999996 -0.18905 -3.2516599999999998" stroke-width="1"></path><path id="Vector_99" stroke="#000000" stroke-linecap="round" stroke-linejoin="round" d="M86.17296999999999 62.9835c2.70839 -2.04174 3.3680749999999997 -5.0745 3.4626 -7.833635 -0.19372650000000002 -1.929703 -0.5221760000000001 -3.8433865 -0.9830599999999999 -5.72722 -0.059699999999999996 -0.3781 0.47262499999999996 -0.83182 1.55021 1.342255l0.623865 1.35718" stroke-width="1"></path><path id="Vector_100" stroke="#000000" stroke-linejoin="round" d="M97.51796 28.308745000000002c-1.5152854999999998 0 -2.9965420000000003 0.449342 -4.2565105 1.2912115000000002 -1.259869 0.8418694999999999 -2.241934 2.038357 -2.8218199999999998 3.438322 -0.579886 1.3999650000000001 -0.731524 2.940424 -0.4359095 4.4266555 0.29561449999999995 1.486132 1.025248 2.8513715 2.0967635 3.9227875 1.0715155 1.0715155 2.4366555 1.8011490000000001 3.9227875 2.0967635 1.4862315 0.29571400000000003 3.0266905 0.1439765 4.426954 -0.4359095 1.3999650000000001 -0.579886 2.595955 -1.561951 3.437725 -2.8218199999999998 0.84177 -1.2599685 1.29151 -2.741225 1.29151 -4.2565105 0.00199 -1.0066415 -0.19502 -2.0037309999999997 -0.57909 -2.934056 -0.385065 -0.9304245 -0.9492299999999999 -1.7757764999999999 -1.660655 -2.4875 -0.7124199999999999 -0.711823 -1.557175 -1.2760875 -2.4875 -1.6604560000000002 -0.9303250000000001 -0.3843685 -1.9276135 -0.5812790000000001 -2.934255 -0.579488Z" stroke-width="1"></path><path id="Ellipse 1" stroke="#000000" stroke-linejoin="round" d="M96.77171 31.809155a0.74625 0.74625 0 1 0 1.4925 0 0.74625 0.74625 0 1 0 -1.4925 0" stroke-width="1"></path><path id="Vector 1" fill="#000000" d="M97.88312499999999 34.57625c0 -0.2060645 -0.1670605 -0.373125 -0.373125 -0.373125s-0.373125 0.1670605 -0.373125 0.373125h0.74625Zm-0.74625 6.1565625c0 0.2060645 0.1670605 0.373125 0.373125 0.373125s0.373125 -0.1670605 0.373125 -0.373125h-0.74625Zm0 -6.1565625v6.1565625h0.74625V34.57625h-0.74625Z" stroke-width="1"></path></g></g></svg>