<svg xmlns="http://www.w3.org/2000/svg" fill="none" viewBox="-0.5 -0.5 200 200" id="We-Are-Hiring--Streamline-Bangalore"><desc>We Are Hiring Streamline Illustration: https://streamlinehq.com</desc><g id="Work-We-are-hiring-01"><g id="color 2"><path id="Vector" fill="#000000" d="M121.53527 109.89974s-5.97597 -5.465535 -8.358 -10.39974c-1.77707 -3.648665 -4.102385 -7.976914999999999 -8.279395 -9.867415 -0.34924499999999997 -3.549961 -0.38705500000000004 -7.1237025 -0.11343 -10.68033 0.20596499999999998 -3.712345 -0.7064499999999999 -9.154 -1.99 -9.99975 -0.84177 -0.49551 -1.744235 -0.8769929999999999 -2.6865 -1.1342999999999999 0.66068 1.9636325000000001 1.179075 3.9725375 1.55021 6.010795000000001l-10.6465 0.28357499999999997c-0.339096 -2.0372624999999998 -0.851322 -4.0417895 -1.531305 -5.991890000000001 -0.9452499999999999 0.22686 -1.720355 0.398 -2.4198399999999998 0.6049599999999999 0.018904999999999998 0.11343 4.026764999999999 14.914055000000001 0.17014500000000002 12.759879999999999 0.7562 3.34519 2.060645 8.82764 2.7979399999999996 9.96194 -3.21385 20.812415 -7.182905 62.928774999999995 -7.939105 70.319635 4.2915345 1.841745 9.0762905 2.19497 13.5917 1.001965 0 0 5.5948850000000006 -43.042705 6.4675 -52.87231l14.00761 11.852440000000001c1.1900199999999999 1.01888 2.59098 1.76115 4.101389999999999 2.174075l20.45322 5.651599999999999c-3.716325 -1.0945 -0.58705 -14.297155 3.7053800000000003 -14.04542l-22.88102 -5.62971Z" stroke-width="1"></path><path id="Vector_2" fill="#000000" d="M28.037110000000002 99.367665v4.4426749999999995c0.000995 0.8268449999999999 0.329942 1.618865 0.9145045 2.203925 0.5845625 0.584065 1.3770799999999999 0.91341 2.2038255 0.914405h4.4775c0.0108455 -0.99898 -0.1784035 -1.99 -0.5567025 -2.914355 -0.3783985 -0.924355 -0.9379865 -1.764135 -1.6460285000000001 -2.4685949999999997 -0.7079425 -0.70446 -1.5499115 -1.260665 -2.4761569999999997 -1.634785 -0.9263450000000001 -0.37412 -1.918161 -0.558792 -2.916942 -0.54327Z" stroke-width="1"></path></g><g id="color 1"><path id="Vector_3" fill="#000000" d="M58.108 54.69913c-1.01689 -1.319768 -2.418447 -2.291286 -4.0111435 -2.780428 -1.5926965 -0.4890425 -3.2979274999999997 -0.47153049999999996 -4.8801765 0.050148 0.123977 -0.616104 0.118007 -1.2514115000000001 -0.017512 -1.8651275s-0.397602 -1.192408 -0.769533 -1.6989625c-0.6960025 -0.8583865 -1.700256 -1.410313 -2.7979399999999996 -1.5377725 -1.0976839999999999 -0.127559 -2.2016364999999998 0.1793985 -3.075943 0.855302 -0.8742070000000001 0.6759035 -1.449317 1.6671225 -1.602348 2.761523 -0.1529315 1.0944005 0.128355 2.2052185 0.7838609999999999 3.0949475 0.390438 0.4918285 0.8808735 0.895102 1.4388695 1.1833535 0.5579959999999999 0.288152 1.170717 0.454516 1.7978655 0.4882465 -0.901072 1.397975 -1.346633 3.0408195 -1.275391 4.702469499999999 0.0713415 1.6615505 0.655904 3.2602170000000004 1.6733909999999999 4.5759055 0.767344 0.8869429999999999 1.6748835 1.6422475 2.6865 2.235765 1.17211 -2.189 1.459665 -4.653614999999999 1.2855400000000001 -4.858585 -1.21788 -1.4248399999999999 0.056715 -2.759135 0.86963 -1.133305 0.41591 0.83182 0.9263450000000001 -0.623865 1.17211 -1.682545 1.2377799999999999 0.553419 2.5608315 0.8922165000000001 3.91234 1.001965 -0.132335 5.273499999999999 -1.569115 7.8445800000000006 -3.742195 5.632695 -0.043183 0.67461 -0.0241785 1.3517075 0.056715 2.0228349999999997 1.8131885 -0.115818 3.5590155 -0.731524 5.043655 -1.77906 1.6859279999999999 -1.3025544999999998 2.7859005 -3.221213 3.0581325 -5.3342945 0.2721325 -2.1130815 -0.305664 -4.2477545 -1.6064275000000001 -5.9350755Z" stroke-width="1"></path><path id="Vector_4" fill="#000000" d="M51.534034999999996 65.71974999999999c-0.350041 -0.37471699999999997 -0.6663515 -0.7795825 -0.9452499999999999 -1.2099199999999999 -0.0864655 0.5766025 -0.0412925 1.1652445 0.13223549999999998 1.7218475 0.173528 0.556603 0.47083400000000003 1.0667395 0.8697294999999999 1.4920025000000001 -0.07880400000000001 -0.6649585 -0.09780849999999999 -1.3355885 -0.056715 -2.00393Z" stroke-width="1"></path><path id="Vector_5" fill="#000000" d="M40.740275 82.771065c-0.9829605 0.479789 -1.992985 0.9023655 -3.0248 1.26564l2.383025 -4.120295c0.1314395 0.9682345 0.3461605 1.923335 0.641775 2.854655Z" stroke-width="1"></path><path id="Vector_6" fill="#000000" d="M92.19471 63.375530000000005c-0.056715 0.5482450000000001 -0.056715 1.2855400000000001 -0.07561999999999999 2.00393 -1.1342999999999999 0.11343 -2.816845 0.17014500000000002 -3.17604 -0.24576499999999998l-0.17014500000000002 -0.22686c0.510435 0.8129149999999999 1.985025 -0.207955 3.421805 -1.531305Z" stroke-width="1"></path><path id="Vector_7" fill="#000000" d="M75.99412000000001 80.275605c-0.510435 0.71839 -1.039775 1.4925 -1.60593 2.3253150000000002v-4.707345c0.462874 0.8404765 1.0002735 1.6376704999999998 1.60593 2.3820300000000003Z" stroke-width="1"></path><path id="Vector_8" fill="#000000" d="m102.15665 109.87785000000001 2.45765 2.07955 0.26467 -8.770925c-0.15123999999999999 1.965125 -2.7223200000000003 6.71028 -2.7223200000000003 6.691375Z" stroke-width="1"></path><path id="Vector_9" fill="#000000" d="M151.45691 118.232865c-3.7362249999999997 -0.199 -7.371955 21.250215 -2.7223200000000003 22.6462 4.441680000000001 0.24576499999999998 7.561005 -22.381529999999998 2.7223200000000003 -22.6462Z" stroke-width="1"></path><path id="Vector_10" fill="#000000" d="M142.76061 128.17589999999998c-1.1482299999999999 -0.5641649999999999 -2.371085 -0.9591799999999999 -3.63175 -1.1741 0.41591 2.741225 2.11935 3.461605 3.97204 1.47658 -0.11343 -0.094525 -0.207955 -0.18905 -0.34029000000000004 -0.30247999999999997Z" stroke-width="1"></path><path id="Vector_11" fill="#000000" d="M144.632205 115.548355c-0.38705500000000004 -0.05373 -0.7810750000000001 -0.010945 -1.147235 0.124375 -0.365165 0.13532 -0.6925199999999999 0.359195 -0.95122 0.651725 1.039775 0.2985 2.249695 0.603965 3.44071 0.868635 -0.07263499999999999 -0.36218 -0.23382499999999998 -0.7024699999999999 -0.46764999999999995 -0.98903 -0.23382499999999998 -0.28656 -0.534315 -0.51143 -0.874605 -0.655705Z" stroke-width="1"></path><path id="Vector_12" fill="#000000" d="M97.4304 53.4514c0.359195 -0.83182 -1.133305 -1.380065 -2.05965 -0.094525 0.3781 -0.7562 -1.2099199999999999 -1.3611600000000001 -2.04174 0.11343 0.24576499999999998 -0.71839 -1.194 -1.32335 -2.098455 0.32138500000000003 0.0995 -0.850725 -1.342255 -0.83182 -1.70145 0.6805800000000001 -0.22686 0.9452499999999999 -0.398 1.9661199999999999 -0.52934 2.7223200000000003 0.472227 0.2508395 0.965747 0.45959049999999996 1.47459 0.623865 -0.18905 1.92831 0.49152999999999997 2.04174 0.86963 1.3611600000000001 0.71839 -1.266635 2.15517 -0.24576499999999998 0.7562 1.70145 0.09253499999999999 0.0995 4.062585 4.30437 4.158105 4.40387 -2.381035 -2.7979399999999996 1.4556850000000001 -8.733115 2.703415 -10.774855 1.035795 -1.70145 -0.586055 -2.30641 -1.531305 -1.05868Z" stroke-width="1"></path><path id="Vector_13" fill="#000000" d="m17.980645000000003 115.832925 -7.354045 7.35305c-0.78605 0.78605 0.422875 2.004925 1.194 1.194l7.354045 -7.354045c0.158205 -0.158205 0.2470585 -0.373125 0.246959 -0.597 -0.0000995 -0.223875 -0.089152 -0.438795 -0.2474565 -0.597 -0.1583045 -0.158205 -0.3730255 -0.24676 -0.5969005 -0.24676 -0.2237755 0 -0.438397 0.08954999999999999 -0.596602 0.247755Z" stroke-width="1"></path><path id="Vector_14" fill="#000000" d="M155.53939499999998 80.21889c-0.094525 0.45372 -0.26467 1.3044449999999999 -0.434815 2.189l3.44071 -2.703415 -3.0058949999999998 0.5144150000000001Z" stroke-width="1"></path><path id="Vector_15" fill="#000000" d="M144.216295 68.347545c0.04179 0.224671 0.06766 0.45212800000000003 0.07561999999999999 0.6805800000000001l0.796 -1.077585 -0.87162 0.397005Z" stroke-width="1"></path><path id="Vector_16" fill="#000000" d="M158.26171499999998 54.625499999999995c-0.004975 -0.3222805 -0.126365 -0.6319245 -0.34228 -0.87162 -0.21492 -0.23979499999999998 -0.510435 -0.3935225 -0.82983 -0.432825 0.20695999999999998 -0.255118 0.31442 -0.5771995 0.30049 -0.9055495 -0.01393 -0.3284495 -0.14726 -0.6404815 -0.37412 -0.8774905000000001 -0.227855 -0.237009 -0.534315 -0.382677 -0.862665 -0.409343 -0.327355 -0.0267655 -0.653715 0.0671625 -0.9163950000000001 0.264073 -0.04378 -0.333922 -0.20596499999999998 -0.64078 -0.458695 -0.8637595 -0.251735 -0.223079 -0.576105 -0.347255 -0.91341 -0.3495435 -0.33631 -0.0022884999999999997 -0.66267 0.11740999999999999 -0.91739 0.3370065 -0.255715 0.2195965 -0.422875 0.524166 -0.47063499999999997 0.8573915 -0.2587 -0.2010895 -0.582075 -0.30049 -0.9094300000000001 -0.27919700000000003 -0.32636000000000004 0.0211935 -0.633815 0.16158799999999998 -0.864655 0.394418 -0.23084000000000002 0.2329295 -0.367155 0.5421755 -0.385065 0.8693315 -0.01791 0.327156 0.08457500000000001 0.6494365 0.28855 0.9059475 -0.32437 0.040695499999999996 -0.623865 0.198602 -0.83978 0.4440685 -0.21691 0.245367 -0.33631 0.5613790000000001 -0.33631 0.888734 0 0.32725550000000003 0.11939999999999999 0.6432675 0.33631 0.888734 0.215915 0.245367 0.51541 0.4032735 0.83978 0.4440685 -0.20198500000000003 0.25680949999999997 -0.30247999999999997 0.5782940000000001 -0.28357499999999997 0.9042560000000001 0.018904999999999998 0.325962 0.15522 0.633815 0.385065 0.8659485 0.22984500000000002 0.232034 0.536305 0.37232899999999997 0.8616699999999999 0.394418 0.32636000000000004 0.0221885 0.64874 -0.0753215 0.90744 -0.27412250000000005 0.038805 0.3250665 0.194025 0.6249595 0.4378 0.8432625 0.243775 0.2184025 0.5591900000000001 0.340091 0.886545 0.342479 0.327355 0.0022884999999999997 0.64476 -0.115022 0.89152 -0.32984250000000004 0.24676 -0.21492 0.40695499999999996 -0.5125245 0.44974000000000003 -0.8369939999999999 0.257705 0.2020845 0.580085 0.30357449999999997 0.9064450000000001 0.28556499999999996 0.32636000000000004 -0.0180095 0.6358050000000001 -0.154225 0.86963 -0.3833735 0.23382499999999998 -0.22904899999999997 0.37611 -0.5354095 0.40098500000000004 -0.8617695 0.023880000000000002 -0.3264595 -0.070645 -0.6505310000000001 -0.26765500000000003 -0.912017 0.33332500000000004 -0.0305465 0.643765 -0.185667 0.86764 -0.434417 0.223875 -0.24875 0.34625999999999996 -0.572921 0.34228 -0.907838Z" stroke-width="1"></path><path id="Vector_17" fill="#000000" d="M154.216045 61.3915c0.34029000000000004 -0.0966145 0.6358050000000001 -0.308251 0.8377899999999999 -0.5988905 0.20099 -0.29063950000000005 0.29551499999999997 -0.6422724999999999 0.26666 -0.994602 -0.028855000000000002 -0.352429 -0.180095 -0.6838635000000001 -0.42586 -0.937688 -0.24576499999999998 -0.253725 -0.57312 -0.4142185 -0.924355 -0.4538195 0.23283 -0.24894899999999998 0.37611 -0.5684435 0.40695499999999996 -0.9079375 0.030845 -0.339494 -0.052735 -0.6794855 -0.237805 -0.9661449999999999 -0.184075 -0.28656 -0.45969000000000004 -0.5033705 -0.7810750000000001 -0.615905 -0.32238 -0.11253450000000001 -0.671625 -0.11452449999999999 -0.995 -0.0054725 0.078605 -0.3354145 0.042785 -0.6876445 -0.10347999999999999 -0.9997759999999999 -0.14526999999999998 -0.31223100000000004 -0.39203 -0.566354 -0.6994849999999999 -0.721375 -0.30845 -0.155021 -0.65869 -0.2018855 -0.99699 -0.133131 -0.337305 0.06865500000000001 -0.641775 0.24904850000000003 -0.864655 0.5120269999999999 -0.0796 -0.3503395 -0.275615 -0.6633665 -0.5552100000000001 -0.888336 -0.28058999999999995 -0.22506900000000002 -0.627845 -0.348648 -0.98704 -0.350837 -0.36019 -0.002189 -0.7094349999999999 0.117211 -0.992015 0.338698 -0.28258 0.22158650000000002 -0.482575 0.5322255 -0.566155 0.88157 -0.217905 -0.265864 -0.518395 -0.450337 -0.8547049999999999 -0.523569 -0.33531500000000003 -0.07323199999999999 -0.68655 -0.030845 -0.995 0.120196 -0.30845 0.1509415 -0.5572 0.4018805 -0.7054549999999999 0.711823 -0.14726 0.310042 -0.18706 0.6609785 -0.110445 0.9959949999999999 -0.32238 -0.1157185 -0.6736150000000001 -0.120196 -0.9979849999999999 -0.0128355 -0.325365 0.10746 -0.6049599999999999 0.3204895 -0.79401 0.6052584999999999 -0.190045 0.284769 -0.2786 0.62486 -0.25273 0.9660455 0.026865 0.341086 0.166165 0.6636650000000001 0.397005 0.9160965 -0.35024 0.038805 -0.675605 0.1969105 -0.922365 0.4476505 -0.24676 0.2508395 -0.39999 0.57909 -0.43382 0.929529 -0.032835 0.350439 0.05572 0.7015745 0.25074 0.9944029999999999s0.48556 0.50944 0.82187 0.6134175000000001c-0.176115 0.1021865 -0.329345 0.2385015 -0.45173 0.4010845 -0.122385 0.16258299999999998 -0.21094 0.3479515 -0.259695 0.5452600000000001 -0.04975 0.1973085 -0.05870499999999999 0.402577 -0.02786 0.6034675 0.03184 0.20099 0.10248499999999999 0.393622 0.209945 0.566553 1.4049399999999999 -6.303325 4.28447 -3.184 4.68844 -0.6965 0.094525 0.398 0.34029000000000004 0.41591 0.850725 -0.16915000000000002 1.05868 -1.24773 2.478545 0.69053 0.359195 2.381035 -0.11740999999999999 0.09353 -0.27462000000000003 0.838785 -0.15123999999999999 2.6088899999999997 0.19303 -0.074426 0.369145 -0.186264 0.518395 -0.328947 0.14925 -0.14278249999999998 0.26865 -0.31372350000000004 0.35123499999999996 -0.5028729999999999 0.13631500000000002 0.323972 0.38009 0.590831 0.69053 0.755404 0.311435 0.1646725 0.66864 0.21691 1.0139049999999998 0.1479565 0.34426999999999996 -0.0689535 0.65471 -0.254919 0.87759 -0.5262555 0.223875 -0.271436 0.34625999999999996 -0.611726 0.347255 -0.96316 0.27760500000000005 0.193428 0.61093 0.2888485 0.9492299999999999 0.271237 0.337305 -0.0176115 0.6596850000000001 -0.1471605 0.9154 -0.368349 0.255715 -0.221089 0.43083499999999997 -0.521181 0.4975 -0.8528144999999999 0.06567 -0.33163349999999997 0.0199 -0.6759035 -0.13134 -0.9783835 0.21691 0.028258000000000002 0.436805 0.0096515 0.645755 -0.0546255 0.20895 -0.06437649999999999 0.40098500000000004 -0.1728315 0.5641649999999999 -0.318002 0.16318000000000002 -0.14526999999999998 0.293525 -0.3238725 0.381085 -0.5238674999999999 0.088555 -0.1998955 0.132335 -0.4164075 0.12935 -0.63481 -0.006965 -0.260491 -0.0796 -0.5149125 -0.21094 -0.7397825 -0.13134 -0.22477049999999998 -0.3184 -0.41252700000000003 -0.5422750000000001 -0.5457575Z" stroke-width="1"></path><path id="Vector_18" fill="#000000" d="M149.093785 87.759c0.014924999999999999 0.18546800000000002 -0.04378 0.36944350000000004 -0.16517 0.511231 -0.120395 0.14178749999999998 -0.29252999999999996 0.2299445 -0.47759999999999997 0.244969 -0.18506999999999998 0.0150245 -0.369145 -0.044178 -0.51143 -0.164772 -0.14129 -0.1204945 -0.22984500000000002 -0.2924305 -0.24477 -0.477998 -0.014924999999999999 -0.18546800000000002 0.04378 -0.36944350000000004 0.16517 -0.511231 0.120395 -0.14178749999999998 0.29252999999999996 -0.2299445 0.47759999999999997 -0.244969 0.18506999999999998 -0.0150245 0.369145 0.0442775 0.51143 0.164772 0.14129 0.120594 0.22984500000000002 0.29252999999999996 0.24477 0.477998Z" stroke-width="1"></path><path id="Vector_19" fill="#000000" d="M141.85317 82.94121c0.014924999999999999 0.18546800000000002 -0.04378 0.36944350000000004 -0.16517 0.511231 -0.120395 0.14178749999999998 -0.29252999999999996 0.2299445 -0.47759999999999997 0.244969 -0.18506999999999998 0.0150245 -0.369145 -0.0442775 -0.51143 -0.164772 -0.14129 -0.120594 -0.22984500000000002 -0.29252999999999996 -0.24477 -0.477998 -0.014924999999999999 -0.1855675 0.04378 -0.36944350000000004 0.16517 -0.511231 0.120395 -0.14178749999999998 0.29252999999999996 -0.2299445 0.47759999999999997 -0.244969 0.18506999999999998 -0.0150245 0.369145 0.0442775 0.51143 0.164772 0.14129 0.1204945 0.22984500000000002 0.29252999999999996 0.24477 0.477998Z" stroke-width="1"></path><path id="Vector_20" fill="#000000" d="M148.3943 77.34532999999999c0.014924999999999999 0.1855675 -0.04378 0.36944350000000004 -0.16517 0.511231 -0.120395 0.14178749999999998 -0.29252999999999996 0.2299445 -0.47759999999999997 0.244969 -0.18506999999999998 0.0150245 -0.369145 -0.044178 -0.51143 -0.164772 -0.14129 -0.1204945 -0.22984500000000002 -0.2924305 -0.24477 -0.477998 -0.014924999999999999 -0.18546800000000002 0.04378 -0.36944350000000004 0.16517 -0.511231 0.120395 -0.14178749999999998 0.29252999999999996 -0.2299445 0.47759999999999997 -0.244969 0.18506999999999998 -0.0150245 0.369145 0.0442775 0.51143 0.164772 0.14129 0.120594 0.22984500000000002 0.29252999999999996 0.24477 0.477998Z" stroke-width="1"></path></g><g id="outlines"><path id="Vector_21" stroke="#000000" stroke-linejoin="round" d="m17.980645000000003 115.832925 -7.354045 7.35305c-0.78605 0.78605 0.422875 2.004925 1.194 1.194l7.354045 -7.354045c0.158205 -0.158205 0.2470585 -0.373125 0.246959 -0.597 -0.0000995 -0.223875 -0.089152 -0.438795 -0.2474565 -0.597 -0.1583045 -0.158205 -0.3730255 -0.24676 -0.5969005 -0.24676 -0.2237755 0 -0.438397 0.08954999999999999 -0.596602 0.247755Z" stroke-width="1"></path><path id="Union" fill="#000000" d="m158.26171499999998 54.625499999999995 0.373125 -0.0046765 0 -0.001194 -0.373125 0.0058705Zm-0.34228 -0.87162 -0.27760500000000005 0.24934699999999999 0.27760500000000005 -0.24934699999999999Zm0 1.779458 -0.27760500000000005 -0.2498445 0.27760500000000005 0.2498445Zm-0.86764 0.434417 -0.03383 -0.3716325c-0.13532 0.012338 -0.25273 0.096714 -0.307455 0.220492 -0.054725 0.1236785 -0.037809999999999996 0.26745599999999997 0.042785 0.3756125l0.2985 -0.224472Zm0.26765500000000003 0.912017 -0.37213 -0.027959499999999998 0.37213 0.027959499999999998Zm-0.40098500000000004 0.8617695 -0.26069000000000003 -0.266461 0.26069000000000003 0.266461Zm-0.86963 0.3833735 0.020895 0.372528 -0.020895 -0.372528Zm-0.9064450000000001 -0.28556499999999996 0.23084000000000002 -0.293525c-0.10547 -0.082784 -0.247755 -0.1025845 -0.371135 -0.0520385 -0.124375 0.050546 -0.21193499999999998 0.1636775 -0.22984500000000002 0.29651l0.37013999999999997 0.04905349999999999Zm-0.44974000000000003 0.8369939999999999 -0.24477 -0.2814855 0.24477 0.2814855Zm-0.0059700000000000005 0.0050745 -0.243775 -0.282978c-0.08656499999999999 0.0747245 -0.134325 0.18526900000000002 -0.12935 0.299694 0.004975 0.114425 0.062685 0.2201935 0.156215 0.2868585l0.21691 -0.30357449999999997Zm0.207955 0.17890099999999998 0.26765500000000003 -0.2597945 -0.26765500000000003 0.2597945Zm0.1592 1.9322899999999998 0.30646 0.212532 -0.30646 -0.212532Zm-0.8377899999999999 0.5988905 -0.10149 -0.3588965c-0.14328 0.040695499999999996 -0.24875 0.16278199999999998 -0.26865 0.31053949999999997 -0.018904999999999998 0.14775749999999999 0.051739999999999994 0.2928285 0.17909999999999998 0.3690455l0.19104000000000002 -0.3206885Zm0.5422750000000001 0.5457575 0.32138500000000003 -0.188652 -0.32138500000000003 0.188652Zm0.21094 0.7397825 0.373125 -0.0050745 0 -0.0045769999999999995 -0.373125 0.0096515Zm-0.12935 0.63481 0.341285 0.150444 -0.341285 -0.150444Zm-0.381085 0.5238674999999999 0.247755 0.2786995 -0.247755 -0.2786995Zm-0.5641649999999999 0.318002 0.10945 0.3565085 -0.10945 -0.3565085Zm-0.645755 0.0546255 0.048755 -0.369941c-0.13731000000000002 -0.01791 -0.27263000000000004 0.041193 -0.35322499999999996 0.15362800000000001 -0.0796 0.1123355 -0.090545 0.2597945 -0.028855000000000002 0.3831745l0.33332500000000004 -0.1668615Zm0.13134 0.9783835 0.365165 0.073033 -0.365165 -0.073033Zm-0.4975 0.8528144999999999 0.243775 0.2822815 -0.243775 -0.2822815Zm-0.9154 0.368349 0.018904999999999998 0.3726275 -0.018904999999999998 -0.3726275Zm-0.9492299999999999 -0.271237 0.21293 -0.306062c-0.11343 -0.079401 -0.261685 -0.08905249999999999 -0.385065 -0.0249745 -0.12338 0.0639785 -0.20099 0.19094049999999999 -0.20099 0.32974299999999995l0.373125 0.0012935Zm-0.347255 0.96316 0.28855 0.237009 -0.28855 -0.237009Zm-0.87759 0.5262555 0.07263499999999999 0.3658615 -0.07263499999999999 -0.3658615Zm-1.0139049999999998 -0.1479565 -0.174125 0.3296435 0.174125 -0.3296435Zm-0.69053 -0.755404 0.34426999999999996 -0.1447725c-0.05870499999999999 -0.1374095 -0.192035 -0.227258 -0.341285 -0.2283525 -0.14925 -0.0010945 -0.28457 0.086764 -0.34426999999999996 0.2233775l0.341285 0.1497475Zm-0.35123499999999996 0.5028729999999999 0.257705 0.269645 0 -0.0000995 -0.257705 -0.2695455Zm-0.518395 0.328947 -0.37213 0.025969500000000003c0.00796 0.1181065 0.07164 0.2253675 0.17213499999999998 0.288948 0.0995 0.063481 0.223875 0.075819 0.33432 0.0331335l-0.134325 -0.348051Zm0.15123999999999999 -2.6088899999999997 0.23283 0.2918335 0 -0.0000995 -0.23283 -0.291734Zm-0.359195 -2.381035 0.281585 0.245367 0.0029850000000000002 -0.00398 -0.28457 -0.24138700000000002Zm-0.850725 0.16915000000000002 -0.36815 0.0597995c0.000995 0.0088555 0.0029850000000000002 0.017711 0.004975 0.026466999999999997l0.36317499999999997 -0.0862665Zm-4.68844 0.6965 -0.317405 0.196413c0.0796 0.12895199999999998 0.22984500000000002 0.196811 0.38009 0.171538 0.14925 -0.0253725 0.26865 -0.138703 0.301485 -0.286759l-0.36417 -0.081192Zm0.07761 -1.7152805 -0.2985 -0.224273 0.2985 0.224273Zm0.45173 -0.4010845 0.18706 0.3226785c0.128355 -0.074426 0.199995 -0.2176065 0.184075 -0.36486650000000004 -0.016915 -0.1471605 -0.11939999999999999 -0.27054049999999996 -0.26069000000000003 -0.3143205l-0.110445 0.3565085Zm-0.82187 -0.6134175000000001 0.31044 -0.20695999999999998 -0.31044 0.20695999999999998Zm-0.25074 -0.9944029999999999 -0.371135 -0.0353225 0.371135 0.0353225Zm0.43382 -0.929529 0.26566500000000004 0.2617845 -0.26566500000000004 -0.2617845Zm0.922365 -0.4476505 0.040795000000000005 0.37083649999999996c0.14029499999999998 -0.0154225 0.2587 -0.1079575 0.30845 -0.2394965 0.04975 -0.1314395 0.020895 -0.2794955 -0.07363 -0.3831745l-0.275615 0.2518345Zm-0.397005 -0.9160965 -0.37213 0.0285565 0.37213 -0.0285565Zm0.25273 -0.9660455 -0.31044 -0.206761 0.31044 0.206761Zm0.79401 -0.6052584999999999 -0.11740999999999999 -0.35422 0.11740999999999999 0.35422Zm0.9979849999999999 0.0128355 -0.126365 0.3511355c0.128355 0.0460685 0.271635 0.0186065 0.37412 -0.071839 0.10149 -0.0904455 0.14626499999999998 -0.22924799999999998 0.116415 -0.36218l-0.36417 0.0828835Zm0.110445 -0.9959949999999999 -0.33631 -0.16089150000000002 0.33631 0.16089150000000002Zm0.7054549999999999 -0.711823 0.16417500000000002 0.33511599999999997 -0.16417500000000002 -0.33511599999999997Zm1.849705 0.403373 -0.28855 0.236412c0.08954999999999999 0.10964900000000001 0.23382499999999998 0.1589015 0.37213 0.12726050000000003 0.138305 -0.031641 0.24576499999999998 -0.13880250000000002 0.27959500000000004 -0.2765105l-0.36317499999999997 -0.087162Zm0.566155 -0.88157 0.22984500000000002 0.29372400000000004 -0.22984500000000002 -0.29372400000000004Zm1.979055 0.012139 0.23382499999999998 -0.290938 -0.23382499999999998 0.290938Zm0.37611 0.4353125 -0.32238 0.188851c0.07263499999999999 0.1236785 0.209945 0.194821 0.35223 0.18298050000000002 0.14328 -0.011741 0.26666 -0.10427600000000001 0.3184 -0.23810350000000002l-0.34825 -0.13372799999999999Zm0.24676 -0.40735299999999997 0.27959500000000004 0.24685949999999998 -0.27959500000000004 -0.24685949999999998Zm0.83978 -0.4440685 0.046765 0.3702395c0.13333 -0.016815499999999997 0.247755 -0.104475 0.2985 -0.2293475 0.050745 -0.1248725 0.030845 -0.26745599999999997 -0.052735 -0.3730255l-0.29252999999999996 0.2321335Zm0.96117 -2.169697 0.024875 0.37232899999999997 -0.024875 -0.37232899999999997Zm0.9094300000000001 0.27919700000000003 -0.22885 0.29452c0.104475 0.08159000000000001 0.24477 0.1011915 0.36815 0.0514415 0.12338 -0.0496505 0.21094 -0.16119 0.22984500000000002 -0.2928285l-0.369145 -0.053133Zm0.47063499999999997 -0.8573915 -0.243775 -0.2828785 0.243775 0.2828785Zm2.289495 0.8762965 -0.37013999999999997 0.048158c0.016915 0.1314395 0.10248499999999999 0.243974 0.22487000000000001 0.29551499999999997 0.122385 0.0516405 0.26268 0.0345265 0.369145 -0.044974l-0.223875 -0.29869900000000005Zm0.9163950000000001 -0.264073 -0.029849999999999998 0.3718315 0.029849999999999998 -0.3718315Zm0.862665 0.409343 -0.269645 0.258501 0.269645 -0.258501Zm0.37412 0.8774905000000001 -0.373125 0.0154225 0.373125 -0.0154225Zm-0.30049 0.9055495 -0.289545 -0.23531749999999999c-0.08557 0.105271 -0.10746 0.2488495 -0.056715 0.37471699999999997s0.166165 0.214323 0.30049 0.2309395l0.04577 -0.370339Zm1.545235 1.2985745c-0.006965 -0.412328 -0.162185 -0.8084375 -0.4378 -1.115196l-0.5552100000000001 0.49879349999999995c0.15522 0.1728315 0.24278 0.3959105 0.24676 0.6280439999999999l0.74625 -0.0116415Zm-0.438795 1.163553c0.287555 -0.3184995 0.44377 -0.733514 0.438795 -1.162359l-0.74625 0.0092535c0.0029850000000000002 0.24108849999999998 -0.08457500000000001 0.474416 -0.24676 0.6534165l0.554215 0.499689Zm-1.1104200000000002 0.5561054999999999c0.426855 -0.039004 0.8238599999999999 -0.237606 1.1104200000000002 -0.5561054999999999l-0.554215 -0.499689c-0.16119 0.17909999999999998 -0.38407 0.290739 -0.623865 0.312629l0.06766 0.7431655Zm0.605955 0.5684435c0.030845 -0.416706 -0.090545 -0.830626 -0.341285 -1.1644485l-0.597 0.448944c0.14328 0.18905 0.21193499999999998 0.42347199999999996 0.194025 0.6595855l0.74426 0.055918999999999996Zm-0.51143 1.100271c0.29750499999999996 -0.29252999999999996 0.47958999999999996 -0.6835650000000001 0.51143 -1.100271l-0.74426 -0.055918999999999996c-0.01791 0.236014 -0.12139 0.45760049999999997 -0.289545 0.6232679999999999l0.522375 0.532922Zm-1.1104200000000002 0.4894405c0.41690499999999997 -0.022885 0.81192 -0.1969105 1.1104200000000002 -0.4894405l-0.522375 -0.532922c-0.16915000000000002 0.165767 -0.393025 0.264272 -0.629835 0.2773065l0.04179 0.745056Zm-1.15818 -0.364568c0.329345 0.2580035 0.7402799999999999 0.3875525 1.15818 0.364568l-0.04179 -0.745056c-0.235815 0.012934999999999999 -0.468645 -0.0603965 -0.65471 -0.206562l-0.46168000000000003 0.58705Zm0.025869999999999997 0.8249544999999999c0.315415 -0.2745205 0.520385 -0.654909 0.57511 -1.0695255l-0.7402799999999999 -0.0980075c-0.030845 0.234422 -0.14626499999999998 0.449342 -0.32437 0.604562l0.48954 0.562971Zm-0.00796 0.006467499999999999c0.0029850000000000002 -0.002189 0.004975 -0.0042785 0.00796 -0.006467499999999999l-0.48954 -0.562971c-0.00199 0.001194 -0.0029850000000000002 0.002388 -0.004975 0.0035819999999999997l0.486555 0.5658565Zm0.23283 -0.363772c-0.0796 -0.082386 -0.166165 -0.15681199999999998 -0.2587 -0.222681l-0.43382 0.6071489999999999c0.05572 0.039999 0.108455 0.085172 0.15721 0.1352205l0.5353100000000001 -0.5196885Zm0.530335 1.1668365c-0.036815 -0.43859600000000004 -0.223875 -0.8510234999999999 -0.530335 -1.1668365l-0.5353100000000001 0.5196885c0.186065 0.1917365 0.299495 0.4420785 0.32138500000000003 0.7083404999999999l0.74426 -0.0611925Zm-0.33233 1.2377799999999999c0.25074 -0.36168249999999996 0.36815 -0.799184 0.33233 -1.2377799999999999l-0.74426 0.0611925c0.02189 0.266262 -0.048755 0.5319269999999999 -0.20099 0.7515235l0.61292 0.425064Zm-1.0427600000000001 0.745255c0.42386999999999997 -0.120196 0.7920200000000001 -0.3835725 1.0427600000000001 -0.745255l-0.61292 -0.425064c-0.152235 0.2195965 -0.37611 0.379493 -0.63282 0.452526l0.20298 0.717793Zm0.76217 -0.0017909999999999998c-0.16318000000000002 -0.2790975 -0.395015 -0.5123255 -0.67262 -0.677794l-0.38208000000000003 0.641377c0.17014500000000002 0.10099250000000001 0.311435 0.2432775 0.410935 0.413721l0.643765 -0.377304Zm0.26268 0.918783c-0.008955 -0.3234745 -0.09850500000000001 -0.639586 -0.26268 -0.918783l-0.643765 0.377304c0.100495 0.1704435 0.15522 0.36337400000000003 0.160195 0.560782l0.74625 -0.019303Zm-0.16119 0.7949055c0.110445 -0.2488495 0.16517 -0.518395 0.16119 -0.7903285l-0.74625 0.010149c0.00199 0.164971 -0.030845 0.3284495 -0.09751 0.479391l0.68257 0.3007885Zm-0.47461499999999995 0.652123c0.203975 -0.1807915 0.365165 -0.403174 0.47461499999999995 -0.652123l-0.68257 -0.3007885c-0.066665 0.1509415 -0.16417500000000002 0.285764 -0.287555 0.39551250000000004l0.49551 0.557399Zm-0.7024699999999999 0.39581099999999997c0.259695 -0.079998 0.49949 -0.21501949999999997 0.7024699999999999 -0.39581099999999997l-0.49551 -0.557399c-0.12338 0.10964900000000001 -0.26865 0.1915375 -0.426855 0.2400935l0.219895 0.7131165Zm-0.80396 0.06805800000000001c0.269645 0.035223 0.544265 0.0120395 0.80396 -0.06805800000000001l-0.219895 -0.7131165c-0.15721 0.048556 -0.323375 0.0625855 -0.486555 0.0412925l-0.09751 0.739882Zm0.5452600000000001 0.6814754999999999c0.082585 -0.412925 0.025869999999999997 -0.841571 -0.16318000000000002 -1.218278l-0.6666500000000001 0.333723c0.11343 0.22825299999999998 0.148255 0.48804749999999997 0.09850500000000001 0.7383895l0.731325 0.1461655Zm-0.6188899999999999 1.062063c0.319395 -0.275416 0.5373 -0.6490385 0.6188899999999999 -1.062063l-0.731325 -0.1461655c-0.04975 0.2502425 -0.182085 0.476804 -0.375115 0.6436655l0.48755 0.564563Zm-1.14027 0.458695c0.420885 -0.02189 0.82187 -0.183279 1.14027 -0.458695l-0.48755 -0.564563c-0.19303 0.166961 -0.43581 0.2647695 -0.691525 0.278003l0.038805 0.745255Zm-1.181065 -0.3378025c0.345265 0.2408895 0.761175 0.35969249999999997 1.181065 0.3378025l-0.038805 -0.745255c-0.25472 0.013333000000000001 -0.506455 -0.05870499999999999 -0.7163999999999999 -0.2046715l-0.42586 0.612124Zm0.154225 0.894107c0.27760500000000005 -0.33790200000000004 0.42984 -0.761374 0.43183 -1.1988755l-0.74625 -0.002587c-0.000995 0.265466 -0.09353 0.522375 -0.261685 0.727345l0.576105 0.47411749999999997Zm-1.093505 0.655108c0.428845 -0.0858685 0.814905 -0.3173055 1.093505 -0.655108l-0.576105 -0.47411749999999997c-0.16915000000000002 0.20496999999999999 -0.402975 0.3453645 -0.6636650000000001 0.39750250000000004l0.14626499999999998 0.731723Zm-1.260665 -0.1841745c0.38606 0.20496999999999999 0.83182 0.270043 1.260665 0.1841745l-0.14626499999999998 -0.731723c-0.26069000000000003 0.0520385 -0.530335 0.012537 -0.765155 -0.11173849999999999l-0.34924499999999997 0.659287Zm-0.860675 -0.940275c0.17014500000000002 0.403174 0.47362 0.7354045 0.860675 0.940275l0.34924499999999997 -0.659287c-0.23481999999999997 -0.124375 -0.41889499999999996 -0.3258625 -0.5213800000000001 -0.5705330000000001l-0.6885399999999999 0.289545Zm0.25074 0.627646c0.18506999999999998 -0.176712 0.33233 -0.3883485 0.434815 -0.622671l-0.68257 -0.299495c-0.06368 0.144076 -0.154225 0.274222 -0.26865 0.3829755l0.516405 0.5391905Zm-0.641775 0.4074525c0.23879999999999998 -0.092137 0.456705 -0.230641 0.641775 -0.40735299999999997l-0.516405 -0.53929c-0.11343 0.108654 -0.247755 0.193826 -0.39402000000000004 0.250541l0.26865 0.696102Zm-0.215915 -3.2487744999999997c-0.08159000000000001 0.0655705 -0.12736 0.15004599999999998 -0.150245 0.20049250000000002 -0.02786 0.0592025 -0.04975 0.12546949999999998 -0.06766 0.1939255 -0.036815 0.137708 -0.066665 0.317206 -0.08656499999999999 0.5389915 -0.040795000000000005 0.445362 -0.048755 1.0954949999999999 0.01393 1.9932834999999998l0.74426 -0.051939000000000006c-0.060695 -0.8723165 -0.051739999999999994 -1.4798635 -0.014924999999999999 -1.872988 0.01791 -0.1975075 0.04179 -0.332529 0.064675 -0.4162085 0.010945 -0.042188 0.018904999999999998 -0.063282 0.02189 -0.06965 0.006965 -0.015124 -0.006965 0.0255715 -0.059699999999999996 0.0677595l-0.46566 -0.583667Zm0.158205 -1.8478145c0.207955 -0.24556599999999998 0.379095 -0.2751175 0.46764999999999995 -0.263476 0.09154 0.011940000000000001 0.203975 0.08139099999999999 0.27462000000000003 0.2528295 0.13631500000000002 0.331932 0.082585 1.0746995000000001 -0.900475 1.8585604999999998l0.46566 0.583468c1.1362899999999998 -0.906644 1.4327999999999999 -1.978259 1.12435 -2.7262005 -0.152235 -0.368349 -0.460685 -0.655307 -0.866645 -0.708639 -0.40993999999999997 -0.05373 -0.8129149999999999 0.1423845 -1.1342999999999999 0.5206835l0.56914 0.48277400000000004Zm-1.49847 0.0140295c0.029849999999999998 0.124176 0.08159000000000001 0.27203299999999997 0.18905 0.3891445 0.12537 0.13800649999999998 0.30247999999999997 0.2046715 0.494515 0.178304 0.16318000000000002 -0.022487 0.30646 -0.107858 0.42386999999999997 -0.1983035 0.122385 -0.094923 0.251735 -0.2231785 0.38805 -0.37929399999999996l-0.56317 -0.490535c-0.118405 0.1364145 -0.21193499999999998 0.2253675 -0.281585 0.27919700000000003 -0.07561999999999999 0.0582075 -0.094525 0.0532325 -0.06865500000000001 0.0496505 0.01791 -0.0024875 0.048755 -0.0024875 0.08457500000000001 0.0106465 0.036815 0.013134 0.060695 0.0331335 0.07263499999999999 0.0470635 0.018904999999999998 0.0199995 0.004975 0.0164175 -0.012934999999999999 -0.0584065l-0.7263499999999999 0.172533Zm-3.961095 0.6914254999999999c0.34625999999999996 -1.554986 0.773115 -2.470784 1.18803 -2.956742 0.203975 -0.2387005 0.39402000000000004 -0.361583 0.5601849999999999 -0.416706 0.162185 -0.053929 0.325365 -0.051143 0.49352 0.002786 0.35422 0.1133305 0.735305 0.45620750000000004 1.0626600000000002 0.9674385000000001 0.32238 0.5019775 0.5591900000000001 1.115395 0.651725 1.685331l0.7363 -0.119599c-0.10945 -0.673814 -0.38407 -1.3831494999999998 -0.759185 -1.9686074999999998 -0.37013999999999997 -0.576304 -0.87162 -1.085744 -1.463645 -1.2752915 -0.30447 -0.09751 -0.63083 -0.10875349999999999 -0.95719 -0.0000995 -0.323375 0.10746 -0.621875 0.32377300000000003 -0.89152 0.640183 -0.53332 0.6242629999999999 -0.99301 1.6822465 -1.34922 3.278923l0.72834 0.162384Zm-0.9422649999999999 -0.5902339999999999c0.038805 0.2502425 0.12736 0.490137 0.26069000000000003 0.7054549999999999l0.63481 -0.392826c-0.080595 -0.13054400000000002 -0.134325 -0.2759135 -0.158205 -0.42755150000000003l-0.737295 0.11492250000000001Zm0.03383 -0.7515235c-0.06169 0.24576499999999998 -0.07263499999999999 0.501281 -0.03383 0.7515235l0.737295 -0.11492250000000001c-0.023880000000000002 -0.1517375 -0.016915 -0.3065595 0.0199 -0.455511l-0.7233649999999999 -0.18109Zm0.323375 -0.678988c-0.152235 0.202383 -0.261685 0.4333225 -0.323375 0.678988l0.7233649999999999 0.18109c0.037809999999999996 -0.148852 0.104475 -0.2888485 0.19701000000000002 -0.411532l-0.597 -0.448546Zm0.56317 -0.49949c-0.2189 0.12726050000000003 -0.410935 0.29710699999999995 -0.56317 0.49949l0.597 0.448546c0.09154 -0.1226835 0.207955 -0.2255665 0.34029000000000004 -0.30267900000000003l-0.37412 -0.645357Zm-0.9452499999999999 -0.08367949999999999c0.24278 0.36417 0.603965 0.6336160000000001 1.0218649999999998 0.7628665l0.22089 -0.713017c-0.25472 -0.078605 -0.47362 -0.24238200000000001 -0.621875 -0.463869l-0.62088 0.41401950000000004Zm-0.311435 -1.236785c-0.04179 0.43581 0.06865500000000001 0.8725155 0.311435 1.236785l0.62088 -0.41401950000000004c-0.14726 -0.221487 -0.21492 -0.487152 -0.18905 -0.7521205l-0.743265 -0.070645Zm0.53929 -1.1558914999999998c-0.307455 0.3119325 -0.4975 0.720181 -0.53929 1.1558914999999998l0.743265 0.070645c0.024875 -0.265068 0.14029499999999998 -0.5133205000000001 0.327355 -0.703067l-0.5313300000000001 -0.5234695Zm1.147235 -0.556802c-0.43581 0.048158 -0.8407749999999999 0.24477 -1.147235 0.556802l0.5313300000000001 0.5234695c0.18706 -0.18964699999999998 0.432825 -0.309246 0.697495 -0.33859849999999997l-0.08159000000000001 -0.7416729999999999Zm-0.72834 -0.5167035c0.032835 0.424268 0.20695999999999998 0.8253525 0.49352 1.1393745l0.55123 -0.503669c-0.17512 -0.19094049999999999 -0.28058999999999995 -0.4349145 -0.30049 -0.692918l-0.74426 0.0572125Zm0.31442 -1.201363c-0.235815 0.3541205 -0.34625999999999996 0.777095 -0.31442 1.201363l0.74426 -0.0572125c-0.0199 -0.2580035 0.047760000000000004 -0.5152110000000001 0.19104000000000002 -0.7306284999999999l-0.62088 -0.413522Zm0.98704 -0.7527174999999999c-0.40397000000000005 0.133529 -0.751225 0.3984975 -0.98704 0.7527174999999999l0.62088 0.413522c0.14328 -0.215318 0.35422 -0.376508 0.599985 -0.4577l-0.23382499999999998 -0.7085395Zm1.24176 0.01592c-0.40098500000000004 -0.143877 -0.8377899999999999 -0.149449 -1.24176 -0.01592l0.23382499999999998 0.7085395c0.24576499999999998 -0.081192 0.51143 -0.077809 0.755205 0.0096515l0.25273 -0.702271Zm-0.35223 -0.805751c-0.184075 0.38596050000000004 -0.23283 0.8227654999999999 -0.138305 1.23977l0.72834 -0.165767c-0.057710000000000004 -0.25302850000000005 -0.028855000000000002 -0.5180965000000001 0.08358 -0.75222l-0.6736150000000001 -0.32178300000000004Zm0.87759 -0.8861469999999999c-0.38407 0.188055 -0.693515 0.500286 -0.87759 0.8861469999999999l0.6736150000000001 0.32178300000000004c0.11144 -0.2341235 0.299495 -0.42357150000000005 0.532325 -0.5375985l-0.32835000000000003 -0.6703315Zm1.2387750000000002 -0.1495485c-0.4179 -0.091142 -0.85371 -0.038407000000000004 -1.2387750000000002 0.1495485l0.32835000000000003 0.6703315c0.23283 -0.11402699999999999 0.4975 -0.146066 0.751225 -0.090744l0.1592 -0.729136Zm1.063655 0.651725c-0.27064 -0.3308375 -0.645755 -0.560583 -1.063655 -0.651725l-0.1592 0.729136c0.253725 0.055321999999999996 0.48158 0.194622 0.645755 0.39541299999999996l0.5771 -0.472824Zm0.047760000000000004 -0.938882c-0.34924499999999997 0.2735255 -0.596005 0.6569985 -0.6994849999999999 1.0882314999999998l0.7263499999999999 0.1742245c0.06368 -0.26745599999999997 0.21691 -0.5053605 0.432825 -0.675008l-0.45969000000000004 -0.5874480000000001Zm1.2238499999999999 -0.418099c-0.44377 -0.0026865 -0.874605 0.144673 -1.2238499999999999 0.418099l0.45969000000000004 0.5874480000000001c0.21691 -0.169548 0.48456499999999997 -0.26098849999999996 0.759185 -0.259297l0.004975 -0.74625Zm1.2188750000000002 0.43302399999999996c-0.34625999999999996 -0.2777045 -0.775105 -0.4303375 -1.2188750000000002 -0.43302399999999996l-0.004975 0.74625c0.275615 0.0016914999999999999 0.54128 0.096316 0.7562 0.26855049999999997l0.46764999999999995 -0.5817765Zm0.46367 0.5373995c-0.11939999999999999 -0.204373 -0.27661 -0.386856 -0.46367 -0.5373995l-0.46764999999999995 0.5817765c0.116415 0.093331 0.21293 0.206562 0.287555 0.33332500000000004l0.643765 -0.377702Zm-0.35422 -0.4653615c-0.13731000000000002 0.15452349999999998 -0.24278 0.331136 -0.315415 0.5204845l0.6965 0.26745599999999997c0.040795000000000005 -0.107062 0.100495 -0.2068605 0.17810499999999999 -0.2942215l-0.5591900000000001 -0.49371899999999996Zm1.07261 -0.5674485c-0.414915 0.0520385 -0.796 0.2538245 -1.07261 0.5674485l0.5591900000000001 0.49371899999999996c0.156215 -0.17720950000000002 0.37213 -0.291336 0.60695 -0.3206885l-0.09353 -0.740479Zm-0.61491 -0.556006c-0.022885 0.418298 0.108455 0.830427 0.369145 1.1583789999999998l0.5850599999999999 -0.464267c-0.14726 -0.18506999999999998 -0.221885 -0.4176015 -0.20895 -0.6536155l-0.745255 -0.0404965Zm0.492525 -1.111415c-0.29452 0.297704 -0.46963999999999995 0.6932165 -0.492525 1.111415l0.745255 0.0404965c0.012934999999999999 -0.2359145 0.11144 -0.459093 0.2786 -0.627049l-0.5313300000000001 -0.5248625Zm1.10644 -0.5043655c-0.4179 0.0271635 -0.8109249999999999 0.206562 -1.10644 0.5043655l0.5313300000000001 0.5248625c0.166165 -0.1680555 0.38805 -0.269247 0.623865 -0.28457l-0.048755 -0.7446579999999999Zm1.1621599999999999 0.3569065c-0.33034 -0.257108 -0.74426 -0.38407 -1.1621599999999999 -0.3569065l0.048755 0.7446579999999999c0.235815 -0.015323 0.468645 0.056317 0.655705 0.20138799999999998l0.4577 -0.5891394999999999Zm-0.00199 -0.8456505c-0.323375 0.278401 -0.5353100000000001 0.6645605 -0.596005 1.0870375l0.73829 0.10636549999999999c0.034825 -0.243974 0.15721 -0.46695349999999997 0.34426999999999996 -0.627646l-0.486555 -0.565757Zm1.16415 -0.427253c-0.426855 -0.0028854999999999996 -0.8407749999999999 0.148852 -1.16415 0.427253l0.486555 0.565757c0.18706 -0.160792 0.42586 -0.2484515 0.67262 -0.24676l0.004975 -0.74625Zm1.15818 0.44317300000000004c-0.32039 -0.282779 -0.731325 -0.440188 -1.15818 -0.44317300000000004l-0.004975 0.74625c0.24576499999999998 0.0016914999999999999 0.48357 0.09263450000000001 0.66864 0.255914l0.494515 -0.558991Zm0.5810799999999999 1.095097c-0.054725 -0.423273 -0.261685 -0.812318 -0.5810799999999999 -1.095097l-0.494515 0.558991c0.184075 0.1632795 0.303475 0.38795050000000003 0.33531500000000003 0.632422l0.7402799999999999 -0.096316Zm0.5771 -0.587846c-0.4179 -0.0341285 -0.834805 0.085769 -1.1711150000000001 0.3372055l0.44775 0.5974975c0.190045 -0.1423845 0.42586 -0.2102435 0.66267 -0.19094049999999999l0.060695 -0.7437625000000001Zm1.10047 0.5227729999999999c-0.29053999999999996 -0.30267900000000003 -0.68257 -0.4886445 -1.10047 -0.5227729999999999l-0.060695 0.7437625000000001c0.23681 0.0194025 0.458695 0.12467349999999999 0.62287 0.2960125l0.5382950000000001 -0.517002Zm0.478595 1.1204695c-0.01791 -0.41929299999999997 -0.188055 -0.8177905 -0.478595 -1.1204695l-0.5382950000000001 0.517002c0.16517 0.171339 0.26069000000000003 0.397005 0.27064 0.634412l0.74625 -0.0309445Zm-0.38407 1.156389c0.26467 -0.325763 0.40098500000000004 -0.7369965 0.38407 -1.156389l-0.74625 0.0309445c0.00995 0.23750649999999998 -0.066665 0.4703365 -0.21691 0.6548095l0.57909 0.47063499999999997Zm0.8178899999999999 -0.051939000000000006c-0.275615 -0.30665899999999996 -0.6527200000000001 -0.5033705 -1.0616649999999999 -0.5537175l-0.09154 0.740678c0.23084000000000002 0.0283575 0.44277500000000003 0.139101 0.5979949999999999 0.311833l0.5552100000000001 -0.49879349999999995Z" stroke-width="1"></path><path id="Vector_22" stroke="#000000" stroke-linecap="round" stroke-linejoin="round" d="M126.447585 106.92867h-7.8644799999999995" stroke-width="1"></path><path id="Vector_23" stroke="#000000" stroke-linecap="round" stroke-linejoin="round" d="M134.632455 106.92867H161.19c0.8268449999999999 -0.000995 1.618865 -0.33034 2.203925 -0.914405 0.584065 -0.5850599999999999 0.91341 -1.3770799999999999 0.914405 -2.203925V75.171255" stroke-width="1"></path><path id="Vector_24" stroke="#000000" stroke-linecap="round" stroke-linejoin="round" d="M164.31032 61.40941V59.69005c-0.000995 -0.8272430000000001 -0.329345 -1.6203575000000001 -0.914405 -2.2052185 -0.5850599999999999 -0.584861 -1.3790699999999998 -0.913609 -2.205915 -0.9141064999999999h-3.88647" stroke-width="1"></path><path id="Vector_25" stroke="#000000" stroke-linecap="round" stroke-linejoin="round" d="M119.997 56.570724999999996h-17.0145c-0.8268449999999999 0.000796 -1.6198599999999999 0.3296435 -2.20492 0.9145045 -0.5850599999999999 0.5847615 -0.91341 1.3777765 -0.914405 2.2048205v7.995819999999999" stroke-width="1"></path><path id="Vector_26" stroke="#000000" stroke-linecap="round" stroke-linejoin="round" d="M144.178485 54.5384375V52.241479999999996h-24.177505v6.597845h21.10196" stroke-width="1"></path><path id="Vector_27" stroke="#000000" stroke-linecap="round" stroke-linejoin="round" d="M134.10311499999997 50.0485c0 0.3963085 -0.11740999999999999 0.7837615 -0.337305 1.1133055 -0.22089 0.329544 -0.53332 0.5863535000000001 -0.8994800000000001 0.738091 -0.36616 0.151638 -0.769135 0.1913385 -1.15818 0.11402699999999999 -0.38904500000000003 -0.0773115 -0.745255 -0.2681525 -1.025845 -0.548444 -0.28058999999999995 -0.2802915 -0.47163 -0.6372975 -0.5482450000000001 -1.026044 -0.07761 -0.3887465 -0.037809999999999996 -0.7916219999999999 0.11343 -1.1577819999999999 0.152235 -0.36625949999999996 0.40894499999999995 -0.679187 0.73829 -0.8993805 0.329345 -0.2201935 0.717395 -0.337703 1.113405 -0.337703 0.5313300000000001 0.000199 1.04077 0.2114375 1.41688 0.5872489999999999 0.375115 0.375712 0.58705 0.8852515000000001 0.58705 1.4166809999999999v0Z" stroke-width="1"></path><path id="Vector_28" stroke="#000000" stroke-linecap="round" stroke-linejoin="round" d="M157.97814 66.419235v-3.36509h-2.99097" stroke-width="1"></path><path id="Vector_29" stroke="#000000" stroke-linecap="round" stroke-linejoin="round" d="M122.023815 69.34951h-15.859305v-6.295365h15.859305v6.295365Z" stroke-width="1"></path><path id="Vector_30" stroke="#000000" stroke-linecap="round" stroke-linejoin="round" d="M110.11466 75.7195h11.909155v5.2934h-7.8445800000000006" stroke-width="1"></path><path id="Vector_31" stroke="#000000" stroke-linecap="round" stroke-linejoin="round" d="M106.16450999999999 90.313165V87.4207h1.0964900000000002" stroke-width="1"></path><path id="Vector_32" stroke="#000000" stroke-linecap="round" stroke-linejoin="round" d="M111.32458 92.695195h-2.3820300000000003" stroke-width="1"></path><path id="Vector_33" stroke="#000000" stroke-linecap="round" stroke-linejoin="round" d="M119.339305 87.4207h2.68451v2.9869899999999996" stroke-width="1"></path><path id="Vector_34" stroke="#000000" stroke-linecap="round" stroke-linejoin="round" d="M112.72355 98.611465h3.9889550000000003" stroke-width="1"></path><path id="Vector_35" stroke="#000000" stroke-linecap="round" stroke-linejoin="round" d="M118.734345 100.6343h-4.97102" stroke-width="1"></path><path id="Vector_36" stroke="#000000" stroke-linecap="round" stroke-linejoin="round" d="M130.34102000000001 98.611465h27.63712v2.00393h-23.761595" stroke-width="1"></path><path id="Vector_37" stroke="#000000" stroke-linecap="round" stroke-linejoin="round" d="M49.2088195 51.957905000000004c-1.74523 0.5716275 -3.2406155 1.7264245 -4.23472 3.270565 -0.7145094999999999 -0.01592 -1.4133975 -0.212532 -2.031392 -0.571528 -0.6180939999999999 -0.358996 -1.135096 -0.8685355 -1.503047 -1.481356 -0.3678515 -0.612721 -0.5746125 -1.308624 -0.60098 -2.0228349999999997 -0.0263675 -0.714211 0.1286535 -1.4235465 0.45043649999999996 -2.06164 0.32178300000000004 -0.638193 0.7998805 -1.184448 1.389816 -1.58802 0.5899355 -0.4034725 1.272406 -0.6510285 1.983831 -0.7194845 0.711425 -0.0685555 1.4285215 0.044178 2.0846245 0.3276535s1.2297205 0.7284395 1.667421 1.2935c0.391831 0.4940175 0.6667495 1.0702219999999998 0.8042585 1.68553 0.137509 0.6154075 0.1340265 1.2537995 -0.0102485 1.867615Z" stroke-width="1"></path><path id="Vector_38" stroke="#000000" stroke-linecap="round" stroke-linejoin="round" d="M62.6850995 75.53045c-5.803835 -4.577 -10.472375 -2.83575 -11.077335 -7.787865" stroke-width="1"></path><path id="Vector_39" stroke="#000000" stroke-linecap="round" stroke-linejoin="round" d="M56.6563945 65.96849999999999c-1.485933 1.046939 -3.2326555 1.6619484999999998 -5.04664 1.77707 0 0 -0.07561999999999999 -1.606925 -0.056715 -2.0228349999999997 2.17308 2.2118849999999997 3.6098600000000003 -0.359195 3.742195 -5.632695 -1.3515085 -0.1097485 -2.67456 -0.448546 -3.91234 -1.001965 -0.24576499999999998 1.05868 -0.7562 2.5133699999999997 -1.17211 1.682545 -0.8129149999999999 -1.6258299999999999 -2.0895 -0.291535 -0.86963 1.133305 0.174125 0.20496999999999999 -0.11343 2.665605 -1.2855400000000001 4.858585 -1.013507 -0.588841 -1.9214445 -1.342852 -2.6865 -2.23079 -0.974105 -1.2582769999999999 -1.5531949999999999 -2.7771445 -1.6640380000000001 -4.3645675 -0.110843 -1.5873234999999999 0.25143649999999995 -3.1719605 1.041168 -4.553418499999999 0.7897314999999999 -1.381458 1.9713935 -2.4977485 3.3954375 -3.2075815 1.4241435 -0.7099325 3.0267899999999996 -0.9815675 4.6053575 -0.780677 1.578468 0.20099 3.062013 0.865451 4.2628785 1.9095045 1.200766 1.0440535 2.0651224999999998 2.4207355 2.48352 3.955921 0.41849699999999995 1.535285 0.37232899999999997 3.16012 -0.132733 4.669136999999999 -0.5049625 1.5090169999999998 -1.4461330000000001 2.834357 -2.7043105 3.808462v0Z" stroke-width="1"></path><path id="Vector_40" stroke="#000000" stroke-linecap="round" stroke-linejoin="round" d="M51.609655 67.74258499999999c-0.40207950000000003 -0.42755150000000003 -0.7025695 -0.940275 -0.8792815 -1.4998630000000002 -0.17681149999999998 -0.5596875 -0.2251685 -1.152011 -0.1415885 -1.732892 0.2848685 0.431034 0.6075470000000001 0.8359989999999999 0.964155 1.2099199999999999" stroke-width="1"></path><path id="Vector_41" stroke="#000000" stroke-linecap="round" stroke-linejoin="round" d="M43.858605 70.42709500000001c3.51633 1.758165 7.164 2.17308 10.1888 0.850725" stroke-width="1"></path><path id="Vector_42" stroke="#000000" stroke-linecap="round" stroke-linejoin="round" d="M57.7339795 77.00504c1.720355 3.043705 0 10.37785 -0.359195 13.043455 0.281585 0.8484365 0.662272 1.660655 1.1342999999999999 2.4198399999999998" stroke-width="1"></path><path id="Vector_43" stroke="#000000" stroke-linecap="round" stroke-linejoin="round" d="M40.740275 82.771065c-0.302878 -0.9294295 -0.5180965000000001 -1.885127 -0.6427700000000001 -2.854655l-2.3820300000000003 4.120295" stroke-width="1"></path><path id="Vector_44" stroke="#000000" stroke-linecap="round" stroke-linejoin="round" d="M42.13825 92.46833500000001c0.6955049999999999 -0.7395835 1.310216 -1.5511055 1.833785 -2.420835 -1.3260365 -2.3075045000000003 -2.4089945 -4.746349 -3.2317600000000004 -7.27743 -2.8883854999999996 1.319967 -5.9121905 2.3208375 -9.017685 2.985 -1.766125 0.392627 -3.6128449999999996 0.1835775 -5.2465355 -0.593816 -1.6336905 -0.7773935 -2.960722 -2.078555 -3.7701545 -3.696624l-7.787865 -15.612545c1.0599735 -1.2669335000000002 2.3838209999999997 -2.287107 3.8790074999999997 -2.989179s3.125693 -1.069028 4.7774925 -1.075396l6.84361 13.81856c5.1830545 -1.485535 10.199645499999999 -3.4997135 14.97077 -6.010795000000001 1.1389765 -0.6681425 2.058655 -1.653491 2.6467 -2.83575" stroke-width="1"></path><path id="Vector_45" stroke="#000000" stroke-linecap="round" stroke-linejoin="round" d="M89.1222495 56.570724999999996h-16.7757" stroke-width="1"></path><path id="Vector_46" stroke="#000000" stroke-linecap="round" stroke-linejoin="round" d="M44.153125 56.570724999999996H31.155440000000002c-0.8269445 0.000995 -1.6195614999999999 0.3300415 -2.2042235 0.914803 -0.5845625 0.584861 -0.9133105 1.3775775000000001 -0.9141064999999999 2.204522v11.020620000000001" stroke-width="1"></path><path id="Vector_47" stroke="#000000" stroke-linecap="round" stroke-linejoin="round" d="M62.4791345 58.839324999999995H59.7m3.7621945 0h8.884355000000001v-6.597845H55.2225" stroke-width="1"></path><path id="Vector_48" stroke="#000000" stroke-linecap="round" stroke-linejoin="round" d="M62.271080000000005 50.0485c0 0.3963085 -0.1175095 0.7837615 -0.337703 1.1133055 -0.2201935 0.329544 -0.5331210000000001 0.5863535000000001 -0.899281 0.738091 -0.36625949999999996 0.151638 -0.769135 0.1913385 -1.1578815 0.11402699999999999 -0.3887465 -0.0773115 -0.7457525 -0.2681525 -1.026044 -0.548444 -0.280192 -0.2802915 -0.47113249999999995 -0.6372975 -0.548444 -1.026044 -0.0773115 -0.3887465 -0.037611 -0.7916219999999999 0.11402699999999999 -1.1577819999999999 0.1517375 -0.36625949999999996 0.408547 -0.679187 0.738091 -0.8993805 0.329544 -0.2201935 0.716997 -0.337703 1.1133055 -0.337703 0.5314295 0.000199 1.040969 0.2114375 1.4167805 0.5872489999999999 0.375712 0.375712 0.5869504999999999 0.8852515000000001 0.5871495 1.4166809999999999v0Z" stroke-width="1"></path><path id="Vector_49" stroke="#000000" stroke-linecap="round" stroke-linejoin="round" d="M63.990539500000004 78.70649v13.761845h-29.640055v-7.33514" stroke-width="1"></path><path id="Vector_50" stroke="#000000" stroke-linecap="round" stroke-linejoin="round" d="M34.3504845 74.32053V62.827285H44.277499999999996" stroke-width="1"></path><path id="Vector_51" stroke="#000000" stroke-linecap="round" stroke-linejoin="round" d="M86.18292 68.85798H70.323615v-6.030695h15.859305v6.030695Z" stroke-width="1"></path><path id="Vector_52" stroke="#000000" stroke-linecap="round" stroke-linejoin="round" d="M86.1830195 100.6343h-51.832535v-2.0228349999999997h51.832535v2.0228349999999997Z" stroke-width="1"></path><path id="Vector_53" stroke="#000000" stroke-linecap="round" stroke-linejoin="round" d="M86.18292 83.073545v9.39479H70.323615v-2.438745" stroke-width="1"></path><path id="Vector_54" stroke="#000000" stroke-linecap="round" stroke-linejoin="round" d="M72.27083 73.82900000000001h8.33611" stroke-width="1"></path><path id="Vector_55" stroke="#000000" stroke-linecap="round" stroke-linejoin="round" d="M184.290915 176.68214999999998H14.691175000000001" stroke-width="1"></path><path id="Vector_56" stroke="#000000" stroke-linecap="round" stroke-linejoin="round" d="M99.0752345 67.49682c-1.833785 1.73926 -4.577 1.5124 -7.80677 0.18905 1.077585 -0.28357499999999997 0.796 -3.10042 0.9263450000000001 -4.31034 -1.43678 1.3044449999999999 -2.9113700000000002 2.3253150000000002 -3.421805 1.5124 -0.47262499999999996 -0.850725 -0.510435 -2.703415 0.24576499999999998 -7.712245 0.472227 0.2508395 0.9656475 0.45959049999999996 1.47459 0.623865 -0.18905 1.92831 0.476605 2.0437299999999996 0.86963 1.3611600000000001 0.7263499999999999 -1.2626549999999999 2.15517 -0.22686 0.7562 1.70145 0.71839 0.7363 3.6815 3.8805 4.1591 4.40387 0.7481405 0.9489315 1.7053305 1.7123950000000001 2.796945 2.23079v0Z" stroke-width="1"></path><path id="Vector_57" stroke="#000000" stroke-linecap="round" stroke-linejoin="round" d="M99.07513499999999 67.49682c2.8506750000000003 0.696301 5.444640000000001 2.188005 7.48041 4.301385000000001 5.586925 5.28544 9.799755 14.07129 21.82035 24.80933 -0.5850599999999999 1.552001 -1.50245 2.95714 -2.68849 4.116314999999999 -1.18604 1.16017 -2.611875 2.04572 -4.17701 2.59496 -6.993855 -6.65456 -11.833535000000001 -11.89025 -16.915 -19.86816" stroke-width="1"></path><path id="Vector_58" stroke="#000000" stroke-linecap="round" stroke-linejoin="round" d="M92.19471 63.375530000000005c-0.056715 0.5482450000000001 -0.056715 1.2855400000000001 -0.07561999999999999 2.00393 -1.1342999999999999 0.11343 -2.816845 0.17014500000000002 -3.17604 -0.24576499999999998l-0.17014500000000002 -0.22686c0.510435 0.8129149999999999 1.985025 -0.207955 3.421805 -1.531305Z" stroke-width="1"></path><path id="Vector_59" stroke="#000000" stroke-linecap="round" stroke-linejoin="round" d="M74.3882895 77.9085v4.68844c0.5641649999999999 -0.8278399999999999 1.0945 -1.598965 1.598965 -2.3143700000000003" stroke-width="1"></path><path id="Vector_60" stroke="#000000" stroke-linecap="round" stroke-linejoin="round" d="M87.2416995 81.50443c-2.0872115 3.3838955 -4.594711 6.489788 -7.4625 9.243549999999999 -2.8556500000000002 2.701425 -7.829655 1.77906 -10.056465 -1.4556850000000001 -3.1275835 -4.735006 -5.654684499999999 -9.840351 -7.523195 -15.198625 2.486704 -2.0818385 5.5879199999999996 -3.290266 8.82764 -3.4397149999999996 1.1636525 3.4410085 2.836944 6.6880915000000005 4.964055 9.632594999999998 1.9502 -2.8228150000000003 3.4078749999999998 -4.905349999999999 4.60088 -6.45755 2.665605 -3.515335 3.9670650000000003 -4.39591 6.48342 -5.103355 1.22783 -0.345265 2.854655 -0.6965 4.179 -1.039775" stroke-width="1"></path><path id="Vector_61" stroke="#000000" stroke-linecap="round" stroke-linejoin="round" d="M102.15665 109.896755s2.552175 -4.72625 2.7223200000000003 -6.71028l-0.26467 8.770925" stroke-width="1"></path><path id="Vector_62" stroke="#000000" stroke-linecap="round" stroke-linejoin="round" d="M86.69335500000001 78.876635s2.2885 10.90719 3.36509 12.57083c-3.21385 20.812415 -7.182905 62.928774999999995 -7.939105 70.319635 4.2871565 1.8327900000000001 9.062858 2.1860150000000003 13.572795 1.001965 0 0 5.572 -43.042705 6.4675 -52.87231l13.988705 11.833535000000001c1.1900199999999999 1.01888 2.59098 1.76115 4.101389999999999 2.174075l20.45322 5.651599999999999" stroke-width="1"></path><path id="Vector_63" stroke="#000000" stroke-linecap="round" stroke-linejoin="round" d="M151.45691 118.232865c-3.582 -0.199 -6.566999999999999 18.100044999999998 -3.843685 21.937759999999997 0.10945 0.18308 0.2587 0.34029000000000004 0.436805 0.458695s0.381085 0.19502 0.592025 0.22487000000000001c0.21193499999999998 0.029849999999999998 0.42785 0.012934999999999999 0.631825 -0.051739999999999994 0.203975 -0.06368 0.391035 -0.17312999999999998 0.54725 -0.3184 3.82279 -3.001915 6.068505 -22.008405 1.6357799999999998 -22.251185Z" stroke-width="1"></path><path id="Vector_64" stroke="#000000" stroke-linecap="round" stroke-linejoin="round" d="m84.2367995 162.59892 -0.2985 2.53327c-0.13949899999999998 1.2328050000000002 -0.5982934999999999 2.4078999999999997 -1.33131 3.4088700000000003 -0.732917 1.001965 -1.714584 1.793985 -2.84769 2.299445 -2.9663935 1.328325 -5.7647315 3.00291 -8.33611 4.99092 -0.077411 0.06169 -0.1336285 0.14626499999999998 -0.160991 0.241785 -0.027263 0.094525 -0.0243775 0.196015 0.0084575 0.289545 0.0327355 0.09353 0.093729 0.174125 0.174523 0.231835 0.0808935 0.056715 0.1774085 0.08756 0.2765105 0.08756 8.44954 0 15.53792 -0.07561999999999999 22.288 -0.094525 0.0737295 -2.235765 -0.26596349999999996 -4.46556 -1.001965 -6.577945 -0.0928335 -0.28656 -0.1187035 -0.590035 -0.07561999999999999 -0.888535 0.16417500000000002 -1.26763 0.52934 -4.7451550000000005 0.6427700000000001 -5.955075" stroke-width="1"></path><path id="Vector_65" stroke="#000000" stroke-linecap="round" stroke-linejoin="round" d="M145.97446 117.19309c-0.41391999999999995 -1.35917 -1.366135 -2.1133800000000003 -2.637745 -1.453695 -2.67456 1.386035 -5.32126 8.52118 -3.939205 12.32606 0.63481 1.746225 2.0228349999999997 2.2138750000000003 3.7033899999999997 0.412925" stroke-width="1"></path><path id="Vector_66" stroke="#000000" stroke-linecap="round" stroke-linejoin="round" d="M142.55265500000002 116.32346c2.92132 0.8109249999999999 5.887415 1.44872 8.884355000000001 1.909405" stroke-width="1"></path><path id="Vector_67" stroke="#000000" stroke-linecap="round" stroke-linejoin="round" d="M139.12886 127.0018c1.2706149999999998 0.199995 2.502425 0.596005 3.650655 1.1741 1.2049450000000002 1.003955 1.56414 2.4875 2.0228349999999997 4.0794999999999995 0.946245 3.29345 1.145245 7.51225 3.3362350000000003 8.41372" stroke-width="1"></path><path id="Vector_68" stroke="#000000" stroke-linecap="round" stroke-linejoin="round" d="M60.739775 63.432244999999995c0.6265515 0.0305465 1.2396705 0.1923335 1.7996565 0.47501299999999996 0.559986 0.28258 1.0544015 0.679784 1.4510085 1.165742" stroke-width="1"></path><path id="Vector_69" stroke="#000000" stroke-linecap="round" stroke-linejoin="round" d="M64.9735995 64.037205c-0.314619 -0.349643 -0.6696350000000001 -0.6605805 -1.057685 -0.9263450000000001" stroke-width="1"></path><path id="Vector_70" stroke="#000000" stroke-linecap="round" stroke-linejoin="round" d="M60.512915 66.94857499999999c0.49988799999999994 0.6784905 0.9185840000000001 1.4131984999999998 1.24773 2.189" stroke-width="1"></path><path id="Vector_71" stroke="#000000" stroke-linecap="round" stroke-linejoin="round" d="M59.907955 65.058075c0.737295 -0.22686 2.00393 0.17014500000000002 3.1949449999999997 1.417875" stroke-width="1"></path><path id="Vector_72" stroke="#000000" stroke-linecap="round" stroke-linejoin="round" d="M62.894945 73.54542500000001c-0.116813 -1.5231459999999999 -0.5007834999999999 -3.013855 -1.1342999999999999 -4.40387 -2.00393 -0.24576499999999998 -2.90938 -2.769085 -2.3820300000000003 -3.6815 0.1171115 -0.1973085 0.3073555 -0.3403895 0.52934 -0.398 -0.146066 -0.38247800000000004 -0.159399 -0.8030645000000001 -0.037809999999999996 -1.194 0.0944255 -0.1433795 0.2237755 -0.260292 0.3760105 -0.33969299999999997 0.1521355 -0.079401 0.32208149999999997 -0.118604 0.4936195 -0.11402699999999999 -0.0014925000000000001 -0.20099 0.0371135 -0.400189 0.11343 -0.586055 0.30944499999999997 -0.63879 1.70145 -0.623865 3.06261 0.28357499999999997 -1.9661199999999999 -3.704385 -1.535285 -6.29238 -1.17211 -5.519265 1.232009 2.2964599999999997 2.588592 4.5239665 4.06358 6.672470000000001 0.056715 -0.5671499999999999 0.20895 -1.54623 0.623865 -1.6258299999999999 0.47362 -0.08954999999999999 1.871595 5.595879999999999 2.45765 8.072434999999999" stroke-width="1"></path><path id="Vector_73" stroke="#000000" stroke-linecap="round" stroke-linejoin="round" d="M134.632455 105.813275c-0.7910250000000001 -0.301485 -1.5621500000000001 -0.65471 -2.30641 -1.057685 0.842765 0.866645 1.7322950000000001 1.68752 2.665605 2.456655 1.234795 0.82187 0.625855 1.602945 -0.90744 0.90744 -0.954205 -0.468645 -1.8765699999999998 -1.00097 -2.76013 -1.592 0.71839 0.850725 1.36315 1.6616499999999998 1.66364 1.92831 1.10246 0.9760949999999999 0.402975 1.672595 -1.001965 0.796 -0.8238599999999999 -0.54327 -1.612895 -1.1362899999999998 -2.363125 -1.77707 0.22089 0.44974000000000003 0.480585 0.87958 0.775105 1.2855400000000001 0.974105 1.06863 0.35819999999999996 1.4925 -0.964155 0.5482450000000001 -2.546205 -1.9332850000000001 -4.958085 -4.03572 -7.220714999999999 -6.29437 2.6108800000000003 -1.1144 4.71829 -3.1551449999999996 5.917265 -5.728215 1.057685 0.8287355 2.273575 1.4332975 3.57205 1.77707 3.951145 1.00097 3.51633 2.136265 -1.228825 1.871595 1.47459 1.48653 3.125295 2.78799 4.9153 3.87453 1.23181 0.8099299999999999 0.834805 1.5820500000000002 -0.7562 1.003955Z" stroke-width="1"></path><path id="Vector_74" stroke="#000000" stroke-linecap="round" stroke-linejoin="round" d="M130.53007 103.679c0.434815 0.28357499999999997 1.05868 0.6805800000000001 1.7959749999999999 1.077585" stroke-width="1"></path><path id="Vector_75" stroke="#000000" stroke-linecap="round" stroke-linejoin="round" d="M130.45445 100.93678c-0.28357499999999997 -0.2985 -0.586055 -0.6049599999999999 -0.86963 -0.9452499999999999" stroke-width="1"></path><path id="Vector_76" stroke="#000000" stroke-linecap="round" stroke-linejoin="round" d="M129.056475 104.981455c0.414915 0.2985 1.2845449999999998 0.90744 2.267605 1.531305" stroke-width="1"></path><path id="Vector_77" stroke="#000000" stroke-linecap="round" stroke-linejoin="round" d="M127.957 105.98342000000001c0.34029000000000004 0.34029000000000004 0.964155 0.888535 1.64374 1.47459" stroke-width="1"></path><path id="Vector_78" stroke="#000000" stroke-linecap="round" stroke-linejoin="round" d="M89.01876949999999 57.175685c0.132335 -0.7562 0.28457 -1.758165 0.510435 -2.703415 0.361185 -1.5114049999999999 1.7959749999999999 -1.531305 1.70145 -0.6805800000000001 0.90744 -1.644735 2.34422 -1.039775 2.098455 -0.32138500000000003 0.83182 -1.47459 2.4198399999999998 -0.86963 2.04174 -0.11343 0.9263450000000001 -1.2855400000000001 2.418845 -0.737295 2.05965 0.094525 0.9452499999999999 -1.24773 2.5709804999999997 -0.6427700000000001 1.531305 1.05868 -1.216885 1.99 -4.899380000000001 7.690355 -2.8655999999999997 10.564910000000001" stroke-width="1"></path><path id="Vector_79" stroke="#000000" stroke-linecap="round" stroke-linejoin="round" d="m173.648395 71.80716000000001 12.19273 10.396755 -12.19273 10.37785" stroke-width="1"></path><path id="Vector_80" stroke="#000000" stroke-linecap="round" stroke-linejoin="round" d="M17.58364 72.166355 6.22275985 81.863625 18.396555 92.241475" stroke-width="1"></path><path id="Vector_81" stroke="#000000" stroke-linecap="round" stroke-linejoin="round" d="M87.0904595 68.725645s4.045669999999999 14.914055000000001 0.17114 12.764855" stroke-width="1"></path><path id="Vector_82" stroke="#000000" stroke-linecap="round" stroke-linejoin="round" d="M102.7835 68.95349999999999c1.5621500000000001 1.535285 2.174075 6.71028 1.99 9.99975 -0.2587 3.5570255 -0.22089 7.129573 0.11343 10.68033 4.189945000000001 1.8855250000000001 6.518245 6.2127799999999995 8.2983 9.867415 2.3820300000000003 4.9342049999999995 8.358 10.39974 8.358 10.39974l23.021315 5.64961" stroke-width="1"></path><path id="Vector_83" stroke="#000000" stroke-linecap="round" stroke-linejoin="round" d="M89.5102995 68.120685c0.6796845 1.9413445 1.1857415 3.939205 1.5124 5.97l10.646400499999999 -0.28357499999999997c-0.371135 -2.0382575000000003 -0.88953 -4.0471625 -1.55021 -6.010795000000001" stroke-width="1"></path><path id="Vector_84" stroke="#000000" stroke-linecap="round" stroke-linejoin="round" d="m22.838235 112.165355 -4.271535 4.271535" stroke-width="1"></path><path id="Vector_85" stroke="#000000" stroke-linecap="round" stroke-linejoin="round" d="M28.037110000000002 85.79487v18.01547c0.000995 0.8268449999999999 0.329942 1.618865 0.9145045 2.203925 0.5845625 0.584065 1.3770799999999999 0.91341 2.2038255 0.914405H87.958" stroke-width="1"></path><path id="Vector_86" stroke="#000000" stroke-linecap="round" stroke-linejoin="round" d="M33.442944999999995 101.560645c1.048531 1.04873 1.7626425000000001 2.3850149999999997 2.0518889999999996 3.839705 0.2892465 1.453695 0.1407925 2.962115 -0.4267555 4.33223 -0.567548 1.370115 -1.5286185 2.540235 -2.761722 3.36509 -1.2331035000000001 0.8238599999999999 -2.6828184999999998 1.26365 -4.1657665 1.26365 -1.4830474999999999 0 -2.9327625 -0.43979 -4.1657665 -1.26365 -1.2331035000000001 -0.824855 -2.194174 -1.994975 -2.761722 -3.36509 -0.567548 -1.370115 -0.7161015000000001 -2.878535 -0.426855 -4.33223 0.2892465 -1.45469 1.003358 -2.790975 2.0519885 -3.839705 1.4071289999999999 -1.4049399999999999 3.314146 -2.193577 5.3023549999999995 -2.193577 1.988209 0 3.895226 0.7886369999999999 5.3023549999999995 2.193577v0Z" stroke-width="1"></path><path id="Vector_87" stroke="#000000" stroke-linecap="round" stroke-linejoin="round" d="M82.34620000000001 26.401329999999998h-8.165965" stroke-width="1"></path><path id="Vector_88" stroke="#000000" stroke-linecap="round" stroke-linejoin="round" d="M78.27266999999999 30.483815V22.31785" stroke-width="1"></path><path id="Vector_89" stroke="#000000" stroke-linecap="round" stroke-linejoin="round" d="M122.364105 143.109855c0.040795000000000005 0.46764999999999995 -0.057710000000000004 0.936295 -0.28258 1.348225 -0.225865 0.410935 -0.5681449999999999 0.74625 -0.984055 0.96316 -0.41591 0.21691 -0.886545 0.305465 -1.3532000000000002 0.25472 -0.466655 -0.050745 -0.90744 -0.23879999999999998 -1.266635 -0.540285 -0.36019 -0.301485 -0.621875 -0.7024699999999999 -0.753215 -1.153205 -0.13134 -0.44974000000000003 -0.126365 -0.9293300000000001 0.01393 -1.3770799999999999 0.14129 -0.44775 0.410935 -0.842765 0.777095 -1.137285 0.36616 -0.293525 0.8099299999999999 -0.47262499999999996 1.27758 -0.51342 0.62685 -0.054725 1.24972 0.14129 1.7313 0.5452600000000001 0.482575 0.40397000000000005 0.78406 0.9830599999999999 0.83978 1.6099100000000002v0Z" stroke-width="1"></path><path id="Vector_90" stroke="#000000" stroke-linecap="round" stroke-linejoin="round" d="M192.117585 48.48038c-0.832815 0.585657 -1.726325 1.0799729999999998 -2.665605 1.47459 0.15123999999999999 -0.11343 1.228825 -1.417875 2.49546 -3.0058949999999998 1.5124 -1.8904999999999998 1.0945 -2.741225 -1.001965 -0.83182 -0.743265 0.6857540000000001 -1.54026 1.311609 -2.3820300000000003 1.871595 0.094525 -0.132335 1.4925 -2.3253150000000002 2.438745 -4.12129 1.05868 -2.04174 0.2985 -2.53327 -1.24773 -0.5671499999999999 -0.08159000000000001 0.0995 -2.792965 3.3203150000000003 -3.573045 4.179l0.56516 -0.641775c0.15522 -1.0594759999999999 0.460685 -2.0911915000000003 0.9094300000000001 -3.0636050000000004 0.850725 -1.99 0.13532 -2.564115 -1.228825 -0.434815 -0.07363 0.114425 -2.0526850000000003 3.314345 -2.4198399999999998 3.74319 -0.2985 0.345265 -0.83182 0.90744 -1.15221 0.796 -1.17211 -0.434815 -2.552175 -3.232755 -3.55414 -2.741225 -0.6427700000000001 0.2985 0.434815 2.11736 1.05868 3.421805 0.46367 0.9760949999999999 -0.40496499999999996 2.162135 -1.342255 2.92928 2.18303 1.5702095 3.85861 3.745578 4.819780000000001 6.257555 3.951145 -3.3083750000000003 4.95311 -4.4775 7.9779100000000005 -7.240615 0.34029000000000004 -0.32039 0.737295 -0.6965 1.17211 -1.15221 1.6258299999999999 -1.7044350000000001 1.32335 -2.40392 -0.86963 -0.872615Z" stroke-width="1"></path><path id="Vector_91" stroke="#000000" stroke-linecap="round" stroke-linejoin="round" d="m158.54529000000002 79.708455 -3.0058949999999998 0.510435c-0.094525 0.45372 -0.26467 1.3044449999999999 -0.434815 2.189" stroke-width="1"></path><path id="Vector_92" stroke="#000000" stroke-linecap="round" stroke-linejoin="round" d="M149.11269 70.918625c0.8129149999999999 0.34029000000000004 1.945225 0.261685 3.4964299999999997 -0.5482450000000001 1.92632 -1.0059449999999999 24.72575 -19.074150000000003 24.72575 -19.074150000000003 2.0228349999999997 -1.53031 8.41173 7.164 6.313275 8.6963l-28.543565 22.41934c-0.621875 3.328673 -0.93132 6.708091 -0.9263450000000001 10.094275" stroke-width="1"></path><path id="Vector_93" stroke="#000000" stroke-linecap="round" stroke-linejoin="round" d="M142.91185 72.3365c0.5452600000000001 -0.50745 0.9482349999999999 -1.147832 1.1711150000000001 -1.8582619999999999 0.22288 -0.71043 0.257705 -1.4666299999999999 0.100495 -2.194373 -1.19997 0.35620999999999997 -4.08945 0.7402799999999999 -2.6138649999999997 -5.379965 1.393 -5.71926 4.11731 -2.518345 4.554115 -0.30646 0.09253499999999999 0.47262499999999996 0.2786 0.6666500000000001 0.87162 -0.03383 1.0566900000000001 -1.2487249999999999 2.478545 0.6965 0.359195 2.3820300000000003 -0.2985 0.24079 -0.66864 4.9361950000000006 1.73926 5.97 -2.703415 5.29539 -4.782965000000001 5.786919999999999 -6.181935 1.42086Z" stroke-width="1"></path><path id="Vector_94" stroke="#000000" stroke-linecap="round" stroke-linejoin="round" d="M144.18346 68.28287c0.29053999999999996 -0.09154 0.6696350000000001 -0.25472 0.9024650000000001 -0.33233L144.275 69.028125" stroke-width="1"></path><path id="Vector_95" stroke="#000000" stroke-linecap="round" stroke-linejoin="round" d="M128.338085 85.73815499999999c4.32825 -6.71028 8.203774999999998 -10.773859999999999 12.796695 -12.381780000000001 0.65471 -0.2166115 1.25967 -0.563568 1.77707 -1.0198749999999999" stroke-width="1"></path><path id="Vector_96" stroke="#000000" stroke-linecap="round" stroke-linejoin="round" d="M138.31893000000002 78.44181999999999c-1.0945 2.34422 -2.2138750000000003 3.346185 0.45372 11.228575 0.398 1.17211 0.510435 1.531305 1.077585 3.0248" stroke-width="1"></path><path id="Vector_97" stroke="#000000" stroke-linecap="round" stroke-linejoin="round" d="M144.896875 75.246875c-1.1342999999999999 4.9342049999999995 -0.850725 10.71814 0.49152999999999997 17.10803" stroke-width="1"></path><path id="Vector_98" stroke="#000000" stroke-linecap="round" stroke-linejoin="round" d="M185.198355 46.93017c1.61787 0.865053 2.8825149999999997 2.2692965 3.573045 3.969055" stroke-width="1"></path><path id="Vector_99" stroke="#000000" stroke-linecap="round" stroke-linejoin="round" d="M184.76354 48.48038c1.039775 1.833785 1.0945 3.553145 -0.2985 4.9899249999999995" stroke-width="1"></path><path id="Vector_100" stroke="#000000" stroke-linecap="round" stroke-linejoin="round" d="M137.959735 87.11822c-1.2507149999999998 2.029601 -2.76411 3.8855745 -4.49939 5.52026" stroke-width="1"></path><path id="Vector_101" stroke="#000000" stroke-linecap="round" stroke-linejoin="round" d="M16.1559145 64.612315c-0.71441 -1.7512 -1.545434 -3.4524510000000004 -2.4875 -5.09241 -0.981468 -1.4874254999999998 -2.122534 -2.863013 -3.4029 -4.102385 -1.89052985 -1.8188600000000001 -1.71938985 -2.53327 0.775105 -1.17211 0.9124150000000001 0.4975 9.399764999999999 6.2734749999999995 10.756945 7.69533" stroke-width="1"></path><path id="Vector_102" stroke="#000000" stroke-linecap="round" stroke-linejoin="round" d="M17.262255 58.48013c1.266635 0.7562 0.45173 -1.8904999999999998 0.41591 -2.9113700000000002 -0.0398 -1.115395 0.33531500000000003 -2.3422300000000003 1.32335 0.6049599999999999 0.7225689999999999 2.0131835 1.6536899999999999 3.9453739999999997 2.77804 5.765029999999999" stroke-width="1"></path><path id="Vector_103" stroke="#000000" stroke-linecap="round" stroke-linejoin="round" d="M10.6465995 55.79562c-0.6675455 -0.4975995 -1.361757 -0.9582845 -2.0795699 -1.380065 -2.6865 -1.50444 -2.779035 -0.5671499999999999 -1.70145 0.24576499999999998 0.9263450000000001 0.6965 2.476555 1.791 3.2506849 2.53327 1.2487249999999999 1.194 4.367055000000001 3.55414 4.95311 4.93321" stroke-width="1"></path><path id="Vector_104" stroke="#000000" stroke-linecap="round" stroke-linejoin="round" d="M6.71428985 54.54789c-1.758165 -0.49152999999999997 -1.8904999999999998 0.01592 -1.644735 0.17014500000000002 0.97112 0.61292 2.66063 1.4248399999999999 3.5919499999999998 1.9661199999999999 0.526355 0.30646 2.62677015 1.6258299999999999 3.1372051499999998 2.00393" stroke-width="1"></path><path id="Vector_105" stroke="#000000" stroke-linecap="round" stroke-linejoin="round" d="m58.4334645 82.60092 5.5380705 3.4397149999999996" stroke-width="1"></path><path id="Vector_106" stroke="#000000" stroke-linecap="round" stroke-linejoin="round" d="M141.47507000000002 63.054145000000005h-13.136985v29.64105h29.640055V80.21889" stroke-width="1"></path><path id="Vector_107" stroke="#000000" stroke-linecap="round" stroke-linejoin="round" d="M66.8073845 64.264065c0.37929399999999996 0.7057535 0.6895349999999999 1.4464315 0.9263450000000001 2.2118849999999997" stroke-width="1"></path><path id="Vector_108" stroke="#000000" stroke-dasharray="2.97 4.94" stroke-linecap="round" stroke-linejoin="round" d="m88.60276 81.25866500000001 3.081515 10.1888 -7.4475750000000005 71.09474" stroke-width="1"></path><path id="Vector_109" stroke="#000000" stroke-dasharray="2.97 4.94" stroke-linecap="round" stroke-linejoin="round" d="m103.839195 106.43714 15.34887 13.28922 19.849255000000003 5.690405" stroke-width="1"></path></g></g></svg>