<svg xmlns="http://www.w3.org/2000/svg" fill="none" viewBox="-0.5 -0.5 200 200" id="Virtual-Reality--Streamline-Bangalore"><desc>Virtual Reality Streamline Illustration: https://streamlinehq.com</desc><g id="Technology-Virtual-reality-01"><g id="color 2"><path id="Vector" fill="#000000" d="m158.068685 84.28247 -0.2985 -1.99a2.673565 2.673565 0 0 1 0.490535 -1.996965 2.69048 2.69048 0 0 1 1.75916 -1.06465l-4.045669999999999 0.603965a2.6944600000000003 2.6944600000000003 0 0 0 -2.2795449999999997 2.5989400000000002l-7.682395 0.995c0.964155 0.90744 1.8526900000000002 1.791 2.552175 2.5710800000000003l5.563045 -0.67262a2.6715750000000003 2.6715750000000003 0 0 0 2.94321 1.843735L161.0905 86.565a2.6536649999999997 2.6536649999999997 0 0 1 -3.0218149999999997 -2.28253Z" stroke-width="1"></path><path id="Vector_2" fill="#000000" d="M67.631145 64.39441000000001C62.829275 62.1875 55.569754999999994 52.674305 54.2275 55.245385000000006c-0.6965 1.32335 8.299294999999999 18.223425000000002 8.979875 20.681075a23.793435 23.793435 0 0 1 10.2485 -3.762095c-1.23181 -2.4009349999999996 -1.0427600000000001 -5.55807 -5.82473 -7.769955Z" stroke-width="1"></path><path id="Vector_3" fill="#000000" d="M49.595774999999996 104.67997a9.650504999999999 9.650504999999999 0 0 0 -3.724285 0.22686c-5.1421600000000005 1.208925 -16.257305 -1.871595 -16.181685 1.02087 0.056715 1.90841 19.622395 9.679359999999999 20.416404999999997 10.472375a23.84219 23.84219 0 0 1 5.17997 -8.955c-1.75518 -0.8178899999999999 -3.17604 -2.3681 -5.690405 -2.7651049999999997Z" stroke-width="1"></path><path id="Vector_4" fill="#000000" d="M174.629465 27.262999999999998a7.770949999999999 7.770949999999999 0 0 0 -6.872465 5.23569 7.77294 7.77294 0 0 0 6.313275 10.2286 7.77294 7.77294 0 0 0 8.800775 -8.18686 7.77891 7.77891 0 0 0 -2.611875 -5.34713 7.763985 7.763985 0 0 0 -5.62971 -1.9303Zm-3.610855 11.402700000000001a1.63777 1.63777 0 1 1 1.7422449999999998 -0.52934 1.6427450000000001 1.6427450000000001 0 0 1 -1.105445 0.592025c-0.21492 0.02189 -0.43083499999999997 0 -0.6368 -0.062685Zm5.123255 -4.5371999999999995a2.3681 2.3681 0 1 1 2.94918 -1.592 2.379045 2.379045 0 0 1 -2.94918 1.592Zm1.228825 5.373a0.89749 0.89749 0 1 1 0.51143 -1.720355 0.89749 0.89749 0 0 1 -0.51143 1.720355Z" stroke-width="1"></path><path id="Vector_5" fill="#000000" d="M165.063535 136.83638a4.38994 4.38994 0 0 1 -1.87458 4.508344999999999 4.3979 4.3979 0 0 1 -4.882465 -0.006965 4.3939200000000005 4.3939200000000005 0 1 1 6.757045000000001 -4.50138Z" stroke-width="1"></path></g><g id="color 1"><path id="Vector_6" fill="#000000" d="M140.05023 51.615625c-0.28058999999999995 -9.622644999999999 6.846595 -7.732145 10.6465 5.02873 -1.5124 -6.46551 7.90627 -14.29218 8.57889 22.834255000000002 -0.34825 0.15721 -0.6527200000000001 0.39601000000000003 -0.888535 0.6965 -2.26462 -5.42275 -6.584910000000001 -2.142235 -5.992884999999999 2.2885 0.078605 0.59302 -0.35123499999999996 0.9064450000000001 -1.246735 -0.07164 -0.9382849999999999 -1.049725 -2.03179 -0.46764999999999995 -2.13527 0.66267l-2.4805349999999997 0.30247999999999997a42.003925 42.003925 0 0 1 -8.6366 -12.516105000000001c-4.215815 -8.828634999999998 -1.833785 -19.075145 5.2934 -4.556105a40.201980000000006 40.201980000000006 0 0 1 -3.13823 -14.669285Z" stroke-width="1"></path><path id="Vector_7" fill="#000000" d="M150.71265 85.907305c0.385065 1.2537 0.5572 2.564115 0.50944 3.875525 -0.180095 -1.5472249999999999 -0.914405 -2.6367499999999997 -2.0407450000000003 -3.8267700000000002l1.531305 -0.048755Z" stroke-width="1"></path><path id="Vector_8" fill="#000000" d="M125.327215 58.34282c-0.32138500000000003 -0.6965 -0.796 -1.6417499999999998 -1.24773 -2.51138 1.45469 0.18706 1.871595 1.169125 1.24773 2.51138Z" stroke-width="1"></path><path id="Vector_9" fill="#000000" d="M118.95623 92.46734000000001c-1.417875 0.6049599999999999 -1.81488 3.270565 -1.2855400000000001 6.9948500000000005l8.374915 -1.3989699999999998c-2.21288 -3.270565 -5.1421600000000005 -6.389889999999999 -7.0893749999999995 -5.595879999999999Z" stroke-width="1"></path><path id="Vector_10" fill="#000000" d="M134.21157 122.982c-0.32138500000000003 1.8526900000000002 -1.3044449999999999 3.0058949999999998 -3.119325 2.2118849999999997 1.039775 -0.72038 2.07955 -1.457675 3.119325 -2.2118849999999997Z" stroke-width="1"></path><path id="Vector_11" fill="#000000" d="M114.24988 64.867035c-1.720355 -0.094525 -2.2885 -1.153205 -1.45668 -2.7223200000000003 0.434815 0.93331 0.920375 1.84274 1.45668 2.7223200000000003Z" stroke-width="1"></path><path id="Vector_12" fill="#000000" d="M152.86981 96.153815a0.80396 0.80396 0 1 1 -1.60792 0 0.80396 0.80396 0 0 1 1.60792 0Z" stroke-width="1"></path><path id="Vector_13" fill="#000000" d="M166.084405 91.69223500000001a0.80595 0.80595 0 0 1 -1.606925 0 0.8049550000000001 0.8049550000000001 0 0 1 1.606925 0Z" stroke-width="1"></path><path id="Vector_14" fill="#000000" d="M171.339 77.36323999999999a0.8049550000000001 0.8049550000000001 0 1 1 -1.60792 -0.056715 0.8049550000000001 0.8049550000000001 0 0 1 1.60792 0.056715Z" stroke-width="1"></path><path id="Vector_15" fill="#000000" d="M183.7765 70.17934a0.8049550000000001 0.8049550000000001 0 0 1 -1.606925 0 0.8049550000000001 0.8049550000000001 0 0 1 1.606925 0Z" stroke-width="1"></path><path id="Vector_16" fill="#000000" d="M149.60024 109.55746a0.80595 0.80595 0 0 1 -0.80396 0.7761 0.806945 0.806945 0 0 1 -0.802965 -0.7761 0.80595 0.80595 0 0 1 0.802965 -0.7761 0.8079400000000001 0.8079400000000001 0 0 1 0.80396 0.7761Z" stroke-width="1"></path><path id="Vector_17" fill="#000000" d="M135.440395 104.71778a0.80595 0.80595 0 0 1 -0.80396 0.7761 0.806945 0.806945 0 0 1 -0.802965 -0.7761 0.80595 0.80595 0 0 1 0.802965 -0.7761 0.8079400000000001 0.8079400000000001 0 0 1 0.80396 0.7761Z" stroke-width="1"></path><path id="Vector_18" fill="#000000" d="M139.637305 90.744a0.8049550000000001 0.8049550000000001 0 0 1 -1.606925 0 0.8049550000000001 0.8049550000000001 0 0 1 1.606925 0Z" stroke-width="1"></path><path id="Vector_19" fill="#000000" d="M135.95083 76.15332000000001a0.80595 0.80595 0 0 1 -1.606925 0 0.8049550000000001 0.8049550000000001 0 0 1 1.606925 0Z" stroke-width="1"></path><path id="Vector_20" fill="#000000" d="M120.48753500000001 70.17934a0.8049550000000001 0.8049550000000001 0 0 1 -1.606925 0 0.8049550000000001 0.8049550000000001 0 0 1 1.606925 0Z" stroke-width="1"></path><path id="Vector_21" fill="#000000" d="M130.714145 92.344955h-2.9113700000000002l7.63762 7.344095 -4.72625 -7.344095Z" stroke-width="1"></path><path id="Vector_22" fill="#000000" d="M155.4787 90.784795a8.730129999999999 8.730129999999999 0 0 1 -2.04174 -0.83182l1.92831 2.552175a5.61578 5.61578 0 0 1 0.11343 -1.720355Z" stroke-width="1"></path><path id="Vector_23" fill="#000000" d="M155.93242 95.54885499999999c0.68655 3.49245 0.096515 7.115245 -1.66364 10.2087l2.6467 -2.3253150000000002a15.75085 15.75085 0 0 0 -0.9830599999999999 -7.883385Z" stroke-width="1"></path></g><g id="outlines"><path id="Vector_24" stroke="#000000" stroke-linecap="round" stroke-linejoin="round" d="M159.278605 79.4806c-0.6805800000000001 -37.128425 -10.094275 -29.301755 -8.581875 -22.836245 -3.799905 -12.760874999999999 -10.9251 -14.651375 -10.6465 -5.02873a40.244765 40.244765 0 0 0 3.13823 14.669285c-7.127185 -14.518044999999999 -9.507225 -4.273525 -5.2934 4.556105a41.948205 41.948205 0 0 0 8.609735 12.490235m4.717295 6.45158c-0.180095 -1.551205 -0.9193800000000001 -2.64073 -2.0497 -3.83473" stroke-width="1"></path><path id="Vector_25" stroke="#000000" stroke-linecap="round" stroke-linejoin="round" d="M58.481125 125.53119000000001a37.988105000000004 37.988105000000004 0 0 1 -38.76122 -49.68831 37.987109999999994 37.987109999999994 0 1 1 70.558435 27.798309999999997" stroke-width="1"></path><path id="Vector_26" stroke="#000000" stroke-linecap="round" stroke-linejoin="round" d="M66.723705 95.095135c-5.55807 3.346185 -11.53205 6.711275 -17.12793 9.584834999999998" stroke-width="1"></path><path id="Vector_27" stroke="#000000" stroke-linecap="round" stroke-linejoin="round" d="M83.779 61.93676c12.193725 -4.611825 20.854205 -5.9560699999999995 22.62829 -2.892465 2.329295 4.024775 -7.9401 14.575755 -24.63222 26.296854999999997" stroke-width="1"></path><path id="Vector_28" stroke="#000000" stroke-linecap="round" stroke-linejoin="round" d="M37.403045 110.55942499999999c-17.033405 7.617719999999999 -29.88781 10.6465 -32.099695000000004 6.823709999999999 -1.7959749999999999 -3.10042 3.8944300000000003 -10.094275 14.272279999999999 -18.507" stroke-width="1"></path><path id="Vector_29" stroke="#000000" stroke-linecap="round" stroke-linejoin="round" d="m127.802775 92.344955 7.63762 7.344095 -22.798435 -35.483689999999996" stroke-width="1"></path><path id="Vector_30" stroke="#000000" stroke-linecap="round" stroke-linejoin="round" d="M159.52437 86.323215c0.037809999999999996 7.316235 -6.08741 3.62976 -6.08741 3.62976" stroke-width="1"></path><path id="Vector_31" stroke="#000000" stroke-linecap="round" stroke-linejoin="round" d="m153.43696 89.952975 1.929305 2.50939" stroke-width="1"></path><path id="Vector_32" stroke="#000000" stroke-linecap="round" stroke-linejoin="round" d="M158.408975 80.12337c-2.164125 -5.273499999999999 -6.689385 -2.2208400000000004 -6.020745 2.41387 0.06567 0.456705 -0.2985 0.8955 -1.2377799999999999 -0.14526999999999998 -0.9293300000000001 -1.0348 -2.0158699999999996 -0.46566 -2.13129 0.647745m0.31641 7.007785c1.24773 1.266635 2.741225 1.3044449999999999 1.380065 -4.140194999999999a6.673465 6.673465 0 0 1 -0.18905 -0.14129" stroke-width="1"></path><path id="Vector_33" stroke="#000000" stroke-linecap="round" stroke-linejoin="round" d="M125.43964999999999 56.568735000000004c5.35111 9.160965000000001 17.89607 29.490804999999998 26.523715 35.76627a4.08945 4.08945 0 0 0 3.4825 0.850725 7.316235 7.316235 0 0 1 0.037809999999999996 -2.4198399999999998" stroke-width="1"></path><path id="Vector_34" stroke="#000000" stroke-linecap="round" stroke-linejoin="round" d="M156.76424 103.5795c1.039775 -3.32728 -0.83182 -8.034625 -0.83182 -8.034625s4.436705 14.30213 -22.41934 29.382350000000002" stroke-width="1"></path><path id="Vector_35" stroke="#000000" stroke-linecap="round" stroke-linejoin="round" d="M130.714145 92.344955H120.07660000000001" stroke-width="1"></path><path id="Vector_36" stroke="#000000" stroke-linecap="round" stroke-linejoin="round" d="M154.26878000000002 105.757555s19.018430000000002 -15.820500000000001 32.213125 -37.18514a13.644435 13.644435 0 0 0 -7.42867 -6.0695 188.86095 188.86095 0 0 1 -13.532 17.27917" stroke-width="1"></path><path id="Vector_37" stroke="#000000" stroke-linecap="round" stroke-linejoin="round" d="M126.0665 123.13025499999999c-11.871345 3.74319 -24.5765 5.735180000000001 -37.826915 6.938135a12.00965 12.00965 0 0 1 -12.382775 -7.921195c-4.5969 -12.910124999999999 -8.860475 -25.385435 -14.57476 -44.783955a22.99445 22.99445 0 0 1 7.154050000000001 -4.02776 25.783435 25.783435 0 0 1 7.11823 -1.360165l14.91306 32.061885 35.578215 -5.97" stroke-width="1"></path><path id="Vector_38" stroke="#000000" stroke-linecap="round" stroke-linejoin="round" d="M131.092245 125.1909c5.34912 2.3402399999999997 3.198925 -9.827615 -0.3781 -18.336855 -2.018855 -4.802865 -8.32616 -16.36974 -11.92806 -14.282229999999998 -1.27957 0.741275 -1.622845 3.338225 -1.115395 6.90928" stroke-width="1"></path><path id="Vector_39" stroke="#000000" stroke-linecap="round" stroke-linejoin="round" d="m72.86683500000001 113.65885 -16.35183 -7.4625a24.364565 24.364565 0 0 0 -7.07047 12.57083 247.109245 247.109245 0 0 0 37.67667 24.273025 11.94199 11.94199 0 0 0 10.34004 0.434815 193.176265 193.176265 0 0 0 36.750325000000004 -20.497" stroke-width="1"></path><path id="Vector_40" stroke="#000000" stroke-linecap="round" stroke-linejoin="round" d="M73.45289 72.164365a23.78846 23.78846 0 0 0 -10.2485 3.762095c-0.6805800000000001 -2.45765 -9.676375 -19.35673 -8.979875 -20.681075 1.34922 -2.568095 8.602770000000001 6.9341550000000005 13.403645 9.154 4.786945 2.203925 4.595905 5.364045 5.82473 7.76498Z" stroke-width="1"></path><path id="Vector_41" stroke="#000000" stroke-linecap="round" stroke-linejoin="round" d="M49.595774999999996 104.67997a9.650504999999999 9.650504999999999 0 0 0 -3.724285 0.22686c-5.1421600000000005 1.208925 -16.257305 -1.871595 -16.181685 1.02087 0.056715 1.90841 19.622395 9.679359999999999 20.416404999999997 10.472375a23.84219 23.84219 0 0 1 5.17997 -8.955c-1.75518 -0.8178899999999999 -3.17604 -2.3681 -5.690405 -2.7651049999999997Z" stroke-width="1"></path><path id="Vector_42" stroke="#000000" stroke-linecap="round" stroke-linejoin="round" d="M116.630915 45.906315s0 -2.249695 -0.018904999999999998 -5.74712c-0.0199 -3.66757 1.40295 -4.37004 1.9472150000000001 -0.207955 0.05870499999999999 0.45372 0.7562 5.009825 0.964155 6.35208 0.11343 0.737295 0.641775 2.773065 1.32335 2.6865 1.869605 -0.243775 5.3929 -4.33422 6.502325 -3.119325 0.72237 0.796 -1.451705 3.66956 -3.06261 5.6147849999999995a3.5919499999999998 3.5919499999999998 0 0 0 -0.414915 3.97005c0.05572 0.11144 1.3551900000000001 2.725305 1.4556850000000001 2.8855" stroke-width="1"></path><path id="Vector_43" stroke="#000000" stroke-linecap="round" stroke-linejoin="round" d="M116.9125 46.83266s-2.418845 -7.656525 -2.5710800000000003 -8.16696c-1.19997 -4.010845 -2.4815300000000002 -3.099425 -1.8904999999999998 0.510435 0.56317 3.4417050000000002 1.194 7.63762 1.194 7.63762" stroke-width="1"></path><path id="Vector_44" stroke="#000000" stroke-linecap="round" stroke-linejoin="round" d="M114.24888499999999 48.058499999999995a65.187425 65.187425 0 0 1 -3.0845000000000002 -7.1838999999999995c-1.44076 -3.93025 -2.518345 -2.948185 -1.8526900000000002 0.661675a44.3372 44.3372 0 0 0 1.592 6.57894" stroke-width="1"></path><path id="Vector_45" stroke="#000000" stroke-linecap="round" stroke-linejoin="round" d="M112.782255 62.164615c-0.8159 1.55817 -0.24477 2.6088899999999997 1.4676250000000002 2.70242 3.4825 0.18905 9.61369 -3.399915 11.077335 -6.524215000000001 0.62884 -1.340265 0.20695999999999998 -2.32233 -1.24773 -2.51138" stroke-width="1"></path><path id="Vector_46" stroke="#000000" stroke-linecap="round" stroke-linejoin="round" d="M112.242965 50.08631a28.252029999999998 28.252029999999998 0 0 1 -3.419815 -5.9003499999999995c-1.640755 -3.8805 -2.67257 -2.814855 -1.758165 0.86963 0.243775 0.9830599999999999 0.4975 1.8327900000000001 0.71839 2.552175 0.64675 2.05965 1.266635 4.140194999999999 1.8526900000000002 6.2197450000000005 0.64078 2.2885 2.87157 8.488345 4.613815 11.0445" stroke-width="1"></path><path id="Vector_47" stroke="#000000" stroke-linecap="round" stroke-linejoin="round" d="M118.143315 46.45456c-3.51633 1.115395 -5.501355 2.9113700000000002 -7.788860000000001 5.8227400000000005" stroke-width="1"></path><path id="Vector_48" stroke="#000000" stroke-linecap="round" stroke-linejoin="round" d="M119.012945 48.099295a12.658389999999999 12.658389999999999 0 0 0 -3.648665 9.547025000000001" stroke-width="1"></path><path id="Vector_49" stroke="#000000" stroke-linecap="round" stroke-linejoin="round" d="M179.84724500000002 62.825295s2.3820300000000003 -4.385960000000001 1.6815499999999999 -7.825675c-0.8308249999999999 -4.0794999999999995 -0.16119 -4.1640749999999995 1.871595 -0.6049599999999999 1.348225 2.359145 2.11736 8.014725 2.11736 8.014725" stroke-width="1"></path><path id="Vector_50" stroke="#000000" stroke-linecap="round" stroke-linejoin="round" d="M185.91475499999999 67.664975s3.6287649999999996 -5.917265 4.49939 -9.90622c0.755205 -3.459615 -0.5482450000000001 -1.90841 -1.02087 -0.796" stroke-width="1"></path><path id="Vector_51" stroke="#000000" stroke-linecap="round" stroke-linejoin="round" d="M186.31972 54.865294999999996a19.939799999999998 19.939799999999998 0 0 0 0.18109 -3.873535c-0.24576499999999998 -3.66757 -1.1183800000000002 -3.4228 -1.70145 -0.26467a37.066735 37.066735 0 0 1 -1.05868 4.385960000000001" stroke-width="1"></path><path id="Vector_52" stroke="#000000" stroke-linecap="round" stroke-linejoin="round" d="M185.63118 54.073274999999995a11.169870000000001 11.169870000000001 0 0 1 2.930275 6.29437" stroke-width="1"></path><path id="Vector_53" stroke="#000000" stroke-linecap="round" stroke-linejoin="round" d="M186.50081 52.901165c0.28357499999999997 -0.796 0.5492400000000001 -1.6845350000000001 0.796 -2.665605 0.86565 -3.4417050000000002 1.6258299999999999 -2.741225 1.4556850000000001 0.359195a28.03512 28.03512 0 0 1 -1.159175 6.4187449999999995" stroke-width="1"></path><path id="Vector_54" stroke="#000000" stroke-linecap="round" stroke-linejoin="round" d="M188.561455 52.84445c0.888535 -3.74319 1.77906 -3.13823 1.531305 0.24576499999999998a22.622320000000002 22.622320000000002 0 0 1 -1.644735 6.59685" stroke-width="1"></path><path id="Vector_55" stroke="#000000" stroke-linecap="round" stroke-linejoin="round" d="m54.964795 143.603375 0.45372 2.6088899999999997" stroke-width="1"></path><path id="Vector_56" stroke="#000000" stroke-linecap="round" stroke-linejoin="round" d="m53.39568 149.10473000000002 -2.627795 0.47262499999999996" stroke-width="1"></path><path id="Vector_57" stroke="#000000" stroke-linecap="round" stroke-linejoin="round" d="m60.938775 147.78138 -2.627795 0.45372" stroke-width="1"></path><path id="Vector_58" stroke="#000000" stroke-linecap="round" stroke-linejoin="round" d="m56.741865000000004 153.75536 -0.45372 -2.627795" stroke-width="1"></path><path id="Vector_59" stroke="#000000" stroke-linecap="round" stroke-linejoin="round" d="M58.307 148.2351a2.4755599999999998 2.4755599999999998 0 0 1 -2.542225 -1.1124100000000001 2.484515 2.484515 0 0 1 -0.35024 -0.910425 2.4775500000000004 2.4775500000000004 0 0 1 -2.0228349999999997 2.892465 2.494465 2.494465 0 0 1 1.8686099999999999 0.40695499999999996 2.4755599999999998 2.4755599999999998 0 0 1 1.023855 1.6158800000000002 2.4775500000000004 2.4775500000000004 0 0 1 2.0228349999999997 -2.892465v0Z" stroke-width="1"></path><path id="Vector_60" stroke="#000000" stroke-linecap="round" stroke-linejoin="round" d="m92.73599 31.44399 0.32138500000000003 1.833785" stroke-width="1"></path><path id="Vector_61" stroke="#000000" stroke-linecap="round" stroke-linejoin="round" d="m91.62059500000001 35.319515 -1.833785 0.32138500000000003" stroke-width="1"></path><path id="Vector_62" stroke="#000000" stroke-linecap="round" stroke-linejoin="round" d="m96.95081 34.393170000000005 -1.8516949999999999 0.32138500000000003" stroke-width="1"></path><path id="Vector_63" stroke="#000000" stroke-linecap="round" stroke-linejoin="round" d="m93.98372 38.608985 -0.32138500000000003 -1.8526900000000002" stroke-width="1"></path><path id="Vector_64" stroke="#000000" stroke-linecap="round" stroke-linejoin="round" d="M95.099115 34.714555000000004a1.760155 1.760155 0 0 1 -2.04174 -1.43678 1.76115 1.76115 0 0 1 -1.43678 2.044725 1.760155 1.760155 0 0 1 2.04174 1.43678 1.76115 1.76115 0 0 1 1.43678 -2.044725Z" stroke-width="1"></path><path id="Vector_65" stroke="#000000" stroke-linecap="round" stroke-linejoin="round" d="m183.570535 82.978025 0.8129149999999999 4.574015" stroke-width="1"></path><path id="Vector_66" stroke="#000000" stroke-linecap="round" stroke-linejoin="round" d="m180.82931 92.61858000000001 -4.574015 0.8129149999999999" stroke-width="1"></path><path id="Vector_67" stroke="#000000" stroke-linecap="round" stroke-linejoin="round" d="m194.025 90.293265 -4.57501 0.8129149999999999" stroke-width="1"></path><path id="Vector_68" stroke="#000000" stroke-linecap="round" stroke-linejoin="round" d="m186.708765 100.728825 -0.8129149999999999 -4.57501" stroke-width="1"></path><path id="Vector_69" stroke="#000000" stroke-linecap="round" stroke-linejoin="round" d="M189.448 91.10618a4.37601 4.37601 0 0 1 -5.06654 -3.55414 4.378 4.378 0 0 1 -3.55414 5.06654 4.37601 4.37601 0 0 1 5.06654 3.55414 4.378 4.378 0 0 1 3.55414 -5.06654v0Z" stroke-width="1"></path><path id="Vector_70" stroke="#000000" stroke-linecap="round" stroke-linejoin="round" d="m160.753195 137.687105 -35.06778 14.404615" stroke-width="1"></path><path id="Vector_71" stroke="#000000" stroke-linecap="round" stroke-linejoin="round" d="m117.40602 162.810855 43.347175 -25.12375 -52.799675 41.05967" stroke-width="1"></path><path id="Vector_72" stroke="#000000" stroke-linecap="round" stroke-linejoin="round" d="M165.063535 136.83638a4.38994 4.38994 0 0 1 -1.87458 4.508344999999999 4.3979 4.3979 0 0 1 -4.882465 -0.006965 4.3939200000000005 4.3939200000000005 0 1 1 6.757045000000001 -4.50138v0Z" stroke-width="1"></path><path id="Vector_73" stroke="#000000" stroke-linecap="round" stroke-linejoin="round" d="M162.36012 78.91345c21.059175 -20.852215 -15.576725 -37.81 5.48245 -58.660225" stroke-width="1"></path><path id="Vector_74" stroke="#000000" stroke-linecap="round" stroke-linejoin="round" d="m69.87984499999999 72.88275499999999 13.630505 36.99609" stroke-width="1"></path><path id="Vector_75" stroke="#000000" stroke-linecap="round" stroke-linejoin="round" d="M83.51035 109.878845a8.443570000000001 8.443570000000001 0 0 0 9.26345 5.405835" stroke-width="1"></path><path id="Vector_76" stroke="#000000" stroke-linecap="round" stroke-linejoin="round" d="m92.792705 115.28468000000001 38.772165 -6.313275" stroke-width="1"></path><path id="Vector_77" stroke="#000000" stroke-linecap="round" stroke-linejoin="round" d="m148.560465 86.002825 5.632695 -0.6805800000000001 -0.434815 -2.892465 -7.750055 1.001965 2.552175 2.5710800000000003Z" stroke-width="1"></path><path id="Vector_78" stroke="#000000" stroke-linecap="round" stroke-linejoin="round" d="m160.0159 79.25374000000001 -4.045669999999999 0.6049599999999999a2.69048 2.69048 0 0 0 -2.20293 2.014875 2.67257 2.67257 0 0 0 -0.046765 1.0477349999999999l0.2985 1.99a2.687495 2.687495 0 0 0 3.043705 2.267605L161.0905 86.565" stroke-width="1"></path><path id="Vector_79" stroke="#000000" stroke-linecap="round" stroke-linejoin="round" d="M164.11828500000001 86.11526a2.68053 2.68053 0 0 0 1.75916 -1.06465 2.691475 2.691475 0 0 0 0.490535 -1.996965l-0.2985 -1.99a2.685505 2.685505 0 0 0 -3.043705 -2.2685999999999997l-3.0058949999999998 0.45372a2.69048 2.69048 0 0 0 -2.20293 2.014875 2.67257 2.67257 0 0 0 -0.046765 1.0477349999999999l0.2985 1.985025a2.67058 2.67058 0 0 0 1.98005 2.21288c0.34029000000000004 0.08656499999999999 0.69451 0.10547 1.0417649999999998 0.05572l3.027785 -0.44974000000000003Z" stroke-width="1"></path><path id="Vector_80" stroke="#000000" d="M174.629465 27.262999999999998a7.770949999999999 7.770949999999999 0 0 0 -6.872465 5.23569 7.77294 7.77294 0 0 0 6.313275 10.2286 7.77294 7.77294 0 0 0 8.800775 -8.18686 7.77891 7.77891 0 0 0 -2.611875 -5.34713 7.763985 7.763985 0 0 0 -5.62971 -1.9303Zm-3.610855 11.402700000000001a1.63777 1.63777 0 1 1 1.7422449999999998 -0.52934 1.6427450000000001 1.6427450000000001 0 0 1 -1.105445 0.592025c-0.21492 0.02189 -0.43083499999999997 0 -0.6368 -0.062685Zm5.123255 -4.5371999999999995a2.3681 2.3681 0 1 1 2.94918 -1.592 2.379045 2.379045 0 0 1 -2.94918 1.592Zm1.228825 5.373a0.89749 0.89749 0 1 1 0.51143 -1.720355 0.89749 0.89749 0 0 1 -0.51143 1.720355Z" stroke-width="1"></path></g></g></svg>