<svg xmlns="http://www.w3.org/2000/svg" fill="none" viewBox="-0.5 -0.5 200 200" id="Business-Deal--Streamline-Bangalore"><desc>Business Deal Streamline Illustration: https://streamlinehq.com</desc><g id="Business-Business-deal-01"><g id="color 2"><path id="Vector" fill="#000000" d="M42.14223 156.63091c-0.20924849999999998 -0.627845 -0.2886495 -1.292505 -0.233427 -1.9521899999999999 0.0552225 -0.6596850000000001 0.243974 -1.30146 0.554812 -1.8855250000000001 -2.6340635 -2.2516849999999997 -5.5669255 -4.128255 -8.715205000000001 -5.576975 -2.2885 2.39397 -5.14017 5.83667 -6.23865 6.9948500000000005 1.8904999999999998 -1.24773 19.226385 11.172854999999998 19.906965 14.273275 0.32138500000000003 -4.27253 -4.0765150000000006 -8.098305 -5.274495 -11.853435000000001Z" stroke-width="1"></path><path id="Vector_2" fill="#000000" d="M92.50515 149.654965c-0.7539115000000001 -0.888535 -1.139474 -2.03179 -1.077585 -3.1949449999999997 -3.266585 -0.54128 -6.5877954999999995 -0.675605 -9.887315 -0.398 -0.042387 1.0566900000000001 -0.1419865 2.1113899999999997 -0.2985 3.1571350000000002 -0.359195 2.2885 -0.86963 3.1949449999999997 -1.228825 5.33121 0.5482450000000001 -2.060645 21.835275 1.758165 22.818335 4.140194999999999 -0.76018 -4.574015 -7.622694999999999 -5.708315 -10.32611 -9.035594999999999Z" stroke-width="1"></path><path id="Vector_3" fill="#000000" d="M182.56857 122.091475c-1.115395 -0.796 -3.7809999999999997 -2.4198399999999998 -7.2635 -4.49939l-16.218500000000002 3.421805 -4.76207 -22.440235 2.665605 -0.5671499999999999c-2.0954699999999997 -14.052385 -2.49944 -16.25631 -4.27253 -23.74468 -5.16007 5.50434 -17.638365 8.328149999999999 -23.007385 6.824705 0.14129 0.42386999999999997 0.24576499999999998 0.6965 0.71839 1.833785 -8.756 19.112955 -10.114175 22.61038 -10.378844999999998 25.74861 -0.2985 3.6815 0.094525 6.144125 7.127185 33.461850000000005 4.2785 1.194 11.429565 -0.8178899999999999 13.76284 -3.28947 -1.9661199999999999 -8.488345 -3.97005 -16.93888 -6.144125 -27.998305 0.26765500000000003 -0.73829 0.584065 -1.457675 0.9452499999999999 -2.15517 1.90642 -5.5540899999999995 3.137235 -11.317528 3.66757 -17.16574 3.51036 15.91005 4.542175 21.331805 6.95704 24.028255 2.438745 2.703415 5.273499999999999 4.423769999999999 28.867935000000003 17.711000000000002 3.53822 -0.9163950000000001 7.94607 -7.2436 7.33514 -11.169870000000001Z" stroke-width="1"></path><path id="Vector_4" fill="#000000" d="M47.076435000000004 114.907575c-11.47633 1.415885 -13.233500000000001 1.618865 -23.007385 2.892465L44.259589999999996 131.93699999999998c0.87162 -0.88157 4.960075000000001 -5.01878 5.8227400000000005 -5.917265 -0.4577 -1.445735 -2.27855 -8.20477 -3.0058949999999998 -11.11216Z" stroke-width="1"></path><path id="Vector_5" fill="#000000" d="M30.98828 112.69569c0 -0.010945 0.037809999999999996 -3.55414 0.037809999999999996 -3.55414 -0.9115195 0.13333 -1.73528 0.6169 -2.2964599999999997 1.3472300000000001 -0.5611799999999999 0.73033 -0.815701 1.650705 -0.7094349999999999 2.5661050000000003l0.47262499999999996 3.383 2.94918 -0.3781 -0.45372 -3.364095Z" stroke-width="1"></path><path id="Vector_6" fill="#000000" d="M43.481500000000004 111.164385c-0.10875349999999999 -0.860675 -0.534514 -1.648715 -1.194 -2.2118849999999997 -0.7324195 0.2587 -1.494689 0.42386999999999997 -2.2685999999999997 0.49152999999999997 0.160195 0.6965 0.21094 0.94326 0.3781 1.77707 0.15522 0.15522 0.108455 0.12139 0.586055 3.6815l2.94918 -0.3781 -0.450735 -3.360115Z" stroke-width="1"></path></g><g id="color 1"><path id="Vector_7" fill="#000000" d="M182.549665 123.944165c-0.789035 3.533245 -2.8825149999999997 6.63864 -5.86055 8.6963 0.2985 3.85662 1.9472150000000001 12.647445 3.51633 15.01057 3.0845000000000002 -3.686475 7.10828 -16.957784999999998 7.316235 -22.04323 -1.612895 -0.67859 -3.27554 -1.234795 -4.972015 -1.66364Z" stroke-width="1"></path><path id="Vector_8" fill="#000000" d="M139.862175 139.74874499999999c-3.0944499999999997 1.831795 -6.631675 2.779035 -10.227605 2.741225 -2.8327649999999998 3.6257800000000002 -5.049625 7.69334 -6.560035 12.0395 4.875500000000001 -0.5482450000000001 15.84239 -5.463545 19.47215 -9.18783 -0.69451 -1.95418 -1.59399 -3.82876 -2.68451 -5.592895Z" stroke-width="1"></path><path id="Vector_9" fill="#000000" d="M46.417745000000004 168.981845C42.206905 167.95600000000002 25.7705 157.103535 27.377425 154.3245c1.4477250000000002 -1.73727 17.77667 9.99975 19.817415 13.666324999999999 0.46566 0.84376 0.23084000000000002 1.2377799999999999 -0.777095 0.99102Z" stroke-width="1"></path><path id="Vector_10" fill="#000000" d="M93.550895 155.40009500000002c-5.950100000000001 -1.236785 -12.68625 -1.95816 -13.459365 -0.95719 -1.6556799999999998 2.1412400000000003 10.259445 4.179 12.949925 4.528245 4.447649999999999 0.58307 8.569935 0.73431 9.59976 0.209945 2.120345 -1.0755949999999999 -6.617745 -3.264595 -9.090319999999998 -3.7809999999999997Z" stroke-width="1"></path><path id="Vector_11" fill="#000000" d="M95.208565 148.596285c-0.037809999999999996 -0.6805800000000001 -0.9452499999999999 -1.55021 -3.762095 -2.11736 -0.070844 1.165145 0.315813 2.311385 1.077585 3.1949449999999997 1.909405 0 2.7223200000000003 -0.510435 2.68451 -1.077585Z" stroke-width="1"></path><path id="Vector_12" fill="#000000" d="M78.62888 147.53760499999999c-0.07561999999999999 0.8129149999999999 0.888535 1.380065 2.627795 1.70145 0.15123999999999999 -1.05868 0.24576499999999998 -2.098455 0.2985 -3.1571350000000002 -1.9999499999999997 0.24576499999999998 -2.8506750000000003 0.78008 -2.9262949999999996 1.4556850000000001Z" stroke-width="1"></path><path id="Vector_13" fill="#000000" d="M33.74841 147.197315c-0.8129149999999999 0.83182 -1.791 1.9472150000000001 -2.779035 3.06261 -1.47459 -1.2099199999999999 -1.99 -2.5710800000000003 -1.4556850000000001 -3.28947l0.11343 -0.132335c0.5482450000000001 -0.510435 1.8904999999999998 -0.5671499999999999 4.12129 0.359195Z" stroke-width="1"></path><path id="Vector_14" fill="#000000" d="M42.4865 152.793195c2.34422 2.00393 3.23574 3.4825 2.930275 4.12129 -0.261685 0.5492400000000001 -1.3989699999999998 0.52934 -3.270565 -0.28357499999999997 -0.21750699999999998 -0.627845 -0.2995945 -1.2935 -0.2408895 -1.955175 0.0586055 -0.661675 0.25671 -1.30345 0.5811795 -1.8825399999999999Z" stroke-width="1"></path><path id="Vector_15" fill="#000000" d="M130.04649999999998 82.012875c-1.23579 -3.45663 -0.12736 -0.06965 -3.270565 -8.96097 0.5144150000000001 3.7450805 0.71043 7.526976 0.586055 11.30519 1.13828 -0.964155 2.0646250000000004 -1.7959749999999999 2.68451 -2.34422Z" stroke-width="1"></path><path id="Vector_16" fill="#000000" d="M152.036 71.48279c-4.631725 5.273499999999999 -18.108999999999998 8.6963 -23.328770000000002 6.975945 0.359195 0.9830599999999999 0.6965 1.8904999999999998 0.9830599999999999 2.6467 5.484439999999999 1.535285 17.934874999999998 -1.4327999999999999 23.007385 -6.84361 -0.225865 -0.9452499999999999 -0.43382 -1.8904999999999998 -0.661675 -2.779035Z" stroke-width="1"></path><path id="Vector_17" fill="#000000" d="M139.408455 91.52209c-0.530335 5.848212 -1.76115 11.61165 -3.66757 17.16574 0.9830599999999999 -1.9472150000000001 2.627795 -4.7451550000000005 5.273499999999999 -9.887315l-1.60593 -7.278425Z" stroke-width="1"></path><path id="Vector_18" fill="#000000" d="M173.15388 81.91835c-0.37412 -0.7907265 -0.67859 -1.6131935 -0.90744 -2.45765 1.14425 0.048755 1.75319 0.33034 1.99 0.6965 0.434815 0.6666500000000001 -0.24676 1.4895150000000001 -1.08256 1.76115Z" stroke-width="1"></path><path id="Vector_19" fill="#000000" d="M163.73919 81.218865c-1.3611600000000001 0.623865 -1.8904999999999998 1.24773 -1.871595 1.70145 0.056715 0.586055 0.775105 0.964155 2.07955 0.737295 0.30447 -0.607945 -0.08358 -1.76911 -0.207955 -2.438745Z" stroke-width="1"></path><path id="Vector_20" fill="#000000" d="M150.31664 64.69589500000001c-1.644735 -0.22686 -3.762095 -0.45372 -6.54113 -0.71839 2.63277 1.3602645 5.16007 2.9147529999999997 7.561999999999999 4.6506300000000005 -0.39601000000000003 -1.55021 -0.7562 -2.9113700000000002 -1.02087 -3.9322399999999997Z" stroke-width="1"></path><path id="Vector_21" fill="#000000" d="M130.14600000000002 44.48645c-0.357205 1.2729035000000002 -0.89351 2.4885945 -1.592 3.610855 0.037809999999999996 -0.52934 0.037809999999999996 -1.194 0.094525 -2.0228349999999997 0.41889499999999996 -0.434815 0.910425 -0.964155 1.497475 -1.58802Z" stroke-width="1"></path><path id="Vector_22" fill="#000000" d="M128.63260499999998 36.28168c-0.11343 -1.32335 -0.5482450000000001 -1.592 -4.367055000000001 -1.833785 -4.045669999999999 -0.28357499999999997 -4.34815 0.3781 -3.9322399999999997 2.53327 0.28357499999999997 1.4556850000000001 1.039775 1.871595 2.5710800000000003 1.871595 0.9452499999999999 0 2.189 -0.17014500000000002 3.762095 -0.34029000000000004 1.2099199999999999 1.531305 2.00393 2.3253150000000002 2.00393 1.3989699999999998 0 -1.758165 1.833785 -1.720355 1.871595 1.0945 0.6805800000000001 0.6965 1.43678 1.531305 2.249695 2.34422 -0.83182 -6.69038 -1.001965 -6.784905 -4.1591 -7.06848Z" stroke-width="1"></path><path id="Vector_23" fill="#000000" d="M130.48529499999998 54.61953c0.44974000000000003 -0.6687395 0.8238599999999999 -1.385239 1.115395 -2.136265 -0.5671499999999999 -0.8129149999999999 -1.077585 -1.66364 -1.592 -2.552175 -0.34029000000000004 0.796 -0.6965 1.606925 -1.001965 2.4009349999999996 0.148255 0.792418 0.41591 1.5574735 0.796 2.2685999999999997 -0.22686 2.136265 -1.3989699999999998 17.430410000000002 -1.3989699999999998 18.432374999999997 0.637795 1.326335 1.423845 2.575856 2.34422 3.724285 1.025845 -1.1167880000000001 1.937265 -2.332678 2.7223200000000003 -3.62976 -0.37611 -2.83575 -2.6825200000000002 -17.487125 -2.985 -18.507994999999998Z" stroke-width="1"></path><path id="Vector_24" fill="#000000" d="M106.64609 85.05658c0.341285 -0.243775 1.039775 -0.132335 2.04174 0.52934 -0.850725 0.71839 -1.342255 1.153205 -1.70145 1.4556850000000001 -0.775105 -0.964155 -0.793015 -1.6616499999999998 -0.34029000000000004 -1.985025Z" stroke-width="1"></path><path id="Vector_25" fill="#000000" d="M114.680715 92.3161c0.586055 1.0945 0.6965 1.81488 0.49152999999999997 2.174075 -0.01393 0.0389045 -0.040795000000000005 0.0721375 -0.07561999999999999 0.094525 -0.34029000000000004 0.359195 -1.228825 0.17014500000000002 -2.2118849999999997 -0.6805800000000001 0.6994849999999999 -0.623865 1.7959749999999999 -1.58802 1.7959749999999999 -1.58802Z" stroke-width="1"></path><path id="Vector_26" fill="#000000" d="M30.53456 100.89897c-0.037809999999999996 0.5482450000000001 -0.056715 1.153205 -0.056715 1.77707 -1.380065 0.056715 -2.03179 -0.188055 -2.060645 -0.5482450000000001 -0.026865 -0.339295 0.661675 -0.83182 2.11736 -1.228825Z" stroke-width="1"></path><path id="Vector_27" fill="#000000" d="M41.159169999999996 100.86116c0.056715 0.34029000000000004 -0.434815 0.7562 -1.92831 0.9830599999999999 -0.3115345 -0.52536 -0.46277450000000003 -1.129325 -0.434815 -1.73926 1.5124 0.09154 2.30641 0.41591 2.363125 0.7562Z" stroke-width="1"></path><path id="Vector_28" fill="#000000" d="M63.42926 75.98218c-0.43382 5.3043450000000005 -0.5880449999999999 10.922115 -0.6965 13.479265 -8.63859 0.207955 -15.934925 1.55021 -19.28111 4.00786 0.018904999999999998 1.02087 0.037809999999999996 2.0228349999999997 0.094525 2.985 5.029725 -3.64369 16.002585 -4.27054 22.23228 -4.385960000000001 -1.017885 -3.7710500000000002 -1.793985 -10.958929999999999 -2.3491950000000004 -16.086165Z" stroke-width="1"></path><path id="Vector_29" fill="#000000" d="M44.259589999999996 80.235805c-0.11343 0.9830599999999999 -0.207955 1.9472150000000001 -0.28357499999999997 2.87356 -0.90744 0.2985 -2.098455 0.679585 -3.270565 1.039775 -1.228825 0.377105 -2.438745 0.71839 -3.270565 0.964155 2.3558615 -1.509415 4.633715 -3.1373344999999997 6.824705 -4.87749Z" stroke-width="1"></path><path id="Vector_30" fill="#000000" d="M69.573385 58.759724999999996c-0.0597995 0.09532099999999999 -0.129549 0.184075 -0.207955 0.26467 -0.46367 0.482575 -1.94224 0.41690499999999997 -3.26559 0.20895 -0.283177 -0.789831 -0.43799899999999997 -1.6198599999999999 -0.458695 -2.458645 1.6258299999999999 1.6258299999999999 3.28947 2.9113700000000002 3.9322399999999997 1.985025Z" stroke-width="1"></path><path id="Vector_31" fill="#000000" d="M70.064915 45.639655c0.11343 -2.07955 -2.476555 -1.66364 -2.6865 -0.49152999999999997 -0.1557175 -0.273227 -0.396806 -0.4878485 -0.686152 -0.61093 -0.289346 -0.123181 -0.6111289999999999 -0.1479565 -0.915997 -0.0707445s-0.5760055 0.2522325 -0.7718214999999999 0.498296c-0.1959155 0.2460635 -0.305664 0.5495385 -0.3125295 0.8639585 -0.9263450000000001 -1.0945 -2.816845 -0.6965 -2.49546 0.964155 -1.3044449999999999 -1.266635 -4.6506300000000005 -0.510435 0.6965 9.71717 1.115395 -0.9452499999999999 2.136265 -1.871595 3.0248 -2.703415 -1.5124 -2.363125 0.22686 -3.4825 1.001965 -1.9472150000000001 0.41591 0.8129149999999999 1.194 0.737295 1.0945 -1.55021 0.611328 -0.15760800000000003 1.206338 -0.37282649999999995 1.77707 -0.6427700000000001 1.1270365 -0.498495 2.085719 -1.3127034999999998 2.76013 -2.34422 0.992015 -1.58802 -0.91739 -3.47852 -2.486505 -1.682545Z" stroke-width="1"></path><path id="Vector_32" fill="#000000" d="M65.225235 114.01904c1.153205 9.622644999999999 1.43678 13.15788 1.380065 15.16181 -2.3081015000000003 -6.522225 -4.978781 -12.910124999999999 -7.999799999999999 -19.13385 1.8178649999999998 1.1362899999999998 4.010845 2.4218300000000004 6.6197349999999995 3.97204Z" stroke-width="1"></path><path id="Vector_33" fill="#000000" d="m175.08219 89.93406999999999 0.73431 3.4964299999999997 2.9113700000000002 -0.623865 -0.86963 -4.064575c-0.152235 -0.7011765 -0.55123 -1.3246434999999999 -1.123355 -1.757966s-1.27957 -0.647944 -1.9959699999999998 -0.605159c0.261685 1.1662394999999999 0.37611 2.3604385 0.343275 3.555135Z" stroke-width="1"></path><path id="Vector_34" fill="#000000" d="m165.00582500000002 88.42167 -0.18905 0.037809999999999996c-0.38606 0.0789035 -0.753215 0.2339245 -1.079575 0.4560085 -0.325365 0.222084 -0.603965 0.506853 -0.818885 0.8376905 -0.213925 0.3308375 -0.361185 0.701077 -0.43083499999999997 1.089127 -0.070645 0.3881495 -0.062685 0.786249 0.022885 1.171314l0.83182 4.064575 2.9113700000000002 -0.623865c-0.03383 -0.162185 -1.1362899999999998 -6.70033 -1.24773 -7.03266Z" stroke-width="1"></path><path id="Vector_35" stroke="#000000" stroke-linejoin="round" d="m175.08219 89.93406999999999 0.848735 4.024377 2.9113700000000002 -0.623865 -0.984055 -4.592522c-0.152235 -0.7011765 -0.55123 -1.3246434999999999 -1.123355 -1.757966s-1.27957 -0.647944 -1.9959699999999998 -0.605159c0.261685 1.1662394999999999 0.37611 2.3604385 0.343275 3.555135Z" stroke-width="1"></path><path id="Vector_36" stroke="#000000" stroke-linejoin="round" d="m165.00582500000002 88.42167 -0.18905 0.037809999999999996c-0.38606 0.0789035 -0.753215 0.2339245 -1.079575 0.4560085 -0.325365 0.2221835 -0.603965 0.5069524999999999 -0.818885 0.8376905 -0.213925 0.3308375 -0.361185 0.701077 -0.43083499999999997 1.0892265 -0.070645 0.38805 -0.062685 0.786249 0.022885 1.1712145l0.9352999999999999 4.615407 2.9113700000000002 -0.623865c-0.03383 -0.162185 -1.23977 -7.251162 -1.35121 -7.583492Z" stroke-width="1"></path><path id="Vector_37" fill="#000000" d="M29.608215 97.817455c0.737295 -0.339295 0.737295 1.2855400000000001 0.132335 1.47459 -0.6049599999999999 0.18905 -0.58705 -1.26564 -0.132335 -1.47459Z" stroke-width="1"></path><path id="Vector_38" fill="#000000" d="M89.44254 98.64927499999999c0.38407 -0.73431 1.94423 -0.64476 1.6258299999999999 0.07561999999999999 -0.3184 0.72038 -2.09149 0.8168949999999999 -1.6258299999999999 -0.07561999999999999Z" stroke-width="1"></path><path id="Vector_39" fill="#000000" d="M116.17420999999999 91.427565c0.15123999999999999 0.775105 1.5422500000000001 -0.2985 1.3044449999999999 -0.9452499999999999 -0.237805 -0.64675 -1.47459 0.07561999999999999 -1.3044449999999999 0.9452499999999999Z" stroke-width="1"></path><path id="Vector_40" fill="#000000" d="M171.471335 75.774225c0.737295 -0.008955 1.194 1.682545 0.28357499999999997 1.66364 -0.910425 -0.018904999999999998 -1.077585 -1.654685 -0.28357499999999997 -1.66364Z" stroke-width="1"></path><path id="Vector_41" fill="#000000" d="m188.69379 92.63449999999999 0.18905 12.4375c0.00199 0.06169 -0.01791 0.12139 -0.05572 0.17014500000000002 -0.037809999999999996 0.047760000000000004 -0.09253499999999999 0.08159000000000001 -0.152235 0.094525l-4.34815 0.9263450000000001 0.586055 2.7223200000000003 -2.816845 0.6049599999999999 -0.586055 -2.7223200000000003 -14.51904 3.0845000000000002 0.586055 2.7223200000000003 -2.816845 0.6049599999999999 -0.5850599999999999 -2.72033 -4.34815 0.9263450000000001c-0.05870499999999999 0.00796 -0.11939999999999999 -0.0029850000000000002 -0.17213499999999998 -0.029849999999999998 -0.05373 -0.026865 -0.09751 -0.06965 -0.126365 -0.12139l-4.875500000000001 -11.4425 4.4775 21.13579 34.085715 -7.240615 -4.522275 -21.152705Z" stroke-width="1"></path><path id="Vector_42" fill="#000000" d="m188.145545 91.37085 -33.556375 7.14609 5.2934 12.420585 4.1591 -0.888535 -0.5671499999999999 -2.6467 2.816845 -0.6049599999999999 0.5671499999999999 2.6467 14.51904 -3.081515 -0.5482450000000001 -2.6467 2.816845 -0.6049599999999999 0.5671499999999999 2.6467 4.140194999999999 -0.86963 -0.207955 -13.517075Z" stroke-width="1"></path><path id="Vector_43" stroke="#000000" stroke-linecap="round" stroke-linejoin="round" d="m159.13035 121.02781999999999 -4.8008750000000004 -22.456752 34.080740000000006 -7.2598185 4.80585 22.475955499999998 -34.085715 7.240615Z" stroke-width="1"></path></g><g id="outlines"><path id="Vector_44" stroke="#000000" stroke-linecap="round" stroke-linejoin="round" d="m160.140275 97.318562 2.6715750000000003 -3.7924425" stroke-width="1"></path><path id="Vector_45" stroke="#000000" stroke-linecap="round" stroke-linejoin="round" d="M173.815555 77.853775 194.025 48.985839999999996l-35.69264 -24.99241 -16.995594999999998 24.255115" stroke-width="1"></path><path id="Vector_46" stroke="#000000" stroke-linecap="round" stroke-linejoin="round" d="m138.501015 128.292315 8.46944 -12.118105" stroke-width="1"></path><path id="Vector_47" stroke="#000000" stroke-linecap="round" stroke-linejoin="round" d="m58.81644 142.130775 46.96002 32.875795 22.83724 -32.59222" stroke-width="1"></path><path id="Vector_48" stroke="#000000" stroke-linecap="round" stroke-linejoin="round" d="m35.204095 72.40913499999999 -5.236685 -3.66757L4.975 104.434205l39.28459 27.506775" stroke-width="1"></path><path id="Vector_49" stroke="#000000" stroke-linecap="round" stroke-linejoin="round" d="m104.20734499999999 101.27707 -9.131115 13.04445 -3.1949449999999997 -2.23079" stroke-width="1"></path><path id="Vector_50" stroke="#000000" stroke-linecap="round" stroke-linejoin="round" d="m80.424855 55.092155 10.51118 -15.029475 9.925125 6.938135 11.7211 -16.71202" stroke-width="1"></path><path id="Vector_51" stroke="#000000" stroke-linecap="round" stroke-linejoin="round" d="m105.190405 31.574335 7.3918550000000005 -1.2855400000000001 1.3044449999999999 7.37295" stroke-width="1"></path><path id="Vector_52" stroke="#000000" stroke-linecap="round" stroke-linejoin="round" d="m34.410084999999995 52.369835 6.8058 -1.2099199999999999c4.050644999999999 -0.7363 2.89147 -6.73018 -1.05868 -6.0117899999999995l-3.799905 0.6427700000000001c-4.046665 0.6895349999999999 -5.013805 -5.33718 -1.05868 -6.0117899999999995l6.8058 -1.2099199999999999" stroke-width="1"></path><path id="Vector_53" stroke="#000000" stroke-linecap="round" stroke-linejoin="round" d="m36.792114999999995 37.208025000000006 2.930275 16.52297" stroke-width="1"></path><path id="Vector_54" stroke="#000000" stroke-linecap="round" stroke-linejoin="round" d="m101.99546 127.120205 8.20477 -1.4556850000000001" stroke-width="1"></path><path id="Vector_55" stroke="#000000" stroke-linecap="round" stroke-linejoin="round" d="m105.37945500000001 122.280525 1.43678 8.223675" stroke-width="1"></path><path id="Vector_56" stroke="#000000" stroke-linecap="round" stroke-linejoin="round" d="m153.17129500000001 142.71683 11.475335 -2.0228349999999997" stroke-width="1"></path><path id="Vector_57" stroke="#000000" stroke-linecap="round" stroke-linejoin="round" d="m157.897545 135.967745 2.0228349999999997 11.49424" stroke-width="1"></path><path id="Vector_58" stroke="#000000" stroke-linecap="round" stroke-linejoin="round" d="M62.729775000000004 166.934135c1.472202 0 2.665605 -1.193005 2.665605 -2.665605 0 -1.4726 -1.193403 -2.665605 -2.665605 -2.665605 -1.472202 0 -2.665605 1.193005 -2.665605 2.665605 0 1.4726 1.193403 2.665605 2.665605 2.665605Z" stroke-width="1"></path><path id="Vector_59" stroke="#000000" stroke-linecap="round" stroke-linejoin="round" d="m37.888605 138.40449999999998 -14.67028 1.833785 -2.741225 -21.9895 26.61824 -3.326285" stroke-width="1"></path><path id="Vector_60" stroke="#000000" stroke-linecap="round" stroke-linejoin="round" d="M69.78333 49.701245c1.143653 -0.494913 2.1160665 -1.315788 2.79595 -2.36014 0.964155 -1.592 -0.90744 -3.4974250000000002 -2.49546 -1.682545 0.11343 -2.098455 -2.45765 -1.66364 -2.6865 -0.49152999999999997 -0.15721 -0.271038 -0.398398 -0.48347049999999997 -0.687147 -0.6050595 -0.28874900000000003 -0.121589 -0.609338 -0.1457675 -0.9130119999999999 -0.068854 -0.30377350000000003 0.077013 -0.5741149999999999 0.2508395 -0.77013 0.49521149999999997 -0.196015 0.2444715 -0.30705699999999997 0.546056 -0.316211 0.859282 -0.9263450000000001 -1.0945 -2.816845 -0.6965 -2.49546 0.964155 -1.3044449999999999 -1.266635 -4.6506300000000005 -0.510435 0.6965 9.71717" stroke-width="1"></path><path id="Vector_61" stroke="#000000" stroke-linecap="round" stroke-linejoin="round" d="M66.09984 59.233345c-0.27790349999999997 -0.7905274999999999 -0.426457 -1.6207555 -0.43979 -2.458645 1.4925 1.5074249999999998 3.043705 2.73824 3.77503 2.1720849999999996" stroke-width="1"></path><path id="Vector_62" stroke="#000000" stroke-linecap="round" stroke-linejoin="round" d="M45.31827 71.74746c-2.060645 15.19962 -2.52332 23.82229 -0.850725 32.02507 1.523345 7.469465 4.23472 17.562745 5.63369 22.27009 -6.5033199999999995 6.635655 -19.245289999999997 19.358719999999998 -20.587545 20.94674" stroke-width="1"></path><path id="Vector_63" stroke="#000000" stroke-linecap="round" stroke-linejoin="round" d="M30.969375 150.27883c-1.47459 -1.2099199999999999 -1.98204 -2.568095 -1.4556850000000001 -3.28947 0.74227 -1.01689 3.650655 -0.741275 9.33907 3.0845000000000002 5.03072 3.383 6.999825 5.93816 6.560035 6.8655 -0.261685 0.5492400000000001 -1.3989699999999998 0.52934 -3.270565 -0.28357499999999997" stroke-width="1"></path><path id="Vector_64" stroke="#000000" stroke-linecap="round" stroke-linejoin="round" d="M81.23777 149.239055c-1.73926 -0.32138500000000003 -2.71237 -0.88953 -2.627795 -1.70145 0.120395 -1.1542 2.53327 -1.87259 8.866444999999999 -1.5124 5.97 0.339295 7.6615 1.624835 7.732145 2.5710800000000003 0.04179 0.5671499999999999 -0.775105 1.077585 -2.703415 1.077585" stroke-width="1"></path><path id="Vector_65" stroke="#000000" stroke-linecap="round" stroke-linejoin="round" d="M45.39389 156.9115c19.755725 -21.47608 20.6164 -22.85714 21.093999999999998 -26.39138 0.259695 -1.9103999999999999 0.18905 -4.31034 -1.266635 -16.52297" stroke-width="1"></path><path id="Vector_66" stroke="#000000" stroke-linecap="round" stroke-linejoin="round" d="M27.39633 154.343405c1.2109150000000002 -2.07955 21.36265 12.4773 19.96368 14.575755 -1.09251 1.644735 -21.75866 -11.493245 -19.96368 -14.575755Z" stroke-width="1"></path><path id="Vector_67" stroke="#000000" stroke-linecap="round" stroke-linejoin="round" d="M80.008945 154.60807499999999c0.184075 -2.2685999999999997 23.19544 1.92831 22.856145 4.291435 -0.26566500000000004 1.8526900000000002 -23.12778 -0.946245 -22.856145 -4.291435Z" stroke-width="1"></path><path id="Vector_68" stroke="#000000" stroke-linecap="round" stroke-linejoin="round" d="M33.74841 147.197315c-2.0228349999999997 2.098455 -5.25559 5.97 -6.35208 7.127185" stroke-width="1"></path><path id="Vector_69" stroke="#000000" stroke-linecap="round" stroke-linejoin="round" d="M42.4865 152.793195c-2.892465 5.236685 5.78493 10.2087 4.875500000000001 16.125965" stroke-width="1"></path><path id="Vector_70" stroke="#000000" stroke-linecap="round" stroke-linejoin="round" d="M80.008945 154.60807499999999c0.49152999999999997 -2.968085 1.2855400000000001 -3.55414 1.55021 -8.526155000000001" stroke-width="1"></path><path id="Vector_71" stroke="#000000" stroke-linecap="round" stroke-linejoin="round" d="M91.44647 146.478925c-0.2985 6.2197450000000005 10.681325 6.4277 11.437524999999999 12.420585" stroke-width="1"></path><path id="Vector_72" stroke="#000000" stroke-linecap="round" stroke-linejoin="round" d="M78.62888 147.53760499999999c0.24576499999999998 -6.23865 -0.510435 -23.0641 -0.8129149999999999 -25.805325 -18.26223 -11.702195 -25.29489 -13.895175 -26.429190000000002 -19.056240000000003" stroke-width="1"></path><path id="Vector_73" stroke="#000000" stroke-linecap="round" stroke-linejoin="round" d="M95.208565 148.596285c-1.153205 -30.32362 -1.4925 -33.838955 -3.875525 -37.39409 -2.327305 -3.477525 -4.253625 -4.95311 -14.40561 -11.172854999999998" stroke-width="1"></path><path id="Vector_74" stroke="#000000" stroke-linecap="round" stroke-linejoin="round" d="M28.417199999999998 102.127795C27.2829 86.98489 27.397325 81.0925 29.81617 77.51050000000001c3.4825 -5.141165 13.592694999999999 -10.72013 24.23621 -13.532 13.365835 -3.5362299999999998 18.79157 -3.043705 21.230315 -0.850725 1.99 1.79697 2.587 4.61481 3.17604 23.287975 3.65762 0.432825 12.15691 1.457675 13.87627 1.76115 2.438745 2.136265 2.854655 9.4525 0 12.155915 -13.34693 0 -19.436329999999998 -0.148255 -22.118850000000002 -1.833785 -4.14318 -2.603915 -4.9153 -5.085445 -6.8058 -22.49695 -0.43382 5.294395 -0.603965 10.888285 -0.6965 13.452399999999999" stroke-width="1"></path><path id="Vector_75" stroke="#000000" stroke-linecap="round" stroke-linejoin="round" d="m77.362245 86.285405 1.0945 0.12935" stroke-width="1"></path><path id="Vector_76" stroke="#000000" stroke-linecap="round" stroke-linejoin="round" d="M30.45894 102.67603999999999c-1.380065 0.037809999999999996 -2.0248250000000003 -0.18905 -2.060645 -0.5482450000000001 -0.05870499999999999 -0.586055 1.909405 -1.517375 6.12522 -1.92831 4.31034 -0.420885 6.522225 0.07561999999999999 6.616750000000001 0.6427700000000001 0.056715 0.34029000000000004 -0.434815 0.7562 -1.92831 0.9830599999999999" stroke-width="1"></path><path id="Vector_77" stroke="#000000" stroke-linecap="round" stroke-linejoin="round" d="M43.979 83.109365c-1.871595 0.623865 -4.9342049999999995 1.55021 -6.54113 1.99 2.3630255 -1.492102 4.6413765 -3.114151 6.824705 -4.858585" stroke-width="1"></path><path id="Vector_78" stroke="#000000" stroke-linecap="round" stroke-linejoin="round" d="M41.159169999999996 100.86116c-0.18905 -3.97005 -0.45372 -12.420585 -0.45372 -16.716" stroke-width="1"></path><path id="Vector_79" stroke="#000000" stroke-linecap="round" stroke-linejoin="round" d="M28.058999999999997 96.985635c1.644735 -2.363125 11.286285 -3.1949449999999997 12.874305 -1.592" stroke-width="1"></path><path id="Vector_80" stroke="#000000" stroke-linecap="round" stroke-linejoin="round" d="M86.72022000000001 87.419705c2.3820300000000003 2.174075 2.15517 10.435559999999999 -0.86963 12.89321" stroke-width="1"></path><path id="Vector_81" stroke="#000000" stroke-linecap="round" stroke-linejoin="round" d="M43.541199999999996 96.456295c3.8934349999999998 -2.81585 12.05542 -4.25263 22.221335 -4.385960000000001" stroke-width="1"></path><path id="Vector_82" stroke="#000000" stroke-linecap="round" stroke-linejoin="round" d="M43.446675 93.46930499999999c3.646675 -2.6865 12.0395 -4.044675000000001 21.727815 -4.045669999999999" stroke-width="1"></path><path id="Vector_83" stroke="#000000" stroke-linecap="round" stroke-linejoin="round" d="M38.796045 100.086055c-0.0311435 0.68257 0.1686525 1.3551900000000001 0.5671499999999999 1.909405 0.2985 0.3781 2.2885 2.152185 2.7223200000000003 2.7979399999999996 0.47759999999999997 0.715405 0.71839 3.724285 0.34029000000000004 4.045669999999999 -0.49152999999999997 0.41690499999999997 -3.799905 0.7562 -5.123255 0.7562 -0.9452499999999999 0 -0.71839 -1.606925 2.4009349999999996 -2.4009349999999996 -2.587 0.15123999999999999 -4.329245 -0.6049599999999999 -4.764060000000001 -2.854655" stroke-width="1"></path><path id="Vector_84" stroke="#000000" stroke-linecap="round" stroke-linejoin="round" d="M30.53456 100.89897c-0.1511405 2.779035 -0.10059449999999999 5.565035 0.15123999999999999 8.337105" stroke-width="1"></path><path id="Vector_85" stroke="#000000" stroke-linecap="round" stroke-linejoin="round" d="M33.200165 109.48183999999999c-0.0995 -1.720355 1.9502 -1.9472150000000001 2.15517 -0.2985 0.15323 1.228825 0.22885 2.098455 0.32138500000000003 3.0845000000000002 0.062685 0.2985 0.0042785 0.60894 -0.162384 0.864655 -0.16666250000000002 0.25472 -0.42785 0.43382 -0.726151 0.496505s-0.609338 0.00398 -0.864655 -0.162185c-0.2552175 -0.16716 -0.43382 -0.42785 -0.496505 -0.7263499999999999 -0.13134 -1.0815649999999999 -0.2070595 -2.1691000000000003 -0.22686 -3.258625v0Z" stroke-width="1"></path><path id="Vector_86" stroke="#000000" stroke-linecap="round" stroke-linejoin="round" d="M40.02487 109.40622c0.17014500000000002 0.796 0.307455 1.435785 0.45372 2.136265 0.069451 0.28357499999999997 0.028655999999999997 0.58307 -0.11412649999999999 0.836795 -0.14278249999999998 0.25472 -0.376906 0.44576 -0.6550085 0.534315 -0.278003 0.088555 -0.5793885000000001 0.06766 -0.8429639999999999 -0.057710000000000004 -0.2635755 -0.124375 -0.46973950000000003 -0.345265 -0.576901 -0.6169 -0.2205915 -0.870625 -0.384866 -1.75518 -0.49152999999999997 -2.6467" stroke-width="1"></path><path id="Vector_87" stroke="#000000" stroke-linecap="round" stroke-linejoin="round" d="M31.02609 109.48183999999999c0 -1.66364 1.99 -1.77707 2.098455 -0.17014500000000002 0.0796 1.194 0.0995 2.04174 0.132335 2.985 0.036417 0.289545 -0.0414915 0.5810799999999999 -0.217109 0.8139099999999999 -0.17561749999999998 0.23283 -0.43511350000000004 0.38805 -0.7232655 0.43183 -0.288152 0.044774999999999995 -0.5822740000000001 -0.024875 -0.8197804999999999 -0.194025 -0.237407 -0.16915000000000002 -0.39949250000000003 -0.424865 -0.45173 -0.711425 -0.09353 -0.7920200000000001 -0.018904999999999998 -1.6427450000000001 -0.018904999999999998 -3.1551449999999996Z" stroke-width="1"></path><path id="Vector_88" stroke="#000000" stroke-linecap="round" stroke-linejoin="round" d="M37.75627 109.59527c0.15123999999999999 0.90744 0.24875 1.6258299999999999 0.359195 2.4198399999999998 0.06686399999999999 0.29750499999999996 0.015621499999999998 0.60894 -0.143081 0.868635s-0.412328 0.44775 -0.7072459999999999 0.52337c-0.2948185 0.076615 -0.607746 0.034825 -0.872416 -0.11542000000000001 -0.2647695 -0.150245 -0.460486 -0.398 -0.5458569999999999 -0.69053 -0.181289 -1.0954949999999999 -0.307455 -2.199945 -0.3781 -3.3083750000000003 -0.15323 -1.47459 1.2855400000000001 -1.92831 1.92831 -1.05868" stroke-width="1"></path><path id="Vector_89" stroke="#000000" stroke-linecap="round" stroke-linejoin="round" d="M101.91984000000001 99.5c0.22288 -1.5701100000000001 -1.5392649999999999 -2.0248250000000003 -1.92831 -0.5482450000000001 -0.154225 0.5850599999999999 -0.35819999999999996 1.380065 -0.49152999999999997 1.99 -0.069849 0.26865 -0.031242999999999996 0.5552100000000001 0.10746 0.796 0.1393 0.24079 0.367155 0.41690499999999997 0.63481 0.49152999999999997 0.26765500000000003 0.074625 0.554215 0.040795000000000005 0.796995 -0.094525 0.24278 -0.134325 0.42386999999999997 -0.359195 0.502475 -0.625855 0.160195 -0.66267 0.28656 -1.3333000000000002 0.3781 -2.008905v0Z" stroke-width="1"></path><path id="Vector_90" stroke="#000000" stroke-linecap="round" stroke-linejoin="round" d="M99.91591000000001 99.027375c0.40695499999999996 -1.5621500000000001 -1.443745 -2.138255 -1.92831 -0.661675 -0.192035 0.5850599999999999 -0.46168000000000003 1.415885 -0.586055 1.833785 -0.44277500000000003 1.485535 1.571105 2.13726 1.985025 0.83182 0.227855 -0.71839 0.40596 -1.531305 0.52934 -2.00393Z" stroke-width="1"></path><path id="Vector_91" stroke="#000000" stroke-linecap="round" stroke-linejoin="round" d="M97.87416999999999 98.573655c0.476605 -1.49847 -1.16813 -2.134275 -1.8526900000000002 -0.7562 -0.188055 0.379095 -0.47759999999999997 1.0566900000000001 -0.737295 1.73926 -0.12537 0.25074 -0.1459665 0.54128 -0.057311999999999995 0.806945s0.2792965 0.48556 0.529937 0.61093c0.25074 0.12537 0.540882 0.14626499999999998 0.8068455 0.057710000000000004 0.265864 -0.088555 0.48565949999999997 -0.27959500000000004 0.6110295 -0.530335 0.20298 -0.436805 0.54327 -1.4387699999999999 0.6994849999999999 -1.92831Z" stroke-width="1"></path><path id="Vector_92" stroke="#000000" stroke-linecap="round" stroke-linejoin="round" d="M103.904865 99.783575c0.050745 -1.531305 -1.6119 -1.8904999999999998 -1.8904999999999998 -0.434815 -0.11542000000000001 0.6049599999999999 -0.28855 1.791 -0.32138500000000003 2.11736 0.011940000000000001 0.243775 0.10945 0.47461499999999995 0.275615 0.653715 0.166165 0.17810499999999999 0.39004 0.29252999999999996 0.631825 0.32138500000000003 0.24278 0.029849999999999998 0.48755 -0.02786 0.691525 -0.16119 0.203975 -0.13333 0.35422 -0.33432 0.42386999999999997 -0.5681449999999999 0.0995 -0.63879 0.162185 -1.282555 0.18905 -1.92831Z" stroke-width="1"></path><path id="Vector_93" stroke="#000000" stroke-linecap="round" stroke-linejoin="round" d="M88.98882 146.15753999999998c-0.796 -25.691895000000002 -0.510435 -29.888805 -2.3820300000000003 -32.66784 -2.647695 -3.9322399999999997 -5.827715 -5.68145 -20.606450000000002 -14.44342 -2.420835 -1.43479 -3.13823 -3.043705 -3.2516599999999998 -6.8655" stroke-width="1"></path><path id="Vector_94" stroke="#000000" stroke-linecap="round" stroke-linejoin="round" d="M58.6055 110.030085c3.011467 6.233675 5.682047000000001 12.62655 7.999799999999999 19.150765" stroke-width="1"></path><path id="Vector_95" stroke="#000000" stroke-linecap="round" stroke-linejoin="round" d="M122.923295 38.833855c1.3044449999999999 7.4625 1.682545 8.581875 2.854655 8.715205000000001 1.153205 0.13134 1.871595 -0.34029000000000004 4.385960000000001 -3.06261 -0.281585 1.30743 -0.8168949999999999 2.546802 -1.5760800000000001 3.6476699999999997" stroke-width="1"></path><path id="Vector_96" stroke="#000000" stroke-linecap="round" stroke-linejoin="round" d="M128.63260499999998 36.28168c-0.132335 -1.3044449999999999 -0.5671499999999999 -1.569115 -4.34815 -1.833785 -4.045669999999999 -0.28357499999999997 -4.34815 0.3781 -3.9322399999999997 2.53327 0.434815 2.363125 2.174075 1.985025 6.3142700000000005 1.531305 1.2099199999999999 1.531305 2.00393 2.34422 2.00393 1.3989699999999998 0 -1.758165 1.833785 -1.720355 1.871595 1.0945 0.651725 0.912813 1.407925 1.7475185 2.25069 2.4875 -0.832815 -6.70033 -1.00097 -6.928185 -4.160095 -7.21176Z" stroke-width="1"></path><path id="Vector_97" stroke="#000000" stroke-linecap="round" stroke-linejoin="round" d="M128.63459500000002 46.079445c0.128355 1.6915 -0.08358 3.7411999999999996 -1.306435 4.4376999999999995 -3.573045 2.060645 -5.007835 2.8934599999999997 -6.2197450000000005 4.61282 -2.3213350000000004 3.2924550000000004 -2.174075 5.48245 -2.6088899999999997 20.11492 -4.385960000000001 3.7809999999999997 -9.8505 8.034625 -11.853435000000001 9.8306" stroke-width="1"></path><path id="Vector_98" stroke="#000000" stroke-linecap="round" stroke-linejoin="round" d="M106.98638 87.041605c-0.796 -0.964155 -0.796 -1.658665 -0.34029000000000004 -1.9661199999999999 0.627845 -0.42785 2.43576 0.26666 5.198874999999999 3.421805 2.9651 3.383 3.718315 5.328225000000001 3.32728 6.0117899999999995 -0.26865 0.47063499999999997 -1.228825 0.34029000000000004 -2.2885 -0.586055" stroke-width="1"></path><path id="Vector_99" stroke="#000000" stroke-linecap="round" stroke-linejoin="round" d="M163.96605 83.65761c-1.3044449999999999 0.22686 -2.0298 -0.150245 -2.07955 -0.737295 -0.06567 -0.7741100000000001 1.4387699999999999 -1.977065 5.803835 -2.930275 4.898385 -1.06863 6.55108 -0.398 6.65456 0.45372 -0.004975 0.344071 -0.12537 0.6766000000000001 -0.341285 0.9439565 -0.21691 0.26745599999999997 -0.5174 0.454317 -0.852715 0.5306335" stroke-width="1"></path><path id="Vector_100" stroke="#000000" stroke-linecap="round" stroke-linejoin="round" d="M161.88649999999998 82.93921999999999c-3.1571350000000002 -13.781745 -3.4825 -15.195640000000001 -4.782965000000001 -16.144869999999997 -1.78105 -1.2994700000000001 -3.0248 -1.81488 -13.34693 -2.779035 2.63277 1.3602645 5.16007 2.9147529999999997 7.561999999999999 4.6506300000000005" stroke-width="1"></path><path id="Vector_101" stroke="#000000" stroke-linecap="round" stroke-linejoin="round" d="M175.290145 117.59208500000001c3.4825 2.098455 6.16303 3.7053800000000003 7.278425 4.49939 0.661675 4.179 -4.19691 10.51118 -7.33514 11.172854999999998 -23.59344 -13.290215 -26.4272 -15.012559999999999 -28.867935000000003 -17.711000000000002 -2.323325 -2.57307 -3.13823 -6.749085 -6.975945 -24.009349999999998 -0.836795 -0.049551 -1.660655 -0.234621 -2.438745 -0.5482450000000001" stroke-width="1"></path><path id="Vector_102" stroke="#000000" stroke-linecap="round" stroke-linejoin="round" d="M150.31664 64.71480000000001c1.05868 4.045669999999999 3.4964299999999997 13.46036 4.631725 20.247255 0.62287 3.724285 1.380065 8.756 2.04174 13.04445" stroke-width="1"></path><path id="Vector_103" stroke="#000000" stroke-linecap="round" stroke-linejoin="round" d="M123.81183 57.549805c-0.217905 2.0991515 -0.217905 4.2151185 0 6.3142700000000005 0.156215 1.4387699999999999 5.463545 16.317999999999998 6.616750000000001 19.056240000000003 -8.756 19.075145 -10.128105 22.61038 -10.378844999999998 25.729705000000003 -0.2985 3.6815 0.094525 6.144125 7.127185 33.461850000000005 4.291435 1.266635 11.7211 -1.001965 13.743935 -3.28947 -1.9661199999999999 -8.488345 -3.97005 -16.957784999999998 -6.144125 -27.998305 0.737295 -2.11736 2.438745 -4.707345 6.2197450000000005 -12.0395" stroke-width="1"></path><path id="Vector_104" stroke="#000000" stroke-linecap="round" stroke-linejoin="round" d="M182.549665 123.92526c1.69946 0.440785 3.36708 0.9959949999999999 4.99092 1.66364 -0.207955 5.085445 -4.23472 18.356755000000003 -7.316235 22.04323 -1.569115 -2.363125 -3.21385 -11.15395 -3.51633 -15.01057" stroke-width="1"></path><path id="Vector_105" stroke="#000000" stroke-linecap="round" stroke-linejoin="round" d="M139.84327 139.72984c1.0905200000000002 1.76513 1.9909949999999998 3.6407049999999996 2.6865 5.595879999999999 -3.62976 3.724285 -14.59466 8.639585 -19.47215 9.18783 1.53031 -4.33223 3.74518 -8.391829999999999 6.560035 -12.023579999999999" stroke-width="1"></path><path id="Vector_106" stroke="#000000" stroke-linecap="round" stroke-linejoin="round" d="M115.152345 94.54191499999999c4.028755 -3.1233049999999998 12.32009 -10.21467 14.91704 -12.547945" stroke-width="1"></path><path id="Vector_107" stroke="#000000" stroke-linecap="round" stroke-linejoin="round" d="M110.99424 81.44572500000001c3.535235 0.28357499999999997 8.526155000000001 6.84361 8.16696 9.868409999999999" stroke-width="1"></path><path id="Vector_108" stroke="#000000" stroke-linecap="round" stroke-linejoin="round" d="M160.6925 77.702535c1.33529 -2.896445 10.492275 -4.651625 12.428545 -3.0845000000000002" stroke-width="1"></path><path id="Vector_109" stroke="#000000" stroke-linecap="round" stroke-linejoin="round" d="M128.50026999999997 48.60774c0.41591 0.5425735 0.944255 0.987836 1.55021 1.3044449999999999 2.215865 -0.960573 4.299395 -2.2008405 6.199845 -3.690455" stroke-width="1"></path><path id="Vector_110" stroke="#000000" stroke-linecap="round" stroke-linejoin="round" d="M137.38562 46.9441c-0.796 2.6088899999999997 -3.573045 6.54113 -4.23472 7.410760000000001 -1.2377799999999999 -1.3146935 -2.28253 -2.7980395000000002 -3.1044 -4.40586 -0.70844 1.4650379999999998 -1.266635 2.9986315 -1.66364 4.577 -0.365165 -1.723539 -0.398 -3.5011065 -0.094525 -5.236685" stroke-width="1"></path><path id="Vector_111" stroke="#000000" stroke-linecap="round" stroke-linejoin="round" d="M129.05149999999998 52.337c0.15123999999999999 0.7916219999999999 0.41889499999999996 1.5561800000000001 0.796 2.2685999999999997 -0.22686 2.11736 -1.3989699999999998 17.4125 -1.3989699999999998 18.432374999999997 0.63083 1.3302155 1.417875 2.5805325000000003 2.34422 3.724285 1.015895 -1.119773 1.921345 -2.335464 2.703415 -3.62976 -0.3781 -2.83575 -2.6865 -17.487125 -2.985 -18.507 0.434815 -0.6737145 0.8019700000000001 -1.389418 1.0945 -2.136265" stroke-width="1"></path><path id="Vector_112" stroke="#000000" stroke-linecap="round" stroke-linejoin="round" d="M128.72713 78.45873499999999c5.17997 1.720355 18.659235 -1.70145 23.309865 -6.975945" stroke-width="1"></path><path id="Vector_113" stroke="#000000" stroke-linecap="round" stroke-linejoin="round" d="M129.71018999999998 81.105435c5.463545 1.55021 18.167705 -1.4925 23.007385 -6.824705" stroke-width="1"></path><path id="Vector_114" stroke="#000000" stroke-linecap="round" stroke-linejoin="round" d="M127.38487500000001 84.357095c0.12537 -3.778214 -0.070645 -7.560209 -0.586055 -11.30519" stroke-width="1"></path><path id="Vector_115" stroke="#000000" stroke-linecap="round" stroke-linejoin="round" d="M139.38955 91.50318499999999c-0.530335 5.848212 -1.76115 11.61165 -3.66757 17.16574" stroke-width="1"></path><path id="Vector_116" stroke="#000000" stroke-linecap="round" stroke-linejoin="round" d="M135.135925 81.42681999999999c1.0945 4.61282 1.153205 5.0476350000000005 2.76013 4.95311" stroke-width="1"></path><path id="Vector_117" stroke="#000000" stroke-linecap="round" stroke-linejoin="round" d="M170.92309 118.51843000000001c5.10435 3.232755 9.71717 6.144125 11.191759999999999 7.0893749999999995" stroke-width="1"></path><path id="Vector_118" stroke="#000000" stroke-linecap="round" stroke-linejoin="round" d="M148.80424 77.286625c2.23079 9.4525 4.764060000000001 22.194470000000003 5.55807 30.6261 0.510435 0.359195 1.2855400000000001 0.86963 2.2685999999999997 1.5124" stroke-width="1"></path><path id="Vector_119" stroke="#000000" stroke-linecap="round" stroke-linejoin="round" d="M108.68782999999999 85.58592c-1.833785 1.531305 -1.9661199999999999 1.87458 -2.76013 1.909405 -1.871595 0.082585 -3.45464 -0.52536 -4.102385 0.18905 -1.214895 1.409915 -2.332877 2.9005245 -3.346185 4.46158 -0.8159 1.194 1.417875 2.0228349999999997 4.1591 -1.153205 0.8079400000000001 0.418696 1.694485 0.6636650000000001 2.60292 0.718987 0.908435 0.0554215 1.8178649999999998 -0.0800975 2.67058 -0.397602" stroke-width="1"></path><path id="Vector_120" stroke="#000000" stroke-linecap="round" stroke-linejoin="round" d="M93.393685 89.64949999999999c2.363125 0.34029000000000004 2.852665 0.450735 3.535235 0.056715 1.620855 -0.9343049999999999 2.2885 -2.0895 3.21385 -1.81488 0.379095 0.110445 0.7562 0.22686 1.153205 0.359195" stroke-width="1"></path><path id="Vector_121" stroke="#000000" stroke-linecap="round" stroke-linejoin="round" d="M114.66181 92.3161c-0.83182 0.737295 -2.83575 2.514365 -3.6815 3.346185" stroke-width="1"></path><path id="Vector_122" stroke="#000000" stroke-linecap="round" stroke-linejoin="round" d="M106.097845 91.71114c4.9153 2.53327 5.841645000000001 4.1591 4.19691 5.652595" stroke-width="1"></path><path id="Vector_123" stroke="#000000" stroke-linecap="round" stroke-linejoin="round" d="M107.30776499999999 95.246375c2.816845 1.43678 3.6815 2.24671 2.779035 3.4825 -0.512425 0.6965 -1.2099199999999999 0.71839 -3.875525 -1.1342999999999999" stroke-width="1"></path><path id="Vector_124" stroke="#000000" stroke-linecap="round" stroke-linejoin="round" d="M93.242445 99.2015c0.737295 0.07561999999999999 1.6258299999999999 0.18905 2.098455 0.26467" stroke-width="1"></path><path id="Vector_125" stroke="#000000" stroke-linecap="round" stroke-linejoin="round" d="M105.039165 99.31095c0.90744 0.6049599999999999 2.968085 2.5710800000000003 3.9322399999999997 -0.207955" stroke-width="1"></path><path id="Vector_126" stroke="#000000" stroke-linecap="round" stroke-linejoin="round" d="M103.791435 101.182545c0.83182 0.207955 2.34422 0.737295 2.892465 -0.796" stroke-width="1"></path><path id="Vector_127" stroke="#000000" stroke-linecap="round" stroke-linejoin="round" d="M172.24644 79.441795c0.47262499999999996 2.060645 1.75717 3.62976 2.587 7.2635 0.26467 1.4151885 0.30944499999999997 2.862615 0.132335 4.291435 -0.076615 0.1923335 -0.19303 0.36616 -0.34228 0.5099374999999999 -0.14925 0.1437775 -0.32636000000000004 0.2542225 -0.5213800000000001 0.323972s-0.402975 0.09721149999999999 -0.60894 0.080595c-0.20596499999999998 -0.016715999999999998 -0.40695499999999996 -0.0771125 -0.5880449999999999 -0.17720950000000002" stroke-width="1"></path><path id="Vector_128" stroke="#000000" stroke-linecap="round" stroke-linejoin="round" d="M172.945925 89.02663c0.07561999999999999 0.8237605 0.07561999999999999 1.6527945 0 2.476555 -0.094525 0.870625 -1.1362899999999998 1.626825 -2.388 0.796" stroke-width="1"></path><path id="Vector_129" stroke="#000000" stroke-linecap="round" stroke-linejoin="round" d="M170.5828 89.70721c0.059699999999999996 0.7483394999999999 0.07263499999999999 1.4997635 0.037809999999999996 2.249695 -0.0199 0.2836745 -0.122385 0.555409 -0.29452 0.7817715 -0.17213499999999998 0.2263625 -0.40695499999999996 0.397602 -0.67461 0.49262449999999997 -0.26865 0.095122 -0.558195 0.109848 -0.834805 0.042586 -0.27661 -0.06736149999999999 -0.52735 -0.2138255 -0.721375 -0.42148199999999997" stroke-width="1"></path><path id="Vector_130" stroke="#000000" stroke-linecap="round" stroke-linejoin="round" d="M168.04953 90.293265c0.11542000000000001 0.7312255 0.15323 1.4726 0.11343 2.2118849999999997 -0.0199 0.32118599999999997 -0.160195 0.62287 -0.39402000000000004 0.8442575 -0.23283 0.22138750000000001 -0.5422750000000001 0.345862 -0.86366 0.34825 -0.32138500000000003 0.002388 -0.63282 -0.11740999999999999 -0.86963 -0.33531500000000003 -0.23681 -0.2178055 -0.38208000000000003 -0.5174995 -0.40596 -0.8382875000000001 -0.160195 -1.7948805 -0.476605 -3.5723485 -0.9452499999999999 -5.312305" stroke-width="1"></path><path id="Vector_131" stroke="#000000" stroke-linecap="round" stroke-linejoin="round" d="M163.73919 81.218865c0.21492 0.678192 0.315415 1.3873285000000002 0.2985 2.098455 -0.07561999999999999 0.8129149999999999 -1.644735 2.45765 -1.644735 3.36509 0.04975 0.92535 0.35024 1.819656 0.86963 2.587" stroke-width="1"></path><path id="Vector_132" stroke="#000000" stroke-linecap="round" stroke-linejoin="round" d="M166.83961 89.158965c1.228825 -0.3781 5.2934 -1.417875 6.560035 -1.644735" stroke-width="1"></path><path id="Vector_133" stroke="#000000" stroke-linecap="round" stroke-linejoin="round" d="M67.92864999999999 61.292c-0.8294320000000001 -0.454317 -1.475784 -1.182259 -1.82881 -2.05965 1.32136 0.20695999999999998 2.812865 0.281585 3.26559 -0.20895 0.796 -0.8308249999999999 1.039775 -2.7949550000000003 0.4179 -9.32315 -0.5654585 0.26447099999999996 -1.154797 0.47431650000000003 -1.760155 0.62685 0.094525 2.2885 -0.68257 2.3641199999999998 -1.0945 1.55021 -0.7780900000000001 -1.529315 -2.514365 -0.41591 -1.001965 1.9472150000000001C62.01437 57.46324 55.72 62.861115 48.8545 65.57050000000001" stroke-width="1"></path><path id="Vector_134" stroke="#000000" stroke-linecap="round" stroke-linejoin="round" d="M174.32399999999998 80.44376c-3.383 -17.222455 -5.373 -21.24922 -9.017685 -24.61431 -6.179945 -5.728215 -13.270315 -6.278449999999999 -25.409315 -7.75105 -1.360165 -0.17711 -4.685454999999999 -2.3681 -7.107285 -4.583965" stroke-width="1"></path><path id="Vector_135" stroke="#000000" stroke-linecap="round" stroke-linejoin="round" d="m166.92518 109.70671 14.51904 -3.081515" stroke-width="1"></path><path id="Vector_136" stroke="#000000" stroke-linecap="round" stroke-linejoin="round" d="m166.291365 106.79733 -2.816845 0.6049599999999999 1.2855400000000001 5.877465 2.816845 -0.6049599999999999 -1.2855400000000001 -5.877465Z" stroke-width="1"></path><path id="Vector_137" stroke="#000000" stroke-linecap="round" stroke-linejoin="round" d="m183.646155 103.110855 -2.816845 0.6049599999999999 1.266635 5.87448 2.816845 -0.6049599999999999 -1.266635 -5.87448Z" stroke-width="1"></path><path id="Vector_138" stroke="#000000" stroke-linecap="round" stroke-linejoin="round" d="m184.27201 106.032175 4.3581 -0.93132 -0.17909999999999998 -13.5977695" stroke-width="1"></path><path id="Vector_139" stroke="#000000" stroke-linecap="round" stroke-linejoin="round" d="m164.100375 110.32361 -4.34218 0.90545 -5.389915 -12.473817500000001" stroke-width="1"></path><path id="Vector_140" stroke="#000000" stroke-linejoin="round" d="M30.98828 112.69569c0 -0.010945 0.037809999999999996 -3.55414 0.037809999999999996 -3.55414 -0.9115195 0.13333 -1.73528 0.6169 -2.2964599999999997 1.3472300000000001 -0.5611799999999999 0.73033 -0.815701 1.650705 -0.7094349999999999 2.5661050000000003l0.5578965 4.15114 2.94918 -0.3781 -0.5389915 -4.132235Z" stroke-width="1"></path><path id="Vector_141" stroke="#000000" stroke-linejoin="round" d="M43.481500000000004 111.164385c-0.10875349999999999 -0.860675 -0.534514 -1.648715 -1.194 -2.2118849999999997 -0.7324195 0.2587 -1.494689 0.42386999999999997 -2.2685999999999997 0.49152999999999997 0.160195 0.6965 0.21094 0.94326 0.3781 1.77707 0.15522 0.15522 0.19372650000000002 0.864655 0.6713264999999999 4.424765l2.94918 -0.3781 -0.5360064999999999 -4.10338Z" stroke-width="1"></path></g></g></svg>