<?xml version="1.0" encoding="UTF-8"?>
<svg id="Layer_2" data-name="Layer 2" xmlns="http://www.w3.org/2000/svg" viewBox="0 0 395.91 311.5">
  <defs>
    <style>
      .cls-1 {
        fill: #700048;
      }

      .cls-1, .cls-2 {
        fill-rule: evenodd;
      }

      .cls-2 {
        fill: #231f20;
      }
    </style>
  </defs>
  <g id="Primer_plano" data-name="Primer plano">
    <g>
      <g>
        <path class="cls-2" d="M14.91,280.8v1.12c-1.71.06-2.85.32-3.43.8-.58.47-.86,1.56-.86,3.25v14.76c0,2.24.26,3.97.8,5.19.96,2.27,2.81,3.4,5.54,3.4,3.39,0,5.68-1.26,6.87-3.77.66-1.38.99-3.31.99-5.8v-13.49c0-1.58-.29-2.66-.88-3.25-.57-.6-1.71-.97-3.4-1.1v-1.12h9.7v1.12c-1.41.27-2.34.61-2.8,1.01-.45.39-.67,1.29-.67,2.71v14.11c0,3.75-.91,6.64-2.71,8.68-1.81,2.04-4.65,3.06-8.53,3.06-5.07,0-8.54-1.51-10.41-4.55-.99-1.61-1.49-3.68-1.49-6.23v-14.76c0-1.67-.22-2.71-.67-3.15-.43-.43-1.42-.73-2.95-.91v-1.12h14.91Z"/>
        <path class="cls-2" d="M31.87,309.56c.8-.1,1.39-.32,1.77-.65.39-.34.58-1.02.58-2.03v-12.97c0-.89-.16-1.51-.47-1.85-.3-.34-.93-.57-1.88-.69v-1.08h8.36v3.17c.7-1.06,1.59-1.94,2.67-2.63,1.09-.7,2.3-1.06,3.62-1.06,1.9,0,3.36.49,4.4,1.47,1.05.98,1.57,2.69,1.57,5.15v10.67c0,.99.16,1.63.5,1.92.34.29.91.48,1.7.58v1.06h-10.36v-1.06c.79-.16,1.33-.37,1.62-.65.29-.27.43-.89.43-1.85v-10.69c0-1.01-.1-1.76-.3-2.26-.34-.9-1.03-1.36-2.05-1.36-.76,0-1.46.28-2.11.84-.63.55-1.12,1.1-1.46,1.66v11.81c0,.96.14,1.58.43,1.85.29.27.83.49,1.62.65v1.06h-10.62v-1.06Z"/>
        <path class="cls-2" d="M59.34,281.14c.67-.67,1.49-1.01,2.43-1.01s1.73.34,2.39,1.01c.67.66,1.01,1.46,1.01,2.41,0,.95-.34,1.76-1.01,2.43-.66.66-1.46.99-2.39.99s-1.76-.33-2.43-.99c-.66-.67-.99-1.49-.99-2.43s.33-1.75.99-2.41ZM56.41,309.56c.78-.13,1.31-.32,1.59-.58.43-.39.65-1.08.65-2.09v-12.97c0-.89-.15-1.49-.45-1.81-.3-.33-.9-.57-1.79-.73v-1.08h8.47v16.76c0,.96.14,1.58.43,1.85.29.27.83.49,1.62.65v1.06h-10.51v-1.06Z"/>
        <path class="cls-2" d="M79.7,290.3v1.08c-.78.03-1.36.12-1.77.26-.39.14-.58.45-.58.93,0,.11.05.33.15.65.11.3.2.52.26.67l3.32,8.47h.35l2.97-7.54c.14-.36.26-.73.34-1.1.1-.37.15-.67.15-.88,0-.62-.21-1.01-.62-1.16-.42-.17-1.02-.27-1.81-.28v-1.08h6.68v1.08c-.59.04-1.07.24-1.44.58-.37.33-.74.93-1.1,1.81l-7.11,17.47h-1.12l-5.3-13.08c-.37-.92-.74-1.78-1.1-2.59-.34-.8-.71-1.59-1.1-2.35-.4-.78-.72-1.26-.95-1.47-.23-.2-.65-.33-1.25-.39v-1.08h11.03Z"/>
        <path class="cls-2" d="M93.71,292.6c1.81-1.88,3.99-2.82,6.53-2.82,1.45,0,2.81.38,4.09,1.14,1.28.76,2.26,1.82,2.95,3.17.52,1.02.88,2.34,1.08,3.96.1.76.15,1.34.15,1.75h-11.25c.1,1.77.39,3.3.86,4.59.86,2.43,2.38,3.64,4.55,3.64,1.03,0,2.01-.32,2.93-.97.56-.39,1.26-1.04,2.09-1.96l1.01.62c-1.37,2.24-2.95,3.8-4.74,4.68-1.16.56-2.5.84-4.01.84-2.17,0-4.2-.85-6.1-2.56-1.9-1.71-2.84-4.44-2.84-8.19,0-3.39.9-6.02,2.69-7.89ZM103.08,298.16c-.03-2.6-.23-4.42-.6-5.45-.37-1.03-1.12-1.55-2.24-1.55s-1.94.6-2.37,1.79c-.42,1.19-.65,2.93-.71,5.21h5.93Z"/>
        <path class="cls-2" d="M110.41,309.56c.85-.1,1.44-.3,1.77-.6.33-.3.51-.88.54-1.75l.04-1.29v-12c0-.92-.16-1.54-.47-1.87-.32-.33-.94-.55-1.87-.67v-1.08h8.38v3.47c.93-1.22,1.86-2.19,2.78-2.91.92-.72,1.98-1.08,3.19-1.08.91,0,1.72.29,2.44.88.73.58,1.1,1.42,1.1,2.54,0,.86-.26,1.57-.78,2.13-.5.56-1.16.84-1.98.84-.93,0-1.75-.44-2.43-1.31-.68-.88-1.15-1.31-1.42-1.31-.59,0-1.18.37-1.79,1.1-.59.72-.88,1.75-.88,3.1v8.34c0,1.46.21,2.38.62,2.76.43.36,1.28.6,2.54.71v1.06h-11.76v-1.06Z"/>
        <path class="cls-2" d="M130.32,303.94h1.23c.43,2.11,1.23,3.61,2.41,4.48,1.18.86,2.38,1.29,3.62,1.29,1.13,0,1.97-.25,2.5-.75.53-.52.8-1.19.8-2.03,0-.79-.29-1.46-.86-2.03-.32-.3-.83-.62-1.53-.97l-3.28-1.59c-1.72-.85-2.96-1.77-3.71-2.76-.76-.99-1.14-2.16-1.14-3.51,0-1.71.6-3.18,1.79-4.42,1.19-1.25,2.86-1.87,5-1.87.93,0,1.92.16,2.97.47,1.05.3,1.7.45,1.96.45.36,0,.61-.07.75-.22.16-.16.29-.37.39-.65h.97v6.38h-1.12c-.42-1.49-1.1-2.69-2.05-3.6-.95-.91-2.05-1.36-3.32-1.36-.98,0-1.71.27-2.2.82-.47.55-.71,1.14-.71,1.77,0,.52.22,1.03.65,1.55.42.53,1.21,1.08,2.37,1.64l2.41,1.16c1.49.72,2.58,1.42,3.27,2.09,1.15,1.15,1.72,2.56,1.72,4.24,0,1.64-.6,3.17-1.79,4.59-1.18,1.41-2.95,2.11-5.32,2.11-.59,0-1.18-.06-1.79-.19-.59-.12-1.32-.32-2.2-.62l-.75-.26c-.27-.1-.45-.16-.52-.17-.06-.01-.14-.02-.24-.02-.24,0-.46.1-.65.3-.17.19-.37.51-.6.97h-1.06v-7.3Z"/>
        <path class="cls-2" d="M150.01,281.14c.67-.67,1.49-1.01,2.43-1.01s1.73.34,2.39,1.01c.67.66,1.01,1.46,1.01,2.41,0,.95-.34,1.76-1.01,2.43-.66.66-1.46.99-2.39.99s-1.76-.33-2.43-.99c-.66-.67-.99-1.49-.99-2.43s.33-1.75.99-2.41ZM147.08,309.56c.78-.13,1.31-.32,1.59-.58.43-.39.65-1.08.65-2.09v-12.97c0-.89-.15-1.49-.45-1.81-.3-.33-.9-.57-1.79-.73v-1.08h8.47v16.76c0,.96.14,1.58.43,1.85.29.27.83.49,1.62.65v1.06h-10.51v-1.06Z"/>
        <path class="cls-2" d="M159.34,292.24v-1.23c.39-.36.87-.78,1.44-1.27.76-.7,1.48-1.43,2.15-2.18,1.34-1.47,2.55-3.04,3.64-4.72h1.12v7.46h4.2v1.94h-4.2v13.27c0,.62.09,1.14.28,1.55.29.65.76.97,1.42.97.57,0,1.05-.2,1.44-.6.39-.42.78-.98,1.16-1.7l1.06.52c-.52,1.21-1.13,2.19-1.85,2.95-1.26,1.34-2.81,2-4.63,2-1.03,0-1.94-.19-2.71-.58-1.49-.75-2.24-2.1-2.24-4.07v-14.31h-2.28Z"/>
        <path class="cls-2" d="M185,307.45c.34-.26.75-.66,1.23-1.21v-6.44c-1.18.29-2.21.74-3.1,1.36-1.51,1.05-2.26,2.39-2.26,4.01,0,.96.21,1.7.65,2.2.44.49.94.73,1.49.73.72,0,1.39-.22,2-.65ZM177.31,301.78c1.91-1.16,4.91-2.33,8.99-3.51v-3.21c0-1.31-.28-2.27-.84-2.89-.55-.63-1.52-.95-2.93-.95-.79,0-1.44.15-1.96.45-.5.29-.75.65-.75,1.1,0,.17.03.32.09.43.06.12.14.24.26.37l.26.3c.2.24.36.52.47.82.13.29.19.6.19.93,0,.83-.28,1.48-.84,1.94-.55.45-1.19.67-1.92.67-.85,0-1.57-.25-2.18-.75-.59-.5-.88-1.23-.88-2.18,0-1.7.8-3.04,2.39-4.03,1.59-.99,3.56-1.49,5.88-1.49,2.5,0,4.59.48,6.27,1.44,1.67.98,2.5,2.77,2.5,5.39v10.69c0,.32.08.59.24.82.17.22.36.32.56.32.17,0,.32-.03.45-.09.14-.07.36-.25.65-.54l.67.93c-.86,1.01-1.82,1.71-2.87,2.11-.66.26-1.36.39-2.09.39-1.31,0-2.26-.38-2.87-1.14-.34-.43-.6-1.07-.75-1.92-1.22,1.22-2.6,2.08-4.14,2.59-.93.32-1.85.47-2.76.47-1.21,0-2.33-.38-3.38-1.14-1.05-.78-1.57-1.98-1.57-3.6,0-1.98.96-3.56,2.87-4.72Z"/>
        <path class="cls-2" d="M196.1,292.24v-1.23c.39-.36.87-.78,1.44-1.27.76-.7,1.48-1.43,2.16-2.18,1.34-1.47,2.55-3.04,3.64-4.72h1.12v7.46h4.2v1.94h-4.2v13.27c0,.62.09,1.14.28,1.55.29.65.76.97,1.42.97.57,0,1.06-.2,1.44-.6.39-.42.78-.98,1.16-1.7l1.06.52c-.52,1.21-1.14,2.19-1.85,2.95-1.26,1.34-2.81,2-4.63,2-1.03,0-1.94-.19-2.72-.58-1.49-.75-2.24-2.1-2.24-4.07v-14.31h-2.28Z"/>
        <path class="cls-2" d="M234.78,307.47c.76-.85,1.14-1.44,1.14-1.79v-10.73c0-.36-.32-.89-.97-1.59-.65-.7-1.5-1.06-2.56-1.06-1.57,0-2.63,1.08-3.19,3.25-.3,1.16-.45,2.81-.45,4.93,0,2.27.14,3.98.43,5.13.53,2.08,1.55,3.12,3.06,3.12.95,0,1.79-.42,2.54-1.27ZM224.71,292.82c1.67-2.03,3.66-3.04,5.99-3.04,1.16,0,2.2.29,3.1.86.56.34,1.26.96,2.11,1.85v-8.08c0-1.11-.22-1.79-.65-2.05-.43-.27-1.32-.44-2.67-.5v-1.08h9.5v25.38c0,.92.17,1.56.52,1.92.34.34,1.02.56,2.03.65v1.01c-2.47.24-4.07.43-4.78.56-.72.12-1.98.42-3.79.93v-2.91c-.83.86-1.59,1.5-2.28,1.92-1.09.66-2.27.99-3.53.99-2.16,0-4.03-.91-5.62-2.74-1.59-1.82-2.39-4.3-2.39-7.43,0-3.49.83-6.24,2.48-8.25Z"/>
        <path class="cls-2" d="M249.34,292.6c1.81-1.88,3.99-2.82,6.53-2.82,1.45,0,2.82.38,4.09,1.14,1.28.76,2.26,1.82,2.95,3.17.52,1.02.88,2.34,1.08,3.96.1.76.15,1.34.15,1.75h-11.25c.1,1.77.39,3.3.86,4.59.86,2.43,2.38,3.64,4.55,3.64,1.03,0,2.01-.32,2.93-.97.56-.39,1.26-1.04,2.09-1.96l1.01.62c-1.36,2.24-2.95,3.8-4.74,4.68-1.16.56-2.5.84-4.01.84-2.17,0-4.2-.85-6.1-2.56-1.9-1.71-2.84-4.44-2.84-8.19,0-3.39.9-6.02,2.69-7.89ZM258.72,298.16c-.03-2.6-.23-4.42-.6-5.45-.37-1.03-1.12-1.55-2.24-1.55s-1.94.6-2.37,1.79c-.42,1.19-.65,2.93-.71,5.21h5.93Z"/>
        <path class="cls-2" d="M277.07,309.5c1.21-.04,2.07-.2,2.59-.47.88-.46,1.31-1.34,1.31-2.63v-21.35c0-1.29-.42-2.16-1.25-2.61-.49-.27-1.37-.44-2.65-.52v-1.12h15.43v1.12c-1.8.06-3,.31-3.6.75-.59.45-.88,1.54-.88,3.3v20.84c0,.98.25,1.62.75,1.94.52.32,1.51.47,3,.47,2.66,0,4.88-.58,6.68-1.75,1.81-1.18,3.37-3.46,4.68-6.85h1.29l-1.79,10h-25.55v-1.12Z"/>
        <path class="cls-2" d="M306.42,309.56c.78-.19,1.32-.43,1.64-.73.33-.32.5-.96.5-1.94v-22.47c0-.93-.15-1.54-.45-1.83-.3-.29-.86-.52-1.68-.71v-1.08h8.36v26.09c0,.98.16,1.62.47,1.92.32.3.88.55,1.68.75v1.06h-10.51v-1.06Z"/>
        <path class="cls-2" d="M321.65,292.6c1.81-1.88,3.99-2.82,6.53-2.82,1.45,0,2.82.38,4.09,1.14,1.28.76,2.26,1.82,2.95,3.17.52,1.02.87,2.34,1.08,3.96.1.76.15,1.34.15,1.75h-11.25c.1,1.77.39,3.3.86,4.59.86,2.43,2.38,3.64,4.55,3.64,1.03,0,2.01-.32,2.93-.97.56-.39,1.26-1.04,2.09-1.96l1.01.62c-1.37,2.24-2.95,3.8-4.74,4.68-1.16.56-2.5.84-4.01.84-2.17,0-4.2-.85-6.1-2.56-1.9-1.71-2.84-4.44-2.84-8.19,0-3.39.9-6.02,2.69-7.89ZM331.03,298.16c-.03-2.6-.23-4.42-.6-5.45-.37-1.03-1.12-1.55-2.24-1.55s-1.94.6-2.37,1.79c-.42,1.19-.65,2.93-.71,5.21h5.93Z"/>
        <path class="cls-2" d="M341.2,281.14c.67-.67,1.49-1.01,2.43-1.01s1.73.34,2.39,1.01c.67.66,1.01,1.46,1.01,2.41s-.34,1.76-1.01,2.43c-.66.66-1.46.99-2.39.99s-1.76-.33-2.43-.99c-.66-.67-.99-1.49-.99-2.43s.33-1.75.99-2.41ZM338.27,309.56c.78-.13,1.31-.32,1.59-.58.43-.39.65-1.08.65-2.09v-12.97c0-.89-.15-1.49-.45-1.81-.3-.33-.9-.57-1.79-.73v-1.08h8.47v16.76c0,.96.14,1.58.43,1.85.29.27.83.49,1.62.65v1.06h-10.52v-1.06Z"/>
        <path class="cls-2" d="M363.48,307.47c.76-.85,1.14-1.44,1.14-1.79v-10.73c0-.36-.32-.89-.97-1.59-.65-.7-1.5-1.06-2.56-1.06-1.57,0-2.63,1.08-3.19,3.25-.3,1.16-.45,2.81-.45,4.93,0,2.27.14,3.98.43,5.13.53,2.08,1.55,3.12,3.06,3.12.95,0,1.79-.42,2.54-1.27ZM353.41,292.82c1.67-2.03,3.66-3.04,5.99-3.04,1.16,0,2.2.29,3.1.86.56.34,1.26.96,2.11,1.85v-8.08c0-1.11-.22-1.79-.65-2.05-.43-.27-1.32-.44-2.67-.5v-1.08h9.5v25.38c0,.92.17,1.56.52,1.92.34.34,1.02.56,2.03.65v1.01c-2.47.24-4.07.43-4.78.56-.72.12-1.98.42-3.79.93v-2.91c-.83.86-1.6,1.5-2.29,1.92-1.09.66-2.27.99-3.53.99-2.15,0-4.03-.91-5.62-2.74-1.59-1.82-2.39-4.3-2.39-7.43,0-3.49.83-6.24,2.48-8.25Z"/>
        <path class="cls-2" d="M386.04,307.45c.34-.26.75-.66,1.23-1.21v-6.44c-1.18.29-2.21.74-3.1,1.36-1.51,1.05-2.26,2.39-2.26,4.01,0,.96.22,1.7.65,2.2.45.49.94.73,1.49.73.72,0,1.39-.22,2-.65ZM378.34,301.78c1.91-1.16,4.91-2.33,8.98-3.51v-3.21c0-1.31-.28-2.27-.84-2.89-.55-.63-1.52-.95-2.93-.95-.79,0-1.44.15-1.96.45-.5.29-.75.65-.75,1.1,0,.17.03.32.09.43.06.12.14.24.26.37l.26.3c.2.24.36.52.47.82.13.29.19.6.19.93,0,.83-.28,1.48-.84,1.94-.55.45-1.18.67-1.92.67-.85,0-1.57-.25-2.18-.75-.59-.5-.88-1.23-.88-2.18,0-1.7.8-3.04,2.39-4.03,1.59-.99,3.56-1.49,5.88-1.49,2.5,0,4.59.48,6.27,1.44,1.67.98,2.5,2.77,2.5,5.39v10.69c0,.32.08.59.24.82.17.22.36.32.56.32.17,0,.32-.03.45-.09.14-.07.36-.25.65-.54l.67.93c-.86,1.01-1.82,1.71-2.87,2.11-.66.26-1.36.39-2.09.39-1.31,0-2.26-.38-2.87-1.14-.34-.43-.6-1.07-.75-1.92-1.22,1.22-2.6,2.08-4.14,2.59-.93.32-1.85.47-2.76.47-1.21,0-2.33-.38-3.38-1.14-1.05-.78-1.57-1.98-1.57-3.6,0-1.98.96-3.56,2.87-4.72Z"/>
      </g>
      <path class="cls-2" d="M198,175.06h0c-6.51,0-11.79-5.37-11.79-11.99V62.95s-15.73,0-15.73,0v100.15c0,15.38,12.2,27.82,27.29,27.95,15.09-.13,27.43-12.58,27.43-27.95V62.95h-15.74v100.12c0,6.62-5.28,11.99-11.79,11.99h.33Z"/>
      <path class="cls-1" d="M197.72,250.31l96.5-97.8s-32.06,10.15-59.87,38.65c-27.81,28.5-32.49,46.42-36.52,53.11-4.03-6.69-8.7-24.61-36.52-53.11-27.81-28.5-59.87-38.65-59.87-38.65l96.29,97.8Z"/>
      <path class="cls-1" d="M197.47,48.17c-7.37-10.49-18.59-17.88-31.74-19.73,4.96-2.78,10.66-4.36,16.72-4.36,2.59,0,5.04.27,7.48.81,0-.29,0-.52,0-.81,0-8.98,2.84-17.3,7.62-24.08,4.78,6.79,7.59,15.1,7.59,24.08,0,.3,0,.52,0,.81,2.43-.55,4.88-.81,7.48-.81,6.06,0,11.76,1.58,16.72,4.36-13.15,1.85-24.5,9.24-31.87,19.73Z"/>
      <path class="cls-1" d="M86.86,140.73c-12.51-2.12-25.58.72-36.16,8.87,1.58-5.53,4.51-10.74,8.79-15.1,1.83-1.86,3.75-3.44,5.85-4.8-.21-.2-.36-.37-.57-.58-6.25-6.35-10.02-14.28-11.36-22.51,8.1,1.36,15.87,5.22,22.12,11.57.21.21.37.36.57.58,1.34-2.13,2.89-4.09,4.72-5.95,4.29-4.36,9.41-7.34,14.85-8.94-8.01,10.76-10.9,24.15-8.81,36.87Z"/>
      <path class="cls-1" d="M306.16,141.28c2.09-12.72-.71-26.01-8.72-36.77,5.44,1.6,10.56,4.58,14.85,8.94,1.83,1.86,3.38,3.82,4.72,5.95.2-.21.36-.37.57-.58,6.25-6.35,14.04-10.19,22.14-11.55-1.34,8.24-5.13,16.14-11.38,22.49-.21.21-.36.37-.57.58,2.1,1.36,4.02,2.93,5.85,4.8,4.29,4.36,7.22,9.57,8.79,15.1-10.58-8.14-23.75-11.08-36.26-8.96Z"/>
    </g>
  </g>
</svg>