<?xml version="1.0" encoding="UTF-8"?>
<svg id="Layer_2" data-name="Layer 2" xmlns="http://www.w3.org/2000/svg" viewBox="0 0 267.7 267.7">
  <defs>
    <style>
      .cls-1 {
        fill: #01543f;
      }

      .cls-2 {
        fill: #fff;
      }

      .cls-3 {
        fill: #04543f;
      }
    </style>
  </defs>
  <g id="Capa_1" data-name="Capa 1">
    <rect class="cls-1" width="267.7" height="267.7"/>
    <polyline class="cls-3" points="261.2 260.8 261.2 6.1 6.5 6.1 6.5 260.8"/>
    <path class="cls-2" d="M148.8,117.7c0-5.7,3.3-9.2,5.3-11.2,1.7-1.7,5.4-4.4,9.4-4.4h15.9v12h-12.1s-2.9.3-4.7,2.5-1.9,4.2-1.9,4.2v6.6h15.5v12h-15.5v8.3s-.2,2.2,1.1,3.6c.9,1,1.7,1.5,3.1,1.5h14.5v12h-17.3c-3.7,0-6.7-1.2-9.4-3.8-2.8-2.7-4-5-4-9.4l.1-33.9h0ZM234.5,150.9c-.1,14.5-13.1,13.9-16.8,13.9h-23.5v-62.7h23.6c3.3,0,16.7-.2,16.7,14.5v34.3ZM215.4,152.8c8,0,7.1-8.6,7.1-8.6v-19.5c0-2,.9-10.6-7-10.6h-9.3v38.7h9.2ZM113.9,114.1h8.5v50.7h12v-62.7h-23.2c-8.7,0-17.1,6.1-17.1,14.8v47.9h12v-40.5c0-5.5,1.6-10.2,7.8-10.2M60.1,152.8h-8.6l.1-50.7h-12v62.7h23.3c8.6,0,17-6,17-14.6v-48h-12v40.6c0,5.3-1.6,10-7.8,10"/>
  </g>
</svg>