<svg width="17" height="14" viewBox="0 0 17 14" fill="none" xmlns="http://www.w3.org/2000/svg">
  <path d="M8.5 13.8054C4.64 13.8054 1.5 10.7527 1.5 6.99989C1.5 3.24711 4.64 0.194336 8.5 0.194336C12.36 0.194336 15.5 3.24711 15.5 6.99989C15.5 10.7527 12.36 13.8054 8.5 13.8054ZM8.5 1.16656C5.19 1.16656 2.5 3.78184 2.5 6.99989C2.5 10.2179 5.19 12.8332 8.5 12.8332C11.81 12.8332 14.5 10.2179 14.5 6.99989C14.5 3.78184 11.81 1.16656 8.5 1.16656Z" fill="white" />
  <path d="M8.5 10.4027C8.22 10.4027 8 10.1888 8 9.91661V4.08328C8 3.81106 8.22 3.59717 8.5 3.59717C8.78 3.59717 9 3.81106 9 4.08328V9.91661C9 10.1888 8.78 10.4027 8.5 10.4027Z" fill="white" />
  <path d="M11.5 7.48614H5.5C5.22 7.48614 5 7.27225 5 7.00003C5 6.7278 5.22 6.51392 5.5 6.51392H11.5C11.78 6.51392 12 6.7278 12 7.00003C12 7.27225 11.78 7.48614 11.5 7.48614Z" fill="white" />
</svg>