<svg width="22" height="28" viewBox="0 0 22 28" fill="none" xmlns="http://www.w3.org/2000/svg">
  <path d="M15.625 16.8125H19.375C19.8723 16.8125 20.3492 16.615 20.7008 16.2633C21.0525 15.9117 21.25 15.4348 21.25 14.9375V11.1875C21.25 10.6902 21.0525 10.2133 20.7008 9.86168C20.3492 9.51004 19.8723 9.3125 19.375 9.3125H15.625C15.1277 9.3125 14.6508 9.51004 14.2992 9.86168C13.9475 10.2133 13.75 10.6902 13.75 11.1875V12.125H5.3125V8.375H6.25C6.74728 8.375 7.22419 8.17746 7.57582 7.82582C7.92746 7.47419 8.125 6.99728 8.125 6.5V2.75C8.125 2.25272 7.92746 1.77581 7.57582 1.42417C7.22419 1.07254 6.74728 0.875 6.25 0.875H2.5C2.00272 0.875 1.52581 1.07254 1.17417 1.42417C0.822544 1.77581 0.625 2.25272 0.625 2.75V6.5C0.625 6.99728 0.822544 7.47419 1.17417 7.82582C1.52581 8.17746 2.00272 8.375 2.5 8.375H3.4375V21.5C3.4375 22.2459 3.73382 22.9613 4.26126 23.4887C4.78871 24.0162 5.50408 24.3125 6.25 24.3125H13.75V25.25C13.75 25.7473 13.9475 26.2242 14.2992 26.5758C14.6508 26.9275 15.1277 27.125 15.625 27.125H19.375C19.8723 27.125 20.3492 26.9275 20.7008 26.5758C21.0525 26.2242 21.25 25.7473 21.25 25.25V21.5C21.25 21.0027 21.0525 20.5258 20.7008 20.1742C20.3492 19.8225 19.8723 19.625 19.375 19.625H15.625C15.1277 19.625 14.6508 19.8225 14.2992 20.1742C13.9475 20.5258 13.75 21.0027 13.75 21.5V22.4375H6.25C6.00136 22.4375 5.7629 22.3387 5.58709 22.1629C5.41127 21.9871 5.3125 21.7486 5.3125 21.5V14H13.75V14.9375C13.75 15.4348 13.9475 15.9117 14.2992 16.2633C14.6508 16.615 15.1277 16.8125 15.625 16.8125ZM2.5 2.75H6.25V6.5H2.5V2.75ZM15.625 21.5H19.375V25.25H15.625V21.5ZM15.625 11.1875H19.375V14.9375H15.625V11.1875Z" fill="#fdd655" />
</svg>
