<svg width="12" height="12" viewBox="0 0 12 12" fill="none" xmlns="http://www.w3.org/2000/svg">
  <path d="M3 11C2.725 11 2.48967 10.9022 2.294 10.7065C2.09833 10.5108 2.00033 10.2753 2 10V5C2 4.725 2.098 4.48967 2.294 4.294C2.49 4.09833 2.72533 4.00033 3 4H3.5V3C3.5 2.30833 3.74383 1.71883 4.2315 1.2315C4.71917 0.744167 5.30867 0.500334 6 0.5C6.69133 0.499667 7.281 0.7435 7.769 1.2315C8.257 1.7195 8.50067 2.309 8.5 3V4H9C9.275 4 9.5105 4.098 9.7065 4.294C9.9025 4.49 10.0003 4.72533 10 5V10C10 10.275 9.90217 10.5105 9.7065 10.7065C9.51083 10.9025 9.27533 11.0003 9 11H3ZM3 10H9V5H3V10ZM6 8.5C6.275 8.5 6.5105 8.40217 6.7065 8.2065C6.9025 8.01083 7.00033 7.77533 7 7.5C6.99967 7.22467 6.90183 6.98933 6.7065 6.794C6.51117 6.59867 6.27567 6.50067 6 6.5C5.72433 6.49933 5.489 6.59733 5.294 6.794C5.099 6.99067 5.001 7.226 5 7.5C4.999 7.774 5.097 8.0095 5.294 8.2065C5.491 8.4035 5.72633 8.50133 6 8.5ZM4.5 4H7.5V3C7.5 2.58333 7.35417 2.22917 7.0625 1.9375C6.77083 1.64583 6.41667 1.5 6 1.5C5.58333 1.5 5.22917 1.64583 4.9375 1.9375C4.64583 2.22917 4.5 2.58333 4.5 3V4Z" fill="#0A4B70" />
</svg>