<svg width="12" height="10" viewBox="0 0 12 10" fill="none" xmlns="http://www.w3.org/2000/svg">
  <path d="M1.33265 3.83299L0.920229 4.24541L0.507812 3.83299L0.920229 3.42057L1.33265 3.83299ZM11.2493 8.49966C11.2493 8.65437 11.1879 8.80274 11.0785 8.91214C10.9691 9.02153 10.8207 9.08299 10.666 9.08299C10.5113 9.08299 10.3629 9.02153 10.2535 8.91214C10.1441 8.80274 10.0826 8.65437 10.0826 8.49966H11.2493ZM3.8369 7.16207L0.920229 4.24541L1.74506 3.42057L4.66173 6.33724L3.8369 7.16207ZM0.920229 3.42057L3.8369 0.503906L4.66173 1.32874L1.74506 4.24541L0.920229 3.42057ZM1.33265 3.24966H7.16598V4.41632H1.33265V3.24966ZM11.2493 7.33299V8.49966H10.0826V7.33299H11.2493ZM7.16598 3.24966C8.24895 3.24966 9.28756 3.67986 10.0533 4.44564C10.8191 5.21141 11.2493 6.25002 11.2493 7.33299H10.0826C10.0826 6.55944 9.77535 5.81758 9.22837 5.27059C8.68139 4.72361 7.93953 4.41632 7.16598 4.41632V3.24966Z" fill="#0A4B70" />
</svg>