<svg width="16" height="16" viewBox="0 0 16 16" fill="none" xmlns="http://www.w3.org/2000/svg">
  <path d="M4.38884 15C3.99161 15 3.65169 14.8587 3.36906 14.5761C3.08643 14.2934 2.94487 13.9533 2.94439 13.5556V4.16667C2.73976 4.16667 2.56836 4.09733 2.43017 3.95867C2.29199 3.82 2.22265 3.64859 2.22217 3.44444C2.22169 3.2403 2.29102 3.06889 2.43017 2.93022C2.56932 2.79156 2.74073 2.72222 2.94439 2.72222H5.83328C5.83328 2.51759 5.90261 2.34619 6.04128 2.208C6.17995 2.06981 6.35135 2.00048 6.5555 2H9.44439C9.64902 2 9.82067 2.06933 9.95934 2.208C10.098 2.34667 10.1671 2.51807 10.1666 2.72222H13.0555C13.2601 2.72222 13.4318 2.79156 13.5704 2.93022C13.7091 3.06889 13.7782 3.2403 13.7777 3.44444C13.7772 3.64859 13.7079 3.82024 13.5697 3.95939C13.4315 4.09854 13.2601 4.16763 13.0555 4.16667V13.5556C13.0555 13.9528 12.9142 14.2929 12.6316 14.5761C12.3489 14.8592 12.0088 15.0005 11.6111 15H4.38884ZM11.6111 4.16667H4.38884V13.5556H11.6111V4.16667ZM6.5555 12.1111C6.76013 12.1111 6.93178 12.0418 7.07045 11.9031C7.20911 11.7644 7.27821 11.593 7.27773 11.3889V6.33333C7.27773 6.1287 7.20839 5.9573 7.06973 5.81911C6.93106 5.68093 6.75965 5.61159 6.5555 5.61111C6.35135 5.61063 6.17995 5.67996 6.04128 5.81911C5.90261 5.95826 5.83328 6.12967 5.83328 6.33333V11.3889C5.83328 11.5935 5.90261 11.7652 6.04128 11.9038C6.17995 12.0425 6.35135 12.1116 6.5555 12.1111ZM9.44439 12.1111C9.64902 12.1111 9.82067 12.0418 9.95934 11.9031C10.098 11.7644 10.1671 11.593 10.1666 11.3889V6.33333C10.1666 6.1287 10.0973 5.9573 9.95861 5.81911C9.81995 5.68093 9.64854 5.61159 9.44439 5.61111C9.24024 5.61063 9.06884 5.67996 8.93017 5.81911C8.7915 5.95826 8.72217 6.12967 8.72217 6.33333V11.3889C8.72217 11.5935 8.7915 11.7652 8.93017 11.9038C9.06884 12.0425 9.24024 12.1116 9.44439 12.1111Z" fill="#4CA3D3" />
</svg>