<?xml version="1.0" encoding="UTF-8"?>
<svg id="Capa_1" data-name="Capa 1" xmlns="http://www.w3.org/2000/svg" viewBox="0 0 560 126.95">
  <g>
    <path d="m119.08,12.12c-3.06-1.81-6.74-3.12-10.96-3.82-4.19-.7-8.53-.7-12.81-.11-4.26.58-8.45,1.75-12.37,3.4-3.92,1.66-7.57,3.81-10.73,6.36-3.17,2.56-5.85,5.54-7.8,8.84-1.97,3.32-3.03,6.67-3.24,9.89-.21,3.24.44,6.35,1.86,9.15,1.44,2.83,3.69,5.35,6.64,7.39,2.98,2.05,6.69,3.6,11.04,4.48,4.37.88,8.96,1,13.52.43,4.56-.57,9.06-1.8,13.25-3.59,4.18-1.79,8.03-4.15,11.29-6.93,3.25-2.78,5.9-5.99,7.72-9.51,1.8-3.49,2.6-6.96,2.52-10.22-.08-3.23-1.03-6.27-2.74-8.95-1.69-2.67-4.12-4.98-7.19-6.81Z" style="fill: #fff;"/>
    <path d="m140.88,22.54c-2.96-4.52-7.15-8.43-12.38-11.48-5.16-3.01-11.35-5.21-18.39-6.35-6.98-1.12-14.18-1.12-21.25-.15-7.05.97-13.99,2.9-20.49,5.64-6.51,2.74-12.6,6.31-17.91,10.56-5.35,4.27-9.93,9.26-13.37,14.82-3.47,5.63-5.44,11.33-6.01,16.85-.58,5.6.28,11,2.48,15.92,2.24,5,5.86,9.49,10.75,13.16,4.95,3.73,11.2,6.6,18.61,8.28,7.49,1.7,15.41,2.01,23.28,1.11,7.92-.92,15.75-3.04,23.03-6.2,7.26-3.15,13.93-7.3,19.55-12.24,5.58-4.91,10.1-10.56,13.14-16.76,2.99-6.11,4.24-12.14,3.98-17.8-.26-5.58-2.01-10.79-5.01-15.37Zm-6.79,24.24c-2.42,4.82-6,9.21-10.4,13.03-4.42,3.84-9.66,7.06-15.34,9.52-5.7,2.46-11.84,4.14-18.04,4.87-6.18.73-12.42.53-18.33-.72-5.87-1.25-10.84-3.44-14.82-6.29-3.93-2.83-6.87-6.3-8.73-10.19-1.83-3.83-2.61-8.07-2.23-12.47.37-4.35,1.86-8.87,4.56-13.34,2.68-4.44,6.29-8.42,10.55-11.83,4.23-3.41,9.1-6.27,14.33-8.46,5.21-2.2,10.78-3.75,16.44-4.53,5.68-.78,11.45-.78,17.05.14,5.63.92,10.57,2.67,14.66,5.09,4.15,2.44,7.45,5.55,9.77,9.13,2.34,3.63,3.67,7.74,3.82,12.12.16,4.45-.88,9.17-3.28,13.94Z" style="fill: #fff;"/>
    <path d="m163.47,48.36c-.56-8.06-3.23-15.57-7.66-22.12-4.34-6.42-10.38-11.94-17.84-16.25-7.32-4.21-16.03-7.26-25.9-8.83-9.74-1.55-19.76-1.51-29.58-.15-9.77,1.36-19.41,4.04-28.46,7.84-9.07,3.81-17.61,8.77-25.1,14.69-7.58,5.98-14.14,12.99-19.17,20.83C4.67,52.37,1.6,60.52.49,68.45c-1.14,8.1-.26,15.99,2.54,23.23,2.87,7.41,7.74,14.14,14.5,19.7,6.89,5.68,15.72,10.12,26.31,12.82,10.75,2.73,22.21,3.38,33.67,2.16,11.54-1.21,22.97-4.3,33.6-8.96,10.6-4.65,20.3-10.81,28.44-18.17,8.04-7.27,14.48-15.66,18.72-24.81,4.16-8.99,5.77-17.81,5.19-26.06Zm-13.5,16.56c-3.64,7.63-9.11,14.62-15.9,20.68-6.86,6.11-15.02,11.24-23.92,15.12-8.92,3.89-18.51,6.49-28.2,7.55-9.64,1.07-19.3.61-28.4-1.58-8.98-2.15-16.52-5.77-22.45-10.44-5.83-4.58-10.1-10.16-12.67-16.33-2.52-6.05-3.42-12.68-2.59-19.51.82-6.71,3.32-13.63,7.59-20.43,4.22-6.71,9.78-12.7,16.24-17.82,6.4-5.09,13.71-9.35,21.51-12.63,7.77-3.27,16.08-5.58,24.49-6.75,8.45-1.16,17.07-1.18,25.43.16,8.46,1.35,15.91,3.98,22.14,7.6,6.33,3.67,11.43,8.38,15.07,13.85,3.7,5.56,5.89,11.89,6.28,18.7.4,6.92-1.04,14.33-4.62,21.84Z" style="fill: #fff;"/>
  </g>
  <g>
    <path d="m234.19,23.64c-4.55-.43-14.74-.65-21.13-.65-15.17,0-23.07,5.74-23.07,20.15v58.93c0,1.2.97,2.17,2.17,2.17h5.53c1.19,0,2.17-.98,2.17-2.17v-35.42h33.26c1.19,0,2.17-.98,2.17-2.17v-4.12c0-1.19-.98-2.17-2.17-2.17h-33.26v-15.06c0-8.24,1.84-11.26,13.32-11.26h20.91c.76,0,1.19-.54,1.19-1.3v-5.42c0-.65-.44-1.4-1.08-1.52Z" style="fill: #fff;"/>
    <path d="m258.67,23.75h-5.96c-1.19,0-1.95.97-1.95,2.05v76.27c0,1.2.87,2.17,1.95,2.17h5.96c1.19,0,1.95-1.08,1.95-2.17V25.81c0-1.2-.86-2.05-1.95-2.05Z" style="fill: #fff;"/>
    <path d="m358.3,23.75h-5.75c-1.19,0-2.06.97-2.06,2.06v49.62c0,14.63-2.92,21.23-15.17,21.23-1.84,0-7.59-.33-9.97-.98V25.7c0-1.19-.76-1.96-1.95-1.96h-5.86c-1.19,0-2.05.97-2.05,2.06v69.88c-2.39.65-8.13.98-9.97.98-12.24,0-15.17-6.61-15.17-21.23V25.81c0-1.09-.98-2.06-2.06-2.06h-5.74c-1.19,0-2.06.97-2.06,2.06v49.62c0,18.85,6.5,29.58,22.97,29.58,5.64,0,10.73-.54,16.9-2.71,6.17,2.17,11.37,2.71,17.01,2.71,16.47,0,22.97-10.73,22.97-29.58V25.81c0-1.09-.98-2.06-2.05-2.06Z" style="fill: #fff;"/>
    <path d="m406.83,22.99h-6.29c-15.6,0-23.29,5.85-23.29,22.43v56.66c0,1.09.87,2.17,1.95,2.17h5.96c1.2,0,1.95-1.09,1.95-2.17v-32.07h33.16v32.07c0,1.2.86,2.17,1.95,2.17h5.95c1.09,0,1.96-1.09,1.96-2.17v-56.66c0-16.58-7.8-22.43-23.29-22.43Zm13.44,38.35h-33.16v-15.92c0-11.26,3.57-13.76,13.43-13.76h6.29c9.86,0,13.44,2.49,13.44,13.76v15.92Z" style="fill: #fff;"/>
    <path d="m482,68.92c9.87-2.6,17.01-9.75,17.01-21.88v-.76c0-17.55-13.22-23.29-30.33-23.29-6.29,0-14.41.33-19.07.87-1.95.22-2.6.86-2.6,2.38v75.84c0,1.19.87,2.16,1.96,2.16h5.85c1.2,0,1.95-1.08,1.95-2.16v-31.85c5.74.21,8.34.33,11.92.33h2.81l19.4,32.28c.86,1.41,1.51,1.41,2.81,1.41h6.94c.87,0,1.41-.65,1.41-1.41,0-.33-.12-.65-.33-.97l-19.72-32.94Zm-13.32-6.83c-2.49,0-7.15-.11-11.92-.21v-29.69c2.6-.33,8.56-.33,11.92-.33,13.54,0,20.58,3.58,20.58,14.41v.76c0,11.7-7.26,15.06-20.58,15.06Z" style="fill: #fff;"/>
    <path d="m537.9,31.87h20.91c.75,0,1.19-.54,1.19-1.29v-5.42c0-.65-.44-1.41-1.08-1.52-4.55-.43-14.73-.65-21.12-.65-15.17,0-23.08,5.74-23.08,20.15v41.71c0,14.41,7.91,20.15,23.08,20.15,6.39,0,17.01-.11,21.12-.54.65-.11,1.08-.86,1.08-1.52v-5.53c0-.76-.44-1.3-1.19-1.3h-20.91c-11.49,0-13.33-3.04-13.33-11.27v-18.2h33.26c1.19,0,2.16-.97,2.16-2.17v-4.11c0-1.19-.97-2.16-2.16-2.16h-33.26v-15.06c0-8.23,1.85-11.27,13.33-11.27Z" style="fill: #fff;"/>
  </g>
</svg>