<svg width="13" height="8" viewBox="0 0 13 8" fill="none" xmlns="http://www.w3.org/2000/svg">
  <path fill-rule="evenodd" clip-rule="evenodd" d="M6.83128 7.14354C6.78774 7.18719 6.73601 7.22182 6.67906 7.24546C6.62212 7.26909 6.56107 7.28125 6.49941 7.28125C6.43775 7.28125 6.3767 7.26909 6.31975 7.24546C6.2628 7.22182 6.21108 7.18719 6.16753 7.14354L0.542533 1.51854C0.454515 1.43052 0.405066 1.31114 0.405066 1.18666C0.405066 1.06219 0.454515 0.942806 0.542533 0.854787C0.630551 0.766769 0.74993 0.717321 0.874408 0.717321C0.998885 0.717321 1.11826 0.766769 1.20628 0.854787L6.49941 6.14885L11.7925 0.854787C11.8806 0.766769 11.9999 0.717321 12.1244 0.717321C12.2489 0.717321 12.3683 0.766769 12.4563 0.854787C12.5443 0.942806 12.5938 1.06219 12.5938 1.18666C12.5938 1.31114 12.5443 1.43052 12.4563 1.51854L6.83128 7.14354Z" fill="white" />
</svg>