<?xml version="1.0" encoding="UTF-8"?>
<svg id="Layer_2" data-name="Layer 2" xmlns="http://www.w3.org/2000/svg" xmlns:xlink="http://www.w3.org/1999/xlink" viewBox="0 0 533.51 167">
  <defs>
    <style>
      .cls-1 {
        fill: none;
      }

      .cls-2 {
        fill: #2c2c2c;
      }

      .cls-3 {
        fill: #c38b5f;
      }

      .cls-4 {
        clip-path: url(#clippath);
      }
    </style>
    <clipPath id="clippath">
      <rect class="cls-1" width="171.6" height="167"/>
    </clipPath>
  </defs>
  <g id="Layer_1-2" data-name="Layer 1">
    <path class="cls-2" d="M221.39,116.43c-6.46,0-12.29-1.41-17.5-4.25-5.21-2.83-9.3-6.75-12.25-11.75-2.96-5-4.43-10.64-4.43-16.93s1.48-11.93,4.46-16.93c3-5,7.09-8.91,12.29-11.75,5.21-2.83,11.05-4.25,17.54-4.25,5.23,0,10.01.92,14.32,2.75,4.33,1.84,8,4.49,11,7.96l-7.68,7.21c-4.64-5-10.35-7.5-17.11-7.5-4.38,0-8.31.96-11.79,2.89-3.48,1.93-6.2,4.6-8.14,8-1.96,3.41-2.93,7.28-2.93,11.61s.97,8.21,2.93,11.61c1.95,3.41,4.66,6.07,8.14,8,3.47,1.93,7.4,2.89,11.79,2.89,6.76,0,12.46-2.54,17.11-7.61l7.68,7.32c-3,3.48-6.68,6.13-11.04,7.96-4.36,1.83-9.16,2.75-14.39,2.75Z"/>
    <path class="cls-2" d="M263.55,51.5h11.86v53.93h33.46v10.07h-45.32v-64Z"/>
    <path class="cls-2" d="M323.61,51.5h11.86v64h-11.86v-64Z"/>
    <path class="cls-2" d="M387.97,116.43c-6.53,0-12.41-1.41-17.64-4.25-5.24-2.83-9.36-6.76-12.36-11.79-2.98-5.04-4.46-10.68-4.46-16.89s1.48-11.83,4.46-16.86c3-5.04,7.12-8.98,12.36-11.82,5.23-2.83,11.12-4.25,17.64-4.25s12.4,1.42,17.64,4.25c5.23,2.84,9.34,6.75,12.32,11.75,3,5,4.5,10.64,4.5,16.93s-1.5,11.93-4.5,16.93c-2.98,5-7.09,8.92-12.32,11.75-5.24,2.84-11.12,4.25-17.64,4.25ZM387.97,106c4.26,0,8.09-.96,11.5-2.89,3.43-1.93,6.12-4.61,8.07-8.04,1.95-3.45,2.93-7.3,2.93-11.57s-.98-8.11-2.93-11.54c-1.96-3.45-4.64-6.14-8.07-8.07-3.41-1.93-7.24-2.89-11.5-2.89s-8.11.96-11.54,2.89c-3.41,1.93-6.09,4.62-8.04,8.07-1.96,3.43-2.93,7.28-2.93,11.54s.97,8.12,2.93,11.57c1.95,3.43,4.62,6.11,8.04,8.04,3.43,1.93,7.27,2.89,11.54,2.89Z"/>
    <path class="cls-2" d="M437.24,85.32h25.14v9.5h-25.14v-9.5Z"/>
    <path class="cls-2" d="M519.8,115.5l-17.39-24.32-17.18,24.32h-13.54l23.78-32.64-22.5-31.36h13.43l16.36,22.75,16.21-22.75h12.89l-22.43,30.89,24.07,33.11h-13.71Z"/>
    <path class="cls-3" d="M104.7,164.32h-37.71v-86.2c0-10.4,8.46-18.85,18.85-18.85s18.86,8.46,18.86,18.85v86.2"/>
    <g class="cls-4">
      <path class="cls-2" d="M13.11,140.08h37.71v5.39s-37.71,0-37.71,0v-5.39ZM18.5,53.88h5.39v80.81h-5.39V53.88ZM7.72,29.63v-5.39c0-4.46,3.63-8.08,8.08-8.08h32.32c4.46,0,8.08,3.62,8.08,8.08v5.39c0,4.46-3.62,8.08-8.08,8.08s-8.08-3.62-8.08-8.08c0-1.48,1.21-2.69,2.69-2.69s2.69,1.21,2.69,2.69v2.69h5.39v-2.69c0-4.46-3.62-8.08-8.08-8.08s-8.08,3.62-8.08,8.08c0,.93.1,1.82.28,2.69h-5.94c.18-.87.28-1.77.28-2.69,0-4.46-3.62-8.08-8.08-8.08s-8.08,3.62-8.08,8.08v2.69h5.39v-2.69c0-1.48,1.21-2.69,2.69-2.69s2.7,1.21,2.7,2.69c0,4.46-3.62,8.08-8.08,8.08s-8.08-3.62-8.08-8.08ZM7.72,5.39h156.24v5.39S7.72,10.78,7.72,10.78v-5.39ZM163.97,29.63c0,4.46-3.62,8.08-8.08,8.08s-8.08-3.62-8.08-8.08c0-1.48,1.21-2.69,2.69-2.69s2.7,1.21,2.7,2.69v2.69h5.39v-2.69c0-4.46-3.62-8.08-8.08-8.08s-8.08,3.62-8.08,8.08c0,.93.09,1.82.27,2.69h-5.93c.18-.87.27-1.77.27-2.69,0-4.46-3.62-8.08-8.08-8.08s-8.08,3.62-8.08,8.08v2.69h5.39v-2.69c0-1.48,1.21-2.69,2.69-2.69s2.69,1.21,2.69,2.69c0,4.46-3.62,8.08-8.08,8.08s-8.08-3.62-8.08-8.08v-5.39c0-4.46,3.63-8.08,8.08-8.08h32.33c4.46,0,8.08,3.62,8.08,8.08v5.39ZM147.8,134.69V53.88h5.39v80.81h-5.39ZM158.59,145.46h-37.72v-5.39h37.71v5.39ZM117.81,161.63l7.19-10.78h29.44l7.19,10.78h-43.82ZM137.03,48.49v-.46c0-3.13.97-6.2,2.7-8.78,1.73,2.58,2.69,5.65,2.69,8.78v.46h-5.39ZM126.26,53.88h5.39v80.81h-5.39V53.88ZM137.03,134.69V53.88h5.39v80.81h-5.39ZM153.19,42.83v5.66h-5.39v-.46c0-3.62-.97-7.18-2.72-10.31h.1c1.94,2.57,4.74,4.45,8.01,5.11ZM134.27,37.71h.09c-1.76,3.14-2.72,6.69-2.72,10.31v.46h-5.39v-5.66c3.27-.66,6.07-2.55,8.02-5.11ZM40.05,53.88h5.39v80.81h-5.39V53.88ZM34.66,53.88v80.81h-5.39V53.88h5.39ZM29.28,48.03c0-3.13.97-6.2,2.69-8.78,1.74,2.58,2.69,5.65,2.69,8.78v.46h-5.39v-.46ZM45.44,42.83v5.66h-5.39v-.46c0-3.62-.97-7.18-2.72-10.31h.1c1.94,2.57,4.74,4.45,8.01,5.11ZM26.52,37.71h.09c-1.75,3.14-2.72,6.69-2.72,10.31v.46h-5.39v-5.66c3.28-.66,6.07-2.55,8.02-5.11ZM50.83,134.69V42.83c6.15-1.26,10.78-6.69,10.78-13.2v-5.39c0-3.04-1.05-5.82-2.76-8.08h54.02c-1.72,2.27-2.77,5.04-2.77,8.08v5.39c0,6.51,4.64,11.94,10.78,13.2v91.86c-2.97,0-5.39,2.42-5.39,5.39v5.39c0,2.24,1.38,4.16,3.32,4.97l-7.46,11.2h-50.99l-7.46-11.2c1.94-.81,3.32-2.72,3.32-4.97v-5.39c0-2.97-2.42-5.39-5.39-5.39ZM46.69,150.85l7.19,10.78H10.07l7.18-10.78h29.44ZM171.69,167.02l-11.05-16.58c1.95-.81,3.33-2.72,3.33-4.97v-5.39c0-2.97-2.42-5.39-5.39-5.39V42.83c6.15-1.26,10.78-6.69,10.78-13.2v-5.39c0-3.27-1.22-6.24-3.17-8.58,1.86-.84,3.17-2.71,3.17-4.89v-5.39C169.35,2.42,166.93,0,163.97,0H7.72C4.76,0,2.34,2.42,2.34,5.39v5.39c0,2.18,1.3,4.05,3.17,4.89-1.95,2.34-3.17,5.31-3.17,8.58v5.39c0,6.51,4.64,11.94,10.78,13.2v91.86c-2.97,0-5.39,2.42-5.39,5.39v5.39c0,2.24,1.38,4.16,3.33,4.97L0,167.02h171.69"/>
    </g>
    <path class="cls-2" d="M61.6,53.88h48.48v80.81h5.39V48.49h-59.27v86.2h5.39V53.88"/>
    <path class="cls-2" d="M83.15,37.71h-5.39v5.39h5.39v-5.39"/>
    <path class="cls-2" d="M93.93,37.71h-5.39v5.39h5.39v-5.39"/>
    <path class="cls-2" d="M72.37,37.71h-5.39v5.39h5.39v-5.39"/>
    <path class="cls-2" d="M104.7,37.71h-5.39v5.39h5.39v-5.39"/>
  </g>
</svg>