<?xml version="1.0" encoding="UTF-8"?>
<svg id="Layer_2" xmlns="http://www.w3.org/2000/svg" xmlns:xlink="http://www.w3.org/1999/xlink" version="1.1" viewBox="0 0 653.4 167">
  <!-- Generator: Adobe Illustrator 29.4.0, SVG Export Plug-In . SVG Version: 2.1.0 Build 152)  -->
  <defs>
    <style>
      .st0 {
        fill: none;
      }

      .st1 {
        fill: #2c2c2c;
      }

      .st2 {
        fill: #c38b5f;
      }

      .st3 {
        clip-path: url(#clippath);
      }
    </style>
    <clipPath id="clippath">
      <rect class="st0" y="0" width="171.6" height="167"/>
    </clipPath>
  </defs>
  <g id="Layer_1-2">
    <path class="st1" d="M246.2,126.4c-8.4,0-16-1.8-22.8-5.5-6.8-3.7-12.1-8.8-16-15.3-3.9-6.5-5.8-13.9-5.8-22.1s1.9-15.6,5.8-22.1c3.9-6.5,9.2-11.6,16-15.3,6.8-3.7,14.4-5.5,22.9-5.5s13.1,1.2,18.7,3.6c5.6,2.4,10.4,5.9,14.4,10.4l-10,9.4c-6.1-6.5-13.5-9.8-22.3-9.8s-10.8,1.3-15.4,3.8c-4.5,2.5-8.1,6-10.6,10.4-2.6,4.4-3.8,9.5-3.8,15.1s1.3,10.7,3.8,15.1c2.5,4.4,6.1,7.9,10.6,10.4,4.5,2.5,9.6,3.8,15.4,3.8,8.8,0,16.3-3.3,22.3-9.9l10,9.6c-3.9,4.5-8.7,8-14.4,10.4-5.7,2.4-11.9,3.6-18.8,3.6h0Z"/>
    <path class="st1" d="M301.2,41.8h15.5v70.3h43.6v13.1h-59.1V41.8h0Z"/>
    <path class="st1" d="M379.6,41.8h15.5v83.5h-15.5V41.8Z"/>
    <path class="st1" d="M463.5,126.4c-8.5,0-16.2-1.8-23-5.5-6.8-3.7-12.2-8.8-16.1-15.4-3.9-6.6-5.8-13.9-5.8-22s1.9-15.4,5.8-22c3.9-6.6,9.3-11.7,16.1-15.4,6.8-3.7,14.5-5.5,23-5.5s16.2,1.8,23,5.5c6.8,3.7,12.2,8.8,16.1,15.3,3.9,6.5,5.9,13.9,5.9,22.1s-2,15.6-5.9,22.1c-3.9,6.5-9.2,11.6-16.1,15.3-6.8,3.7-14.5,5.5-23,5.5h0ZM463.5,112.8c5.6,0,10.5-1.3,15-3.8,4.5-2.5,8-6,10.5-10.5,2.5-4.5,3.8-9.5,3.8-15.1s-1.3-10.6-3.8-15.1c-2.5-4.5-6.1-8-10.5-10.5-4.5-2.5-9.4-3.8-15-3.8s-10.6,1.3-15,3.8c-4.5,2.5-7.9,6-10.5,10.5-2.5,4.5-3.8,9.5-3.8,15.1s1.3,10.6,3.8,15.1c2.5,4.5,6,8,10.5,10.5,4.5,2.5,9.5,3.8,15,3.8Z"/>
    <path class="st1" d="M527.8,85.9h32.8v12.4h-32.8v-12.4Z"/>
    <path class="st1" d="M635.5,125.2l-22.7-31.7-22.4,31.7h-17.7l31-42.6-29.3-40.9h17.5l21.3,29.7,21.2-29.7h16.8l-29.2,40.3,31.4,43.2h-17.9Z"/>
    <path class="st2" d="M104.7,164.3h-37.7v-86.2c0-10.4,8.5-18.8,18.8-18.8s18.9,8.5,18.9,18.8v86.2"/>
    <g class="st3">
      <path class="st1" d="M13.1,140.1h37.7v5.4H13.1s0-5.4,0-5.4ZM18.5,53.9h5.4v80.8h-5.4V53.9ZM7.7,29.6v-5.4c0-4.5,3.6-8.1,8.1-8.1h32.3c4.5,0,8.1,3.6,8.1,8.1v5.4c0,4.5-3.6,8.1-8.1,8.1s-8.1-3.6-8.1-8.1,1.2-2.7,2.7-2.7,2.7,1.2,2.7,2.7v2.7h5.4v-2.7c0-4.5-3.6-8.1-8.1-8.1s-8.1,3.6-8.1,8.1,0,1.8.3,2.7h-5.9c.2-.9.3-1.8.3-2.7,0-4.5-3.6-8.1-8.1-8.1s-8.1,3.6-8.1,8.1v2.7h5.4v-2.7c0-1.5,1.2-2.7,2.7-2.7s2.7,1.2,2.7,2.7c0,4.5-3.6,8.1-8.1,8.1s-8.1-3.6-8.1-8.1h0ZM7.7,5.4h156.2v5.4H7.7v-5.4ZM164,29.6c0,4.5-3.6,8.1-8.1,8.1s-8.1-3.6-8.1-8.1,1.2-2.7,2.7-2.7,2.7,1.2,2.7,2.7v2.7h5.4v-2.7c0-4.5-3.6-8.1-8.1-8.1s-8.1,3.6-8.1,8.1,0,1.8.3,2.7h-5.9c.2-.9.3-1.8.3-2.7,0-4.5-3.6-8.1-8.1-8.1s-8.1,3.6-8.1,8.1v2.7h5.4v-2.7c0-1.5,1.2-2.7,2.7-2.7s2.7,1.2,2.7,2.7c0,4.5-3.6,8.1-8.1,8.1s-8.1-3.6-8.1-8.1v-5.4c0-4.5,3.6-8.1,8.1-8.1h32.3c4.5,0,8.1,3.6,8.1,8.1v5.4h0ZM147.8,134.7V53.9h5.4v80.8h-5.4ZM158.6,145.5h-37.7v-5.4h37.7v5.4h0ZM117.8,161.6l7.2-10.8h29.4l7.2,10.8h-43.8ZM137,48.5v-.5c0-3.1,1-6.2,2.7-8.8,1.7,2.6,2.7,5.7,2.7,8.8v.5h-5.4ZM126.3,53.9h5.4v80.8h-5.4s0-80.8,0-80.8ZM137,134.7V53.9h5.4v80.8h-5.4ZM153.2,42.8v5.7h-5.4v-.5c0-3.6-1-7.2-2.7-10.3h.1c1.9,2.6,4.7,4.5,8,5.1ZM134.3,37.7h0c-1.8,3.1-2.7,6.7-2.7,10.3v.5h-5.4v-5.7c3.3-.7,6.1-2.5,8-5.1ZM40,53.9h5.4v80.8h-5.4V53.9ZM34.7,53.9v80.8h-5.4V53.9h5.4ZM29.3,48c0-3.1,1-6.2,2.7-8.8,1.7,2.6,2.7,5.7,2.7,8.8v.5h-5.4v-.5h0ZM45.4,42.8v5.7h-5.4v-.5c0-3.6-1-7.2-2.7-10.3h0c1.9,2.6,4.7,4.5,8,5.1ZM26.5,37.7h0c-1.8,3.1-2.7,6.7-2.7,10.3v.5h-5.4v-5.7c3.3-.7,6.1-2.5,8-5.1ZM50.8,134.7V42.8c6.2-1.3,10.8-6.7,10.8-13.2v-5.4c0-3-1-5.8-2.8-8.1h54c-1.7,2.3-2.8,5-2.8,8.1v5.4c0,6.5,4.6,11.9,10.8,13.2v91.9c-3,0-5.4,2.4-5.4,5.4v5.4c0,2.2,1.4,4.2,3.3,5l-7.5,11.2h-51l-7.5-11.2c1.9-.8,3.3-2.7,3.3-5v-5.4c0-3-2.4-5.4-5.4-5.4ZM46.7,150.9l7.2,10.8H10.1l7.2-10.8s29.4,0,29.4,0ZM171.7,167l-11.1-16.6c1.9-.8,3.3-2.7,3.3-5v-5.4c0-3-2.4-5.4-5.4-5.4V42.8c6.1-1.3,10.8-6.7,10.8-13.2v-5.4c0-3.3-1.2-6.2-3.2-8.6,1.9-.8,3.2-2.7,3.2-4.9v-5.4C169.4,2.4,166.9,0,164,0H7.7C4.8,0,2.3,2.4,2.3,5.4v5.4c0,2.2,1.3,4.1,3.2,4.9-2,2.3-3.2,5.3-3.2,8.6v5.4c0,6.5,4.6,11.9,10.8,13.2v91.9c-3,0-5.4,2.4-5.4,5.4v5.4c0,2.2,1.4,4.2,3.3,5L0,167h171.7"/>
    </g>
    <path class="st1" d="M61.6,53.9h48.5v80.8h5.4V48.5h-59.3v86.2h5.4V53.9"/>
    <path class="st1" d="M83.2,37.7h-5.4v5.4h5.4v-5.4"/>
    <path class="st1" d="M93.9,37.7h-5.4v5.4h5.4v-5.4"/>
    <path class="st1" d="M72.4,37.7h-5.4v5.4h5.4v-5.4"/>
    <path class="st1" d="M104.7,37.7h-5.4v5.4h5.4v-5.4"/>
  </g>
</svg>