<?xml version="1.0" encoding="UTF-8"?>
<svg id="Layer_2" data-name="Layer 2" xmlns="http://www.w3.org/2000/svg" xmlns:xlink="http://www.w3.org/1999/xlink" viewBox="0 0 202.01 217.23">
  <defs>
    <style>
      .cls-1 {
        fill: none;
      }

      .cls-2 {
        fill: #2c2c2c;
      }

      .cls-3 {
        fill: #c38b5f;
      }

      .cls-4 {
        clip-path: url(#clippath);
      }
    </style>
    <clipPath id="clippath">
      <rect class="cls-1" x="14.23" width="171.6" height="167"/>
    </clipPath>
  </defs>
  <g id="Layer_1-2" data-name="Layer 1">
    <path class="cls-2" d="M19.94,217.23c-3.77,0-7.17-.82-10.21-2.48-3.04-1.65-5.43-3.94-7.15-6.85-1.72-2.92-2.58-6.21-2.58-9.88s.86-6.96,2.6-9.88c1.75-2.92,4.14-5.2,7.17-6.85,3.04-1.65,6.45-2.48,10.23-2.48,3.05,0,5.84.54,8.35,1.6,2.53,1.07,4.67,2.62,6.42,4.65l-4.48,4.21c-2.71-2.92-6.04-4.38-9.98-4.38-2.56,0-4.85.56-6.88,1.69-2.03,1.13-3.61,2.68-4.75,4.67-1.14,1.99-1.71,4.24-1.71,6.77s.57,4.79,1.71,6.77c1.14,1.99,2.72,3.54,4.75,4.67,2.03,1.13,4.32,1.69,6.88,1.69,3.94,0,7.27-1.48,9.98-4.44l4.48,4.27c-1.75,2.03-3.9,3.58-6.44,4.65-2.54,1.07-5.34,1.6-8.4,1.6Z"/>
    <path class="cls-2" d="M44.53,179.35h6.92v31.46h19.52v5.88h-26.44v-37.33Z"/>
    <path class="cls-2" d="M79.57,179.35h6.92v37.33h-6.92v-37.33Z"/>
    <path class="cls-2" d="M117.11,217.23c-3.81,0-7.24-.82-10.29-2.48-3.06-1.65-5.46-3.94-7.21-6.88-1.74-2.94-2.6-6.23-2.6-9.85s.86-6.9,2.6-9.83c1.75-2.94,4.15-5.24,7.21-6.9,3.05-1.65,6.48-2.48,10.29-2.48s7.23.83,10.29,2.48c3.05,1.66,5.45,3.94,7.19,6.85,1.75,2.92,2.63,6.21,2.63,9.88s-.88,6.96-2.63,9.88c-1.74,2.92-4.14,5.2-7.19,6.85-3.06,1.66-6.49,2.48-10.29,2.48ZM117.11,211.14c2.48,0,4.72-.56,6.71-1.69,2-1.13,3.57-2.69,4.71-4.69,1.14-2.01,1.71-4.26,1.71-6.75s-.57-4.73-1.71-6.73c-1.14-2.01-2.71-3.58-4.71-4.71-1.99-1.13-4.22-1.69-6.71-1.69s-4.73.56-6.73,1.69c-1.99,1.13-3.55,2.7-4.69,4.71-1.14,2-1.71,4.24-1.71,6.73s.57,4.74,1.71,6.75c1.14,2,2.7,3.56,4.69,4.69,2,1.13,4.24,1.69,6.73,1.69Z"/>
    <path class="cls-2" d="M145.85,199.08h14.67v5.54h-14.67v-5.54Z"/>
    <path class="cls-2" d="M194.01,216.68l-10.15-14.19-10.02,14.19h-7.9l13.88-19.04-13.13-18.29h7.83l9.54,13.27,9.46-13.27h7.52l-13.08,18.02,14.04,19.31h-8Z"/>
    <path class="cls-3" d="M118.93,164.32h-37.71v-86.2c0-10.4,8.46-18.85,18.85-18.85s18.86,8.46,18.86,18.85v86.2"/>
    <g class="cls-4">
      <path class="cls-2" d="M27.34,140.08h37.71v5.39s-37.71,0-37.71,0v-5.39ZM32.73,53.88h5.39v80.81h-5.39V53.88ZM21.95,29.63v-5.39c0-4.46,3.63-8.08,8.08-8.08h32.32c4.46,0,8.08,3.62,8.08,8.08v5.39c0,4.46-3.62,8.08-8.08,8.08s-8.08-3.62-8.08-8.08c0-1.48,1.21-2.69,2.69-2.69s2.69,1.21,2.69,2.69v2.69h5.39v-2.69c0-4.46-3.62-8.08-8.08-8.08s-8.08,3.62-8.08,8.08c0,.93.1,1.82.28,2.69h-5.94c.18-.87.28-1.77.28-2.69,0-4.46-3.62-8.08-8.08-8.08s-8.08,3.62-8.08,8.08v2.69h5.39v-2.69c0-1.48,1.21-2.69,2.69-2.69s2.7,1.21,2.7,2.69c0,4.46-3.62,8.08-8.08,8.08s-8.08-3.62-8.08-8.08ZM21.95,5.39h156.24v5.39s-156.24,0-156.24,0v-5.39ZM178.2,29.63c0,4.46-3.62,8.08-8.08,8.08s-8.08-3.62-8.08-8.08c0-1.48,1.21-2.69,2.69-2.69s2.7,1.21,2.7,2.69v2.69h5.39v-2.69c0-4.46-3.62-8.08-8.08-8.08s-8.08,3.62-8.08,8.08c0,.93.09,1.82.27,2.69h-5.93c.18-.87.27-1.77.27-2.69,0-4.46-3.62-8.08-8.08-8.08s-8.08,3.62-8.08,8.08v2.69h5.39v-2.69c0-1.48,1.21-2.69,2.69-2.69s2.69,1.21,2.69,2.69c0,4.46-3.62,8.08-8.08,8.08s-8.08-3.62-8.08-8.08v-5.39c0-4.46,3.63-8.08,8.08-8.08h32.33c4.46,0,8.08,3.62,8.08,8.08v5.39ZM162.03,134.69V53.88h5.39v80.81h-5.39ZM172.82,145.46h-37.72v-5.39h37.71v5.39ZM132.04,161.63l7.19-10.78h29.44l7.19,10.78h-43.82ZM151.26,48.49v-.46c0-3.13.97-6.2,2.7-8.78,1.73,2.58,2.69,5.65,2.69,8.78v.46h-5.39ZM140.48,53.88h5.39v80.81h-5.39V53.88ZM151.26,134.69V53.88h5.39v80.81h-5.39ZM167.42,42.83v5.66h-5.39v-.46c0-3.62-.97-7.18-2.72-10.31h.1c1.94,2.57,4.74,4.45,8.01,5.11ZM148.5,37.71h.09c-1.76,3.14-2.72,6.69-2.72,10.31v.46h-5.39v-5.66c3.27-.66,6.07-2.55,8.02-5.11ZM54.28,53.88h5.39v80.81h-5.39V53.88ZM48.89,53.88v80.81h-5.39V53.88h5.39ZM43.51,48.03c0-3.13.97-6.2,2.69-8.78,1.74,2.58,2.69,5.65,2.69,8.78v.46h-5.39v-.46ZM59.67,42.83v5.66h-5.39v-.46c0-3.62-.97-7.18-2.72-10.31h.1c1.94,2.57,4.74,4.45,8.01,5.11ZM40.75,37.71h.09c-1.75,3.14-2.72,6.69-2.72,10.31v.46h-5.39v-5.66c3.28-.66,6.07-2.55,8.02-5.11ZM65.06,134.69V42.83c6.15-1.26,10.78-6.69,10.78-13.2v-5.39c0-3.04-1.05-5.82-2.76-8.08h54.02c-1.72,2.27-2.77,5.04-2.77,8.08v5.39c0,6.51,4.64,11.94,10.78,13.2v91.86c-2.97,0-5.39,2.42-5.39,5.39v5.39c0,2.24,1.38,4.16,3.32,4.97l-7.46,11.2h-50.99l-7.46-11.2c1.94-.81,3.32-2.72,3.32-4.97v-5.39c0-2.97-2.42-5.39-5.39-5.39ZM60.92,150.85l7.19,10.78H24.3l7.18-10.78h29.44ZM185.92,167.02l-11.05-16.58c1.95-.81,3.33-2.72,3.33-4.97v-5.39c0-2.97-2.42-5.39-5.39-5.39V42.83c6.15-1.26,10.78-6.69,10.78-13.2v-5.39c0-3.27-1.22-6.24-3.17-8.58,1.86-.84,3.17-2.71,3.17-4.89v-5.39C183.58,2.42,181.16,0,178.2,0H21.95C18.99,0,16.57,2.42,16.57,5.39v5.39c0,2.18,1.3,4.05,3.17,4.89-1.95,2.34-3.17,5.31-3.17,8.58v5.39c0,6.51,4.64,11.94,10.78,13.2v91.86c-2.97,0-5.39,2.42-5.39,5.39v5.39c0,2.24,1.38,4.16,3.33,4.97l-11.05,16.58h171.69"/>
    </g>
    <path class="cls-2" d="M75.83,53.88h48.48v80.81h5.39V48.49h-59.27v86.2h5.39V53.88"/>
    <path class="cls-2" d="M97.38,37.71h-5.39v5.39h5.39v-5.39"/>
    <path class="cls-2" d="M108.16,37.71h-5.39v5.39h5.39v-5.39"/>
    <path class="cls-2" d="M86.6,37.71h-5.39v5.39h5.39v-5.39"/>
    <path class="cls-2" d="M118.93,37.71h-5.39v5.39h5.39v-5.39"/>
  </g>
</svg>