<?xml version="1.0" encoding="UTF-8"?>
<svg id="Layer_2" data-name="Layer 2" xmlns="http://www.w3.org/2000/svg" xmlns:xlink="http://www.w3.org/1999/xlink" viewBox="0 0 653.36 167">
  <defs>
    <style>
      .cls-1 {
        fill: none;
      }

      .cls-2 {
        fill: #2c2c2c;
      }

      .cls-3 {
        fill: #c38b5f;
      }

      .cls-4 {
        clip-path: url(#clippath);
      }
    </style>
    <clipPath id="clippath">
      <rect class="cls-1" width="171.6" height="167"/>
    </clipPath>
  </defs>
  <g id="Layer_1-2" data-name="Layer 1">
    <path class="cls-2" d="M246.24,134.54c-8.42,0-16.02-1.84-22.83-5.54-6.8-3.69-12.14-8.8-15.98-15.33-3.85-6.52-5.78-13.88-5.78-22.08s1.93-15.56,5.82-22.08c3.91-6.52,9.25-11.62,16.02-15.33,6.8-3.69,14.42-5.54,22.87-5.54,6.82,0,13.06,1.2,18.68,3.59,5.65,2.4,10.43,5.86,14.35,10.39l-10.02,9.41c-6.06-6.52-13.5-9.78-22.31-9.78-5.72,0-10.84,1.26-15.37,3.77-4.54,2.52-8.08,6-10.62,10.43-2.55,4.45-3.82,9.49-3.82,15.14s1.27,10.7,3.82,15.14c2.54,4.45,6.08,7.92,10.62,10.43,4.53,2.52,9.65,3.77,15.37,3.77,8.82,0,16.26-3.31,22.31-9.92l10.02,9.55c-3.91,4.54-8.71,8-14.39,10.39-5.68,2.39-11.95,3.59-18.77,3.59Z"/>
    <path class="cls-2" d="M301.23,49.85h15.47v70.34h43.65v13.14h-59.11V49.85Z"/>
    <path class="cls-2" d="M379.57,49.85h15.47v83.48h-15.47V49.85Z"/>
    <path class="cls-2" d="M463.52,134.54c-8.51,0-16.19-1.84-23.01-5.54-6.84-3.69-12.2-8.82-16.12-15.37-3.89-6.58-5.82-13.93-5.82-22.03s1.93-15.43,5.82-21.99c3.91-6.58,9.28-11.72,16.12-15.42,6.82-3.69,14.5-5.54,23.01-5.54s16.18,1.85,23.01,5.54c6.82,3.7,12.18,8.8,16.07,15.33,3.91,6.52,5.87,13.88,5.87,22.08s-1.96,15.56-5.87,22.08c-3.89,6.52-9.25,11.63-16.07,15.33-6.84,3.7-14.51,5.54-23.01,5.54ZM463.52,120.94c5.56,0,10.55-1.26,15-3.77,4.47-2.52,7.98-6.01,10.53-10.48,2.54-4.5,3.82-9.53,3.82-15.09s-1.28-10.57-3.82-15.05c-2.55-4.5-6.06-8.01-10.53-10.53-4.45-2.52-9.44-3.77-15-3.77s-10.57,1.26-15.05,3.77c-4.45,2.52-7.94,6.03-10.48,10.53-2.55,4.47-3.82,9.49-3.82,15.05s1.27,10.6,3.82,15.09c2.54,4.47,6.03,7.97,10.48,10.48,4.47,2.52,9.48,3.77,15.05,3.77Z"/>
    <path class="cls-2" d="M527.78,93.96h32.79v12.39h-32.79v-12.39Z"/>
    <path class="cls-2" d="M635.47,133.33l-22.69-31.72-22.41,31.72h-17.66l31.02-42.58-29.35-40.9h17.52l21.34,29.67,21.15-29.67h16.82l-29.25,40.29,31.4,43.18h-17.89Z"/>
    <path class="cls-3" d="M104.7,164.32h-37.71v-86.2c0-10.4,8.46-18.85,18.85-18.85s18.86,8.46,18.86,18.85v86.2"/>
    <g class="cls-4">
      <path class="cls-2" d="M13.11,140.08h37.71v5.39s-37.71,0-37.71,0v-5.39ZM18.5,53.88h5.39v80.81h-5.39V53.88ZM7.72,29.63v-5.39c0-4.46,3.63-8.08,8.08-8.08h32.32c4.46,0,8.08,3.62,8.08,8.08v5.39c0,4.46-3.62,8.08-8.08,8.08s-8.08-3.62-8.08-8.08c0-1.48,1.21-2.69,2.69-2.69s2.69,1.21,2.69,2.69v2.69h5.39v-2.69c0-4.46-3.62-8.08-8.08-8.08s-8.08,3.62-8.08,8.08c0,.93.1,1.82.28,2.69h-5.94c.18-.87.28-1.77.28-2.69,0-4.46-3.62-8.08-8.08-8.08s-8.08,3.62-8.08,8.08v2.69h5.39v-2.69c0-1.48,1.21-2.69,2.69-2.69s2.7,1.21,2.7,2.69c0,4.46-3.62,8.08-8.08,8.08s-8.08-3.62-8.08-8.08ZM7.72,5.39h156.24v5.39S7.72,10.78,7.72,10.78v-5.39ZM163.97,29.63c0,4.46-3.62,8.08-8.08,8.08s-8.08-3.62-8.08-8.08c0-1.48,1.21-2.69,2.69-2.69s2.7,1.21,2.7,2.69v2.69h5.39v-2.69c0-4.46-3.62-8.08-8.08-8.08s-8.08,3.62-8.08,8.08c0,.93.09,1.82.27,2.69h-5.93c.18-.87.27-1.77.27-2.69,0-4.46-3.62-8.08-8.08-8.08s-8.08,3.62-8.08,8.08v2.69h5.39v-2.69c0-1.48,1.21-2.69,2.69-2.69s2.69,1.21,2.69,2.69c0,4.46-3.62,8.08-8.08,8.08s-8.08-3.62-8.08-8.08v-5.39c0-4.46,3.63-8.08,8.08-8.08h32.33c4.46,0,8.08,3.62,8.08,8.08v5.39ZM147.8,134.69V53.88h5.39v80.81h-5.39ZM158.59,145.46h-37.72v-5.39h37.71v5.39ZM117.81,161.63l7.19-10.78h29.44l7.19,10.78h-43.82ZM137.03,48.49v-.46c0-3.13.97-6.2,2.7-8.78,1.73,2.58,2.69,5.65,2.69,8.78v.46h-5.39ZM126.26,53.88h5.39v80.81h-5.39V53.88ZM137.03,134.69V53.88h5.39v80.81h-5.39ZM153.19,42.83v5.66h-5.39v-.46c0-3.62-.97-7.18-2.72-10.31h.1c1.94,2.57,4.74,4.45,8.01,5.11ZM134.27,37.71h.09c-1.76,3.14-2.72,6.69-2.72,10.31v.46h-5.39v-5.66c3.27-.66,6.07-2.55,8.02-5.11ZM40.05,53.88h5.39v80.81h-5.39V53.88ZM34.66,53.88v80.81h-5.39V53.88h5.39ZM29.28,48.03c0-3.13.97-6.2,2.69-8.78,1.74,2.58,2.69,5.65,2.69,8.78v.46h-5.39v-.46ZM45.44,42.83v5.66h-5.39v-.46c0-3.62-.97-7.18-2.72-10.31h.1c1.94,2.57,4.74,4.45,8.01,5.11ZM26.52,37.71h.09c-1.75,3.14-2.72,6.69-2.72,10.31v.46h-5.39v-5.66c3.28-.66,6.07-2.55,8.02-5.11ZM50.83,134.69V42.83c6.15-1.26,10.78-6.69,10.78-13.2v-5.39c0-3.04-1.05-5.82-2.76-8.08h54.02c-1.72,2.27-2.77,5.04-2.77,8.08v5.39c0,6.51,4.64,11.94,10.78,13.2v91.86c-2.97,0-5.39,2.42-5.39,5.39v5.39c0,2.24,1.38,4.16,3.32,4.97l-7.46,11.2h-50.99l-7.46-11.2c1.94-.81,3.32-2.72,3.32-4.97v-5.39c0-2.97-2.42-5.39-5.39-5.39ZM46.69,150.85l7.19,10.78H10.07l7.18-10.78h29.44ZM171.69,167.02l-11.05-16.58c1.95-.81,3.33-2.72,3.33-4.97v-5.39c0-2.97-2.42-5.39-5.39-5.39V42.83c6.15-1.26,10.78-6.69,10.78-13.2v-5.39c0-3.27-1.22-6.24-3.17-8.58,1.86-.84,3.17-2.71,3.17-4.89v-5.39C169.35,2.42,166.93,0,163.97,0H7.72C4.76,0,2.34,2.42,2.34,5.39v5.39c0,2.18,1.3,4.05,3.17,4.89-1.95,2.34-3.17,5.31-3.17,8.58v5.39c0,6.51,4.64,11.94,10.78,13.2v91.86c-2.97,0-5.39,2.42-5.39,5.39v5.39c0,2.24,1.38,4.16,3.33,4.97L0,167.02h171.69"/>
    </g>
    <path class="cls-2" d="M61.6,53.88h48.48v80.81h5.39V48.49h-59.27v86.2h5.39V53.88"/>
    <path class="cls-2" d="M83.15,37.71h-5.39v5.39h5.39v-5.39"/>
    <path class="cls-2" d="M93.93,37.71h-5.39v5.39h5.39v-5.39"/>
    <path class="cls-2" d="M72.37,37.71h-5.39v5.39h5.39v-5.39"/>
    <path class="cls-2" d="M104.7,37.71h-5.39v5.39h5.39v-5.39"/>
  </g>
</svg>