<svg width="24" height="24" viewBox="0 0 24 24" fill="none" xmlns="http://www.w3.org/2000/svg">
  <g clip-path="url(#clip0_524_3070)">
    <path d="M20.4792 3.51205C19.3657 2.39647 18.0429 1.51177 16.5866 0.908741C15.1304 0.305713 13.5694 -0.00377058 11.9932 -0.0019451C5.36519 -0.0019451 -0.0078125 5.37106 -0.0078125 11.9991C-0.0078125 15.3131 1.33619 18.3141 3.50819 20.4861C4.62165 21.6016 5.94447 22.4863 7.40073 23.0894C8.85699 23.6924 10.418 24.0019 11.9942 24.0001C18.6222 24.0001 23.9952 18.6271 23.9952 11.9991C23.9952 8.68505 22.6512 5.68405 20.4792 3.51205ZM18.9372 18.9391C18.026 19.8517 16.9437 20.5755 15.7523 21.069C14.5609 21.5625 13.2838 21.8161 11.9942 21.8151C6.57119 21.8151 2.17519 17.4191 2.17519 11.9961C2.17417 10.7065 2.42769 9.42935 2.92122 8.23792C3.41474 7.0465 4.13856 5.96419 5.05119 5.05305C5.96221 4.14055 7.04435 3.4168 8.23559 2.92328C9.42683 2.42976 10.7038 2.17617 11.9932 2.17705C17.4152 2.17705 21.8112 6.57306 21.8112 11.9951C21.8121 13.2845 21.5585 14.5614 21.065 15.7527C20.5714 16.9439 19.8477 18.026 18.9352 18.9371L18.9372 18.9391Z" fill="#0A4B70" />
    <path d="M13.5375 12.0005L17.3925 8.14548C17.5827 7.93821 17.6855 7.6655 17.6794 7.38428C17.6733 7.10306 17.5588 6.83506 17.3598 6.63622C17.1609 6.43739 16.8928 6.32308 16.6116 6.31717C16.3303 6.31125 16.0577 6.41419 15.8505 6.60448L15.8515 6.60348L11.9965 10.4585L8.14154 6.60348C7.93427 6.41332 7.66156 6.31057 7.38034 6.31666C7.09912 6.32276 6.83112 6.43724 6.63229 6.6362C6.43345 6.83517 6.31915 7.10324 6.31323 7.38446C6.30732 7.66569 6.41025 7.93833 6.60054 8.14548L6.59954 8.14448L10.4545 11.9995L6.59954 15.8545C6.49108 15.954 6.40387 16.0744 6.34318 16.2085C6.28248 16.3426 6.24954 16.4876 6.24635 16.6348C6.24316 16.7819 6.26978 16.9282 6.32461 17.0648C6.37944 17.2014 6.46134 17.3255 6.56539 17.4296C6.66944 17.5337 6.79348 17.6157 6.93004 17.6706C7.06661 17.7255 7.21287 17.7523 7.36004 17.7492C7.5072 17.7461 7.65221 17.7132 7.78635 17.6526C7.92048 17.592 8.04096 17.5049 8.14054 17.3965L8.14154 17.3955L11.9965 13.5405L15.8515 17.3955C15.951 17.5039 16.0715 17.5911 16.2056 17.6518C16.3397 17.7125 16.4847 17.7455 16.6318 17.7487C16.779 17.7519 16.9253 17.7252 17.0619 17.6704C17.1985 17.6156 17.3226 17.5337 17.4267 17.4296C17.5308 17.3256 17.6128 17.2015 17.6677 17.065C17.7226 16.9284 17.7493 16.7821 17.7462 16.635C17.7431 16.4878 17.7103 16.3428 17.6497 16.2087C17.5891 16.0745 17.5019 15.9541 17.3935 15.8545L17.3925 15.8535L13.5375 12.0005Z" fill="#0A4B70" />
  </g>
  <defs>
    <clipPath id="clip0_524_3070">
      <rect width="24" height="24" fill="white" />
    </clipPath>
  </defs>
</svg>