<svg width="21" height="21" viewBox="0 0 21 21" fill="none" xmlns="http://www.w3.org/2000/svg">
  <path d="M19.2225 13.7917L17.2509 12.3833C17.5759 11.2133 17.5975 9.94583 17.2509 8.67833L19.2225 7.29167L17.6517 4.58333L15.4525 5.58C14.5967 4.71333 13.5134 4.04167 12.2459 3.7275L12.0292 1.33333H8.88754L8.67088 3.7275C7.40338 4.04167 6.32004 4.71333 5.46421 5.58L3.26504 4.58333L1.69421 7.29167L3.66588 8.67833C3.31921 9.94583 3.34088 11.2133 3.66588 12.3833L1.69421 13.7917L3.26504 16.5L5.46421 15.4925C6.32004 16.3483 7.40338 16.9983 8.67088 17.3342L8.88754 19.75H12.0292L12.2459 17.3342C13.5134 16.9983 14.5967 16.3483 15.4525 15.4925L17.6517 16.5L19.2225 13.7917ZM12.625 0.25C12.9175 0.25 13.1667 0.466667 13.1667 0.748333L13.3617 2.95833C14.185 3.26167 14.9217 3.70583 15.5825 4.23667L17.5867 3.29417C17.8359 3.16417 18.15 3.25083 18.3017 3.5L20.4684 7.29167C20.62 7.51917 20.5334 7.83333 20.295 7.99583L18.4859 9.26333C18.6267 10.13 18.6159 10.9858 18.4859 11.82L20.295 13.0875C20.5334 13.25 20.62 13.5642 20.4684 13.7917L18.3017 17.5833C18.15 17.8108 17.8359 17.8975 17.5867 17.7675L15.5825 16.8358C14.9217 17.3667 14.185 17.8 13.3617 18.125L13.1667 20.2917C13.1667 20.6058 12.9175 20.8333 12.625 20.8333H8.29171C8.14805 20.8333 8.01028 20.7763 7.90869 20.6747C7.80711 20.5731 7.75004 20.4353 7.75004 20.2917L7.55504 18.125C6.73171 17.8 5.99504 17.3667 5.33421 16.8358L3.33004 17.7675C3.08088 17.8975 2.76671 17.8108 2.61504 17.5833L0.448378 13.7917C0.296711 13.5642 0.383378 13.25 0.621711 13.0875L2.43088 11.82C2.30088 10.9858 2.29004 10.13 2.43088 9.26333L0.621711 7.99583C0.383378 7.83333 0.296711 7.51917 0.448378 7.29167L2.61504 3.5C2.76671 3.25083 3.08088 3.16417 3.33004 3.29417L5.33421 4.23667C5.99504 3.70583 6.73171 3.26167 7.55504 2.95833L7.75004 0.748333C7.75004 0.466667 7.99921 0.25 8.29171 0.25H12.625ZM10.4584 6.75C11.464 6.75 12.4284 7.14948 13.1395 7.86055C13.8506 8.57163 14.25 9.53605 14.25 10.5417C14.25 11.5473 13.8506 12.5117 13.1395 13.2228C12.4284 13.9339 11.464 14.3333 10.4584 14.3333C9.45276 14.3333 8.48834 13.9339 7.77726 13.2228C7.06619 12.5117 6.66671 11.5473 6.66671 10.5417C6.66671 9.53605 7.06619 8.57163 7.77726 7.86055C8.48834 7.14948 9.45276 6.75 10.4584 6.75ZM10.4584 7.83333C9.74008 7.83333 9.05121 8.11868 8.5433 8.62659C8.03539 9.1345 7.75004 9.82337 7.75004 10.5417C7.75004 11.26 8.03539 11.9488 8.5433 12.4567C9.05121 12.9647 9.74008 13.25 10.4584 13.25C11.1767 13.25 11.8655 12.9647 12.3735 12.4567C12.8814 11.9488 13.1667 11.26 13.1667 10.5417C13.1667 9.82337 12.8814 9.1345 12.3735 8.62659C11.8655 8.11868 11.1767 7.83333 10.4584 7.83333Z" fill="white" />
</svg>