<svg height="512" viewBox="0 0 48 48" width="512" xmlns="http://www.w3.org/2000/svg">
  <g id="Line">
    <path
      d="m45 11a1 1 0 0 0 0-2h-4v-1a1 1 0 0 0 -1-1h-1v-4a1 1 0 0 0 -2 0v4h-2v-4a1 1 0 0 0 -2 0v4h-2v-4a1 1 0 0 0 -2 0v4h-2v-4a1 1 0 0 0 -2 0v4h-2v-4a1 1 0 0 0 -2 0v4h-2v-4a1 1 0 0 0 -2 0v4h-2v-4a1 1 0 0 0 -2 0v4h-2v-4a1 1 0 0 0 -2 0v4h-1a1 1 0 0 0 -1 1v1h-4a1 1 0 0 0 0 2h4v2h-4a1 1 0 0 0 0 2h4v2h-4a1 1 0 0 0 0 2h4v2h-4a1 1 0 0 0 0 2h4v2h-4a1 1 0 0 0 0 2h4v2h-4a1 1 0 0 0 0 2h4v2h-4a1 1 0 0 0 0 2h4v2h-4a1 1 0 0 0 0 2h4v1a1 1 0 0 0 1 1h1v4a1 1 0 0 0 2 0v-4h2v4a1 1 0 0 0 2 0v-4h2v4a1 1 0 0 0 2 0v-4h2v4a1 1 0 0 0 2 0v-4h2v4a1 1 0 0 0 2 0v-4h2v4a1 1 0 0 0 2 0v-4h2v4a1 1 0 0 0 2 0v-4h2v4a1 1 0 0 0 2 0v-4h1a1 1 0 0 0 1-1v-1h4a1 1 0 0 0 0-2h-4v-2h4a1 1 0 0 0 0-2h-4v-2h4a1 1 0 0 0 0-2h-4v-2h4a1 1 0 0 0 0-2h-4v-2h4a1 1 0 0 0 0-2h-4v-2h4a1 1 0 0 0 0-2h-4v-2h4a1 1 0 0 0 0-2h-4v-2zm-6 28h-30v-30h30z" />
    <path d="m24 20h-2a1 1 0 0 0 -1 1v6a1 1 0 0 0 2 0v-1h1a3 3 0 0 0 0-6zm0 4h-1v-2h1a1 1 0 0 1 0 2z" />
    <path d="m33 20a1 1 0 0 0 -1 1v4a1 1 0 0 1 -2 0v-4a1 1 0 0 0 -2 0v4a3 3 0 0 0 6 0v-4a1 1 0 0 0 -1-1z" />
    <path
      d="m17 22h2a1 1 0 0 0 0-2h-2a3 3 0 0 0 -3 3v2a3 3 0 0 0 3 3h2a1 1 0 0 0 1-1c-.11-2.16-3.88.16-4-2v-2a1 1 0 0 1 1-1z" />
  </g>
</svg>