<svg width="25" height="24" viewBox="0 0 25 24" fill="none" xmlns="http://www.w3.org/2000/svg">
  <path d="M6.94444 17.5556H11.3889V13.1111H6.94444V17.5556ZM13.6111 17.5556H18.0556V13.1111H13.6111V17.5556ZM6.94444 10.8889H11.3889V6.44444H6.94444V10.8889ZM13.6111 10.8889H18.0556V6.44444H13.6111V10.8889ZM4.72222 22C4.11111 22 3.58815 21.7826 3.15333 21.3478C2.71852 20.913 2.50074 20.3896 2.5 19.7778V4.22222C2.5 3.61111 2.71778 3.08815 3.15333 2.65333C3.58889 2.21852 4.11185 2.00074 4.72222 2H20.2778C20.8889 2 21.4122 2.21778 21.8478 2.65333C22.2833 3.08889 22.5007 3.61185 22.5 4.22222V19.7778C22.5 20.3889 22.2826 20.9122 21.8478 21.3478C21.413 21.7833 20.8896 22.0007 20.2778 22H4.72222ZM4.72222 19.7778H20.2778V4.22222H4.72222V19.7778Z" fill="#FDD655" />
</svg>
