<svg width="16" height="16" viewBox="0 0 16 16" fill="none" xmlns="http://www.w3.org/2000/svg">
  <path d="M4.38932 14C3.9921 14 3.65218 13.8587 3.36955 13.5761C3.08692 13.2934 2.94536 12.9533 2.94488 12.5556V3.16667C2.74025 3.16667 2.56884 3.09733 2.43066 2.95867C2.29247 2.82 2.22314 2.64859 2.22266 2.44444C2.22218 2.2403 2.29151 2.06889 2.43066 1.93022C2.56981 1.79156 2.74121 1.72222 2.94488 1.72222H5.83377C5.83377 1.51759 5.9031 1.34619 6.04177 1.208C6.18044 1.06981 6.35184 1.00048 6.55599 1H9.44488C9.64951 1 9.82116 1.06933 9.95982 1.208C10.0985 1.34667 10.1676 1.51807 10.1671 1.72222H13.056C13.2606 1.72222 13.4323 1.79156 13.5709 1.93022C13.7096 2.06889 13.7787 2.2403 13.7782 2.44444C13.7777 2.64859 13.7084 2.82024 13.5702 2.95939C13.432 3.09854 13.2606 3.16763 13.056 3.16667V12.5556C13.056 12.9528 12.9147 13.2929 12.632 13.5761C12.3494 13.8592 12.0092 14.0005 11.6115 14H4.38932ZM11.6115 3.16667H4.38932V12.5556H11.6115V3.16667ZM6.55599 11.1111C6.76062 11.1111 6.93227 11.0418 7.07094 10.9031C7.2096 10.7644 7.27869 10.593 7.27821 10.3889V5.33333C7.27821 5.1287 7.20888 4.9573 7.07021 4.81911C6.93155 4.68093 6.76014 4.61159 6.55599 4.61111C6.35184 4.61063 6.18044 4.67996 6.04177 4.81911C5.9031 4.95826 5.83377 5.12967 5.83377 5.33333V10.3889C5.83377 10.5935 5.9031 10.7652 6.04177 10.9038C6.18044 11.0425 6.35184 11.1116 6.55599 11.1111ZM9.44488 11.1111C9.64951 11.1111 9.82116 11.0418 9.95982 10.9031C10.0985 10.7644 10.1676 10.593 10.1671 10.3889V5.33333C10.1671 5.1287 10.0978 4.9573 9.9591 4.81911C9.82044 4.68093 9.64903 4.61159 9.44488 4.61111C9.24073 4.61063 9.06932 4.67996 8.93066 4.81911C8.79199 4.95826 8.72266 5.12967 8.72266 5.33333V10.3889C8.72266 10.5935 8.79199 10.7652 8.93066 10.9038C9.06932 11.0425 9.24073 11.1116 9.44488 11.1111Z" fill="#0A4B70" />
</svg>