<?xml version="1.0" encoding="utf-8"?>
<!-- Generator: Adobe Illustrator 25.4.1, SVG Export Plug-In . SVG Version: 6.00 Build 0)  -->
<svg version="1.1" id="Ebene_1" xmlns="http://www.w3.org/2000/svg" xmlns:xlink="http://www.w3.org/1999/xlink" x="0px" y="0px"
	 viewBox="0 0 1204.52 447.18" style="enable-background:new 0 0 1204.52 447.18;" xml:space="preserve">
<style type="text/css">
	.st0{opacity:0.75;fill:url(#SVGID_1_);}
	.st1{opacity:0.75;fill:url(#SVGID_00000063627207481992702060000005441389868254190467_);}
	.st2{opacity:0.5;fill:url(#SVGID_00000083779645730610847160000012935884762546629514_);}
	.st3{opacity:0.75;fill:url(#SVGID_00000088817993065281274520000002352334608233303472_);}
</style>
<g>
	<path d="M525.86,157.72v112.65h-10.32v-15.79c-6.53,10.78-17.61,16.55-30.82,16.55c-22.77,0-39.78-16.55-39.78-40.69
		c0-24.14,17-40.54,39.78-40.54c12.75,0,23.68,5.47,30.37,15.79v-47.98H525.86z M515.23,230.44c0-18.67-12.75-31.12-29.61-31.12
		c-17,0-29.76,12.45-29.76,31.12c0,18.67,12.75,31.12,29.76,31.12C502.47,261.57,515.23,249.12,515.23,230.44z"/>
	<path d="M621.66,233.78h-66.8c1.21,16.7,13.97,27.78,31.43,27.78c9.72,0,18.37-3.49,24.44-10.48l6.07,6.98
		c-7.14,8.5-18.22,13.06-30.82,13.06c-24.9,0-41.9-17-41.9-40.69c0-23.68,16.55-40.54,39.02-40.54s38.72,16.55,38.72,40.54
		C621.81,231.35,621.66,232.57,621.66,233.78z M554.85,225.73h56.63c-1.37-15.64-12.75-26.57-28.39-26.57
		C567.61,199.16,556.22,210.1,554.85,225.73z"/>
	<path d="M640.02,157.72h10.78v112.65h-10.78V157.72z"/>
	<path d="M722.46,265.51c-4.25,3.8-10.63,5.62-16.85,5.62c-15.03,0-23.38-8.5-23.38-23.23v-48.28h-14.27v-9.11h14.27v-17.46h10.78
		v17.46h24.29v9.11h-24.29v47.67c0,9.41,4.86,14.58,13.82,14.58c4.4,0,8.81-1.37,11.84-4.1L722.46,265.51z"/>
	<path d="M801.56,220.88v49.5h-10.32v-12.45c-4.86,8.2-14.27,13.21-27.48,13.21c-18.07,0-29.15-9.41-29.15-23.23
		c0-12.3,7.89-22.62,30.82-22.62h25.35v-4.86c0-13.66-7.74-21.1-22.62-21.1c-10.32,0-20.04,3.64-26.57,9.41l-4.86-8.05
		c8.05-6.83,19.89-10.78,32.49-10.78C789.87,189.9,801.56,200.23,801.56,220.88z M790.78,246.38v-13.06h-25.05
		c-15.49,0-20.5,6.07-20.5,14.27c0,9.26,7.44,15.03,20.19,15.03C777.57,262.63,786.53,256.86,790.78,246.38z"/>
</g>
<g>
	<path d="M868.04,270.36H833.5c-4.83,0-8.75-3.92-8.75-8.75v-55.18c0-4.83,3.92-8.75,8.75-8.75s8.75,3.92,8.75,8.75v46.43h25.16
		c0.28-0.02,0.57-0.03,0.86-0.02h0.1c21.23,0,38.5-17.27,38.5-38.5s-17.27-38.5-38.5-38.5h-0.34c-0.9,0-1.76-0.13-2.57-0.38H833.5
		c-4.83,0-8.75-3.92-8.75-8.75c0-4.83,3.92-8.75,8.75-8.75h34.53c0.95,0,1.87,0.15,2.73,0.43c29.78,1.26,53.62,25.88,53.62,55.96
		c0,30.8-24.99,55.87-55.75,56.01C868.44,270.35,868.24,270.36,868.04,270.36z"/>
</g>
<g>
	<path d="M1025.06,270.37h-87.31c-4.91,0-8.89-3.98-8.89-8.89s3.98-8.89,8.89-8.89h72.04l-38.46-67.65l-10.92,19.2
		c-2.43,4.27-7.85,5.76-12.12,3.33c-4.27-2.43-5.76-7.85-3.33-12.12l18.64-32.79c1.58-2.78,4.53-4.49,7.73-4.49l0,0
		c3.2,0,6.15,1.72,7.73,4.49l53.73,94.51c1.56,2.75,1.55,6.13-0.04,8.86C1031.15,268.68,1028.23,270.37,1025.06,270.37z"/>
</g>
<g>
	<path d="M1064.57,270.15c-4.38,0-8.2-3.23-8.81-7.69c-0.67-4.87,2.74-9.36,7.61-10.03c18.91-2.6,33.17-18.97,33.17-38.09
		c0-21.2-17.24-38.45-38.44-38.45c-11.11,0-21.68,4.82-29,13.22c-3.23,3.71-8.85,4.1-12.56,0.87c-3.71-3.23-4.1-8.85-0.87-12.56
		c10.7-12.29,26.16-19.33,42.43-19.33c31.02,0,56.25,25.24,56.25,56.25c0,27.97-20.87,51.93-48.55,55.73
		C1065.39,270.12,1064.98,270.15,1064.57,270.15z"/>
</g>
<linearGradient id="SVGID_1_" gradientUnits="userSpaceOnUse" x1="127.1566" y1="252.9415" x2="391.4886" y2="252.9415">
	<stop  offset="0.071" style="stop-color:#3C7CE1"/>
	<stop  offset="1" style="stop-color:#102CA5"/>
</linearGradient>
<path class="st0" d="M144.8,334.71c26.64-1.44,67.62-19.86,129.95-72c80.22-67.11,99.09-109.16,95.05-135.01l20.73,120.12
	c2.98,13.92-0.89,29.65-12.87,39.68c0,0-18.63,18.06-47.35,42.09c-28.72,24.03-49.79,39.17-49.79,39.17
	c-8.26,6.91-18.21,9.85-27.78,9.37c0,0-2.97,0.27-15.59-1.42c-12.61-1.69-106.12-40.62-110-43.84l0,0c0,0,4.87,1.54,8.64,1.89
	C140.69,335.2,144.8,334.71,144.8,334.71"/>
<linearGradient id="SVGID_00000111170884752008041960000012685730740899755698_" gradientUnits="userSpaceOnUse" x1="89.0399" y1="148.5091" x2="390.5299" y2="148.5091">
	<stop  offset="0.1324" style="stop-color:#00FFFF"/>
	<stop  offset="0.8573" style="stop-color:#0F2AA5"/>
</linearGradient>
<path style="opacity:0.75;fill:url(#SVGID_00000111170884752008041960000012685730740899755698_);" d="M369.67,127.75
	c-1.84-11.75-8.53-20.26-16.55-26.44l0.47,0.36c-2.94-2.25-5.75-3.47-8.94-4.63c0,0-23.65-10.67-58.82-23.53
	S225.7,53.54,225.7,53.54c-3.39-1.1-6.79-1.77-10.15-2.03c0,0-21.69-13.58-61.22,25.08s-65.29,64.23-65.29,64.23
	s10.97-8.32,19.34-10.15c26.15-5.72,70.68-2.8,147.26,25.2c75.72,27.69,112.32,53.1,127.2,75.43c0,0,5.16,7.07,7.69,16.52
	L369.67,127.75"/>
<linearGradient id="SVGID_00000059304633252660715330000006131065055516812420_" gradientUnits="userSpaceOnUse" x1="130.6407" y1="68.766" x2="403.0905" y2="226.0649">
	<stop  offset="0.073" style="stop-color:#FFFFFF;stop-opacity:0"/>
	<stop  offset="0.2497" style="stop-color:#FFFFFF;stop-opacity:0.9"/>
	<stop  offset="0.385" style="stop-color:#FFFFFF;stop-opacity:0.9"/>
	<stop  offset="0.6667" style="stop-color:#FFFFFF;stop-opacity:0"/>
	<stop  offset="0.8998" style="stop-color:#FFFFFF;stop-opacity:0"/>
</linearGradient>
<path style="opacity:0.5;fill:url(#SVGID_00000059304633252660715330000006131065055516812420_);" d="M369.67,127.75
	c-1.84-11.75-8.53-20.26-16.55-26.44l0.47,0.36c-2.94-2.25-5.75-3.47-8.94-4.63c0,0-23.65-10.67-58.82-23.53
	S225.7,53.54,225.7,53.54c-3.39-1.1-6.79-1.77-10.15-2.03c0,0-21.69-13.58-61.22,25.08s-65.29,64.23-65.29,64.23
	s10.97-8.32,19.34-10.15c26.15-5.72,70.68-2.8,147.26,25.2c75.72,27.69,112.32,53.1,127.2,75.43c0,0,5.16,7.07,7.69,16.52
	L369.67,127.75"/>
<linearGradient id="SVGID_00000109031026389605093110000014290038402521784476_" gradientUnits="userSpaceOnUse" x1="164.6907" y1="378.5302" x2="164.6907" y2="49.1977">
	<stop  offset="0.0332" style="stop-color:#3C7CE1"/>
	<stop  offset="0.961" style="stop-color:#00FFFF"/>
</linearGradient>
<path style="opacity:0.75;fill:url(#SVGID_00000109031026389605093110000014290038402521784476_);" d="M127.15,332.88
	c-13.49-4.42-25.38-15.49-28.09-31.02c0,0-6.33-25.16-12.78-62.05c-6.45-36.89-9.03-62.7-9.03-62.7
	c-2.44-13.98,2.59-27.24,11.59-36.08l0.2-0.19c0,0,25.76-25.57,65.29-64.23s61.22-25.08,61.22-25.08l0.22,0.02
	c-33.47-2.44-68.56,27.42-43.07,173.23c20.94,119.8,52.1,151.96,80.04,153.37l0,0c0,0-3.21,1.53-15.59-1.42
	C206.99,369.51,127.15,332.88,127.15,332.88z"/>
</svg>
