<?xml version="1.0" encoding="utf-8"?>
<!-- Generator: Adobe Illustrator 26.0.1, SVG Export Plug-In . SVG Version: 6.00 Build 0)  -->
<svg version="1.1" id="Ebene_1" xmlns="http://www.w3.org/2000/svg" xmlns:xlink="http://www.w3.org/1999/xlink" x="0px" y="0px"
	 viewBox="0 0 1189.27 497.98" style="enable-background:new 0 0 1189.27 497.98;" xml:space="preserve">
<style type="text/css">
	.st0{fill:#FFFFFF;}
	.st1{opacity:0.65;fill:#FFFFFF;enable-background:new    ;}
</style>
<g>
	<path class="st0" d="M523.54,183.12v112.65h-10.32v-15.79c-6.53,10.78-17.61,16.55-30.82,16.55c-22.77,0-39.78-16.55-39.78-40.69
		s17-40.54,39.78-40.54c12.75,0,23.68,5.47,30.37,15.79v-47.98h10.77V183.12z M512.91,255.84c0-18.67-12.75-31.12-29.61-31.12
		c-17,0-29.76,12.45-29.76,31.12s12.75,31.12,29.76,31.12C500.16,286.97,512.91,274.52,512.91,255.84z"/>
	<path class="st0" d="M619.34,259.19h-66.8c1.21,16.7,13.97,27.78,31.43,27.78c9.72,0,18.37-3.49,24.44-10.48l6.07,6.98
		c-7.14,8.5-18.22,13.06-30.82,13.06c-24.9,0-41.9-17-41.9-40.69c0-23.68,16.55-40.54,39.02-40.54s38.72,16.55,38.72,40.54
		C619.49,256.76,619.34,257.97,619.34,259.19z M552.54,251.14h56.63c-1.37-15.64-12.75-26.57-28.39-26.57
		C565.29,224.57,553.9,235.5,552.54,251.14z"/>
	<path class="st0" d="M637.71,183.12h10.78v112.65h-10.78V183.12z"/>
	<path class="st0" d="M720.15,290.92c-4.25,3.8-10.63,5.62-16.85,5.62c-15.03,0-23.38-8.5-23.38-23.23v-48.28h-14.27v-9.11h14.27
		v-17.46h10.78v17.46h24.29v9.11H690.7v47.67c0,9.41,4.86,14.58,13.82,14.58c4.4,0,8.81-1.37,11.84-4.1L720.15,290.92z"/>
	<path class="st0" d="M799.25,246.28v49.5h-10.32v-12.45c-4.86,8.2-14.27,13.21-27.48,13.21c-18.07,0-29.15-9.41-29.15-23.23
		c0-12.3,7.89-22.62,30.82-22.62h25.35v-4.86c0-13.66-7.74-21.1-22.62-21.1c-10.32,0-20.04,3.64-26.57,9.41l-4.86-8.05
		c8.05-6.83,19.89-10.78,32.49-10.78C787.56,215.31,799.25,225.63,799.25,246.28z M788.47,271.79v-13.06h-25.05
		c-15.49,0-20.5,6.07-20.5,14.27c0,9.26,7.44,15.03,20.19,15.03C775.26,288.03,784.22,282.26,788.47,271.79z"/>
</g>
<g>
	<path class="st0" d="M865.72,295.76h-34.53c-4.83,0-8.75-3.92-8.75-8.75v-55.18c0-4.83,3.92-8.75,8.75-8.75s8.75,3.92,8.75,8.75
		v46.43h25.16c0.28-0.02,0.57-0.03,0.86-0.02h0.1c21.23,0,38.5-17.27,38.5-38.5s-17.27-38.5-38.5-38.5h-0.34
		c-0.9,0-1.76-0.13-2.57-0.38h-31.96c-4.83,0-8.75-3.92-8.75-8.75s3.92-8.75,8.75-8.75h34.53c0.95,0,1.87,0.15,2.73,0.43
		c29.78,1.26,53.62,25.88,53.62,55.96c0,30.8-24.99,55.87-55.75,56.01C866.12,295.75,865.92,295.76,865.72,295.76z"/>
</g>
<g>
	<path class="st0" d="M1022.75,295.77h-87.31c-4.91,0-8.89-3.98-8.89-8.89s3.98-8.89,8.89-8.89h72.04l-38.46-67.65l-10.92,19.2
		c-2.43,4.27-7.85,5.76-12.12,3.33s-5.76-7.85-3.33-12.12l18.64-32.79c1.58-2.78,4.53-4.49,7.73-4.49l0,0c3.2,0,6.15,1.72,7.73,4.49
		l53.73,94.51c1.56,2.75,1.55,6.13-0.04,8.86C1028.84,294.09,1025.91,295.77,1022.75,295.77z"/>
</g>
<g>
	<path class="st0" d="M1062.26,295.55c-4.38,0-8.2-3.23-8.81-7.69c-0.67-4.87,2.74-9.36,7.61-10.03
		c18.91-2.6,33.17-18.97,33.17-38.09c0-21.2-17.24-38.45-38.44-38.45c-11.11,0-21.68,4.82-29,13.22c-3.23,3.71-8.85,4.1-12.56,0.87
		c-3.71-3.23-4.1-8.85-0.87-12.56c10.7-12.29,26.16-19.33,42.43-19.33c31.02,0,56.25,25.24,56.25,56.25
		c0,27.97-20.87,51.93-48.55,55.73C1063.07,295.53,1062.66,295.55,1062.26,295.55z"/>
</g>
<path class="st1" d="M142.49,360.12c26.64-1.44,67.62-19.86,129.95-72c80.22-67.11,99.09-109.16,95.05-135.01l20.73,120.12
	c2.98,13.92-0.89,29.65-12.87,39.68c0,0-18.63,18.06-47.35,42.09s-49.79,39.17-49.79,39.17c-8.26,6.91-18.21,9.85-27.78,9.37
	c0,0-2.97,0.27-15.59-1.42c-12.61-1.69-106.12-40.62-110-43.84l0,0c0,0,4.87,1.54,8.64,1.89
	C138.37,360.61,142.49,360.12,142.49,360.12"/>
<path class="st1" d="M367.35,153.15c-1.84-11.75-8.53-20.26-16.55-26.44l0.47,0.36c-2.94-2.25-5.75-3.47-8.94-4.63
	c0,0-23.65-10.67-58.82-23.53s-60.13-19.96-60.13-19.96c-3.39-1.1-6.79-1.77-10.15-2.03c0,0-21.69-13.58-61.22,25.08
	s-65.29,64.23-65.29,64.23s10.97-8.32,19.34-10.15c26.15-5.72,70.68-2.8,147.26,25.2c75.72,27.69,112.32,53.1,127.2,75.43
	c0,0,5.16,7.07,7.69,16.52L367.35,153.15"/>
<path class="st1" d="M124.84,358.28c-13.49-4.42-25.38-15.49-28.09-31.02c0,0-6.33-25.16-12.78-62.05s-9.03-62.7-9.03-62.7
	c-2.44-13.98,2.59-27.24,11.59-36.08l0.2-0.19c0,0,25.76-25.57,65.29-64.23s61.22-25.08,61.22-25.08l0.22,0.02
	c-33.47-2.44-68.56,27.42-43.07,173.23c20.94,119.8,52.1,151.96,80.04,153.37l0,0c0,0-3.21,1.53-15.59-1.42
	C204.68,394.91,124.84,358.28,124.84,358.28z"/>
</svg>
