<svg width="14" height="14" viewBox="0 0 14 14" fill="none" xmlns="http://www.w3.org/2000/svg">
  <g clip-path="url(#clip0_1_767)">
    <path d="M5.55809 3.0004C5.03956 2.99048 4.53407 3.16325 4.13011 3.48846C3.72615 3.81367 3.44947 4.2706 3.34852 4.77923H2V5.49077H3.36275C3.46455 5.99634 3.73949 6.45058 4.14021 6.77527C4.54093 7.09997 5.04234 7.27478 5.55809 7.2696H7.33714V3.0004H5.55809Z" fill="#0A4B70" fill-opacity="0.84" />
    <path d="M11.9969 9.54453H10.8562C10.7652 9.09882 10.5216 8.69883 10.1673 8.41355C9.81296 8.12828 9.37019 7.9756 8.91535 7.98188H7.37457V8.60694H5.81192C5.72903 8.60694 5.64954 8.63986 5.59093 8.69847C5.53232 8.75708 5.49939 8.83658 5.49939 8.91947C5.49939 9.00235 5.53232 9.08185 5.59093 9.14046C5.64954 9.19907 5.72903 9.232 5.81192 9.232H7.37457V10.4821H5.81192C5.72903 10.4821 5.64954 10.515 5.59093 10.5737C5.53232 10.6323 5.49939 10.7118 5.49939 10.7946C5.49939 10.8775 5.53232 10.957 5.59093 11.0156C5.64954 11.0743 5.72903 11.1072 5.81192 11.1072H7.37457V11.7322H8.91847C9.37415 11.7405 9.81828 11.5886 10.1735 11.303C10.5287 11.0175 10.7725 10.6164 10.8624 10.1696H12L11.9969 9.54453Z" fill="#0A4B70" fill-opacity="0.84" />
  </g>
  <defs>
    <clipPath id="clip0_1_767">
      <rect width="14" height="14" fill="white" />
    </clipPath>
  </defs>
</svg>