<svg width="140" height="61" viewBox="0 0 140 61" fill="none" xmlns="http://www.w3.org/2000/svg">
  <path d="M29.23 3.65789C29.9332 4.00877 29.9332 4.00877 30.2326 4.76124C30.3224 5.07016 30.4121 5.37908 30.5046 5.69737C30.6419 6.15668 30.6419 6.15668 30.782 6.62527C30.988 7.51754 30.988 7.51754 30.988 8.92105C30.7111 9.01513 30.4342 9.10921 30.1488 9.20614C25.6999 10.8034 21.8937 13.1869 18.3299 16.2895C18.0887 16.4966 17.8476 16.7038 17.5992 16.9172C13.6016 20.608 10.6096 25.9645 10.152 31.4019C10.0326 34.7621 10.6077 37.6093 12.7699 40.2588C16.2124 43.7879 20.5009 45.0874 25.3622 45.2149C29.7215 45.0618 33.5777 44.105 37.5616 42.3956C38.6404 41.9387 39.7201 41.5646 40.8333 41.2017C41.4445 43.1801 42.0518 45.1596 42.6553 47.1404C42.8613 47.8142 43.0683 48.4878 43.2765 49.161C43.5752 50.1278 43.87 51.0957 44.164 52.0639C44.3052 52.5162 44.3052 52.5162 44.4492 52.9777C44.5337 53.2586 44.6182 53.5395 44.7053 53.829C44.781 54.076 44.8567 54.3229 44.9348 54.5774C45.0527 55.2368 45.0527 55.2368 44.7011 56.2895C43.9082 56.6861 43.1546 57.0119 42.3277 57.3202C42.092 57.4107 41.8564 57.5012 41.6136 57.5945C35.4854 59.9117 35.4854 59.9117 33.0977 59.7982C32.8022 58.8925 32.5097 57.9861 32.2187 57.0789C32.0929 56.6949 32.0929 56.6949 31.9646 56.3032C31.8853 56.0544 31.806 55.8056 31.7242 55.5493C31.6506 55.3215 31.5769 55.0936 31.501 54.8589C31.3397 54.1842 31.3397 54.1842 31.3397 52.7807C30.9943 52.8567 30.9943 52.8567 30.6419 52.9342C28.1497 53.44 25.7915 53.562 23.2525 53.4825C23.0567 54.1446 23.0567 54.1446 22.8569 54.8202C22.1864 56.8501 21.1557 58.6551 20.0879 60.5C16.9831 60.2617 14.1658 59.2107 11.2975 58.0439C11.5199 56.386 11.972 54.919 12.5502 53.3509C12.6324 53.1261 12.7147 52.9013 12.7995 52.6697C13.0004 52.1213 13.2036 51.5737 13.4072 51.0263C12.8546 50.6043 12.2969 50.1888 11.7371 49.7763C11.427 49.5443 11.117 49.3122 10.7976 49.0732C9.96271 48.514 9.96271 48.514 9.19608 48.5702C8.16628 49.078 7.37576 49.7751 6.50677 50.5219C4.69089 52.0789 4.69089 52.0789 3.9136 52.0789C3.31887 51.2319 3.31887 51.2319 2.66097 50.1053C2.44295 49.7389 2.22494 49.3725 2.00031 48.9951C1.43584 47.8346 1.09203 47.0555 1.10067 45.7632C1.82313 44.827 1.82313 44.827 2.8148 43.943C4.18759 42.7687 4.18759 42.7687 4.96845 41.2017C4.85853 40.3138 4.85853 40.3138 4.63881 39.3816C4.51552 38.8243 4.39224 38.2671 4.26522 37.693C2.87282 38.0403 1.48042 38.3877 0.0458237 38.7456C-0.0842904 36.4518 0.00364757 34.1457 1.10067 32.0789C2.32059 31.1422 3.74584 30.3246 5.32007 30.3246C5.36675 30.1088 5.41344 29.8931 5.46154 29.6708C5.55468 29.2454 5.55468 29.2454 5.6497 28.8114C5.74149 28.3901 5.74149 28.3901 5.83513 27.9602C6.0233 27.1667 6.0233 27.1667 6.37491 26.114C5.56268 25.9982 4.75045 25.8825 3.9136 25.7632C4.6909 23.7158 5.60565 21.7917 7.07815 20.1491C7.97678 19.8356 8.76548 19.7586 9.71115 19.6776C11.4314 19.2291 12.3915 17.6655 13.4072 16.2895C13.1752 15.9421 12.9431 15.5947 12.704 15.2368C12.7596 14.221 13.0343 13.8562 13.7328 13.1069C14.0097 12.869 14.2866 12.6311 14.572 12.386C14.9833 12.0264 14.9833 12.0264 15.4029 11.6595C16.1391 11.0891 16.7556 10.6499 17.6266 10.3246C18.0037 10.4042 18.3808 10.4838 18.7694 10.5658C20.4135 10.7025 21.0063 10.2504 22.3034 9.31716C22.9009 8.92105 22.9009 8.92105 23.6041 8.92105C23.6041 8.11053 23.6041 7.3 23.6041 6.46491C24.5255 5.98635 25.4485 5.51182 26.3731 5.03947C26.6355 4.90265 26.8979 4.76583 27.1683 4.62486C27.4199 4.49709 27.6714 4.36931 27.9306 4.23766C28.2786 4.05851 28.2786 4.05851 28.6337 3.87574C28.8305 3.80385 29.0272 3.73196 29.23 3.65789Z" fill="white" />
  <path d="M47.0305 12.0789C48.0481 12.8416 48.3048 13.3088 48.5688 14.5351C47.6042 15.0154 46.6372 15.4895 45.668 15.9605C45.3947 16.0973 45.1214 16.2342 44.8398 16.3751C44.5746 16.5029 44.3095 16.6307 44.0363 16.7623C43.7932 16.8818 43.5502 17.0012 43.2997 17.1243C42.4431 17.3877 42.0134 17.3141 41.1849 16.9912C40.9963 16.7741 40.8078 16.557 40.6135 16.3333C38.8293 14.7402 36.5537 14.4271 34.2185 14.5351C29.3514 15.1219 25.4736 17.4368 22.3762 21.1675C20.8154 23.3343 20.0004 25.5398 20.4396 28.2193C20.9255 29.3953 20.9255 29.3953 21.4944 30.3246C21.4944 30.5561 21.4944 30.7877 21.4944 31.0263C21.7482 31.1276 22.002 31.2289 22.2636 31.3333C22.8652 31.5735 23.4629 31.8244 24.0519 32.094C27.6728 33.3623 31.5216 32.2362 34.8558 30.6754C35.9636 30.035 37.0061 29.3494 38.0204 28.5702C37.0921 28.4544 36.1638 28.3386 35.2074 28.2193C35.3751 27.6489 35.5438 27.0788 35.7129 26.5088C35.8067 26.1913 35.9005 25.8737 35.9972 25.5466C36.2623 24.7105 36.2623 24.7105 36.6139 24.0088C41.2552 24.0088 45.8966 24.0088 50.6785 24.0088C50.3585 26.5637 49.8718 29.0063 49.2874 31.5056C49.1168 32.2386 48.9509 32.9725 48.7852 33.7065C48.6772 34.1724 48.5689 34.6382 48.4603 35.1039C48.3631 35.5252 48.2659 35.9465 48.1658 36.3805C48.0172 36.8565 48.0172 36.8565 47.8656 37.3421C46.7244 37.9115 45.5314 37.5341 44.3055 37.364C43.9078 37.3115 43.9078 37.3115 43.502 37.2578C42.8466 37.1709 42.1915 37.0813 41.5365 36.9912C41.7686 36.1807 42.0006 35.3702 42.2397 34.5351C42.0136 34.688 41.7874 34.8408 41.5544 34.9983C39.0714 36.6313 36.5547 37.9742 33.801 39.0965C33.5073 39.2168 33.2135 39.3371 32.9109 39.4611C28.9505 40.7993 23.3003 40.9225 19.463 39.1869C16.6886 37.6202 14.7881 35.8618 13.7588 32.7807C13.3602 27.0942 14.7055 22.864 18.4727 18.4578C25.3529 11.2083 37.8949 5.7774 47.0305 12.0789Z" fill="white" />
  <path d="M101.494 30.9578C102.033 30.9612 102.033 30.9612 102.582 30.9646C102.953 30.9705 103.324 30.9764 103.707 30.9825C104.084 30.9856 104.462 30.9888 104.851 30.992C105.781 31.0003 106.711 31.0118 107.64 31.0263C107.684 33.3509 107.684 33.3509 107.289 34.5351C107.31 34.8607 107.332 35.1864 107.355 35.5219C107.269 36.9788 106.816 37.6374 105.882 38.7456C104.328 39.7039 102.394 39.6668 100.608 39.7982C100.972 39.8833 101.337 39.9683 101.712 40.0559C102.194 40.1744 102.676 40.2932 103.157 40.4123C103.397 40.4675 103.637 40.5226 103.884 40.5795C105.397 40.9607 106.322 41.3694 107.289 42.6053C107.659 43.6355 107.681 44.1953 107.421 45.2588C106.739 46.4637 105.872 47.2938 104.533 47.7259C101.92 48.2155 99.4539 48.0364 97.0919 46.8158C96.2434 45.8368 96.0584 45.2705 95.9271 43.9868C96.0341 42.9833 96.2713 42.4261 96.7402 41.5526C96.6242 41.3211 96.5082 41.0895 96.3886 40.8509C96.3066 38.5585 96.3066 38.5585 96.7402 37.693C96.6242 37.4614 96.5082 37.2298 96.3886 36.9912C96.2064 35.3072 96.1382 33.9266 96.982 32.4298C98.3873 31.2169 99.6627 30.9374 101.494 30.9578ZM100.322 34.3596C100.185 34.5333 100.047 34.707 99.9048 34.886C100.137 35.4649 100.369 36.0439 100.608 36.6404C101.634 36.6989 101.634 36.6989 102.718 36.6404C102.95 36.4088 103.182 36.1772 103.421 35.9386C103.319 34.7783 103.319 34.7783 102.718 33.8333C101.409 33.6955 101.409 33.6955 100.322 34.3596ZM99.9048 42.9561C99.8898 43.5407 99.8905 44.1259 99.9048 44.7105C100.25 45.1335 100.25 45.1335 100.906 45.0957C101.627 45.0842 102.348 45.0728 103.069 45.0614C103.185 44.5982 103.301 44.1351 103.421 43.6579C102.188 43.0952 101.261 42.8788 99.9048 42.9561Z" fill="white" />
  <path d="M89.0047 27.8684C89.0047 28.9105 89.0047 29.9526 89.0047 31.0263C88.42 31.0019 88.42 31.0019 87.8235 30.977C87.3089 30.9638 86.7943 30.951 86.2797 30.9386C85.8948 30.921 85.8948 30.921 85.5023 30.903C84.3326 30.8817 83.522 30.9432 82.5025 31.5348C81.7082 32.8758 81.7943 34.0815 81.8405 35.6096C81.8412 36.0388 81.8412 36.0388 81.8419 36.4766C81.8543 38.2383 81.8543 38.2383 82.6756 39.7982C83.8939 39.9719 83.8939 39.9719 85.1369 40.1491C85.1369 38.4123 85.1369 36.6754 85.1369 34.886C86.4133 34.886 87.6896 34.886 89.0047 34.886C89.0047 37.5491 89.0047 40.2123 89.0047 42.9561C87.322 43.6278 86.4016 43.7622 84.6315 43.7675C84.1823 43.7734 83.7331 43.7793 83.2703 43.7854C81.0072 43.5631 79.5477 42.571 78.1046 40.8509C77.3247 39.0523 77.2725 37.3822 77.2695 35.4561C77.2609 35.1712 77.2523 34.8862 77.2434 34.5927C77.2335 32.5303 77.6572 30.9973 78.8078 29.2719C81.5521 26.5334 85.5399 26.6391 89.0047 27.8684Z" fill="white" />
  <path d="M128.737 31.0263C129.916 31.7934 130.399 32.1423 130.847 33.4825C130.88 34.2284 130.893 34.9754 130.894 35.722C130.894 36.1603 130.895 36.5986 130.895 37.0502C130.894 37.5084 130.892 37.9665 130.891 38.4386C130.893 39.1299 130.893 39.1299 130.895 39.8353C130.895 40.2726 130.894 40.71 130.894 41.1606C130.893 41.5637 130.893 41.9668 130.892 42.382C130.847 43.307 130.847 43.307 130.495 43.6579C129.969 43.6922 129.441 43.7034 128.913 43.7018C128.627 43.7027 128.34 43.7036 128.045 43.7045C127.331 43.6579 127.331 43.6579 126.979 43.307C126.924 42.6573 126.891 42.0056 126.868 41.3539C126.853 40.9593 126.839 40.5646 126.823 40.158C126.81 39.7426 126.796 39.3272 126.781 38.8991C126.766 38.4823 126.751 38.0655 126.735 37.6361C126.698 36.6025 126.662 35.5688 126.628 34.5351C125.699 34.5351 124.771 34.5351 123.815 34.5351C123.817 34.799 123.818 35.0629 123.82 35.3348C123.828 36.5229 123.832 37.711 123.837 38.8991C123.84 39.3146 123.843 39.73 123.846 40.158C123.847 40.5527 123.848 40.9473 123.849 41.3539C123.851 41.7196 123.853 42.0852 123.855 42.4619C123.815 43.307 123.815 43.307 123.463 43.6579C120.818 43.7417 120.818 43.7417 119.947 43.307C119.938 41.6145 119.932 39.9219 119.928 38.2293C119.926 37.6531 119.923 37.0769 119.92 36.5006C119.916 35.6741 119.914 34.8476 119.913 34.0211C119.911 33.762 119.909 33.5028 119.907 33.2358C119.907 32.6162 119.925 31.9965 119.947 31.3772C120.299 31.0263 120.299 31.0263 121 30.9797C121.284 30.9806 121.567 30.9815 121.859 30.9825C122.282 30.9811 122.282 30.9811 122.715 30.9797C123.463 31.0263 123.463 31.0263 124.166 31.3772C124.478 31.2614 124.79 31.1456 125.111 31.0263C126.507 30.6059 127.329 30.6686 128.737 31.0263Z" fill="white" />
  <path d="M116.782 31.5088C117.989 32.4868 118.324 33.4007 118.54 34.886C118.616 36.2523 118.606 37.6187 118.606 38.9868C118.611 39.358 118.615 39.7291 118.619 40.1114C118.62 40.6423 118.62 40.6423 118.621 41.1839C118.623 41.5072 118.624 41.8304 118.626 42.1635C118.54 42.9561 118.54 42.9561 117.837 43.6579C117.178 43.7388 117.178 43.7388 116.431 43.7237C116.184 43.7214 115.938 43.7192 115.684 43.7168C115.024 43.6579 115.024 43.6579 114.321 43.307C113.973 43.4807 113.973 43.4807 113.618 43.6579C112.016 43.8816 110.572 43.9302 109.223 42.9561C108.055 41.5577 107.992 40.9051 107.992 39.0965C108.345 37.6569 108.856 37.0636 110.102 36.2895C111.162 36.0332 111.162 36.0332 112.299 35.8728C112.678 35.8172 113.057 35.7615 113.447 35.7042C113.736 35.6658 114.024 35.6273 114.321 35.5877C114.321 35.1246 114.321 34.6614 114.321 34.1842C112.581 34.1842 110.84 34.1842 109.047 34.1842C109.047 33.2579 109.047 32.3316 109.047 31.3772C111.687 30.6072 114.221 30.3374 116.782 31.5088ZM111.86 39.0965C111.86 39.5596 111.86 40.0228 111.86 40.5C112.933 40.8443 113.599 40.8443 114.673 40.5C114.673 39.8053 114.673 39.1105 114.673 38.3947C113.093 38.2456 113.093 38.2456 111.86 39.0965Z" fill="white" />
  <path d="M106.585 8.2193C108.216 8.58171 109.397 9.3782 110.453 10.6754C110.93 12.1038 110.989 13.3925 110.805 14.886C110.022 16.4482 109.219 17.2956 107.64 18.0439C106.536 18.3877 105.542 18.4318 104.388 18.4167C103.561 18.4058 103.561 18.4058 102.718 18.3947C102.718 20.3632 102.718 22.3316 102.718 24.3596C100.96 24.7105 100.96 24.7105 100.256 24.3596C100.23 22.1738 100.211 19.9881 100.198 17.8021C100.193 17.0581 100.186 16.3141 100.177 15.5701C100.164 14.5023 100.158 13.4346 100.153 12.3668C100.148 12.0327 100.142 11.6986 100.137 11.3544C100.137 10.8909 100.137 10.8909 100.137 10.4179C100.134 10.1452 100.132 9.87252 100.13 9.59155C100.171 9.37028 100.213 9.14902 100.256 8.92105C102.097 7.69685 104.438 8.07162 106.585 8.2193ZM102.718 10.3246C102.718 12.293 102.718 14.2614 102.718 16.2895C105.554 16.4922 105.554 16.4922 107.992 15.2368C108.551 14.1217 108.486 12.9423 108.344 11.7281C107.707 10.7897 107.332 10.6898 106.234 10.3246C105.626 10.3007 105.018 10.2948 104.41 10.3026C103.572 10.3135 103.572 10.3135 102.718 10.3246Z" fill="white" />
  <path d="M84.2139 8.13158C84.4682 8.13339 84.7225 8.1352 84.9844 8.13706C86.8404 8.16486 86.8404 8.16486 87.2466 8.57017C87.2609 9.1548 87.2616 9.73996 87.2466 10.3246C86.8781 10.3458 86.5096 10.3671 86.1299 10.389C85.6451 10.4186 85.1602 10.4483 84.6754 10.4781C84.3113 10.4988 84.3113 10.4988 83.9399 10.5199C82.8614 10.5875 81.9479 10.6836 80.9175 11.0263C80.8015 12.3 80.6854 13.5737 80.5659 14.886C82.7705 15.0018 84.9752 15.1175 87.2466 15.2368C87.2466 15.8158 87.2466 16.3947 87.2466 16.9912C86.7142 17.5225 86.2182 17.4169 85.4762 17.4531C85.1917 17.4678 84.9073 17.4825 84.6143 17.4977C84.3154 17.5115 84.0164 17.5253 83.7085 17.5395C83.4082 17.5546 83.1079 17.5698 82.7985 17.5854C82.0544 17.6227 81.3101 17.658 80.5659 17.693C80.6058 18.3877 80.6507 19.0821 80.6978 19.7763C80.7345 20.3564 80.7345 20.3564 80.7719 20.9482C80.82 21.2634 80.868 21.5787 80.9175 21.9035C82.0327 22.46 83.2505 22.3872 84.4776 22.4518C84.8754 22.4745 84.8754 22.4745 85.2811 22.4977C85.9362 22.5349 86.5914 22.5703 87.2466 22.6053C87.2466 23.3 87.2466 23.9947 87.2466 24.7105C86.2355 24.7391 85.2252 24.7599 84.2139 24.7763C83.9297 24.7851 83.6455 24.794 83.3527 24.803C81.5785 24.8246 80.3209 24.6916 78.8078 23.6579C77.9364 22.4078 78.0025 21.1006 78.0112 19.6338C78.0105 19.3821 78.0098 19.1304 78.0091 18.8711C78.0087 18.3402 78.01 17.8094 78.0129 17.2785C78.0167 16.4677 78.0129 15.6571 78.0084 14.8462C78.0089 14.3295 78.0098 13.8128 78.0112 13.2961C78.0098 13.0544 78.0083 12.8128 78.0069 12.5638C78.0192 11.3008 78.0575 10.316 78.8078 9.27193C80.6418 8.24852 82.1403 8.07061 84.2139 8.13158Z" fill="white" />
  <path d="M136.539 28.5482C137.202 28.5591 137.202 28.5591 137.879 28.5702C137.879 29.3807 137.879 30.1912 137.879 31.0263C138.576 31.0263 139.272 31.0263 139.989 31.0263C139.989 31.9526 139.989 32.8789 139.989 33.8333C139.293 33.8333 138.597 33.8333 137.879 33.8333C137.879 36.0333 137.879 38.2333 137.879 40.5C138.576 40.6158 139.272 40.7316 139.989 40.8509C140.004 41.6695 140.003 42.4884 139.989 43.307C139.384 43.9103 138.616 43.7609 137.791 43.7895C137.456 43.8067 137.121 43.8238 136.775 43.8416C135.77 43.6579 135.77 43.6579 134.771 43.0315C133.623 41.3265 133.822 39.762 133.902 37.7588C133.91 37.3818 133.918 37.0048 133.926 36.6164C133.946 35.6882 133.975 34.761 134.012 33.8333C133.729 33.8406 133.446 33.8478 133.154 33.8553C132.253 33.8333 132.253 33.8333 131.902 33.4825C131.887 32.6639 131.887 31.8449 131.902 31.0263C132.598 31.0263 133.294 31.0263 134.012 31.0263C134.012 30.3316 134.012 29.6368 134.012 28.921C134.979 28.5993 135.544 28.532 136.539 28.5482Z" fill="white" />
  <path d="M57.3592 33.8333C57.5913 33.8333 57.8234 33.8333 58.0625 33.8333C58.4625 35.3302 58.7657 36.4877 58.7657 38.0439C60.7383 38.2754 62.7108 38.507 64.7432 38.7456C64.7432 38.9772 64.7432 39.2088 64.7432 39.4474C64.0552 39.7413 63.3665 40.0333 62.6774 40.3246C62.1023 40.5688 62.1023 40.5688 61.5155 40.818C60.5238 41.2018 60.5238 41.2017 59.8206 41.2017C59.9409 41.6332 59.9409 41.6332 60.0637 42.0735C60.1647 42.4516 60.2658 42.8297 60.37 43.2193C60.4719 43.5938 60.5739 43.9683 60.679 44.3542C60.8652 45.3573 60.8697 45.874 60.5238 46.8158C60.2691 46.5838 60.0143 46.3517 59.7519 46.1127C59.4119 45.8164 59.072 45.5201 58.7218 45.2149C58.3872 44.9177 58.0527 44.6206 57.7081 44.3144C56.7085 43.5554 56.7085 43.5554 55.5655 43.6908C54.6598 43.9734 53.8815 44.2778 53.0519 44.7324C51.801 45.4123 51.801 45.4123 51.0302 45.4123C51.4262 44.3255 51.8987 43.3679 52.5025 42.386C52.7129 41.9952 52.9232 41.6044 53.1399 41.2017C52.7293 39.9725 52.4011 39.7911 51.3598 39.0746C50.5783 38.5359 50.5783 38.5359 49.9753 38.0439C49.9753 37.8123 49.9753 37.5807 49.9753 37.3421C50.3316 37.3828 50.6878 37.4235 51.0549 37.4655C52.5153 37.5816 53.799 37.5998 55.2495 37.3421C56.1275 36.4796 56.531 35.7252 57.0145 34.6009C57.1283 34.3476 57.242 34.0943 57.3592 33.8333Z" fill="white" />
  <path d="M125.221 12.4298C126.642 13.0629 127.17 13.5766 127.99 14.886C128.774 17.0475 128.789 19.7602 127.946 21.9035C127.107 23.3398 126.466 24.1793 124.87 24.7105C122.906 24.839 121.625 24.7999 119.947 23.6579C118.516 21.9386 118.329 20.6881 118.387 18.5482C118.384 18.2879 118.382 18.0276 118.379 17.7595C118.403 15.7113 118.947 14.5814 120.299 13.0219C121.91 12.1174 123.415 12.1731 125.221 12.4298ZM121.397 14.9956C120.309 16.6248 120.491 18.6235 120.65 20.5C121.133 21.5945 121.346 22.0754 122.408 22.6053C123.433 22.7808 123.433 22.7808 124.518 22.6053C125.492 21.6594 125.891 21.0838 126.086 19.7311C126.076 19.3407 126.066 18.9504 126.056 18.5482C126.052 18.157 126.047 17.7658 126.042 17.3627C125.93 16.3415 125.786 15.7349 125.221 14.886C123.991 14.2721 122.543 14.1956 121.397 14.9956Z" fill="white" />
  <path d="M89.0047 12.4298C89.7009 12.4298 90.3971 12.4298 91.1144 12.4298C91.1213 12.69 91.1283 12.9503 91.1355 13.2184C91.169 14.3957 91.2075 15.5728 91.2462 16.75C91.2571 17.1596 91.268 17.5691 91.2792 17.9911C91.2928 18.3835 91.3064 18.7758 91.3204 19.1801C91.3315 19.5421 91.3425 19.9041 91.3539 20.277C91.4051 21.2819 91.4051 21.2819 92.1692 22.2544C93.5843 22.359 94.6555 22.2482 96.037 21.9035C96.037 18.7772 96.037 15.6509 96.037 12.4298C96.7332 12.4298 97.4294 12.4298 98.1467 12.4298C98.1467 16.3667 98.1467 20.3035 98.1467 24.3596C96.3886 24.7105 96.3886 24.7105 95.3338 24.3596C94.8116 24.5333 94.8116 24.5333 94.2789 24.7105C92.4138 24.8306 91.2111 24.8933 89.7079 23.6579C88.9061 22.4425 88.923 21.4007 88.936 19.9682C88.9383 19.5295 88.9405 19.0907 88.9429 18.6387C88.9488 18.1819 88.9547 17.7251 88.9607 17.2544C88.9639 16.7921 88.9671 16.3299 88.9703 15.8536C88.9786 14.7123 88.9902 13.5711 89.0047 12.4298Z" fill="white" />
  <path d="M65.0948 18.3947C65.3269 18.3947 65.5589 18.3947 65.798 18.3947C66.1461 19.321 66.4942 20.2474 66.8529 21.2018C68.5934 21.2018 70.3339 21.2018 72.1271 21.2018C71.7755 22.2544 71.7755 22.2544 71.0736 22.6642C70.7903 22.7822 70.5071 22.9003 70.2152 23.0219C69.7916 23.2031 69.7916 23.2031 69.3595 23.3879C68.6109 23.6579 68.6109 23.6579 67.9077 23.6579C68.0092 23.903 68.1108 24.1482 68.2154 24.4008C68.3459 24.7201 68.4765 25.0394 68.6109 25.3684C68.7415 25.6859 68.872 26.0034 69.0065 26.3306C69.3142 27.1667 69.3142 27.1667 69.3142 27.8684C67.402 27.296 67.402 27.296 66.5617 26.7459C65.8188 26.2683 65.2585 25.9517 64.3916 25.7632C63.3798 26.1052 62.5543 26.5555 61.6487 27.1187C61.3935 27.2503 61.1383 27.3819 60.8754 27.5175C60.5273 27.4018 60.1792 27.286 59.8205 27.1667C60.5167 26.0088 61.2129 24.8509 61.9302 23.6579C61.6112 23.5566 61.2921 23.4553 60.9633 23.3509C60.0589 23.0385 59.2532 22.7053 58.4141 22.2544C58.4141 22.0228 58.4141 21.7912 58.4141 21.5526C58.9165 21.5635 58.9165 21.5635 59.4291 21.5746C61.9272 21.6475 61.9272 21.6475 64.0303 20.5535C64.4912 19.7912 64.4912 19.7912 64.8146 18.9964C64.9071 18.7979 64.9995 18.5993 65.0948 18.3947Z" fill="white" />
  <path d="M91.9179 30.992C92.4013 30.9982 92.4013 30.9982 92.8944 31.0044C93.2176 31.0076 93.5408 31.0107 93.8737 31.014C94.1235 31.0181 94.3732 31.0221 94.6305 31.0263C94.6392 32.7689 94.6456 34.5114 94.6499 36.2539C94.6516 36.8472 94.654 37.4404 94.6571 38.0337C94.6613 38.8846 94.6633 39.7354 94.6649 40.5863C94.6667 40.8532 94.6685 41.12 94.6704 41.3949C94.6704 42.0324 94.6523 42.6699 94.6305 43.307C94.2789 43.6579 94.2789 43.6579 93.5647 43.7045C93.2782 43.7036 92.9918 43.7027 92.6967 43.7018C92.4102 43.7027 92.1237 43.7036 91.8286 43.7045C91.1144 43.6579 91.1144 43.6579 90.7628 43.307C90.7273 42.4266 90.7136 41.556 90.7161 40.6754C90.7157 40.412 90.7154 40.1485 90.715 39.8771C90.7148 39.319 90.7155 38.7609 90.7169 38.2029C90.7188 37.3457 90.7169 36.4887 90.7147 35.6316C90.7149 35.0906 90.7154 34.5497 90.7161 34.0088C90.7154 33.7507 90.7146 33.4927 90.7139 33.2268C90.7241 31.043 90.7241 31.043 91.9179 30.992Z" fill="white" />
  <path d="M113.376 12.4079C113.688 12.4151 114 12.4224 114.321 12.4298C114.785 12.4298 115.249 12.4298 115.727 12.4298C116.431 12.4298 117.134 12.4298 117.837 12.4298C117.837 13.0088 117.837 13.5877 117.837 14.1842C115.464 14.886 115.464 14.886 114.673 14.886C114.673 18.0123 114.673 21.1386 114.673 24.3596C112.915 24.7105 112.915 24.7105 112.211 24.3596C112.203 22.7171 112.196 21.0745 112.192 19.4319C112.19 18.8726 112.188 18.3134 112.185 17.7542C112.181 16.9521 112.179 16.15 112.177 15.3479C112.175 15.0964 112.173 14.8449 112.172 14.5858C112.171 13.984 112.19 13.3822 112.211 12.7807C112.563 12.4298 112.563 12.4298 113.376 12.4079Z" fill="white" />
  <path d="M61.5786 6.46491C62.369 7.18503 62.6343 7.51988 62.9851 8.57017C64.4935 8.57017 66.002 8.57017 67.5561 8.57017C67.0803 9.51968 66.5682 9.60941 65.6002 10.0175C65.3097 10.1415 65.0192 10.2654 64.7198 10.3931C64.4955 10.4863 64.2711 10.5794 64.0399 10.6754C64.272 11.6018 64.5041 12.5281 64.7432 13.4825C64.5351 13.4024 64.3271 13.3223 64.1127 13.2399C61.9962 12.4301 61.9962 12.4301 59.8205 12.7807C59.1146 13.126 58.4109 13.4763 57.7109 13.8333C57.4788 13.8333 57.2467 13.8333 57.0076 13.8333C57.7109 12.4298 57.7109 12.4298 58.4141 11.0263C57.6019 10.6789 56.7896 10.3316 55.9528 9.97368C55.9528 9.7421 55.9528 9.51052 55.9528 9.27193C56.1903 9.26288 56.4278 9.25384 56.6725 9.24452C58.6441 9.15321 58.6441 9.15321 60.348 8.26316C60.7674 7.67015 61.1751 7.06886 61.5786 6.46491Z" fill="white" />
  <path d="M51.7334 0.850877C51.9654 0.966667 52.1975 1.08246 52.4366 1.20175C52.4366 1.66491 52.4366 2.12807 52.4366 2.60526C53.713 2.48947 54.9893 2.37368 56.3044 2.25439C56.3044 2.48597 56.3044 2.71754 56.3044 2.95614C54.912 3.65088 54.912 3.65088 53.4915 4.35965C53.4915 5.05439 53.4915 5.74912 53.4915 6.46491C52.8932 6.24781 52.8932 6.24781 52.2828 6.02632C50.4164 5.53987 49.1329 6.26166 47.514 7.16667C48.1733 5.5 48.1733 5.5 48.5688 4.71053C47.6986 4.36316 47.6986 4.36316 46.8108 4.00877C46.8108 3.77719 46.8108 3.54561 46.8108 3.30702C47.167 3.26156 47.167 3.26156 47.5305 3.21519C49.6049 2.91247 49.6049 2.91247 51.2499 1.68421C51.4095 1.40921 51.569 1.13421 51.7334 0.850877Z" fill="white" />
  <path d="M39.7784 0.5C40.0105 0.615789 40.2426 0.731579 40.4817 0.850877C40.4817 1.31404 40.4817 1.77719 40.4817 2.25439C41.4099 2.1386 42.3382 2.02281 43.2946 1.90351C43.2946 2.13509 43.2946 2.36667 43.2946 2.60526C42.8957 2.74276 42.4969 2.88026 42.0859 3.02193C40.7618 3.51267 40.7618 3.51267 40.5036 4.60088C40.4964 4.86864 40.4891 5.1364 40.4817 5.41228C40.1771 5.33268 39.8725 5.25307 39.5587 5.17105C38.1244 5.03853 37.4939 5.41572 36.2623 6.11403C36.0302 6.11403 35.7981 6.11403 35.559 6.11403C35.9107 5.41228 36.2623 4.71053 36.6139 4.00877C36.2658 3.89298 35.9177 3.77719 35.559 3.65789C35.559 3.42632 35.559 3.19474 35.559 2.95614C35.8833 2.86658 35.8833 2.86658 36.2142 2.77522C38.011 2.26586 38.011 2.26586 39.4488 1.13596C39.5576 0.926096 39.6664 0.716228 39.7784 0.5Z" fill="white" />
  <path d="M90.7628 26.8158C92.0391 26.8158 93.3155 26.8158 94.6305 26.8158C95.1109 27.7745 95.0273 28.5639 94.9822 29.6228C94.6305 29.9737 94.6305 29.9737 93.7501 30.0079C93.2178 30.0018 93.2178 30.0018 92.6747 29.9956C92.3189 29.9924 91.9631 29.9893 91.5965 29.986C91.3214 29.9819 91.0462 29.9779 90.7628 29.9737C90.7628 28.9316 90.7628 27.8895 90.7628 26.8158Z" fill="white" />
</svg>