<svg xmlns="http://www.w3.org/2000/svg" width="64" height="64" viewBox="0 0 64 64" version="1.1"><path d="M 21.332 1.851 C 9.525 5.931, -0 18.358, -0 29.682 L 0 32 4.500 32 L 9 32 9.022 34.750 C 9.034 36.263, 9.864 39.300, 10.866 41.500 L 12.687 45.500 16.773 49.183 L 20.858 52.867 24.679 53.928 C 26.781 54.511, 30.332 54.991, 32.571 54.994 L 36.641 55 42.071 52.250 L 47.500 49.500 50.658 44.775 L 53.816 40.050 54.487 36.076 L 55.158 32.103 59.829 31.802 L 64.500 31.500 64.659 28 L 64.818 24.500 64.041 28 L 63.263 31.500 63.132 28.428 C 63.059 26.739, 62.251 23.159, 61.336 20.473 L 59.672 15.589 54.086 9.919 L 48.500 4.249 42.712 2.124 L 36.925 0 31.712 0.033 L 26.500 0.065 21.332 1.851 M 21.176 11.600 L 15.959 14.199 12.842 18.730 L 9.725 23.260 9.232 27.630 L 8.740 32 13.370 32 L 18 32 18.004 34.250 C 18.006 35.487, 18.853 37.886, 19.886 39.580 L 21.764 42.660 25.283 44.330 C 33.831 48.386, 43.549 43.881, 45.510 34.953 L 46.159 32 50.691 32 L 55.223 32 54.528 28.297 C 53.027 20.296, 47.726 13.454, 40.782 10.553 L 37.064 9 31.728 9 L 26.393 9 21.176 11.600 M 27.856 17.516 L 25.212 18.953 23.960 22.226 C 23.272 24.027, 22.602 26.738, 22.471 28.250 L 22.234 31 23.117 31 C 23.603 31, 24 31.822, 24 32.826 L 24 34.651 26.314 36.826 L 28.629 39 32.659 39 L 36.690 39 38.193 37.250 C 39.020 36.288, 39.975 34.712, 40.317 33.750 L 40.937 32 38.576 32 L 36.214 32 35.638 33.500 L 35.063 35 32.567 35 L 30.070 35 29 33 L 27.930 31 30.965 31 L 34 31 34 30 L 34 29 31 29 L 28 29 28 28 L 28 27 31.500 27 L 35 27 35 26 L 35 25 31.500 25 L 28 25 28 24.155 C 28 20.790, 33.460 19.163, 35.232 22 L 36.481 24 38.647 24 L 40.813 24 40.283 21.976 C 39.992 20.863, 38.624 19.063, 37.242 17.976 L 34.730 16 32.615 16.040 C 31.452 16.062, 29.310 16.726, 27.856 17.516 M 0.232 29 L 0.232 32.500 0.689 30.750 C 0.941 29.788, 0.941 28.212, 0.689 27.250 L 0.232 25.500 0.232 29" stroke="none" fill="#18e0f4" fill-rule="evenodd"/><path d="M 21.176 11.600 L 15.959 14.199 12.842 18.730 L 9.725 23.260 9.232 27.630 L 8.740 32 4.234 32 L -0.272 32 0.363 36.750 L 0.998 41.500 3.847 47 L 6.695 52.500 11.832 56.707 L 16.968 60.913 22.166 62.457 C 25.024 63.305, 29.514 64, 32.144 64 L 36.925 64 42.712 61.876 L 48.500 59.751 54.086 54.081 L 59.672 48.411 61.336 43.527 C 62.251 40.841, 63 37.149, 63 35.322 L 63 32 59.111 32 L 55.223 32 54.528 28.297 C 53.027 20.296, 47.726 13.454, 40.782 10.553 L 37.064 9 31.728 9 L 26.393 9 21.176 11.600 M 27.856 17.516 L 25.212 18.953 23.960 22.226 C 23.272 24.027, 22.602 26.738, 22.471 28.250 L 22.234 31 23.117 31 C 23.603 31, 24 31.822, 24 32.826 L 24 34.651 26.314 36.826 L 28.629 39 32.659 39 L 36.690 39 38.193 37.250 C 39.020 36.288, 39.975 34.712, 40.317 33.750 L 40.937 32 38.576 32 L 36.214 32 35.638 33.500 L 35.063 35 32.567 35 L 30.070 35 29 33 L 27.930 31 30.965 31 L 34 31 34 30 L 34 29 31 29 L 28 29 28 28 L 28 27 31.500 27 L 35 27 35 26 L 35 25 31.500 25 L 28 25 28 24.155 C 28 20.790, 33.460 19.163, 35.232 22 L 36.481 24 38.647 24 L 40.813 24 40.283 21.976 C 39.992 20.863, 38.624 19.063, 37.242 17.976 L 34.730 16 32.615 16.040 C 31.452 16.062, 29.310 16.726, 27.856 17.516 M 9.022 34.750 C 9.034 36.263, 9.864 39.300, 10.866 41.500 L 12.687 45.500 16.773 49.183 L 20.858 52.867 24.679 53.928 C 26.781 54.511, 30.300 54.987, 32.500 54.985 L 36.500 54.980 41.617 52.598 L 46.734 50.215 49.484 46.610 C 52.304 42.913, 54.878 36.863, 54.956 33.750 L 55 32 50.579 32 L 46.159 32 45.510 34.953 C 43.549 43.881, 33.831 48.386, 25.283 44.330 L 21.764 42.660 19.886 39.580 C 18.853 37.886, 18.006 35.487, 18.004 34.250 L 18 32 13.500 32 L 9 32 9.022 34.750" stroke="none" fill="#040404" fill-rule="evenodd"/></svg>