<svg width="14" height="10" viewBox="0 0 14 10" fill="none" xmlns="http://www.w3.org/2000/svg">
  <path d="M6.9987 3.25C7.46283 3.25 7.90795 3.43437 8.23613 3.76256C8.56432 4.09075 8.7487 4.53587 8.7487 5C8.7487 5.46413 8.56432 5.90925 8.23613 6.23744C7.90795 6.56562 7.46283 6.75 6.9987 6.75C6.53457 6.75 6.08945 6.56562 5.76126 6.23744C5.43307 5.90925 5.2487 5.46413 5.2487 5C5.2487 4.53587 5.43307 4.09075 5.76126 3.76256C6.08945 3.43437 6.53457 3.25 6.9987 3.25ZM6.9987 0.625C9.91536 0.625 12.4062 2.43917 13.4154 5C12.4062 7.56083 9.91536 9.375 6.9987 9.375C4.08203 9.375 1.5912 7.56083 0.582031 5C1.5912 2.43917 4.08203 0.625 6.9987 0.625ZM1.8537 5C2.32518 5.96268 3.05729 6.77377 3.96681 7.34106C4.87633 7.90836 5.92676 8.2091 6.9987 8.2091C8.07063 8.2091 9.12107 7.90836 10.0306 7.34106C10.9401 6.77377 11.6722 5.96268 12.1437 5C11.6722 4.03732 10.9401 3.22623 10.0306 2.65893C9.12107 2.09164 8.07063 1.7909 6.9987 1.7909C5.92676 1.7909 4.87633 2.09164 3.96681 2.65893C3.05729 3.22623 2.32518 4.03732 1.8537 5Z" fill="#0A4B70" opacity="0.5"/>
  <line x1="13" y1="0" x2="1" y2="9" stroke="#0A4B70" stroke-width="1.5" stroke-linecap="round"/>
</svg> 