<svg width="48" height="60" viewBox="0 0 48 60" fill="none" xmlns="http://www.w3.org/2000/svg">
  <g clip-path="url(#clip0_642_150)">
    <path d="M47.709 19.758C47.5666 19.4325 47.3675 19.1349 47.121 18.879L29.121 0.879C28.8651 0.632496 28.5675 0.433403 28.242 0.291C28.152 0.249 28.056 0.225 27.96 0.192C27.7089 0.106889 27.4476 0.0554412 27.183 0.039C27.12 0.033 27.063 0 27 0H6C2.691 0 0 2.691 0 6V54C0 57.309 2.691 60 6 60H42C45.309 60 48 57.309 48 54V21C48 20.937 47.967 20.88 47.961 20.814C47.9446 20.5494 47.8931 20.2881 47.808 20.037C47.78 19.941 47.747 19.848 47.709 19.758ZM37.758 18H30V10.242L37.758 18ZM6 54V6H24V21C24 21.7956 24.3161 22.5587 24.8787 23.1213C25.4413 23.6839 26.2044 24 27 24H42L42.006 54H6Z" fill="#0A4B70" />
    <path d="M16 30H32V35H16V30ZM16 40H32V45H16V40ZM16 20H20V25H16V20Z" fill="#0A4B70" />
  </g>
  <defs>
    <clipPath id="clip0_642_150">
      <rect width="48" height="60" fill="white" />
    </clipPath>
  </defs>
</svg>