<svg height="512" viewBox="0 0 48 48" width="512" xmlns="http://www.w3.org/2000/svg">
  <g id="Line">
    <path
      d="m45 13h-37v-3a1 1 0 0 0 -1-1h-4a1 1 0 0 0 0 2h3v27a1 1 0 0 0 2 0v-3h15v3a1 1 0 0 0 1 1h18a1 1 0 0 0 1-1v-3h2a1 1 0 0 0 1-1v-20a1 1 0 0 0 -1-1zm-20 22h11v2h-11zm16 2h-3v-2h3zm3-4h-36v-18h36z" />
    <path d="m24 28a1 1 0 0 0 1-1v-1h1a3 3 0 0 0 0-6h-2a1 1 0 0 0 -1 1v6a1 1 0 0 0 1 1zm1-6h1a1 1 0 0 1 0 2h-1z" />
    <path
      d="m18 28h2a2 2 0 0 0 2-2v-2a1 1 0 0 0 -1-1h-1a1 1 0 0 0 0 2v1h-2v-4h3a1 1 0 0 0 0-2h-3a2 2 0 0 0 -2 2v4a2 2 0 0 0 2 2z" />
    <path d="m33 28a3 3 0 0 0 3-3v-4a1 1 0 0 0 -2 0v4a1 1 0 0 1 -2 0v-4a1 1 0 0 0 -2 0v4a3 3 0 0 0 3 3z" />
  </g>
</svg>