<svg width="12" height="12" viewBox="0 0 12 12" fill="none" xmlns="http://www.w3.org/2000/svg">
  <path fill-rule="evenodd" clip-rule="evenodd" d="M1.125 10.5H11.25V9.75H1.5V0H0.75V10.125L1.125 10.5ZM2.25 8.625V2.625L2.625 2.25H4.125L4.5 2.625V8.625L4.125 9H2.625L2.25 8.625ZM3.75 8.25V3H3V8.25H3.75ZM8.25 1.125V8.625L8.625 9H10.125L10.5 8.625V1.125L10.125 0.75H8.625L8.25 1.125ZM9.75 1.5V8.25H9V1.5H9.75ZM5.25 8.625V4.125L5.625 3.75H7.125L7.5 4.125V8.625L7.125 9H5.625L5.25 8.625ZM6.75 8.25V4.5H6V8.25H6.75Z" fill="#0A4B70" />
</svg>