<svg width="12" height="12" viewBox="0 0 12 12" fill="none" xmlns="http://www.w3.org/2000/svg">
  <path d="M5.92985 1L5.66985 1.965C7.87485 2.39 9.59985 4.115 10.0248 6.325L10.9999 6.065C10.4749 3.515 8.47985 1.52 5.92985 1ZM5.40985 2.93L5.14985 3.905C6.66985 4.135 7.85985 5.325 8.08985 6.84L9.05985 6.58C8.72985 4.72 7.27485 3.25 5.40985 2.93ZM1.85985 4.845C1.53913 5.54598 1.42888 6.32502 1.54249 7.08747C1.6561 7.84992 1.98869 8.56297 2.49985 9.14V11H3.99985V10.205C4.47485 10.4 4.98485 10.5 5.49985 10.5C6.06985 10.5 6.63485 10.375 7.14985 10.14L1.85985 4.845ZM4.89485 4.88L4.62985 5.86C5.02767 5.86 5.40921 6.01803 5.69051 6.29934C5.97181 6.58064 6.12985 6.96217 6.12985 7.36L7.11485 7.1C6.99985 5.93 6.06485 5 4.89485 4.88Z" fill="#0A4B70" />
</svg>