<svg xmlns="http://www.w3.org/2000/svg" viewBox="0 0 354.33 400.555"><title>Element 789</title><path d="M309.53,176.725a8.4623,8.4623,0,0,1-8.2849,8.61H275.5a8.6162,8.6162,0,0,1,0-17.22H301.245a8.4591,8.4591,0,0,1,8.2849,8.61M274.585,106.04a8.7918,8.7918,0,0,1-2.1151,7.3l-20.825,23.07a8.1854,8.1854,0,0,1-6.035,2.705l-.15-.0051a8.17,8.17,0,0,1-5.965-2.775,8.8725,8.8725,0,0,1,.03-11.72l20.72-22.95a8.3828,8.3828,0,0,1,10.135-1.79,8.6249,8.6249,0,0,1,4.2051,6.165m-22.49,107.095c0,26.94-13.94,47.95-22.265,58.095a69.8344,69.8344,0,0,0-15.105,41.51.0547.0547,0,0,1-.0549.05H139.76a69.8137,69.8137,0,0,0-15.1-41.56c-8.3249-10.1449-22.27-31.155-22.27-58.095,0-45.645,34.22-84.21,74.78-84.21,40.52,0,74.78,38.565,74.9249,84.21M185.45,98.955a8.2912,8.2912,0,1,1-16.57,0V69.32a8.2914,8.2914,0,1,1,16.57,0ZM114.84,136.33a8.0838,8.0838,0,0,1-5.99,2.7851h-.0849a8.1784,8.1784,0,0,1-6.075-2.7851L81.915,113.32a8.7762,8.7762,0,0,1-2.14-7.285,8.6465,8.6465,0,0,1,4.205-6.19A8.3933,8.3933,0,0,1,94.135,101.64L114.84,124.57a8.88,8.88,0,0,1,0,11.76m-36,31.785a8.6166,8.6166,0,0,1,0,17.22H53.09a8.6162,8.6162,0,0,1,0-17.22Zm61.1351,163.23a6.4923,6.4923,0,0,1,6.4949-6.5H208.015a6.5,6.5,0,0,1,6.5,6.5v.475a6.4987,6.4987,0,0,1-6.5,6.495H146.47a6.4912,6.4912,0,0,1-6.4949-6.495Zm0,22.65a6.4923,6.4923,0,0,1,6.4949-6.5H208.015a6.5,6.5,0,0,1,6.5,6.5v.475a6.4987,6.4987,0,0,1-6.5,6.495H146.47a6.4912,6.4912,0,0,1-6.4949-6.495Zm22.51,14.77H191.97a3.0856,3.0856,0,0,1,2.89,4.11c-2.725,7.98-9.665,13.495-17.63,13.51-7.97-.015-14.91-5.53-17.63-13.51a3.0828,3.0828,0,0,1,2.885-4.11M354.33,177.165a177.165,177.165,0,1,0-354.33,0C0,257.655,53.72,325.5,127.23,347.07a21.4994,21.4994,0,0,0-1.43,7.4,20.6948,20.6948,0,0,0,19.77,20.65,17.6184,17.6184,0,0,0,.6149,2.33c4.7051,13.795,17.17,23.075,31.02,23.105h.05c13.835-.03,26.3-9.31,31.025-23.125a17.2739,17.2739,0,0,0,.61-2.31,20.8123,20.8123,0,0,0,19.8-21.125,20.2983,20.2983,0,0,0-1.355-6.985c73.39-21.65,126.9951-89.44,126.9951-169.845" fill="#50bbb4"/></svg>