<svg width="300" height="300" viewBox="0 0 300 300" fill="none" xmlns="http://www.w3.org/2000/svg">
<g clip-path="url(#clip0_313_14)">
<path fill-rule="evenodd" clip-rule="evenodd" d="M33.3333 300H266.667C285.076 300 300 285.076 300 266.667V33.3333C300 14.9238 285.076 0 266.667 0H33.3333C14.9238 0 0 14.9238 0 33.3333V266.667C0 285.076 14.9238 300 33.3333 300Z" fill="black"/>
<path fill-rule="evenodd" clip-rule="evenodd" d="M250 250H208.906V180.008C208.906 160.818 201.615 150.094 186.426 150.094C169.902 150.094 161.27 161.254 161.27 180.008V250H121.667V116.667H161.27V134.627C161.27 134.627 173.177 112.593 201.471 112.593C229.753 112.593 250 129.863 250 165.582V250ZM74.4206 99.2077C60.931 99.2077 50 88.191 50 74.6039C50 61.0168 60.931 50 74.4206 50C87.9102 50 98.8346 61.0168 98.8346 74.6039C98.8346 88.191 87.9102 99.2077 74.4206 99.2077ZM53.9714 250H95.2669V116.667H53.9714V250Z" fill="white"/>
</g>
<defs>
<clipPath id="clip0_313_14">
<rect width="300" height="300" fill="white"/>
</clipPath>
</defs>
</svg>