<?xml version="1.0" encoding="UTF-8"?>
<svg width="218" height="129" viewBox="0 0 218 129" fill="none" xmlns="http://www.w3.org/2000/svg">
<path d="M72.6997 88.6817C72.6997 81.0917 78.4797 75.2617 86.0697 75.2617C93.6597 75.2617 99.4897 81.0917 99.4897 88.6817C99.4897 96.2717 93.7597 102.102 86.0697 102.102C78.3797 102.102 72.6997 96.4217 72.6997 88.6817ZM96.6797 88.6817C96.6797 82.5217 92.0897 77.7917 86.0797 77.7917C80.0697 77.7917 75.5197 82.5217 75.5197 88.6817C75.5197 94.8417 80.0597 99.5217 86.0797 99.5217C92.0997 99.5217 96.6797 94.8917 96.6797 88.6817Z" fill="#0F285A"/>
<path d="M104.04 88.6817C104.04 81.0417 109.96 75.2617 117.51 75.2617C123.15 75.2617 127.73 78.4617 129.69 83.0917L127.16 84.1917C125.44 80.2717 121.95 77.7917 117.46 77.7917C111.49 77.7917 106.86 82.6617 106.86 88.6817C106.86 94.7017 111.54 99.5717 117.61 99.5717C122.24 99.5717 125.63 96.7017 127.26 92.8817L129.84 93.9817C127.83 98.7617 123.49 102.102 117.57 102.102C109.88 102.102 104.05 96.1317 104.05 88.6817H104.04Z" fill="#0F285A"/>
<path d="M133.8 88.8334C133.8 81.1934 139.48 75.2734 147.36 75.2734C154.81 75.2734 160.35 80.7134 160.35 88.4034V89.7934H136.42C136.85 95.4734 141.2 99.6334 147.31 99.6334C151.94 99.6334 155.1 97.6734 157.1 93.9034L159.54 95.2434C156.72 99.7834 153.04 102.123 147.36 102.123C139 102.123 133.8 96.4434 133.8 88.8434V88.8334ZM136.52 87.2534H157.54C157.06 81.6134 153.15 77.7534 147.37 77.7534C141.59 77.7534 137.24 81.8634 136.53 87.2534H136.52Z" fill="#0F285A"/>
<path d="M164.36 94.5617C164.36 89.2617 168.95 86.3917 176.16 86.3917H184.9V84.8117C184.9 80.4217 181.89 77.6017 176.49 77.6017C172.14 77.6017 169.52 79.1817 167.41 82.1417L165.21 80.4717C167.88 77.2217 171.32 75.2617 176.48 75.2617C183.79 75.2617 187.51 79.3217 187.51 84.6717V101.582H184.84V96.9917C182.36 100.192 178.11 102.052 173.62 102.052C167.22 102.052 164.35 98.5217 164.35 94.5517L164.36 94.5617ZM184.9 93.5117V88.6417H176.21C170.29 88.6417 167.18 90.6017 167.18 94.4217C167.18 97.2917 169.23 99.7217 173.91 99.7217C178.02 99.7217 182.51 97.8117 184.9 93.5117Z" fill="#0F285A"/>
<path d="M194.08 75.7917H196.66V80.9017C198.38 77.6017 201.91 75.2617 206.4 75.2617C213.33 75.2617 217.77 79.7517 217.77 87.1517V101.572H215.05V87.1517C215.05 81.5117 211.75 77.7917 206.02 77.7917C200.77 77.7917 196.75 81.8517 196.75 87.2017V101.582H194.08V75.7917Z" fill="#0F285A"/>
<path d="M72.8096 111.133H84.6296V112.453H74.2096V119.243H84.6296V120.543H74.2096V127.383H84.6296V128.703H72.8096V111.133Z" fill="#0F285A"/>
<path d="M88.0996 111.133H89.6396L100.74 126.633V111.133H102.09V128.703H100.6L89.4596 113.133V128.703H88.1096V111.133H88.0996Z" fill="#0F285A"/>
<path d="M110.85 112.413H105.12V111.133H117.97V112.413H112.22V128.703H110.85V112.413Z" fill="#0F285A"/>
<path d="M121.01 111.133H132.83V112.453H122.41V119.243H132.83V120.543H122.41V127.383H132.83V128.703H121.01V111.133Z" fill="#0F285A"/>
<path d="M136.29 111.133H143.41C146.71 111.133 149.19 113.593 149.19 116.623C149.19 118.953 147.67 121.053 145.34 121.773L149.29 128.703H147.73L144.07 122.153H137.69V128.703H136.29V111.133ZM137.69 112.413V120.883H143.3C145.97 120.883 147.8 118.833 147.8 116.623C147.8 114.243 145.97 112.413 143.32 112.413H137.69Z" fill="#0F285A"/>
<path d="M152.469 111.133H158.869C162.819 111.133 165.339 113.753 165.339 117.223C165.339 120.693 162.759 123.333 158.889 123.333H153.859V128.703H152.459V111.133H152.469ZM153.869 112.413V122.043H158.829C162.049 122.043 163.929 119.953 163.929 117.233C163.929 114.513 162.029 112.423 158.799 112.423H153.869V112.413Z" fill="#0F285A"/>
<path d="M168.6 111.133H175.72C179.02 111.133 181.5 113.593 181.5 116.623C181.5 118.953 179.98 121.053 177.65 121.773L181.6 128.703H180.04L176.38 122.153H170V128.703H168.6V111.133ZM170 112.413V120.883H175.61C178.28 120.883 180.11 118.833 180.11 116.623C180.11 114.243 178.28 112.413 175.63 112.413H170Z" fill="#0F285A"/>
<path d="M184.97 111.133H186.34V128.703H184.97V111.133Z" fill="#0F285A"/>
<path d="M188.97 125.332L190.15 124.422C191.52 126.542 193.59 127.672 196.48 127.672C199.37 127.672 201.2 126.112 201.2 123.792C201.2 121.212 198.48 120.732 195.54 120.112C192.8 119.532 189.96 118.812 189.96 115.592C189.96 112.942 192.17 110.902 195.74 110.902C198.87 110.902 200.87 112.252 202.24 114.102L201.13 114.942C200 113.182 198.29 112.122 195.74 112.122C192.78 112.122 191.34 113.522 191.34 115.542C191.34 117.972 193.41 118.312 196.23 118.932C199.07 119.532 202.61 120.372 202.61 123.772C202.61 126.592 200.13 128.942 196.5 128.942C192.87 128.942 190.6 127.522 188.99 125.332H188.97Z" fill="#0F285A"/>
<path d="M205.839 111.133H217.659V112.453H207.239V119.243H217.659V120.543H207.239V127.383H217.659V128.703H205.839V111.133Z" fill="#0F285A"/>
<path d="M17.8901 75.8095C21.7672 75.8095 24.9101 72.6666 24.9101 68.7895C24.9101 64.9125 21.7672 61.7695 17.8901 61.7695C14.0131 61.7695 10.8701 64.9125 10.8701 68.7895C10.8701 72.6666 14.0131 75.8095 17.8901 75.8095Z" fill="#0F285A"/>
<path d="M12.4502 98.3291C16.3272 98.3291 19.4702 95.1861 19.4702 91.3091C19.4702 87.432 16.3272 84.2891 12.4502 84.2891C8.57314 84.2891 5.43018 87.432 5.43018 91.3091C5.43018 95.1861 8.57314 98.3291 12.4502 98.3291Z" fill="#0F285A"/>
<path d="M7.02 120.97C10.897 120.97 14.04 117.827 14.04 113.95C14.04 110.073 10.897 106.93 7.02 106.93C3.14296 106.93 0 110.073 0 113.95C0 117.827 3.14296 120.97 7.02 120.97Z" fill="#0F285A"/>
<path d="M34.6802 72.7392C37.7288 72.7392 40.2002 70.2678 40.2002 67.2192C40.2002 64.1706 37.7288 61.6992 34.6802 61.6992C31.6315 61.6992 29.1602 64.1706 29.1602 67.2192C29.1602 70.2678 31.6315 72.7392 34.6802 72.7392Z" fill="#0F285A"/>
<path d="M30.4101 90.4384C33.4587 90.4384 35.9301 87.967 35.9301 84.9184C35.9301 81.8698 33.4587 79.3984 30.4101 79.3984C27.3615 79.3984 24.8901 81.8698 24.8901 84.9184C24.8901 87.967 27.3615 90.4384 30.4101 90.4384Z" fill="#0F285A"/>
<path d="M26.1401 108.239C29.1887 108.239 31.6601 105.768 31.6601 102.719C31.6601 99.6706 29.1887 97.1992 26.1401 97.1992C23.0915 97.1992 20.6201 99.6706 20.6201 102.719C20.6201 105.768 23.0915 108.239 26.1401 108.239Z" fill="#0F285A"/>
<path d="M91.8701 23.7197C94.9187 23.7197 97.3901 21.2483 97.3901 18.1997C97.3901 15.1511 94.9187 12.6797 91.8701 12.6797C88.8215 12.6797 86.3501 15.1511 86.3501 18.1997C86.3501 21.2483 88.8215 23.7197 91.8701 23.7197Z" fill="#0F285A"/>
<path d="M87.5898 41.4189C90.6384 41.4189 93.1098 38.9475 93.1098 35.8989C93.1098 32.8503 90.6384 30.3789 87.5898 30.3789C84.5412 30.3789 82.0698 32.8503 82.0698 35.8989C82.0698 38.9475 84.5412 41.4189 87.5898 41.4189Z" fill="#0F285A"/>
<path d="M83.3198 59.2197C86.3684 59.2197 88.8398 56.7483 88.8398 53.6997C88.8398 50.6511 86.3684 48.1797 83.3198 48.1797C80.2712 48.1797 77.7998 50.6511 77.7998 53.6997C77.7998 56.7483 80.2712 59.2197 83.3198 59.2197Z" fill="#0F285A"/>
<path d="M49.0699 68.2092C51.2128 68.2092 52.9499 66.4721 52.9499 64.3292C52.9499 62.1864 51.2128 60.4492 49.0699 60.4492C46.9271 60.4492 45.1899 62.1864 45.1899 64.3292C45.1899 66.4721 46.9271 68.2092 49.0699 68.2092Z" fill="#0F285A"/>
<path d="M46.0699 80.6506C48.2128 80.6506 49.9499 78.9135 49.9499 76.7706C49.9499 74.6278 48.2128 72.8906 46.0699 72.8906C43.9271 72.8906 42.1899 74.6278 42.1899 76.7706C42.1899 78.9135 43.9271 80.6506 46.0699 80.6506Z" fill="#0F285A"/>
<path d="M43.0699 93.1506C45.2128 93.1506 46.9499 91.4135 46.9499 89.2706C46.9499 87.1278 45.2128 85.3906 43.0699 85.3906C40.9271 85.3906 39.1899 87.1278 39.1899 89.2706C39.1899 91.4135 40.9271 93.1506 43.0699 93.1506Z" fill="#0F285A"/>
<path d="M74.9298 35.4788C77.0727 35.4788 78.8098 33.7416 78.8098 31.5988C78.8098 29.4559 77.0727 27.7188 74.9298 27.7188C72.7869 27.7188 71.0498 29.4559 71.0498 31.5988C71.0498 33.7416 72.7869 35.4788 74.9298 35.4788Z" fill="#0F285A"/>
<path d="M71.9298 47.9084C74.0727 47.9084 75.8098 46.1713 75.8098 44.0284C75.8098 41.8856 74.0727 40.1484 71.9298 40.1484C69.7869 40.1484 68.0498 41.8856 68.0498 44.0284C68.0498 46.1713 69.7869 47.9084 71.9298 47.9084Z" fill="#0F285A"/>
<path d="M68.9298 60.4202C71.0727 60.4202 72.8098 58.683 72.8098 56.5402C72.8098 54.3973 71.0727 52.6602 68.9298 52.6602C66.7869 52.6602 65.0498 54.3973 65.0498 56.5402C65.0498 58.683 66.7869 60.4202 68.9298 60.4202Z" fill="#0F285A"/>
<path d="M59.0302 63.1191C60.0188 63.1191 60.8202 62.3177 60.8202 61.3291C60.8202 60.3405 60.0188 59.5391 59.0302 59.5391C58.0416 59.5391 57.2402 60.3405 57.2402 61.3291C57.2402 62.3177 58.0416 63.1191 59.0302 63.1191Z" fill="#0F285A"/>
<path d="M56.9199 71.7714C57.9085 71.7714 58.7099 70.97 58.7099 69.9814C58.7099 68.9928 57.9085 68.1914 56.9199 68.1914C55.9313 68.1914 55.1299 68.9928 55.1299 69.9814C55.1299 70.97 55.9313 71.7714 56.9199 71.7714Z" fill="#0F285A"/>
<path d="M63.1699 45.83C64.1585 45.83 64.9599 45.0286 64.9599 44.04C64.9599 43.0514 64.1585 42.25 63.1699 42.25C62.1813 42.25 61.3799 43.0514 61.3799 44.04C61.3799 45.0286 62.1813 45.83 63.1699 45.83Z" fill="#0F285A"/>
<path d="M61.0698 54.4784C62.0584 54.4784 62.8598 53.677 62.8598 52.6884C62.8598 51.6998 62.0584 50.8984 61.0698 50.8984C60.0812 50.8984 59.2798 51.6998 59.2798 52.6884C59.2798 53.677 60.0812 54.4784 61.0698 54.4784Z" fill="#0F285A"/>
<path d="M54.7299 80.4081C55.7185 80.4081 56.5199 79.6067 56.5199 78.6181C56.5199 77.6295 55.7185 76.8281 54.7299 76.8281C53.7414 76.8281 52.9399 77.6295 52.9399 78.6181C52.9399 79.6067 53.7414 80.4081 54.7299 80.4081Z" fill="#0F285A"/>
<path d="M110.99 14.04C114.867 14.04 118.01 10.897 118.01 7.02C118.01 3.14296 114.867 0 110.99 0C107.113 0 103.97 3.14296 103.97 7.02C103.97 10.897 107.113 14.04 110.99 14.04Z" fill="#0F285A"/>
<path d="M105.56 36.5595C109.437 36.5595 112.58 33.4166 112.58 29.5395C112.58 25.6625 109.437 22.5195 105.56 22.5195C101.683 22.5195 98.54 25.6625 98.54 29.5395C98.54 33.4166 101.683 36.5595 105.56 36.5595Z" fill="#0F285A"/>
<path d="M100.12 59.2002C103.997 59.2002 107.14 56.0572 107.14 52.1802C107.14 48.3031 103.997 45.1602 100.12 45.1602C96.2431 45.1602 93.1001 48.3031 93.1001 52.1802C93.1001 56.0572 96.2431 59.2002 100.12 59.2002Z" fill="#0F285A"/>
</svg>