<?xml version="1.0" encoding="UTF-8"?>
<svg id="Capa_1" data-name="Capa 1" xmlns="http://www.w3.org/2000/svg" viewBox="0 0 314.79 260">
  <g>
    <g>
      <path d="m36.69,227.37H8.39v30.14c0,1.01-.83,1.84-1.84,1.84H1.84c-1.01,0-1.84-.83-1.84-1.84v-50.14c0-12.26,6.73-17.15,19.63-17.15,5.44,0,14.11.19,17.98.56.55.1.92.74.92,1.29v4.61c0,.65-.37,1.11-1.02,1.11h-17.78c-9.77,0-11.34,2.58-11.34,9.58v12.81h28.3c1.01,0,1.84.84,1.84,1.85v3.5c0,1.01-.83,1.84-1.84,1.84" style="fill: #002e67;"/>
      <path d="m58.43,259.35h-5.08c-.92,0-1.66-.83-1.66-1.84v-64.89c0-.92.65-1.75,1.66-1.75h5.08c.92,0,1.65.73,1.65,1.75v64.89c0,.92-.65,1.84-1.65,1.84" style="fill: #002e67;"/>
    </g>
    <g>
      <path d="m125.4,260c-4.79,0-9.22-.46-14.47-2.31-5.26,1.85-9.58,2.31-14.38,2.31-14.01,0-19.54-9.13-19.54-25.17v-42.22c0-.92.74-1.75,1.75-1.75h4.88c.92,0,1.76.83,1.76,1.75v42.22c0,12.44,2.49,18.07,12.9,18.07,1.57,0,6.45-.28,8.48-.83v-59.45c0-.92.74-1.75,1.75-1.75h4.98c1.01,0,1.66.65,1.66,1.66v59.54c2.03.55,6.91.83,8.48.83,10.42,0,12.91-5.62,12.91-18.07v-42.22c0-.92.74-1.75,1.75-1.75h4.89c.92,0,1.75.83,1.75,1.75v42.22c0,16.04-5.53,25.17-19.54,25.17" style="fill: #5dc0cf;"/>
      <path d="m202.63,259.35h-5.07c-.92,0-1.66-.83-1.66-1.84v-27.28h-28.21v27.28c0,.92-.64,1.84-1.66,1.84h-5.07c-.92,0-1.65-.92-1.65-1.84v-48.21c0-14.1,6.54-19.08,19.81-19.08h5.35c13.18,0,19.82,4.97,19.82,19.08v48.21c0,.92-.74,1.84-1.66,1.84m-6.72-50.05c0-9.58-3.05-11.71-11.43-11.71h-5.35c-8.39,0-11.43,2.12-11.43,11.71v13.55h28.21v-13.55Z" style="fill: #5dc0cf;"/>
      <path d="m264.29,259.35h-5.9c-1.1,0-1.66,0-2.39-1.2l-16.5-27.46h-2.39c-3.04,0-5.25-.09-10.14-.28v27.1c0,.92-.64,1.84-1.66,1.84h-4.98c-.92,0-1.66-.83-1.66-1.84v-64.52c0-1.29.56-1.84,2.21-2.03,3.97-.46,10.88-.73,16.23-.73,14.56,0,25.81,4.89,25.81,19.81v.65c0,10.32-6.08,16.41-14.47,18.62l16.78,28.02c.18.27.27.55.27.83,0,.65-.46,1.2-1.2,1.2m-9.68-49.32c0-9.22-5.99-12.26-17.51-12.26-2.86,0-7.92,0-10.14.27v25.26c4.06.09,8.02.18,10.14.18,11.34,0,17.51-2.85,17.51-12.81v-.65Z" style="fill: #5dc0cf;"/>
      <path d="m313.87,259.54c-3.5.37-12.53.46-17.97.46-12.91,0-19.64-4.88-19.64-17.14v-35.49c0-12.26,6.73-17.14,19.64-17.14,5.44,0,14.1.18,17.97.55.55.1.92.74.92,1.29v4.61c0,.64-.37,1.1-1.01,1.1h-17.79c-9.77,0-11.34,2.58-11.34,9.58v12.81h28.3c1.02,0,1.84.83,1.84,1.84v3.5c0,1.02-.82,1.84-1.84,1.84h-28.3v15.48c0,7.01,1.57,9.59,11.34,9.59h17.79c.64,0,1.01.46,1.01,1.1v4.7c0,.55-.37,1.19-.92,1.29" style="fill: #5dc0cf;"/>
    </g>
  </g>
  <g>
    <g>
      <path d="m192.35,11.02c5.6.92,10.48,2.68,14.54,5.07,4.08,2.43,7.32,5.5,9.56,9.03,2.27,3.57,3.53,7.6,3.64,11.89.1,4.33-.97,8.93-3.36,13.56-2.4,4.67-5.93,8.93-10.24,12.62-4.33,3.7-9.44,6.83-14.98,9.2-5.56,2.38-11.54,4.02-17.6,4.77-6.03.74-12.13.6-17.94-.58-5.77-1.16-10.7-3.22-14.66-5.95-3.93-2.69-6.89-6.04-8.81-9.8-1.9-3.72-2.75-7.84-2.47-12.15.28-4.26,1.68-8.71,4.3-13.13,2.59-4.39,6.15-8.34,10.36-11.74,4.18-3.39,9.03-6.25,14.23-8.44,5.2-2.19,10.77-3.73,16.42-4.5,5.67-.78,11.43-.78,17,.14" style="fill: #5dc0cf;"/>
      <path d="m194.98,6.26c9.36,1.51,17.57,4.43,24.42,8.42,6.94,4.05,12.5,9.24,16.43,15.23,3.99,6.08,6.3,13,6.65,20.4.35,7.51-1.31,15.51-5.27,23.63-4.03,8.22-10.03,15.73-17.44,22.24-7.46,6.56-16.31,12.07-25.95,16.25-9.66,4.19-20.05,7.01-30.57,8.23-10.46,1.19-20.97.78-30.91-1.47-9.83-2.22-18.13-6.04-24.71-10.99-6.49-4.87-11.28-10.84-14.26-17.47-2.92-6.53-4.06-13.71-3.29-21.14.76-7.32,3.38-14.89,7.99-22.37,4.55-7.38,10.63-14,17.73-19.67,7.04-5.64,15.14-10.37,23.78-14.01,8.63-3.63,17.85-6.2,27.2-7.49,9.38-1.29,18.94-1.29,28.2.2m-50.62,91.27c7.85,1.68,16.13,1.94,24.33.96,8.23-.97,16.38-3.2,23.95-6.46,7.55-3.26,14.5-7.54,20.37-12.63,5.83-5.07,10.58-10.9,13.8-17.3,3.19-6.33,4.57-12.6,4.35-18.5-.2-5.82-1.97-11.27-5.07-16.09-3.07-4.76-7.45-8.88-12.96-12.12-5.43-3.2-11.98-5.53-19.46-6.75-7.43-1.21-15.1-1.21-22.63-.18-7.5,1.03-14.91,3.09-21.83,6.01-6.93,2.91-13.39,6.71-19.01,11.22-5.65,4.54-10.45,9.83-14.01,15.71-3.58,5.93-5.56,11.92-6.05,17.7-.49,5.84.53,11.46,2.97,16.55,2.47,5.16,6.37,9.77,11.59,13.53,5.27,3.78,11.88,6.68,19.66,8.34" style="fill: #5dc0cf;"/>
      <path d="m265.82,64.2c-.74-10.7-4.28-20.66-10.17-29.36-5.76-8.52-13.78-15.85-23.68-21.56-9.71-5.59-21.28-9.64-34.38-11.72-12.92-2.05-26.22-2.01-39.25-.2-12.97,1.8-25.77,5.36-37.78,10.4-12.04,5.06-23.36,11.64-33.31,19.5-10.06,7.94-18.77,17.23-25.44,27.65-6.79,10.6-10.86,21.42-12.34,31.95-1.52,10.75-.34,21.23,3.38,30.84,3.8,9.83,10.28,18.76,19.24,26.14,9.14,7.54,20.86,13.44,34.92,17.02,14.27,3.62,29.48,4.48,44.7,2.87,15.31-1.61,30.49-5.7,44.61-11.89,14.07-6.17,26.94-14.35,37.75-24.12,10.68-9.65,19.23-20.79,24.86-32.94,5.52-11.92,7.66-23.64,6.89-34.58m-17.92,21.98c-4.83,10.14-12.09,19.41-21.11,27.45-9.11,8.12-19.94,14.92-31.75,20.07-11.84,5.16-24.57,8.61-37.43,10.02-12.8,1.42-25.62.81-37.7-2.1-11.92-2.86-21.93-7.67-29.8-13.86-7.74-6.08-13.4-13.48-16.81-21.68-3.35-8.04-4.54-16.83-3.43-25.89,1.09-8.91,4.41-18.09,10.07-27.12,5.6-8.89,12.98-16.85,21.55-23.65,8.5-6.75,18.21-12.42,28.55-16.76,10.32-4.34,21.34-7.41,32.51-8.96,11.22-1.54,22.66-1.57,33.75.21,11.23,1.79,21.12,5.28,29.39,10.08,8.4,4.88,15.17,11.13,20.01,18.37,4.91,7.38,7.81,15.79,8.34,24.83.53,9.19-1.39,19.01-6.13,28.99" style="fill: #5dc0cf;"/>
    </g>
    <g>
      <path d="m130.04,48.69c-.28,4.3.57,8.44,2.47,12.16,1.91,3.75,4.88,7.1,8.81,9.79,3.96,2.73,8.88,4.78,14.66,5.95,5.8,1.17,11.9,1.32,17.94.57,6.06-.74,12.04-2.38,17.6-4.77,4.95-2.12,9.55-4.84,13.55-8.03-22.22-12.12-47.36-19.57-74.09-21.04-.51,1.82-.83,3.61-.94,5.37" style="fill: #002e67;"/>
      <path d="m213.01,79.39c-5.87,5.09-12.82,9.37-20.37,12.63-7.57,3.26-15.71,5.49-23.95,6.46-8.21.98-16.49.72-24.33-.96-7.79-1.66-14.39-4.56-19.66-8.34-5.22-3.76-9.12-8.37-11.59-13.53-2.43-5.09-3.47-10.71-2.97-16.55.44-5.21,2.1-10.6,5.06-15.96-5.13.17-10.21.57-15.22,1.16-.66.96-1.3,1.93-1.91,2.92-4.61,7.48-7.23,15.05-7.98,22.37-.78,7.43.36,14.61,3.29,21.14,2.97,6.63,7.77,12.6,14.26,17.47,6.58,4.95,14.87,8.76,24.71,10.99,9.94,2.25,20.45,2.66,30.91,1.47,10.5-1.22,20.9-4.04,30.57-8.23,9.64-4.18,18.5-9.69,25.96-16.25,4.74-4.16,8.89-8.74,12.32-13.64-4.1-3.35-8.34-6.51-12.73-9.48-1.93,2.22-4.05,4.34-6.35,6.33" style="fill: #002e67;"/>
      <path d="m244.04,93.25c-4.54,7.4-10.39,14.25-17.26,20.38-9.11,8.12-19.94,14.92-31.74,20.07-11.85,5.16-24.58,8.61-37.44,10.02-12.8,1.42-25.62.81-37.7-2.1-11.92-2.87-21.93-7.67-29.8-13.87-7.74-6.08-13.4-13.48-16.81-21.67-3.35-8.04-4.54-16.83-3.43-25.89,1.09-8.91,4.41-18.08,10.08-27.12,1.31-2.09,2.73-4.12,4.24-6.11-5.85,1.25-11.57,2.79-17.18,4.61-1.84,2.38-3.57,4.82-5.17,7.33-6.79,10.6-10.87,21.43-12.34,31.95-1.52,10.75-.34,21.22,3.38,30.84,3.8,9.82,10.28,18.76,19.24,26.14,9.14,7.54,20.86,13.43,34.92,17.01,14.27,3.62,29.48,4.49,44.7,2.87,15.31-1.61,30.49-5.7,44.6-11.89,14.07-6.16,26.95-14.35,37.76-24.12,8.66-7.84,15.93-16.65,21.37-26.19-3.6-4.27-7.4-8.37-11.39-12.29" style="fill: #002e67;"/>
    </g>
  </g>
</svg>