<svg width="300" height="300" viewBox="0 0 300 300" fill="none" xmlns="http://www.w3.org/2000/svg">
<g clip-path="url(#clip0_313_3)">
<path d="M247.368 0H52.6315C23.5639 0 0 23.5639 0 52.6315V247.368C0 276.436 23.5639 300 52.6315 300H247.368C276.436 300 300 276.436 300 247.368V52.6315C300 23.5639 276.436 0 247.368 0Z" fill="black"/>
<path d="M244.956 71.667L245.192 71.6151V69.7832H196.879L152.019 175.219L107.159 69.7832H55.0954V71.6151L55.3292 71.667C64.1476 73.6574 68.6247 76.6258 68.6247 87.3309V212.657C68.6247 223.362 64.1303 226.331 55.3119 228.321L55.0781 228.373V230.211H90.4014V228.379L90.1679 228.327C81.3492 226.337 76.8721 223.368 76.8721 212.663V94.6006L134.5 230.211H137.768L197.075 90.8187V215.758C196.32 224.213 191.883 226.824 183.898 228.627L183.661 228.682V230.499H245.192V228.682L244.956 228.627C236.962 226.824 232.419 224.213 231.663 215.758L231.623 87.3309H231.663C231.663 76.6258 236.14 73.6574 244.956 71.667Z" fill="white"/>
</g>
<defs>
<clipPath id="clip0_313_3">
<rect width="300" height="300" fill="white"/>
</clipPath>
</defs>
</svg>