<svg width="20" height="20" viewBox="0 0 20 20" fill="none" xmlns="http://www.w3.org/2000/svg">
  <path d="M10 19.75C8.65812 19.75 7.39423 19.4936 6.20834 18.9808C5.02245 18.4673 3.98967 17.7704 3.11001 16.89C2.23034 16.0096 1.5334 14.9768 1.01917 13.7917C0.504951 12.6065 0.248562 11.3426 0.250006 10C0.250006 8.65378 0.506395 7.38881 1.01917 6.20508C1.53267 5.02064 2.22962 3.98894 3.11001 3.11C3.99039 2.23106 5.02317 1.53411 6.20834 1.01917C7.39423 0.506389 8.65812 0.25 10 0.25C11.3462 0.25 12.6112 0.506389 13.7949 1.01917C14.9794 1.53267 16.0114 2.22961 16.8911 3.11C17.7708 3.99039 18.4673 5.02208 18.9808 6.20508C19.4936 7.38953 19.75 8.6545 19.75 10C19.75 11.3419 19.4936 12.6058 18.9808 13.7917C18.4673 14.9776 17.7704 16.0103 16.89 16.89C16.0096 17.7697 14.9779 18.4666 13.7949 18.9808C12.6119 19.4951 11.347 19.7514 10 19.75ZM10 18.6753C10.6356 17.8585 11.1599 17.0565 11.573 16.2693C11.9854 15.482 12.3209 14.6009 12.5794 13.6259H7.42059C7.70731 14.6558 8.04965 15.5644 8.44759 16.3516C8.84626 17.1388 9.36373 17.9134 10 18.6753ZM8.62092 18.5128C8.11537 17.917 7.65387 17.1803 7.23642 16.3028C6.81898 15.4261 6.50842 14.5334 6.30476 13.6248H2.15017C2.77128 14.9718 3.65131 16.0768 4.79026 16.9398C5.92992 17.8022 7.20681 18.3265 8.62092 18.5128ZM11.3791 18.5128C12.7932 18.3265 14.0701 17.8022 15.2098 16.9398C16.3487 16.0768 17.2287 14.9718 17.8498 13.6248H13.6963C13.4219 14.5471 13.0763 15.4466 12.6596 16.3234C12.2421 17.2009 11.8153 17.9314 11.3791 18.5128ZM1.70817 12.5426H6.07942C5.99709 12.0977 5.93931 11.6644 5.90609 11.2426C5.87142 10.8215 5.85409 10.4073 5.85409 10C5.85409 9.59267 5.87106 9.17847 5.90501 8.75742C5.93895 8.33636 5.99673 7.90303 6.07834 7.45742H1.70926C1.59153 7.83297 1.49945 8.24211 1.43301 8.68483C1.36656 9.12683 1.33334 9.56522 1.33334 10C1.33334 10.4348 1.3662 10.8735 1.43192 11.3163C1.49765 11.759 1.58973 12.1674 1.70817 12.5415M7.16276 12.5415H12.8373C12.9196 12.0973 12.9774 11.6712 13.0106 11.2632C13.0453 10.8558 13.0626 10.4348 13.0626 10C13.0626 9.56522 13.0456 9.14417 13.0117 8.73683C12.9777 8.3295 12.92 7.90339 12.8383 7.4585H7.16167C7.08006 7.90267 7.02228 8.32878 6.98834 8.73683C6.9544 9.14417 6.93742 9.56522 6.93742 10C6.93742 10.4348 6.9544 10.8558 6.98834 11.2632C7.02228 11.6705 7.08114 12.0966 7.16276 12.5415ZM13.9217 12.5415H18.2918C18.4096 12.1667 18.5016 11.7583 18.5681 11.3163C18.6338 10.8735 18.6667 10.4348 18.6667 10C18.6667 9.56522 18.6338 9.12647 18.5681 8.68375C18.5024 8.24103 18.4103 7.83261 18.2918 7.4585H13.9206C14.0029 7.90267 14.0607 8.33564 14.0939 8.75742C14.1286 9.17919 14.1459 9.59339 14.1459 10C14.1459 10.4066 14.129 10.8208 14.095 11.2426C14.0611 11.6644 14.0033 12.0977 13.9217 12.5426M13.6963 6.37517H17.8498C17.215 5.00006 16.3455 3.89506 15.2412 3.06017C14.1369 2.22528 12.8495 1.69408 11.3791 1.46658C11.8846 2.13175 12.3393 2.89261 12.743 3.74917C13.1467 4.605 13.4645 5.48033 13.6963 6.37517ZM7.42059 6.37517H12.5794C12.2934 5.35828 11.9406 4.43889 11.521 3.617C11.1014 2.79511 10.5944 2.031 10 1.32467C9.40562 2.03028 8.89862 2.79439 8.47901 3.617C8.05939 4.43961 7.70587 5.359 7.42059 6.37517ZM2.15126 6.37517H6.30476C6.53659 5.48106 6.85437 4.60572 7.25809 3.74917C7.66181 2.89261 8.11645 2.13175 8.62201 1.46658C7.13856 1.69481 5.84795 2.22925 4.75017 3.06992C3.65239 3.91203 2.78573 5.01342 2.15017 6.37408" fill="white" />
</svg>