<svg width="80" height="111" viewBox="0 0 80 111" fill="none" xmlns="http://www.w3.org/2000/svg">
  <path fill-rule="evenodd" clip-rule="evenodd" d="M13.3784 103.508V103.45C13.3784 99.9742 10.7658 97.205 7.41462 97.205C3.97758 97.205 1.50534 100.003 1.50534 103.396V103.45C1.50534 106.929 4.119 109.698 7.4691 109.698C10.9072 109.698 13.3784 106.9 13.3784 103.508ZM0 103.508V103.45C0 99.4101 3.15315 95.9059 7.4691 95.9059C11.7609 95.9059 14.8837 99.3538 14.8837 103.396V103.45C14.8837 107.493 11.7306 111 7.41462 111C3.12487 111 0 107.55 0 103.508ZM18.1395 103.508V103.45C18.1395 99.4101 21.3689 95.9059 25.504 95.9059C28.2224 95.9059 29.9222 97.1476 31.2825 98.5625L30.291 99.577C29.0447 98.3081 27.6269 97.205 25.4747 97.205C22.19 97.205 19.6408 99.9461 19.6408 103.396V103.45C19.6408 106.929 22.2747 109.698 25.5886 109.698C27.6269 109.698 29.2129 108.654 30.4321 107.296L31.3954 108.144C29.9223 109.81 28.165 111 25.504 111C21.3396 111 18.1395 107.55 18.1395 103.508ZM45.9401 102.773C45.7416 99.8626 44.0706 97.1758 40.7557 97.1758C37.8923 97.1758 35.6841 99.578 35.428 102.773H45.9401ZM33.9535 103.482V103.422C33.9535 99.2391 36.9026 95.9059 40.8111 95.9059C44.8637 95.9059 47.4419 99.1839 47.4419 103.45C47.4419 103.706 47.4419 103.791 47.4136 104.016H35.428C35.6841 107.607 38.2601 109.699 41.0964 109.699C43.3317 109.699 44.8637 108.71 46.052 107.438L47.0155 108.287C45.542 109.87 43.8156 111 41.0389 111C37.2422 111 33.9535 107.974 33.9535 103.482ZM61.4474 105.219V103.565C60.221 103.253 58.5955 102.912 56.5122 102.912C53.4287 102.912 51.7159 104.278 51.7159 106.3V106.357C51.7159 108.464 53.7129 109.689 55.9416 109.689C58.9092 109.689 61.4474 107.868 61.4474 105.219ZM50.2326 106.441V106.385C50.2326 103.365 52.8286 101.657 56.5985 101.657C58.6229 101.657 60.022 101.915 61.4211 102.286V101.657C61.4211 98.7222 59.6209 97.2147 56.6259 97.2147C54.8541 97.2147 53.4003 97.7001 52.0591 98.3839L51.5443 97.157C53.1434 96.4185 54.7141 95.9059 56.7122 95.9059C58.6798 95.9059 60.2494 96.4458 61.3063 97.5005C62.277 98.469 62.7907 99.8073 62.7907 101.601V110.658H61.4211V108.236C60.422 109.631 58.6229 111 55.8552 111C53.1434 111 50.2326 109.462 50.2326 106.441ZM67.6744 96.2462H69.059V98.9507C70.0149 97.2408 71.6231 95.9059 74.2465 95.9059C77.8831 95.9059 80 98.4109 80 101.885V110.768H78.6186V102.142C78.6186 99.1513 76.9542 97.1851 74.0499 97.1851C71.2289 97.1851 69.059 99.3509 69.059 102.367V110.768H67.6744V96.2462ZM10.2326 38.8954C10.2326 41.2679 8.30783 43.1925 5.93023 43.1925C3.55471 43.1925 1.62791 41.2679 1.62791 38.8954C1.62791 36.5229 3.55471 34.6004 5.93023 34.6004C8.30783 34.6004 10.2326 36.5229 10.2326 38.8954ZM78.6047 38.8954C78.6047 41.2679 76.6779 43.1925 74.3034 43.1925C71.9268 43.1925 70 41.2679 70 38.8954C70 36.5229 71.9268 34.6004 74.3034 34.6004C76.6779 34.6004 78.6047 36.5229 78.6047 38.8954ZM44.4186 55.8478C44.4186 58.22 42.492 60.1444 40.1168 60.1444C37.7405 60.1444 35.814 58.22 35.814 55.8478C35.814 53.4756 37.7405 51.5523 40.1168 51.5523C42.492 51.5523 44.4186 53.4756 44.4186 55.8478ZM27.2093 47.4885C27.2093 49.86 25.2838 51.7845 22.9065 51.7845C20.5302 51.7845 18.6047 49.86 18.6047 47.4885C18.6047 45.1149 20.5302 43.1925 22.9065 43.1925C25.2838 43.1925 27.2093 45.1149 27.2093 47.4885ZM61.3954 47.4885C61.3954 49.86 59.4688 51.7845 57.0935 51.7845C54.7162 51.7845 52.7907 49.86 52.7907 47.4885C52.7907 45.1149 54.7162 43.1925 57.0935 43.1925C59.4688 43.1925 61.3954 45.1149 61.3954 47.4885ZM8.83721 51.9017C8.83721 53.502 7.53684 54.8033 5.9318 54.8033C4.32467 54.8033 3.02326 53.502 3.02326 51.9017C3.02326 50.2972 4.32467 48.9979 5.9318 48.9979C7.53684 48.9979 8.83721 50.2972 8.83721 51.9017ZM77.2093 51.9017C77.2093 53.502 75.9071 54.8033 74.3023 54.8033C72.6965 54.8033 71.3953 53.502 71.3953 51.9017C71.3953 50.2972 72.6965 48.9979 74.3023 48.9979C75.9071 48.9979 77.2093 50.2972 77.2093 51.9017ZM43.0233 69.0826C43.0233 70.6861 41.7205 71.9874 40.1173 71.9874C38.5132 71.9874 37.2093 70.6861 37.2093 69.0826C37.2093 67.4802 38.5132 66.182 40.1173 66.182C41.7205 66.182 43.0233 67.4802 43.0233 69.0826ZM25.814 60.4937C25.814 62.0967 24.5128 63.3954 22.908 63.3954C21.3022 63.3954 20 62.0967 20 60.4937C20 58.8897 21.3022 57.59 22.908 57.59C24.5128 57.59 25.814 58.8897 25.814 60.4937ZM60 60.4937C60 62.0967 58.697 63.3954 57.0946 63.3954C55.488 63.3954 54.186 62.0967 54.186 60.4937C54.186 58.8897 55.488 57.59 57.0946 57.59C58.697 57.59 60 58.8897 60 60.4937ZM7.44186 62.1166C7.44186 62.9518 6.76551 63.6276 5.93077 63.6276C5.09496 63.6276 4.4186 62.9518 4.4186 62.1166C4.4186 61.2836 5.09496 60.6088 5.93077 60.6088C6.76551 60.6088 7.44186 61.2836 7.44186 62.1166ZM75.814 62.1166C75.814 62.9518 75.1361 63.6276 74.3029 63.6276C73.4665 63.6276 72.7907 62.9518 72.7907 62.1166C72.7907 61.2836 73.4665 60.6088 74.3029 60.6088C75.1361 60.6088 75.814 61.2836 75.814 62.1166ZM41.6279 79.3012C41.6279 80.135 40.95 80.8117 40.1168 80.8117C39.2815 80.8117 38.6046 80.135 38.6046 79.3012C38.6046 78.4674 39.2815 77.7929 40.1168 77.7929C40.95 77.7929 41.6279 78.4674 41.6279 79.3012ZM24.4186 70.7103C24.4186 71.543 23.7412 72.2197 22.9064 72.2197C22.0728 72.2197 21.3953 71.543 21.3953 70.7103C21.3953 69.8754 22.0728 69.2008 22.9064 69.2008C23.7412 69.2008 24.4186 69.8754 24.4186 70.7103ZM58.6047 70.7103C58.6047 71.543 57.9267 72.2197 57.0936 72.2197C56.2561 72.2197 55.5814 71.543 55.5814 70.7103C55.5814 69.8754 56.2561 69.2008 57.0936 69.2008C57.9267 69.2008 58.6047 69.8754 58.6047 70.7103ZM45.814 5.80554C45.814 9.01248 43.2105 11.6109 40.0016 11.6109C36.7895 11.6109 34.186 9.01248 34.186 5.80554C34.186 2.59943 36.7895 0 40.0016 0C43.2105 0 45.814 2.59943 45.814 5.80554ZM45.814 22.9895C45.814 26.1961 43.2105 28.795 40.0016 28.795C36.7895 28.795 34.186 26.1961 34.186 22.9895C34.186 19.7841 36.7895 17.1841 40.0016 17.1841C43.2105 17.1841 45.814 19.7841 45.814 22.9895ZM45.814 39.9425C45.814 43.1475 43.2105 45.7469 40.0016 45.7469C36.7895 45.7469 34.186 43.1475 34.186 39.9425C34.186 36.7354 36.7895 34.136 40.0016 34.136C43.2105 34.136 45.814 36.7354 45.814 39.9425ZM80 22.9895C80 26.1961 77.397 28.795 74.1866 28.795C70.9751 28.795 68.3721 26.1961 68.3721 22.9895C68.3721 19.7841 70.9751 17.1841 74.1866 17.1841C77.397 17.1841 80 19.7841 80 22.9895ZM11.6279 22.9895C11.6279 26.1961 9.02552 28.795 5.81447 28.795C2.60343 28.795 0 26.1961 0 22.9895C0 19.7841 2.60343 17.1841 5.81447 17.1841C9.02552 17.1841 11.6279 19.7841 11.6279 22.9895ZM28.8372 14.3975C28.8372 17.6035 26.2346 20.2029 23.0233 20.2029C19.8119 20.2029 17.2093 17.6035 17.2093 14.3975C17.2093 11.1894 19.8119 8.59205 23.0233 8.59205C26.2346 8.59205 28.8372 11.1894 28.8372 14.3975ZM28.8372 31.3489C28.8372 34.5552 26.2346 37.1548 23.0233 37.1548C19.8119 37.1548 17.2093 34.5552 17.2093 31.3489C17.2093 28.1436 19.8119 25.5439 23.0233 25.5439C26.2346 25.5439 28.8372 28.1436 28.8372 31.3489ZM63.0233 14.3975C63.0233 17.6035 60.4198 20.2029 57.2088 20.2029C53.9977 20.2029 51.3954 17.6035 51.3954 14.3975C51.3954 11.1894 53.9977 8.59205 57.2088 8.59205C60.4198 8.59205 63.0233 11.1894 63.0233 14.3975ZM63.0233 31.3489C63.0233 34.5552 60.4198 37.1548 57.2088 37.1548C53.9977 37.1548 51.3954 34.5552 51.3954 31.3489C51.3954 28.1436 53.9977 25.5439 57.2088 25.5439C60.4198 25.5439 63.0233 28.1436 63.0233 31.3489Z" fill="white" />
</svg>