<svg width="8" height="8" viewBox="0 0 8 8" fill="none" xmlns="http://www.w3.org/2000/svg">
  <path d="M1.01208 3.85023C1.01092 3.96387 0.965318 4.0724 0.88527 4.15205C0.805222 4.23169 0.697257 4.27595 0.585039 4.27512C0.529561 4.27553 0.47455 4.26484 0.423162 4.24366C0.371775 4.22249 0.325022 4.19125 0.285589 4.15173C0.246156 4.11221 0.214819 4.06519 0.193376 4.01338C0.171932 3.96156 0.160805 3.90597 0.160633 3.84979C0.160633 3.61512 0.350672 3.4249 0.585039 3.4249C0.819406 3.4249 1.00988 3.61512 1.00988 3.85023H1.01208ZM7.76175 3.85023C7.76152 3.90641 7.75034 3.96199 7.72884 4.01379C7.70734 4.06558 7.67596 4.11256 7.63648 4.15204C7.59701 4.19152 7.55023 4.22271 7.49882 4.24384C7.44741 4.26496 7.39238 4.27559 7.33691 4.27512C7.28143 4.27553 7.22642 4.26484 7.17503 4.24366C7.12364 4.22249 7.07689 4.19125 7.03746 4.15173C6.99802 4.11221 6.96669 4.06519 6.94524 4.01338C6.9238 3.96156 6.91267 3.90597 6.9125 3.84979C6.9125 3.61512 7.10254 3.4249 7.33691 3.4249C7.57171 3.4249 7.76175 3.61512 7.76175 3.85023ZM4.38669 5.52756C4.38647 5.5837 4.3753 5.63925 4.35383 5.69101C4.33236 5.74278 4.30101 5.78974 4.26158 5.82921C4.22216 5.86869 4.17542 5.89989 4.12406 5.92104C4.07271 5.94218 4.01773 5.95286 3.96229 5.95245C3.90685 5.95286 3.85187 5.94218 3.80051 5.92104C3.74915 5.89989 3.70242 5.86869 3.66299 5.82921C3.62357 5.78974 3.59222 5.74278 3.57075 5.69101C3.54928 5.63925 3.53811 5.5837 3.53788 5.52756C3.53788 5.29512 3.72792 5.10267 3.96229 5.10267C4.19666 5.10267 4.38713 5.29512 4.38713 5.52756M2.686 4.70223C2.68496 4.81551 2.6397 4.92378 2.5601 5.00339C2.4805 5.08299 2.37303 5.12747 2.26116 5.12712C2.14936 5.12736 2.042 5.08282 1.9625 5.00323C1.88299 4.92364 1.83779 4.81544 1.83675 4.70223C1.83675 4.46445 2.02679 4.2769 2.26116 4.2769C2.49596 4.2769 2.686 4.46445 2.686 4.70223ZM6.06325 4.70223C6.06221 4.81551 6.01695 4.92378 5.93735 5.00339C5.85775 5.08299 5.75028 5.12747 5.63841 5.12712C5.52661 5.12736 5.41925 5.08282 5.33975 5.00323C5.26024 4.92364 5.21504 4.81544 5.214 4.70223C5.214 4.46445 5.40404 4.2769 5.63841 4.2769C5.87321 4.2769 6.06325 4.46445 6.06325 4.70223ZM0.871195 5.13689C0.871195 5.29689 0.743039 5.42445 0.585039 5.42445C0.509454 5.42469 0.436866 5.39454 0.383214 5.34062C0.329562 5.28671 0.299232 5.21344 0.298883 5.13689C0.298883 5.05998 0.329055 4.98622 0.382761 4.93183C0.436466 4.87745 0.509307 4.8469 0.585258 4.8469C0.66121 4.8469 0.73405 4.87745 0.787756 4.93183C0.841462 4.98622 0.871195 5.05998 0.871195 5.13689ZM7.62394 5.13689C7.62394 5.29689 7.49535 5.42445 7.33735 5.42445C7.26176 5.42469 7.18917 5.39454 7.13552 5.34062C7.08187 5.28671 7.05154 5.21344 7.05119 5.13689C7.05119 5.05998 7.08136 4.98622 7.13507 4.93183C7.18877 4.87745 7.26161 4.8469 7.33756 4.8469C7.41352 4.8469 7.48636 4.87745 7.54006 4.93183C7.59377 4.98622 7.62394 5.05998 7.62394 5.13689ZM4.24888 6.83689C4.24888 6.99689 4.12073 7.12711 3.96273 7.12711C3.88693 7.12724 3.81413 7.09714 3.76009 7.04332C3.70604 6.98951 3.67509 6.91631 3.67394 6.83956C3.67394 6.67956 3.80473 6.552 3.96273 6.552C4.12073 6.552 4.24932 6.67956 4.24932 6.83956L4.24888 6.83689ZM2.55038 5.98712C2.55021 6.02524 2.54259 6.06296 2.52796 6.09808C2.51332 6.13321 2.49197 6.16506 2.46512 6.19179C2.43828 6.21852 2.40647 6.23961 2.37154 6.25383C2.33661 6.26806 2.29924 6.27514 2.26159 6.27467C2.18601 6.27491 2.11342 6.24476 2.05977 6.19084C2.00612 6.13693 1.97579 6.06366 1.97544 5.98712C1.97544 5.82934 2.10359 5.69956 2.26159 5.69956C2.42223 5.69956 2.55082 5.82978 2.55082 5.98712M5.92588 5.98712C5.92588 6.14712 5.79728 6.27467 5.63928 6.27467C5.56335 6.27526 5.49029 6.24531 5.43614 6.1914C5.38199 6.13748 5.35119 6.06401 5.35049 5.98712C5.35049 5.82934 5.48172 5.69956 5.63928 5.69956C5.79684 5.69956 5.92588 5.82978 5.92588 5.98712ZM0.736456 6.14934C0.736513 6.16904 0.73273 6.18857 0.725323 6.20679C0.717916 6.22501 0.707031 6.24158 0.693291 6.25553C0.679551 6.26949 0.663226 6.28056 0.645253 6.28812C0.627279 6.29567 0.60801 6.29956 0.58855 6.29956C0.568917 6.29973 0.549443 6.29599 0.531243 6.28853C0.513044 6.28107 0.496477 6.27004 0.482492 6.25609C0.468508 6.24213 0.45738 6.22552 0.449747 6.2072C0.442114 6.18888 0.438126 6.16922 0.438011 6.14934C0.440074 6.11097 0.45658 6.07486 0.484132 6.04843C0.511685 6.02201 0.548189 6.00728 0.586136 6.00728C0.624083 6.00728 0.660587 6.02201 0.68814 6.04843C0.715692 6.07486 0.732198 6.11097 0.734261 6.14934H0.736456ZM7.48876 6.14934C7.48853 6.18911 7.47283 6.22718 7.44506 6.2553C7.41729 6.28342 7.37969 6.29933 7.34042 6.29956C7.32078 6.29973 7.30131 6.29599 7.28311 6.28853C7.26491 6.28107 7.24834 6.27004 7.23436 6.25609C7.22037 6.24213 7.20925 6.22552 7.20161 6.2072C7.19398 6.18888 7.18999 6.16922 7.18988 6.14934C7.18878 6.12895 7.1918 6.10855 7.19875 6.08939C7.2057 6.07023 7.21643 6.0527 7.23029 6.03787C7.24416 6.02305 7.26086 6.01125 7.27938 6.00318C7.29789 5.99511 7.31784 5.99095 7.338 5.99095C7.35816 5.99095 7.37811 5.99511 7.39663 6.00318C7.41515 6.01125 7.43185 6.02305 7.44571 6.03787C7.45958 6.0527 7.47031 6.07023 7.47726 6.08939C7.48421 6.10855 7.48722 6.12895 7.48613 6.14934H7.48876ZM4.11151 7.84978C4.11151 7.88962 4.09588 7.92783 4.06806 7.956C4.04024 7.98417 4.00251 8 3.96317 8C3.92382 8 3.88609 7.98417 3.85827 7.956C3.83045 7.92783 3.81482 7.88962 3.81482 7.84978C3.81482 7.80994 3.83045 7.77173 3.85827 7.74356C3.88609 7.71538 3.92382 7.69956 3.96317 7.69956C4.00251 7.69956 4.04024 7.71538 4.06806 7.74356C4.09588 7.77173 4.11151 7.80994 4.11151 7.84978ZM2.41301 6.99956C2.41301 7.01926 2.40917 7.03878 2.40171 7.05698C2.39425 7.07518 2.38332 7.09171 2.36954 7.10562C2.35575 7.11954 2.3394 7.13056 2.3214 7.13806C2.30341 7.14556 2.28413 7.14939 2.26467 7.14934C2.24507 7.14951 2.22563 7.14578 2.20746 7.13834C2.18929 7.13091 2.17274 7.11993 2.15876 7.10602C2.14478 7.09211 2.13365 7.07555 2.12599 7.05728C2.11833 7.03902 2.1143 7.0194 2.11413 6.99956C2.11619 6.96119 2.1327 6.92508 2.16025 6.89865C2.1878 6.87223 2.22431 6.8575 2.26225 6.8575C2.3002 6.8575 2.3367 6.87223 2.36426 6.89865C2.39181 6.92508 2.40831 6.96119 2.41038 6.99956H2.41301ZM5.78763 6.99956C5.78763 7.0394 5.772 7.07761 5.74418 7.10578C5.71636 7.13395 5.67863 7.14978 5.63928 7.14978C5.59994 7.14978 5.56221 7.13395 5.53439 7.10578C5.50657 7.07761 5.49094 7.0394 5.49094 6.99956C5.49094 6.95972 5.50657 6.92151 5.53439 6.89333C5.56221 6.86516 5.59994 6.84934 5.63928 6.84934C5.67863 6.84934 5.71636 6.86516 5.74418 6.89333C5.772 6.92151 5.78763 6.95972 5.78763 6.99956ZM4.52538 0.575127C4.52538 0.89246 4.266 1.15024 3.95 1.15024C3.87493 1.15082 3.80048 1.1364 3.73092 1.10779C3.66136 1.07918 3.59806 1.03696 3.54465 0.98353C3.49124 0.930103 3.44876 0.866526 3.41966 0.796444C3.39056 0.726362 3.3754 0.651153 3.37506 0.575127C3.37506 0.25735 3.634 1.71424e-05 3.95 1.71424e-05C4.02507 -0.000568474 4.09952 0.0138556 4.16908 0.0424626C4.23864 0.0710695 4.30194 0.113297 4.35535 0.166724C4.40876 0.220152 4.45124 0.283728 4.48034 0.35381C4.50944 0.423892 4.52504 0.499102 4.52538 0.575127ZM4.52494 2.27512C4.52494 2.59246 4.26556 2.84979 3.94956 2.84979C3.87448 2.85055 3.79998 2.83626 3.73038 2.80775C3.66077 2.77923 3.59742 2.73705 3.54398 2.68363C3.49054 2.63022 3.44806 2.56662 3.41899 2.49651C3.38993 2.4264 3.37484 2.35116 3.37462 2.27512C3.37462 1.95735 3.63356 1.70001 3.94956 1.70001C4.02463 1.69943 4.09908 1.71385 4.16864 1.74246C4.2382 1.77107 4.3015 1.81329 4.35491 1.86672C4.40833 1.92015 4.4508 1.98372 4.4799 2.05381C4.509 2.12389 4.52416 2.1991 4.52451 2.27512M4.52451 3.95512C4.52451 4.27245 4.26512 4.53023 3.94912 4.53023C3.87405 4.53082 3.7996 4.51639 3.73004 4.48778C3.66048 4.45918 3.59718 4.41695 3.54377 4.36352C3.49036 4.31009 3.44788 4.24652 3.41878 4.17644C3.38968 4.10635 3.37452 4.03115 3.37418 3.95512C3.37418 3.63734 3.63312 3.38001 3.94912 3.38001C4.0242 3.37942 4.09865 3.39385 4.1682 3.42246C4.23776 3.45106 4.30106 3.49329 4.35447 3.54672C4.40789 3.60014 4.45036 3.66372 4.47946 3.7338C4.50856 3.80388 4.52372 3.87909 4.52407 3.95512M7.9 2.27512C7.8996 2.35111 7.8844 2.42627 7.85527 2.4963C7.82614 2.56633 7.78366 2.62986 7.73025 2.68324C7.67685 2.73662 7.61357 2.77881 7.54404 2.80739C7.47451 2.83597 7.40009 2.85037 7.32506 2.84979C7.17381 2.8505 7.02848 2.79036 6.92099 2.68261C6.81351 2.57485 6.75268 2.42828 6.75187 2.27512C6.75256 2.12196 6.81328 1.97535 6.92068 1.86751C7.02808 1.75967 7.17337 1.69942 7.32462 1.70001C7.39973 1.69937 7.47423 1.71375 7.54383 1.74233C7.61344 1.77091 7.67679 1.81313 7.73025 1.86656C7.78371 1.92 7.82622 1.98359 7.85535 2.0537C7.88448 2.12381 7.89966 2.19906 7.9 2.27512ZM1.14813 2.27512C1.14732 2.42828 1.08649 2.57485 0.979007 2.68261C0.871525 2.79036 0.72619 2.8505 0.574944 2.84979C0.499944 2.85037 0.425566 2.83598 0.356064 2.80743C0.286563 2.77888 0.223302 2.73673 0.169902 2.6834C0.116501 2.63006 0.0740087 2.56659 0.0448552 2.49661C0.0157017 2.42663 0.000459325 2.35152 0 2.27557C0.000344278 2.19954 0.0155019 2.12433 0.044604 2.05425C0.073706 1.98417 0.11618 1.92059 0.169592 1.86717C0.223004 1.81374 0.286304 1.77151 0.355862 1.7429C0.425421 1.7143 0.499871 1.69987 0.574944 1.70046C0.649871 1.70011 0.724132 1.7147 0.793488 1.74342C0.862844 1.77213 0.925936 1.81439 0.979161 1.8678C1.03239 1.9212 1.0747 1.9847 1.1037 2.05466C1.13269 2.12463 1.14779 2.19925 1.14813 2.27512ZM2.84663 1.42535C2.84582 1.57851 2.78499 1.72507 2.67751 1.83283C2.57003 1.94059 2.42469 2.00072 2.27344 2.00001C2.19837 2.0006 2.12392 1.98617 2.05436 1.95757C1.9848 1.92896 1.9215 1.88673 1.86809 1.83331C1.81468 1.77988 1.77221 1.7163 1.7431 1.64622C1.714 1.57614 1.69884 1.50093 1.6985 1.4249C1.6989 1.34891 1.7141 1.27375 1.74323 1.20372C1.77236 1.13369 1.81484 1.07017 1.86825 1.01679C1.92165 0.963408 1.98493 0.92122 2.05446 0.892641C2.12399 0.864061 2.19841 0.849652 2.27344 0.850238C2.42469 0.849528 2.57003 0.909661 2.67751 1.01742C2.78499 1.12518 2.84582 1.27219 2.84663 1.42535ZM2.84663 3.10268C2.84582 3.25576 2.78505 3.40226 2.67766 3.51C2.57028 3.61775 2.42505 3.67793 2.27388 3.67734C2.19876 3.67816 2.12422 3.66392 2.05456 3.63543C1.9849 3.60694 1.9215 3.56477 1.86802 3.51135C1.81453 3.45793 1.77201 3.39431 1.74292 3.32417C1.71382 3.25403 1.69873 3.17875 1.6985 3.10268C1.69884 3.02665 1.714 2.95144 1.7431 2.88136C1.77221 2.81128 1.81468 2.7477 1.86809 2.69427C1.9215 2.64085 1.9848 2.59862 2.05436 2.57001C2.12392 2.54141 2.19837 2.52698 2.27344 2.52757C2.34837 2.52716 2.42264 2.5417 2.49202 2.57036C2.5614 2.59901 2.62452 2.64123 2.67779 2.69459C2.73106 2.74795 2.77342 2.81142 2.80247 2.88136C2.83151 2.95131 2.84667 3.02636 2.84707 3.10223M6.22432 1.42668C6.22375 1.50263 6.20839 1.57772 6.17913 1.64766C6.14987 1.71759 6.10728 1.781 6.0538 1.83425C6.00032 1.8875 5.93699 1.92955 5.86745 1.95799C5.7979 1.98644 5.7235 2.00072 5.6485 2.00001C5.49725 2.0006 5.35197 1.94036 5.24457 1.83252C5.13717 1.72467 5.07645 1.57806 5.07575 1.4249C5.07656 1.27182 5.13733 1.12532 5.24472 1.01758C5.35211 0.909832 5.49733 0.849647 5.6485 0.850238C5.72354 0.849652 5.79795 0.864061 5.86748 0.892641C5.93701 0.92122 6.00029 0.963408 6.0537 1.01679C6.1071 1.07017 6.14959 1.13369 6.17872 1.20372C6.20784 1.27375 6.22304 1.34891 6.22344 1.4249L6.22432 1.42668ZM6.22432 3.10223C6.22392 3.17826 6.20871 3.25346 6.17955 3.32352C6.1504 3.39358 6.10787 3.45712 6.05442 3.51051C6.00097 3.56389 5.93764 3.60607 5.86805 3.63462C5.79847 3.66318 5.72401 3.67754 5.64894 3.6769C5.5362 3.6774 5.42584 3.64406 5.33179 3.58109C5.23774 3.51813 5.16423 3.42836 5.12052 3.32312C5.09156 3.25315 5.0765 3.17809 5.07619 3.10223C5.07689 2.94907 5.13761 2.80246 5.24501 2.69462C5.35241 2.58678 5.49769 2.52653 5.64894 2.52712C5.72401 2.52654 5.79846 2.54096 5.86802 2.56957C5.93758 2.59818 6.00088 2.6404 6.05429 2.69383C6.1077 2.74726 6.15018 2.81083 6.17928 2.88092C6.20838 2.951 6.22398 3.02621 6.22432 3.10223Z" fill="#0A4B70" fill-opacity="0.8" />
</svg>