<svg width="16" height="16" viewBox="0 0 16 16" fill="black" xmlns="http://www.w3.org/2000/svg">
<g clip-path="url(#clip0_637:9)">
<path d="M10.067 0.870012C9.79783 0.594553 9.47632 0.375673 9.12136 0.226235C8.76639 0.0767976 8.38514 -0.000183105 8 -0.000183105C7.61487 -0.000183105 7.23361 0.0767976 6.87865 0.226235C6.52369 0.375673 6.20217 0.594553 5.933 0.870012L5.311 1.50801L4.421 1.49701C4.03575 1.49245 3.65348 1.56497 3.29667 1.7103C2.93985 1.85563 2.6157 2.07084 2.34326 2.34327C2.07083 2.6157 1.85562 2.93986 1.71029 3.29667C1.56496 3.65349 1.49244 4.03576 1.497 4.42101L1.507 5.31101L0.871004 5.93301C0.595544 6.20218 0.376665 6.5237 0.227227 6.87866C0.0777894 7.23362 0.000808716 7.61488 0.000808716 8.00001C0.000808716 8.38515 0.0777894 8.7664 0.227227 9.12137C0.376665 9.47633 0.595544 9.79784 0.871004 10.067L1.508 10.689L1.497 11.579C1.49244 11.9643 1.56496 12.3465 1.71029 12.7034C1.85562 13.0602 2.07083 13.3843 2.34326 13.6568C2.6157 13.9292 2.93985 14.1444 3.29667 14.2897C3.65348 14.4351 4.03575 14.5076 4.421 14.503L5.311 14.493L5.933 15.129C6.20217 15.4045 6.52369 15.6234 6.87865 15.7728C7.23361 15.9222 7.61487 15.9992 8 15.9992C8.38514 15.9992 8.76639 15.9222 9.12136 15.7728C9.47632 15.6234 9.79783 15.4045 10.067 15.129L10.689 14.492L11.579 14.503C11.9643 14.5076 12.3465 14.4351 12.7033 14.2897C13.0602 14.1444 13.3843 13.9292 13.6567 13.6568C13.9292 13.3843 14.1444 13.0602 14.2897 12.7034C14.435 12.3465 14.5076 11.9643 14.503 11.579L14.493 10.689L15.129 10.067C15.4045 9.79784 15.6233 9.47633 15.7728 9.12137C15.9222 8.7664 15.9992 8.38515 15.9992 8.00001C15.9992 7.61488 15.9222 7.23362 15.7728 6.87866C15.6233 6.5237 15.4045 6.20218 15.129 5.93301L14.492 5.31101L14.503 4.42101C14.5076 4.03576 14.435 3.65349 14.2897 3.29667C14.1444 2.93986 13.9292 2.6157 13.6567 2.34327C13.3843 2.07084 13.0602 1.85563 12.7033 1.7103C12.3465 1.56497 11.9643 1.49245 11.579 1.49701L10.689 1.50701L10.067 0.871012V0.870012ZM10.354 6.85401L7.354 9.85401C7.30756 9.90058 7.25238 9.93752 7.19164 9.96272C7.13089 9.98793 7.06577 10.0009 7 10.0009C6.93424 10.0009 6.86912 9.98793 6.80837 9.96272C6.74762 9.93752 6.69245 9.90058 6.646 9.85401L5.146 8.35401C5.09952 8.30752 5.06264 8.25234 5.03748 8.1916C5.01232 8.13086 4.99937 8.06576 4.99937 8.00001C4.99937 7.93427 5.01232 7.86917 5.03748 7.80843C5.06264 7.74769 5.09952 7.6925 5.146 7.64601C5.19249 7.59952 5.24768 7.56265 5.30842 7.53749C5.36916 7.51233 5.43426 7.49938 5.5 7.49938C5.56575 7.49938 5.63085 7.51233 5.69159 7.53749C5.75233 7.56265 5.80752 7.59952 5.854 7.64601L7 8.79301L9.646 6.14601C9.73989 6.05213 9.86723 5.99938 10 5.99938C10.1328 5.99938 10.2601 6.05213 10.354 6.14601C10.4479 6.2399 10.5006 6.36724 10.5006 6.50001C10.5006 6.63279 10.4479 6.76013 10.354 6.85401V6.85401Z"/>
</g>
<defs>
<clipPath id="clip0_637:9">
<rect width="16" height="16" fill="white"/>
</clipPath>
</defs>
</svg>
