<svg id="Layer_1" enable-background="new 0 0 56 56" height="512" viewBox="0 0 56 56" width="512"
  xmlns="http://www.w3.org/2000/svg">
  <path
    d="m32.083 34.167h14.583c4.596 0 8.333-3.738 8.333-8.333 0-3.877-2.661-7.144-6.252-8.071.002-.088.002-.175.002-.262 0-6.893-5.607-12.5-12.5-12.5-4.024 0-7.786 1.984-10.109 5.199-1.396-.68-2.909-1.033-4.474-1.033-5.109 0-9.371 3.697-10.25 8.556-3.674.867-6.416 4.175-6.416 8.11 0 4.595 3.737 8.333 8.333 8.333h14.583v10.417h-6.25v-6.25h-16.666v16.667h16.667v-6.25h16.667v6.25h16.666v-16.667h-16.667v6.25h-6.25zm-22.916-8.334c0-2.298 1.87-4.167 4.167-4.167h2.083v-2.083c0-3.446 2.804-6.25 6.25-6.25 1.396 0 2.734.481 3.874 1.392l2.063 1.65 1.123-2.393c1.371-2.926 4.325-4.816 7.524-4.816 4.596 0 8.333 3.738 8.333 8.333 0 .569-.057 1.135-.171 1.684l-.533 2.577 2.631-.073.256-.019c2.252.054 4.067 1.902 4.067 4.166 0 2.298-1.87 4.167-4.167 4.167h-33.334c-2.297-.001-4.166-1.87-4.166-4.168zm8.333 25h-8.333v-8.333h8.333zm25-8.333h8.333v8.333h-8.333z" />
</svg>