<svg width="14" height="14" viewBox="0 0 14 14" fill="none" xmlns="http://www.w3.org/2000/svg">
  <path d="M7.84414 2.13779C7.9324 2.04956 8.05208 2 8.17688 2C8.30167 2 8.42135 2.04956 8.50961 2.13779L10.3921 4.02029C10.4803 4.10855 10.5299 4.22823 10.5299 4.35302C10.5299 4.47782 10.4803 4.5975 10.3921 4.68576L8.50961 6.56826C8.42085 6.65398 8.30197 6.70142 8.17857 6.70035C8.05517 6.69928 7.93713 6.64978 7.84988 6.56252C7.76262 6.47527 7.71312 6.35723 7.71205 6.23383C7.71098 6.11043 7.75842 5.99155 7.84414 5.90279L8.92329 4.82365H3.47063C3.34581 4.82365 3.2261 4.77407 3.13784 4.68581C3.04958 4.59755 3 4.47784 3 4.35302C3 4.22821 3.04958 4.1085 3.13784 4.02024C3.2261 3.93198 3.34581 3.8824 3.47063 3.8824H8.92329L7.84414 2.80326C7.75591 2.715 7.70635 2.59532 7.70635 2.47052C7.70635 2.34573 7.75591 2.22605 7.84414 2.13779ZM5.68586 6.84404C5.77409 6.9323 5.82365 7.05198 5.82365 7.17677C5.82365 7.30157 5.77409 7.42125 5.68586 7.50951L4.60671 8.58865H10.0594C10.1842 8.58865 10.3039 8.63823 10.3922 8.72649C10.4804 8.81475 10.53 8.93446 10.53 9.05927C10.53 9.18409 10.4804 9.3038 10.3922 9.39206C10.3039 9.48032 10.1842 9.5299 10.0594 9.5299H4.60671L5.68586 10.609C5.77158 10.6978 5.81902 10.8167 5.81795 10.9401C5.81688 11.0635 5.76738 11.1815 5.68012 11.2688C5.59287 11.356 5.47483 11.4055 5.35143 11.4066C5.22803 11.4077 5.10915 11.3602 5.02039 11.2745L3.13789 9.39201C3.04966 9.30375 3.0001 9.18407 3.0001 9.05927C3.0001 8.93448 3.04966 8.8148 3.13789 8.72654L5.02039 6.84404C5.10865 6.75581 5.22833 6.70625 5.35313 6.70625C5.47792 6.70625 5.5976 6.75581 5.68586 6.84404Z" fill="#0A4B70" fill-opacity="0.84" />
</svg>