<svg width="80" height="81" viewBox="0 0 80 81" fill="none" xmlns="http://www.w3.org/2000/svg">
  <path d="M79.9868 35.1265L45.3699 0.514247V0.5H0V45.8745L34.626 80.5H80L79.9868 35.1255V35.1265ZM77.5404 35.1265H45.3709V2.96976L77.5404 35.1255V35.1265ZM1.73705 2.23707H43.6339V35.1265H34.626V44.1385H1.73705V2.23707ZM43.6339 36.8625V44.1385H36.3621V36.8625H43.6339ZM2.45446 45.8745H34.626V78.0445L2.45446 45.8745ZM78.2629 78.7639H36.3621V45.8745H45.3699V36.8625H78.2629V78.7639Z" fill="white" />
  <path d="M18.6863 15.577V17.31H16.9126V29.2233H15.1582V18.2269L13.1892 17.31V15.577H18.6863Z" fill="white" />
  <path d="M26.4455 15.577L24.4001 29.2233H21.7879L19.7415 15.577H21.5335L22.8737 24.5158H23.3133L24.6535 15.577H26.4455Z" fill="white" />
  <path d="M32.3354 27.4872V29.2233H28.0859V15.577H29.8413V27.4872H32.3354Z" fill="white" />
  <path d="M45.3699 54.8998L47.3491 55.8207V66.868H49.1116V54.8998H50.8945V53.1566H45.3699V54.8998Z" fill="white" />
  <path d="M54.4785 60.8742H57.1232V59.1311H54.4785L54.4418 54.8998H57.1812V53.1566H52.716V66.868H57.2433V65.1248H54.4785V60.8742Z" fill="white" />
  <path d="M59.0648 66.868H63.3937V65.1248H60.8273V54.8998H63.3937V53.1566H59.0648V66.868Z" fill="white" />
  <path d="M69.3884 53.1566V59.1311H67.2341V53.1566H65.4706V66.868H67.2341V60.8742H69.3884V66.868H71.1509V53.1566H69.3884Z" fill="white" />
</svg>