<svg width="12" height="12" viewBox="0 0 12 12" fill="none" xmlns="http://www.w3.org/2000/svg">
  <g clip-path="url(#clip0_1_2740)">
    <path d="M4.12472 7.87496L7.87471 4.12496M2.79722 4.95746L2.00222 5.75246C1.43929 6.31538 1.12305 7.07887 1.12305 7.87496C1.12305 8.67105 1.43929 9.43454 2.00222 9.99746C2.56514 10.5604 3.32862 10.8766 4.12472 10.8766C4.92081 10.8766 5.68429 10.5604 6.24722 9.99746L7.04222 9.20246M9.20222 7.04246L9.99722 6.24746C10.5601 5.68454 10.8764 4.92105 10.8764 4.12496C10.8764 3.32887 10.5601 2.56538 9.99722 2.00246C9.43429 1.43954 8.67081 1.12329 7.87471 1.12329C7.07862 1.12329 6.31514 1.43954 5.75222 2.00246L4.95722 2.79746" stroke="#0A4B70" stroke-linecap="round" stroke-linejoin="round" />
  </g>
  <defs>
    <clipPath id="clip0_1_2740">
      <rect width="12" height="12" fill="white" />
    </clipPath>
  </defs>
</svg>