<svg width="20" height="20" viewBox="0 0 20 20" fill="none" xmlns="http://www.w3.org/2000/svg">
  <path d="M9.99999 1.39166C10.7958 1.39166 11.5375 1.78083 11.9917 2.43083L12.0792 2.56416L18.8408 13.8542C19.0463 14.2101 19.1581 14.6123 19.1658 15.0232C19.1734 15.4341 19.0767 15.8402 18.8846 16.2035C18.6925 16.5668 18.4113 16.8754 18.0674 17.1004C17.7235 17.3254 17.3281 17.4595 16.9183 17.49L16.7558 17.4967H3.23499C2.82475 17.492 2.42236 17.3836 2.06539 17.1813C1.70841 16.9791 1.4085 16.6897 1.19363 16.3402C0.978768 15.9907 0.855959 15.5925 0.83667 15.1827C0.817381 14.7728 0.90224 14.3648 1.08333 13.9967L1.16583 13.8425L7.92416 2.56083C8.1403 2.20379 8.44494 1.90857 8.8086 1.70375C9.17226 1.49893 9.58262 1.39143 9.99999 1.39166ZM9.99999 9.16666H9.16666L9.06916 9.1725C8.86662 9.19659 8.67995 9.29413 8.5445 9.44663C8.40906 9.59914 8.33425 9.79603 8.33425 10C8.33425 10.204 8.40906 10.4009 8.5445 10.5534C8.67995 10.7059 8.86662 10.8034 9.06916 10.8275L9.16666 10.8333V13.3333L9.17249 13.4308C9.19443 13.6168 9.27839 13.79 9.41084 13.9225C9.54328 14.0549 9.71648 14.1389 9.90249 14.1608L9.99999 14.1667H10.8333L10.9308 14.1608C11.1168 14.1389 11.29 14.0549 11.4225 13.9225C11.5549 13.79 11.6389 13.6168 11.6608 13.4308L11.6667 13.3333L11.6608 13.2358C11.6409 13.0658 11.5691 12.9061 11.4552 12.7783C11.3413 12.6505 11.1908 12.5609 11.0242 12.5217L10.9308 12.505L10.8333 12.5V10L10.8275 9.9025C10.8056 9.71648 10.7216 9.54328 10.5891 9.41084C10.4567 9.2784 10.2835 9.19443 10.0975 9.1725L9.99999 9.16666ZM10.0083 6.66666L9.90249 6.6725C9.69995 6.69659 9.51328 6.79413 9.37784 6.94663C9.24239 7.09914 9.16759 7.29603 9.16759 7.5C9.16759 7.70397 9.24239 7.90085 9.37784 8.05336C9.51328 8.20587 9.69995 8.3034 9.90249 8.3275L9.99999 8.33333L10.1058 8.3275C10.3084 8.3034 10.495 8.20587 10.6305 8.05336C10.7659 7.90085 10.8407 7.70397 10.8407 7.5C10.8407 7.29603 10.7659 7.09914 10.6305 6.94663C10.495 6.79413 10.3084 6.69659 10.1058 6.6725L10.0083 6.66666Z" fill="#FDD655" />
</svg>