<svg width="20" height="20" viewBox="0 0 20 20" fill="none" xmlns="http://www.w3.org/2000/svg">
  <path d="M9.99999 1.39172C10.7958 1.39172 11.5375 1.78089 11.9917 2.43089L12.0792 2.56422L18.8408 13.8542C19.0463 14.2101 19.1581 14.6124 19.1658 15.0232C19.1734 15.4341 19.0767 15.8402 18.8846 16.2035C18.6925 16.5668 18.4113 16.8754 18.0674 17.1005C17.7235 17.3255 17.3281 17.4595 16.9183 17.4901L16.7558 17.4967H3.23499C2.82475 17.4921 2.42236 17.3836 2.06539 17.1814C1.70841 16.9792 1.4085 16.6898 1.19363 16.3403C0.978768 15.9908 0.855959 15.5925 0.83667 15.1827C0.817381 14.7729 0.90224 14.3649 1.08333 13.9967L1.16583 13.8426L7.92416 2.56089C8.1403 2.20385 8.44494 1.90863 8.8086 1.70381C9.17226 1.49899 9.58262 1.39149 9.99999 1.39172ZM9.99999 9.16672H9.16666L9.06916 9.17256C8.86662 9.19665 8.67995 9.29419 8.5445 9.4467C8.40906 9.5992 8.33425 9.79609 8.33425 10.0001C8.33425 10.204 8.40906 10.4009 8.5445 10.5534C8.67995 10.7059 8.86662 10.8035 9.06916 10.8276L9.16666 10.8334V13.3334L9.17249 13.4309C9.19443 13.6169 9.27839 13.7901 9.41084 13.9225C9.54328 14.055 9.71648 14.139 9.90249 14.1609L9.99999 14.1667H10.8333L10.9308 14.1609C11.1168 14.139 11.29 14.055 11.4225 13.9225C11.5549 13.7901 11.6389 13.6169 11.6608 13.4309L11.6667 13.3334L11.6608 13.2359C11.6409 13.0659 11.5691 12.9061 11.4552 12.7783C11.3413 12.6506 11.1908 12.561 11.0242 12.5217L10.9308 12.5051L10.8333 12.5001V10.0001L10.8275 9.90256C10.8056 9.71654 10.7216 9.54334 10.5891 9.4109C10.4567 9.27846 10.2835 9.19449 10.0975 9.17256L9.99999 9.16672ZM10.0083 6.66672L9.90249 6.67256C9.69995 6.69665 9.51328 6.79419 9.37784 6.94669C9.24239 7.0992 9.16759 7.29609 9.16759 7.50006C9.16759 7.70403 9.24239 7.90091 9.37784 8.05342C9.51328 8.20593 9.69995 8.30347 9.90249 8.32756L9.99999 8.33339L10.1058 8.32756C10.3084 8.30347 10.495 8.20593 10.6305 8.05342C10.7659 7.90091 10.8407 7.70403 10.8407 7.50006C10.8407 7.29609 10.7659 7.0992 10.6305 6.94669C10.495 6.79419 10.3084 6.69665 10.1058 6.67256L10.0083 6.66672Z" fill="#FDD655" />
</svg>