<?xml version="1.0" standalone="no"?>
<!DOCTYPE svg PUBLIC "-//W3C//DTD SVG 20010904//EN"
 "http://www.w3.org/TR/2001/REC-SVG-20010904/DTD/svg10.dtd">
<svg version="1.0" xmlns="http://www.w3.org/2000/svg"
 width="64.000000pt" height="64.000000pt" viewBox="0 0 64.000000 64.000000"
 preserveAspectRatio="xMidYMid meet">

<g transform="translate(0.000000,64.000000) scale(0.100000,-0.100000)"
fill="#000000" stroke="none">
<path d="M246 543 c-69 -18 -146 -107 -154 -180 l-5 -43 -45 0 -45 0 7 -47
c13 -100 91 -203 184 -246 68 -31 187 -30 260 2 98 44 182 163 182 258 0 32
-2 33 -39 33 -37 0 -39 2 -46 37 -15 80 -68 148 -137 177 -35 15 -120 20 -162
9z m126 -83 c35 -27 43 -60 14 -60 -11 0 -27 9 -34 20 -15 24 -30 25 -54 3
-27 -24 -22 -33 17 -33 19 0 35 -4 35 -10 0 -5 -16 -10 -35 -10 -19 0 -35 -4
-35 -10 0 -5 14 -10 30 -10 17 0 30 -4 30 -10 0 -5 -14 -10 -30 -10 -28 0 -30
-2 -20 -20 13 -24 58 -27 66 -5 4 8 17 15 30 15 18 0 22 -4 17 -17 -13 -37
-36 -53 -76 -53 -45 0 -87 30 -87 62 0 10 -4 18 -9 18 -5 0 -8 12 -6 28 8 99
85 152 147 102z m-192 -162 c0 -58 71 -118 140 -118 61 0 122 50 135 110 6 28
10 30 51 30 50 0 53 -8 30 -73 -43 -119 -165 -181 -289 -146 -75 20 -156 120
-157 192 0 25 3 27 45 27 40 0 45 -3 45 -22z"/>
</g>
</svg>
