<?xml version="1.0" standalone="no"?>
<!DOCTYPE svg PUBLIC "-//W3C//DTD SVG 20010904//EN"
 "http://www.w3.org/TR/2001/REC-SVG-20010904/DTD/svg10.dtd">
<svg version="1.0" xmlns="http://www.w3.org/2000/svg"
 width="48.000000pt" height="48.000000pt" viewBox="0 0 48.000000 48.000000"
 preserveAspectRatio="xMidYMid meet" style="background-color:white">>

<g transform="translate(0.000000,48.000000) scale(0.100000,-0.100000)"
fill="#283475" stroke="none">
<path d="M88 375 c-10 -23 -8 -29 27 -65 40 -41 62 -49 83 -28 21 21 13 45
-28 82 -47 43 -66 45 -82 11z"/>
<path d="M301 356 c-38 -38 -42 -46 -32 -65 17 -31 42 -26 84 17 39 40 45 60
25 80 -19 19 -31 14 -77 -32z"/>
<path d="M120 175 c-37 -38 -43 -48 -34 -63 19 -30 45 -26 85 14 43 42 49 68
20 84 -26 13 -21 16 -71 -35z"/>
<path d="M276 204 c-23 -22 -21 -29 21 -74 27 -31 43 -40 62 -38 20 2 27 9 29
29 2 19 -7 35 -38 62 -45 42 -52 44 -74 21z"/>
</g>
</svg>
