<?xml version="1.0" encoding="UTF-8" standalone="no"?>
<svg
   xmlns:dc="http://purl.org/dc/elements/1.1/"
   xmlns:cc="http://creativecommons.org/ns#"
   xmlns:rdf="http://www.w3.org/1999/02/22-rdf-syntax-ns#"
   xmlns:svg="http://www.w3.org/2000/svg"
   xmlns="http://www.w3.org/2000/svg"
   xmlns:sodipodi="http://sodipodi.sourceforge.net/DTD/sodipodi-0.dtd"
   xmlns:inkscape="http://www.inkscape.org/namespaces/inkscape"
   width="159.22501"
   height="125.2625"
   viewBox="0 0 127.38 100.21"
   version="1.1"
   id="svg2"
   inkscape:version="0.47 r22583"
   sodipodi:docname="M-UdL.svg">
  <metadata
     id="metadata64">
    <rdf:RDF>
      <cc:Work
         rdf:about="">
        <dc:format>image/svg+xml</dc:format>
        <dc:type
           rdf:resource="http://purl.org/dc/dcmitype/StillImage" />
      </cc:Work>
    </rdf:RDF>
  </metadata>
  <defs
     id="defs62">
    <inkscape:perspective
       sodipodi:type="inkscape:persp3d"
       inkscape:vp_x="0 : 569.375 : 1"
       inkscape:vp_y="0 : 1000 : 0"
       inkscape:vp_z="1447.5 : 569.375 : 1"
       inkscape:persp3d-origin="723.75 : 379.58333 : 1"
       id="perspective66" />
  </defs>
  <sodipodi:namedview
     pagecolor="#ffffff"
     bordercolor="#666666"
     borderopacity="1"
     objecttolerance="10"
     gridtolerance="10"
     guidetolerance="10"
     inkscape:pageopacity="0"
     inkscape:pageshadow="2"
     inkscape:window-width="1680"
     inkscape:window-height="988"
     id="namedview60"
     showgrid="false"
     inkscape:zoom="0.11"
     inkscape:cx="-1429.4784"
     inkscape:cy="62.63125"
     inkscape:window-x="-8"
     inkscape:window-y="-8"
     inkscape:window-maximized="1"
     inkscape:current-layer="svg2" />
  <g
     id="#700048ff"
     transform="scale(0.11,0.11)">
    <path
       d="m 577.35,0 0.31,0 c 2.07,3.67 4.64,7.03 6.59,10.77 10.65,18.82 15.78,40.52 15.59,62.09 23.72,-5.21 49.32,-1.62 70.5,10.34 -7.49,1.27 -14.95,2.8 -22.18,5.18 -28.55,9.09 -53.64,28.05 -70.82,52.53 C 567.57,127.14 555.5,114.98 541.55,105.45 524.63,93.77 504.98,86.21 484.66,83.21 505.89,71.24 531.52,67.64 555.3,72.87 555.01,56.79 557.88,40.66 563.79,25.7 567.18,16.57 572.3,8.27 577.35,0 z"
       id="path5"
       style="fill:#700048" />
    <path
       d="m 222.68,347.16 c 12.91,-20.75 33.6,-36.51 57.03,-43.46 -22.71,30.5 -31.95,70.29 -25.73,107.74 -26.18,-4.38 -53.68,-1.32 -77.97,9.5 -9.84,4.26 -18.97,9.96 -27.62,16.25 6.69,-23.54 22.06,-44.58 42.66,-57.83 -18.19,-18.27 -30.78,-42.09 -34.79,-67.63 22.91,3.84 44.59,14.65 61.4,30.67 1.64,1.62 3.28,3.25 5.02,4.76 z"
       id="path7"
       style="fill:#700048" />
    <path
       d="m 869.65,305.65 c 23.51,6.82 44.05,22.76 57.08,43.41 17.65,-18.43 41.15,-31.25 66.39,-35.36 -4.06,25.43 -16.5,49.38 -34.89,67.41 20.61,13.41 36.05,34.43 42.78,58.07 -29.7,-22.87 -69,-32.57 -105.93,-26.1 6.22,-37.31 -2.72,-77.04 -25.43,-107.43 z"
       id="path9"
       style="fill:#700048" />
    <path
       d="m 296.75,445.96 c 32.55,11.32 63.28,27.46 92.33,45.92 31.98,20.51 61.6,44.74 87.73,72.33 26.93,28.18 51.83,58.55 71.86,92.08 8.14,13.58 15.29,27.72 21.88,42.11 2.56,5.26 4.72,10.76 7.97,15.66 7.59,-14.44 13.75,-29.59 21.68,-43.85 19.45,-35.98 44.82,-68.45 72.58,-98.36 48.21,-52.84 108.5,-94.57 174.8,-121.36 4.13,-1.62 8.27,-3.21 12.51,-4.54 C 766.08,541.22 672.11,636.53 578.05,731.75 484.31,636.46 390.46,541.27 296.75,445.96 z"
       id="path11"
       style="fill:#700048" />
  </g>
  <g
     id="#000000ff"
     transform="scale(0.11,0.11)">
    <path
       d="m 498.44,184.2 c 15.3,-0.05 30.62,0.06 45.93,-0.06 0.18,97.95 0,195.9 0.09,293.85 0.21,9.43 4.51,18.67 11.51,24.99 9.24,8.55 23.5,11.39 35.1,6.2 13.07,-5.31 21.75,-19.15 21.36,-33.2 0.02,-97.26 0.01,-194.52 0,-291.78 15.29,-0.03 30.58,0 45.87,-0.02 0.03,97.93 0,195.86 0.02,293.79 -0.09,20.54 -8.46,40.85 -22.69,55.63 -11.64,12.22 -27.17,20.69 -43.79,23.69 -16.98,3.24 -34.93,0.12 -50.15,-7.95 -21.47,-11.24 -37.14,-32.6 -41.71,-56.36 -2.05,-9.51 -1.47,-19.27 -1.54,-28.91 0,-93.29 0,-186.58 0,-279.87 z"
       id="path14"
       style="fill:#000000" />
    <path
       d="m 177.4,819.46 c 6.93,-2.77 14.87,4.28 13.06,11.49 -1.11,7.13 -10.67,10.57 -16.08,5.81 -6.09,-4.48 -4.21,-15.12 3.02,-17.3 z"
       id="path16"
       style="fill:#000000" />
    <path
       d="m 442.36,819.48 c 7.19,-2.95 15.36,4.73 13,12.09 -1.59,7.13 -11.5,9.89 -16.57,4.66 -5.4,-4.76 -3.28,-14.59 3.57,-16.75 z"
       id="path18"
       style="fill:#000000" />
    <path
       d="m 1001.29,819.46 c 6.91,-2.76 14.85,4.28 13.05,11.46 -1.11,7.46 -11.37,10.75 -16.63,5.37 -5.52,-4.73 -3.37,-14.73 3.58,-16.83 z"
       id="path20"
       style="fill:#000000" />
    <path
       d="m 0,821.03 c 14.56,-0.22 29.12,-0.05 43.68,-0.1 0,0.78 0,2.34 0,3.12 -3.41,0.46 -7.24,0.36 -10.11,2.56 -2.36,2.46 -2.24,6.22 -2.39,9.41 0.01,14.67 0,29.35 0.01,44.03 0.12,6.26 0.68,13 4.56,18.18 2.82,3.83 7.57,5.75 12.22,5.97 6.72,0.4 14.2,-1.1 18.83,-6.38 4.96,-5.66 5.75,-13.57 5.88,-20.78 0.02,-13.36 -0.01,-26.73 0.02,-40.09 -0.12,-3.4 -0.26,-7.31 -2.86,-9.82 -2.64,-2.32 -6.35,-2.48 -9.65,-3.08 0,-0.78 0,-2.33 0,-3.11 9.41,-0.02 18.83,-0.02 28.24,0 0,0.78 0.01,2.33 0.02,3.11 -2.97,0.94 -6.52,1.24 -8.7,3.7 -1.45,2.48 -1.33,5.49 -1.44,8.28 -0.01,13.99 0.02,27.97 0,41.96 -0.08,9.73 -3.04,20.16 -10.83,26.54 -4.89,3.52 -10.93,4.86 -16.59,6.47 l -8.13,0 c -8.89,-0.98 -18.6,-2.97 -24.86,-9.92 -6.04,-6.41 -7.38,-15.65 -7.22,-24.11 0.01,-14 0.01,-28.01 0.01,-42.01 -0.13,-2.7 -0.13,-5.68 -1.76,-7.95 C 6.56,824.73 3,824.79 0,823.99 l 0,-2.96 z"
       id="path22"
       style="fill:#000000" />
    <path
       d="m 680.08,820.94 c 9.24,-0.01 18.48,-0.03 27.73,0.01 0,24.65 0,49.31 0,73.96 0.07,2.18 0.1,4.94 2.17,6.28 2.05,1.31 6.16,0.48 5.47,4.14 -8.49,1.11 -17.07,1.85 -25.26,4.53 -0.01,-2.81 -0.01,-5.62 0,-8.41 -4.3,4.4 -9.76,8.35 -16.17,8.38 -8.6,0.63 -16.41,-5.15 -20.4,-12.41 -4.21,-7.76 -4.47,-16.99 -3.28,-25.54 1.05,-7.6 4.6,-15.02 10.65,-19.89 5.15,-4.32 12.48,-6 18.94,-4.03 3.93,1.2 6.91,4.18 9.76,7 -0.01,-7.66 -0.01,-15.31 0.01,-22.96 -0.06,-2.11 0.07,-4.55 -1.44,-6.22 -2.4,-1.62 -5.44,-1.44 -8.18,-1.81 0,-0.76 0,-2.27 0,-3.03 m -4.69,34.59 c -4.75,3.05 -5.7,9.22 -6.28,14.4 -0.48,7.49 -0.63,15.09 0.68,22.51 0.83,4.39 3.25,9.65 8.32,10.1 5.16,0.53 9.1,-3.83 11.37,-7.95 0.51,-9.85 0.03,-19.76 0.23,-29.64 1,-7.2 -8.09,-12.91 -14.32,-9.42 z"
       id="path24"
       style="fill:#000000" />
    <path
       d="m 810.08,820.93 c 15,0 29.99,-0.02 44.99,0.01 0,0.79 -0.01,2.37 -0.01,3.15 -3.56,0.4 -7.48,0.27 -10.56,2.36 -2.24,2.15 -2.3,5.58 -2.43,8.49 0,20.69 0,41.39 0,62.08 -0.27,2.81 1.19,6.04 4.31,6.36 8.87,1.41 18.59,0.33 26.26,-4.64 6.84,-4.69 10.51,-12.49 13.57,-19.92 0.94,0 2.81,-0.01 3.74,-0.01 -1.74,9.75 -3.48,19.5 -5.23,29.24 -24.88,0.04 -49.76,0.02 -74.64,0.02 0,-0.81 -0.01,-2.41 -0.01,-3.22 3.12,-0.38 6.74,-0.31 9.15,-2.67 1.89,-1.86 2.22,-4.65 2.23,-7.16 -0.02,-20.34 -0.02,-40.69 0,-61.04 0,-2.78 -0.42,-5.96 -2.8,-7.73 -2.46,-1.82 -5.69,-1.75 -8.58,-2.16 0,-0.79 0.01,-2.37 0.01,-3.16 z"
       id="path26"
       style="fill:#000000" />
    <path
       d="m 895.81,820.94 c 8.12,-0.02 16.24,-0.02 24.37,0 0.02,24.33 0.01,48.66 0,73 0.08,2.67 -0.17,5.48 0.87,8.02 1.18,1.91 3.59,2.3 5.51,3.19 0.02,0.69 0.07,2.08 0.09,2.77 -10.28,0.33 -20.56,0.07 -30.84,0.14 0.01,-0.74 0.02,-2.22 0.03,-2.96 2.92,-0.83 6.39,-2.42 6.1,-6.06 0.31,-16.65 0.04,-33.32 0.13,-49.97 -0.14,-6.72 0.29,-13.46 -0.22,-20.16 -0.01,-3.28 -3.51,-4.19 -6.01,-5 -0.01,-0.74 -0.03,-2.23 -0.03,-2.97 z"
       id="path28"
       style="fill:#000000" />
    <path
       d="m 1056.21,820.93 c 9.24,0.01 18.47,-0.02 27.71,0.01 0.02,24.02 0.01,48.05 0,72.08 0.09,2.29 -0.06,4.76 1.01,6.89 1.33,2.25 4.25,2.17 6.5,2.78 -0.01,0.92 0,1.86 0.02,2.82 -8.49,0.73 -16.97,1.82 -25.13,4.36 -0.01,-2.79 -0.02,-5.57 -0.02,-8.34 -4.32,4.41 -9.81,8.34 -16.25,8.3 -8.6,0.53 -16.38,-5.26 -20.32,-12.57 -3.96,-7.43 -4.36,-16.22 -3.33,-24.42 0.9,-7.41 3.96,-14.76 9.61,-19.81 5.18,-5.04 13.1,-7.21 20.06,-5.07 4.01,1.17 7.01,4.23 9.86,7.13 -0.01,-7.69 0,-15.38 0.01,-23.07 -0.11,-2.17 0.03,-4.7 -1.61,-6.36 -2.46,-1.47 -5.45,-1.35 -8.18,-1.75 0.02,-0.75 0.05,-2.24 0.06,-2.98 m -4.03,34.31 c -3.19,1.48 -4.83,4.9 -5.72,8.12 -1.98,8.04 -1.7,16.46 -1.11,24.66 0.55,5.11 1.59,11.52 6.75,13.99 5.91,2.34 11.62,-2.88 13.73,-8 0.17,-10.69 0.16,-21.39 0,-32.07 -1.62,-5.45 -8.26,-9.11 -13.65,-6.7 z"
       id="path30"
       style="fill:#000000" />
    <path
       d="m 466.88,849.87 c 7.75,-6.68 14.62,-14.41 20.15,-23.02 0.82,-0.01 2.45,-0.04 3.27,-0.05 0.03,7.29 0,14.59 0.02,21.88 4.08,0 8.16,0 12.24,0.01 -0.01,1.86 -0.01,3.73 0,5.62 -4.08,0 -8.17,0 -12.24,0.01 -0.02,12.22 0.02,24.44 -0.03,36.67 0.02,2.53 -0.08,5.27 1.31,7.52 1.4,2.42 5.03,2.51 7.08,0.92 1.86,-1.48 2.98,-3.64 4.26,-5.59 1.02,0.46 2.06,0.92 3.09,1.4 -2.59,6.16 -7.19,12.11 -13.95,13.86 -5.41,1.3 -11.84,0.77 -16.05,-3.23 -2.63,-2.53 -3.48,-6.31 -3.47,-9.83 -0.01,-13.91 0,-27.81 0,-41.72 -2.24,-0.01 -4.47,-0.02 -6.7,-0.02 0.23,-1.5 -0.45,-3.42 1.02,-4.43 z"
       id="path32"
       style="fill:#000000" />
    <path
       d="m 573.3,850.75 c 8.38,-6.84 15.33,-15.21 21.49,-24.06 0.75,0.04 2.26,0.13 3.02,0.17 0.08,7.3 -0.16,14.6 0.13,21.89 4.04,-0.11 8.08,-0.07 12.12,-0.05 0,1.85 0,3.72 0.01,5.6 -4.12,0.08 -8.25,-0.15 -12.35,0.17 0.24,13.18 -0.02,26.36 0.12,39.54 -0.09,2.94 1.66,6.87 5.18,6.46 3.83,-0.04 5.58,-3.91 7.38,-6.66 1.02,0.46 2.05,0.92 3.09,1.39 -2.36,5.58 -6.22,10.97 -12.05,13.26 -5.08,1.9 -11.14,1.81 -15.87,-0.97 -3.64,-2.11 -5.55,-6.36 -5.49,-10.46 -0.07,-14.25 0.08,-28.49 -0.07,-42.73 -2.23,0.01 -4.47,0 -6.69,0.01 -0.01,-0.89 -0.02,-2.67 -0.02,-3.56 z"
       id="path34"
       style="fill:#000000" />
    <path
       d="m 131.46,847.67 c 6.08,-1.22 13.21,-0.46 17.82,4.07 3.55,3.76 4.15,9.23 4.28,14.18 0.02,10.36 0,20.72 -0.01,31.08 0.11,2.04 -0.12,4.39 1.27,6.08 1.37,1.29 3.36,1.45 5.09,2 0,0.74 0.01,2.24 0.02,2.99 -10.09,0 -20.18,0 -30.27,0 0.03,-0.76 0.07,-2.27 0.09,-3.02 1.69,-0.64 3.73,-0.87 4.97,-2.33 1.1,-2.04 0.91,-4.44 0.98,-6.67 -0.07,-10.37 0.06,-20.74 -0.05,-31.11 -0.07,-3.37 -0.89,-7.82 -4.68,-8.81 -5.32,-1.52 -10.08,2.86 -12.57,7.11 -0.23,10.9 0,21.82 -0.1,32.72 0.1,2.25 -0.14,4.7 1.01,6.76 1.2,1.48 3.3,1.66 4.97,2.35 0.01,0.75 0.03,2.24 0.03,2.99 -10.33,-0.01 -20.67,0.08 -31.01,-0.05 0,-0.71 0.01,-2.15 0.02,-2.87 3.18,-0.58 6.91,-2.24 6.72,-6.08 0.37,-12.67 0.02,-25.37 0.17,-38.05 -0.14,-2.53 0.2,-5.52 -1.71,-7.47 -1.51,-1.2 -3.5,-1.39 -5.28,-1.91 0.1,-1.01 0.18,-2.02 0.24,-3.01 8.03,0.1 16.07,0.13 24.09,-0.02 0.15,2.92 0.17,5.84 0.2,8.78 3.73,-4.22 8.02,-8.45 13.71,-9.71 z"
       id="path36"
       style="fill:#000000" />
    <path
       d="m 269.63,861.67 c 4.17,-8.35 13,-14.35 22.41,-14.49 7.99,-0.44 16.05,3.62 20.39,10.35 3.68,5.56 4.39,12.41 4.96,18.89 -11,0.05 -22,-0.01 -32.99,0.03 0.59,6.71 1.58,13.89 5.79,19.41 3.63,4.75 10.64,5.8 15.9,3.35 3.55,-1.59 6.2,-4.52 8.86,-7.26 0.98,0.59 1.96,1.2 2.96,1.81 -3.71,5.83 -8.47,11.42 -14.99,14.14 -8.54,3.53 -18.91,2.29 -26.12,-3.59 -5.86,-4.08 -9.12,-10.93 -10.06,-17.86 -1.11,-8.29 -0.85,-17.14 2.89,-24.78 M 286.82,855 c -2.36,5.2 -2.41,11.08 -2.69,16.69 5.79,-0.03 11.58,0.05 17.38,-0.06 -0.35,-5.66 -0.08,-11.57 -2.26,-16.91 -2.25,-4.94 -10.33,-4.66 -12.43,0.28 z"
       id="path38"
       style="fill:#000000" />
    <path
       d="m 357.18,849.16 c 4.13,-2.39 9.75,-2.94 13.81,-0.11 5.09,3.03 5.61,11.23 1.16,15.04 -3,2.57 -7.93,2.27 -10.69,-0.5 -1.92,-1.73 -3.17,-4.23 -5.5,-5.45 -5.12,0.51 -7.86,6.18 -7.92,10.85 -0.27,7.98 -0.03,15.98 -0.12,23.98 0.16,3.19 -0.2,6.74 1.56,9.59 2.06,1.91 5.09,1.94 7.7,2.48 0,0.76 0,2.27 0,3.02 -11.45,0.01 -22.91,0.02 -34.36,0 0,-0.74 0.01,-2.22 0.01,-2.96 2.13,-0.67 5.08,-0.78 6.07,-3.18 0.81,-2.23 0.72,-4.65 0.79,-6.98 0,-11.67 -0.02,-23.35 0.01,-35.02 -0.06,-2.12 0.08,-4.53 -1.4,-6.23 -1.51,-1.34 -3.63,-1.47 -5.47,-2.01 0,-0.75 -0.01,-2.24 -0.02,-2.98 8.16,-0.02 16.33,-0.02 24.49,0 0.01,3.38 0.02,6.76 0,10.16 2.88,-3.61 5.91,-7.25 9.88,-9.7 z"
       id="path40"
       style="fill:#000000" />
    <path
       d="m 385.64,853.48 c 4.12,-5.08 11.08,-6.79 17.37,-6.24 4.46,0.16 8.56,2.36 13.01,2.57 1.53,-0.01 2.23,-1.62 3.18,-2.55 0.59,0.02 1.77,0.06 2.36,0.07 0.01,6.19 -0.02,12.38 0.02,18.57 -1.08,-0.02 -2.15,-0.02 -3.22,0.01 -1.74,-5.8 -5.34,-11.72 -11.37,-13.74 -4.2,-1.41 -10.15,-0.91 -12.1,3.71 -1.85,3.35 0.03,7.34 2.91,9.4 7.44,5.45 17.58,7.06 23.5,14.57 7.49,9.83 1.54,26.08 -10.33,29.13 -7.41,2.21 -15.02,-0.06 -22.01,-2.57 -2.56,-1.14 -3.83,1.78 -4.99,3.44 -0.72,-0.01 -2.16,-0.03 -2.88,-0.03 -0.04,-7.09 -0.02,-14.18 -0.01,-21.27 1.17,0.01 2.35,0.02 3.53,0.04 1.05,4.3 2.49,8.79 5.81,11.91 4.6,4.34 11.84,6.42 17.77,3.69 4.91,-2.67 4.92,-10.57 0.32,-13.56 -7.37,-4.81 -16.49,-6.94 -22.76,-13.4 -6.24,-6.29 -5.96,-17.3 -0.11,-23.75 z"
       id="path42"
       style="fill:#000000" />
    <path
       d="m 517.73,852.68 c 7.42,-5.59 17.31,-6.24 26.21,-5 4.66,0.8 9.44,2.19 13.15,5.25 3.69,3.23 5.06,8.33 5.1,13.09 0,10 0,19.99 -0.02,29.99 0.13,1.83 -0.26,4.17 1.47,5.43 1.63,0.9 3,-0.75 4.33,-1.45 0.57,0.95 1.17,1.91 1.77,2.88 -4.73,5.08 -11.96,8.56 -18.93,6.35 -3.7,-1.01 -5.47,-4.72 -6.17,-8.17 -5.28,5.05 -12.24,8.65 -19.65,8.79 -4.43,0.17 -8.91,-1.62 -11.98,-4.8 -3.3,-3.82 -3.63,-9.49 -2.13,-14.13 1.75,-5.23 6.6,-8.51 11.36,-10.76 7.17,-3.54 14.83,-5.91 22.45,-8.24 -0.33,-5.4 0.95,-11.18 -1.41,-16.25 -2.27,-4.35 -7.94,-4.63 -12.23,-4.06 -2.49,0.34 -6.3,2.22 -5.1,5.32 2.03,2.88 4.64,6.26 3.07,10 -2.37,6.7 -13.35,6.39 -15.94,0.02 -1.86,-5.1 0.3,-11.14 4.65,-14.26 m 11.88,34.78 c -1.49,4.25 -1.3,10.42 3.23,12.75 4.52,1.73 9,-1.55 11.66,-4.98 -0.15,-6.29 0,-12.57 -0.09,-18.86 -5.99,1.72 -12.42,4.93 -14.8,11.09 z"
       id="path44"
       style="fill:#000000" />
    <path
       d="m 724.27,862.26 c 4.03,-8.66 13.06,-14.94 22.69,-15.08 8.25,-0.46 16.59,3.9 20.82,11.01 3.29,5.47 4.03,11.99 4.5,18.23 -10.99,0.04 -21.97,0 -32.95,0.02 0.56,6.73 1.6,13.9 5.79,19.43 3.65,4.76 10.69,5.8 15.96,3.31 3.54,-1.61 6.16,-4.57 8.89,-7.25 0.93,0.62 1.89,1.23 2.85,1.85 -3.68,5.81 -8.42,11.35 -14.89,14.09 -8.55,3.56 -18.95,2.36 -26.18,-3.55 -5.66,-3.95 -8.96,-10.48 -9.97,-17.19 -1.26,-8.29 -1.06,-17.14 2.49,-24.87 m 17.5,-7.3 c -2.35,5.22 -2.43,11.1 -2.74,16.72 5.77,0.01 11.54,0.01 17.32,0 -0.18,-5.65 -0.01,-11.55 -2.14,-16.87 -2.16,-5.01 -10.31,-4.78 -12.44,0.15 z"
       id="path46"
       style="fill:#000000" />
    <path
       d="m 934.55,864.93 c 3.32,-9.87 12.93,-17.43 23.44,-17.74 8.26,-0.57 16.73,3.68 21.03,10.8 3.41,5.5 4.14,12.11 4.64,18.43 -11,0.08 -21.99,-0.06 -32.98,0.07 0.6,6.6 1.58,13.61 5.6,19.1 3.25,4.53 9.56,5.92 14.7,4.17 4.2,-1.36 7.29,-4.7 10.24,-7.82 0.97,0.62 1.96,1.26 2.96,1.9 -3.41,5.26 -7.55,10.32 -13.2,13.25 -8.47,4.29 -19.34,3.65 -26.98,-2.12 -5.34,-3.53 -9.03,-9.19 -10.36,-15.43 -1.72,-8.08 -1.76,-16.72 0.91,-24.61 m 18.92,-10.53 c -2.77,5.26 -2.66,11.44 -3.13,17.23 5.79,0.11 11.58,0.04 17.38,0.05 -0.22,-5.73 0.04,-11.75 -2.26,-17.12 -2.21,-4.55 -9.58,-4.51 -11.99,-0.16 z"
       id="path48"
       style="fill:#000000" />
    <path
       d="m 1105.49,852.57 c 7.66,-5.64 17.83,-6.19 26.93,-4.75 5.7,1.14 12.12,3.16 15.12,8.6 3.1,5.68 2.24,12.38 2.39,18.61 0.05,7.96 -0.13,15.95 0.15,23.91 0.04,2.14 2.26,3.97 4.11,2.21 1.33,-1.42 2.69,0.13 3.81,0.99 l 0,0.52 c -4.77,4.04 -10.39,8.22 -17.07,7.08 -4.78,-0.09 -7.88,-4.26 -8.75,-8.59 -5.19,4.88 -11.93,8.42 -19.14,8.68 -4.26,0.26 -8.57,-1.29 -11.73,-4.12 -3.69,-3.46 -4.28,-9.13 -3.11,-13.81 1.19,-4.74 5.05,-8.24 9.22,-10.48 7.82,-4.25 16.37,-6.92 24.87,-9.47 -0.21,-5.26 0.82,-10.81 -1.15,-15.83 -2.18,-4.9 -8.51,-5.24 -13.08,-4.39 -2.29,0.4 -5.72,2.4 -4.39,5.16 1.78,2.97 4.55,6.16 3.02,9.88 -2.22,6.74 -13.04,6.62 -15.86,0.43 -2.1,-5.19 0.16,-11.47 4.66,-14.63 m 11.56,35.45 c -1.29,4.21 -0.92,10.28 3.7,12.29 4.33,1.38 9.07,-1.54 11.23,-5.23 0.23,-6.22 0.02,-12.45 0.08,-18.67 -6.18,1.68 -12.88,5.12 -15.01,11.61 z"
       id="path50"
       style="fill:#000000" />
    <path
       d="m 165.07,848.7 c 8.24,-0.03 16.49,-0.02 24.74,-0.01 0.01,16.43 0,32.86 -0.01,49.29 0.12,1.85 -0.06,4.27 1.7,5.46 1.31,0.71 2.76,1.16 4.17,1.69 0.03,0.7 0.07,2.11 0.1,2.81 -10.23,0.29 -20.47,0.06 -30.7,0.13 0.01,-0.75 0.02,-2.25 0.02,-3 3.22,-0.47 6.53,-2.47 6.38,-6.13 0.13,-13.94 0.2,-27.9 -0.04,-41.83 0.1,-3.56 -3.52,-4.79 -6.35,-5.41 0,-0.75 -0.01,-2.25 -0.01,-3 z"
       id="path52"
       style="fill:#000000" />
    <path
       d="m 200.82,848.7 c 10.75,-0.02 21.49,-0.03 32.24,0 0,0.75 0.01,2.24 0.01,2.98 -2.14,0.5 -4.89,0.06 -6.46,1.91 -0.93,1.7 0.16,3.53 0.67,5.18 3.38,8.45 6.61,16.96 10.02,25.41 2.41,-2.26 2.7,-5.89 4.16,-8.73 2.24,-6.49 5.75,-12.62 6.83,-19.44 0.4,-4.05 -4.39,-3.99 -7.14,-4.35 0.01,-0.74 0.04,-2.23 0.06,-2.97 6.45,-0.03 12.91,0.04 19.36,-0.05 0.05,0.97 0.11,1.94 0.2,2.92 -3.37,0.59 -5.94,3.01 -7.06,6.2 -7.09,17.31 -14.16,34.63 -21.14,52 -1.13,0 -2.25,0.03 -3.38,0.08 -6.76,-16.28 -12.98,-32.78 -20.11,-48.91 -1.95,-3.67 -3.29,-9.01 -8.26,-9.32 0,-0.73 0,-2.18 0,-2.91 z"
       id="path54"
       style="fill:#000000" />
    <path
       d="m 430.08,848.7 c 8.24,-0.03 16.48,-0.01 24.73,-0.01 0.1,17.12 -0.19,34.26 0.14,51.38 -0.18,3.34 3.28,4.27 5.84,5.02 0.01,0.73 0.03,2.2 0.04,2.94 -10.25,0.09 -20.5,0.02 -30.76,0.03 0.01,-0.74 0.02,-2.23 0.02,-2.97 2.95,-0.54 6.26,-2.06 6.33,-5.54 0.35,-12.83 0.01,-25.69 0.16,-38.53 -0.08,-2.26 0.22,-4.71 -0.99,-6.72 -1.34,-1.69 -3.63,-1.95 -5.52,-2.63 0,-0.74 0,-2.23 0.01,-2.97 z"
       id="path56"
       style="fill:#000000" />
    <path
       d="m 988.91,848.7 c 8.21,-0.08 16.42,0.1 24.64,-0.1 0.4,17.12 -0.11,34.27 0.25,51.4 -0.24,3.42 3.31,4.32 5.88,5.15 0.01,0.71 0.04,2.12 0.06,2.83 -10.27,0.2 -20.54,0.04 -30.81,0.08 0.01,-0.75 0.02,-2.23 0.02,-2.98 3.2,-0.54 6.61,-2.41 6.39,-6.17 0.26,-12.62 0,-25.26 0.12,-37.89 -0.12,-2.42 0.25,-5.21 -1.42,-7.18 -1.4,-1.27 -3.36,-1.56 -5.06,-2.13 -0.02,-0.75 -0.06,-2.26 -0.07,-3.01 z"
       id="path58"
       style="fill:#000000" />
  </g>
</svg>
