<?xml version="1.0" encoding="UTF-8"?>
<svg id="Layer_1" xmlns="http://www.w3.org/2000/svg" viewBox="0 0 255.12 255.12">
  <defs>
    <style>
      .cls-1 {
        fill: #0f285a;
      }
    </style>
  </defs>
  <g>
    <g>
      <path class="cls-1" d="M91.38,151.77c0-7.59,5.78-13.42,13.37-13.42s13.42,5.83,13.42,13.42-5.73,13.42-13.42,13.42-13.37-5.68-13.37-13.42ZM115.36,151.77c0-6.16-4.59-10.89-10.6-10.89s-10.56,4.73-10.56,10.89,4.54,10.84,10.56,10.84,10.6-4.63,10.6-10.84Z"/>
      <path class="cls-1" d="M122.72,151.77c0-7.64,5.92-13.42,13.47-13.42,5.64,0,10.22,3.2,12.18,7.83l-2.53,1.1c-1.72-3.92-5.21-6.4-9.7-6.4-5.97,0-10.6,4.87-10.6,10.89s4.68,10.89,10.75,10.89c4.63,0,8.02-2.87,9.65-6.69l2.58,1.1c-2.01,4.78-6.35,8.12-12.27,8.12-7.69,0-13.52-5.97-13.52-13.42Z"/>
      <path class="cls-1" d="M152.48,151.92c0-7.64,5.68-13.56,13.56-13.56,7.45,0,12.99,5.44,12.99,13.13v1.39h-23.93c.43,5.68,4.78,9.84,10.89,9.84,4.63,0,7.79-1.96,9.79-5.73l2.44,1.34c-2.82,4.54-6.5,6.88-12.18,6.88-8.36,0-13.56-5.68-13.56-13.28ZM155.2,150.34h21.02c-.48-5.64-4.39-9.5-10.17-9.5s-10.13,4.11-10.84,9.5Z"/>
      <path class="cls-1" d="M183.04,157.65c0-5.3,4.59-8.17,11.8-8.17h8.74v-1.58c0-4.39-3.01-7.21-8.41-7.21-4.35,0-6.97,1.58-9.08,4.54l-2.2-1.67c2.67-3.25,6.11-5.21,11.27-5.21,7.31,0,11.03,4.06,11.03,9.41v16.91h-2.67v-4.59c-2.48,3.2-6.73,5.06-11.22,5.06-6.4,0-9.27-3.53-9.27-7.5ZM203.58,156.6v-4.87h-8.69c-5.92,0-9.03,1.96-9.03,5.78,0,2.87,2.05,5.3,6.73,5.3,4.11,0,8.6-1.91,10.99-6.21Z"/>
      <path class="cls-1" d="M212.76,138.88h2.58v5.11c1.72-3.3,5.25-5.64,9.74-5.64,6.93,0,11.37,4.49,11.37,11.89v14.42h-2.72v-14.42c0-5.64-3.3-9.36-9.03-9.36-5.25,0-9.27,4.06-9.27,9.41v14.38h-2.67v-25.79Z"/>
    </g>
    <g>
      <path class="cls-1" d="M91.49,174.22h11.82v1.32h-10.42v6.79h10.42v1.3h-10.42v6.84h10.42v1.32h-11.82v-17.57Z"/>
      <path class="cls-1" d="M106.78,174.22h1.54l11.1,15.5v-15.5h1.35v17.57h-1.49l-11.14-15.57v15.57h-1.35v-17.57Z"/>
      <path class="cls-1" d="M129.53,175.5h-5.73v-1.28h12.85v1.28h-5.75v16.29h-1.37v-16.29Z"/>
      <path class="cls-1" d="M139.69,174.22h11.82v1.32h-10.42v6.79h10.42v1.3h-10.42v6.84h10.42v1.32h-11.82v-17.57Z"/>
      <path class="cls-1" d="M154.97,174.22h7.12c3.3,0,5.78,2.46,5.78,5.49,0,2.33-1.52,4.43-3.85,5.15l3.95,6.93h-1.56l-3.66-6.55h-6.38v6.55h-1.4v-17.57ZM156.37,175.5v8.47h5.61c2.67,0,4.5-2.05,4.5-4.26,0-2.38-1.83-4.21-4.48-4.21h-5.63Z"/>
      <path class="cls-1" d="M171.15,174.22h6.4c3.95,0,6.47,2.62,6.47,6.09s-2.58,6.11-6.45,6.11h-5.03v5.37h-1.4v-17.57ZM172.55,175.5v9.63h4.96c3.22,0,5.1-2.09,5.1-4.81s-1.9-4.81-5.13-4.81h-4.93Z"/>
      <path class="cls-1" d="M187.28,174.22h7.12c3.3,0,5.78,2.46,5.78,5.49,0,2.33-1.52,4.43-3.85,5.15l3.95,6.93h-1.56l-3.66-6.55h-6.38v6.55h-1.4v-17.57ZM188.68,175.5v8.47h5.61c2.67,0,4.5-2.05,4.5-4.26,0-2.38-1.83-4.21-4.48-4.21h-5.63Z"/>
      <path class="cls-1" d="M203.65,174.22h1.37v17.57h-1.37v-17.57Z"/>
      <path class="cls-1" d="M207.65,188.42l1.18-.91c1.37,2.12,3.44,3.25,6.33,3.25s4.72-1.56,4.72-3.88c0-2.58-2.72-3.06-5.66-3.68-2.74-.58-5.58-1.3-5.58-4.52,0-2.65,2.21-4.69,5.78-4.69,3.13,0,5.13,1.35,6.5,3.2l-1.11.84c-1.13-1.76-2.84-2.82-5.39-2.82-2.96,0-4.4,1.4-4.4,3.42,0,2.43,2.07,2.77,4.89,3.39,2.84.6,6.38,1.44,6.38,4.84,0,2.82-2.48,5.17-6.11,5.17s-5.9-1.42-7.51-3.61Z"/>
      <path class="cls-1" d="M224.52,174.22h11.82v1.32h-10.42v6.79h10.42v1.3h-10.42v6.84h10.42v1.32h-11.82v-17.57Z"/>
    </g>
  </g>
  <g>
    <circle class="cls-1" cx="36.57" cy="131.88" r="7.02"/>
    <circle class="cls-1" cx="31.13" cy="154.4" r="7.02"/>
    <circle class="cls-1" cx="25.7" cy="177.04" r="7.02"/>
    <circle class="cls-1" cx="53.36" cy="130.31" r="5.52"/>
    <circle class="cls-1" cx="49.09" cy="148.01" r="5.52"/>
    <circle class="cls-1" cx="44.82" cy="165.81" r="5.52"/>
    <circle class="cls-1" cx="110.55" cy="81.29" r="5.52"/>
    <circle class="cls-1" cx="106.27" cy="98.99" r="5.52"/>
    <circle class="cls-1" cx="102" cy="116.79" r="5.52"/>
    <circle class="cls-1" cx="67.75" cy="127.42" r="3.88"/>
    <circle class="cls-1" cx="64.75" cy="139.86" r="3.88"/>
    <circle class="cls-1" cx="61.75" cy="152.36" r="3.88"/>
    <circle class="cls-1" cx="93.61" cy="94.69" r="3.88"/>
    <circle class="cls-1" cx="90.61" cy="107.12" r="3.88"/>
    <circle class="cls-1" cx="87.61" cy="119.63" r="3.88"/>
    <circle class="cls-1" cx="77.71" cy="124.42" r="1.79"/>
    <circle class="cls-1" cx="75.6" cy="133.07" r="1.79"/>
    <circle class="cls-1" cx="81.85" cy="107.13" r="1.79"/>
    <circle class="cls-1" cx="79.75" cy="115.78" r="1.79"/>
    <circle class="cls-1" cx="73.41" cy="141.71" r="1.79"/>
    <circle class="cls-1" cx="129.67" cy="70.11" r="7.02"/>
    <circle class="cls-1" cx="124.24" cy="92.63" r="7.02"/>
    <circle class="cls-1" cx="118.8" cy="115.27" r="7.02"/>
  </g>
</svg>