<svg width="44" height="44" viewBox="0 0 44 44" fill="none" xmlns="http://www.w3.org/2000/svg">
<path d="M24.7945 0.0625096C24.2932 0.0352177 23.7915 0.106894 23.3179 0.273447C22.8668 0.424311 22.4499 0.662996 22.0914 0.975737C21.7329 1.28848 21.4399 1.66909 21.2292 2.09563C21.0185 2.52216 20.8944 2.98619 20.8639 3.46094C20.8334 3.93569 20.8972 4.41178 21.0516 4.86176L22.5805 9.34376L13.9321 12.2446L12.5078 7.91951C12.3569 7.46833 12.1183 7.05149 11.8055 6.693C11.4928 6.33452 11.1122 6.04148 10.6856 5.8308C10.2591 5.62012 9.79506 5.49596 9.32031 5.46548C8.84556 5.435 8.36947 5.4988 7.91949 5.6532C6.00755 6.29107 4.95962 8.33632 5.59918 10.2398L7.02343 14.5109L2.54143 16.0414C0.634554 16.681 -0.366133 18.7752 0.273429 20.6821C0.424122 21.1334 0.662682 21.5504 0.97535 21.9091C1.28802 22.2678 1.66861 22.561 2.09516 22.7718C2.52171 22.9827 2.98579 23.107 3.46063 23.1376C3.93546 23.1682 4.41166 23.1044 4.86174 22.9501L9.34374 21.4735L12.2446 30.0679L7.91949 31.4922C7.46832 31.6431 7.05147 31.8817 6.69298 32.1945C6.3345 32.5072 6.04147 32.8878 5.83079 33.3144C5.62011 33.7409 5.49595 34.2049 5.46546 34.6797C5.43498 35.1544 5.49878 35.6305 5.65318 36.0805C6.29105 37.9925 8.3363 39.0404 10.2398 38.4008L14.5109 36.9766L16.0414 41.4586C16.681 43.3655 18.7752 44.3661 20.6821 43.7266C21.1334 43.5759 21.5504 43.3373 21.9091 43.0247C22.2677 42.712 22.561 42.3314 22.7718 41.9048C22.9826 41.4783 23.107 41.0142 23.1375 40.5394C23.1681 40.0645 23.1044 39.5883 22.9501 39.1383L21.4735 34.6563L30.0679 31.7554L31.4922 36.0805C31.643 36.5317 31.8817 36.9485 32.1945 37.307C32.5072 37.6655 32.8878 37.9585 33.3144 38.1692C33.7409 38.3799 34.2049 38.5041 34.6797 38.5345C35.1544 38.565 35.6305 38.5012 36.0805 38.3468C37.9924 37.709 39.0404 35.6637 38.4008 33.7602L36.9766 29.4874L41.4586 27.9586C43.3654 27.319 44.3661 25.2248 43.7266 23.3179C43.5757 22.8668 43.337 22.4499 43.0243 22.0914C42.7115 21.733 42.3309 21.4399 41.9044 21.2292C41.4778 21.0186 41.0138 20.8944 40.5391 20.8639C40.0643 20.8334 39.5882 20.8972 39.1382 21.0516L34.6562 22.5265L31.7554 13.9321L36.0805 12.5078C36.5317 12.357 36.9485 12.1183 37.307 11.8055C37.6655 11.4928 37.9585 11.1122 38.1692 10.6856C38.3799 10.2591 38.504 9.79508 38.5345 9.32033C38.565 8.84558 38.5012 8.36949 38.3468 7.91951C37.7089 6.01432 35.6637 4.95964 33.7602 5.5992L29.4874 7.02345L27.9586 2.54145C27.7332 1.86299 27.3129 1.266 26.7501 0.825101C26.1874 0.384202 25.5072 0.118953 24.7945 0.0625096ZM24.8485 16.2524L27.7476 24.8485L19.1532 27.7476L16.2507 19.1532L24.8485 16.2524Z" fill="white"/>
</svg>
