<svg width="48" height="48" viewBox="0 0 48 48" fill="none" xmlns="http://www.w3.org/2000/svg">
<circle cx="24" cy="24" r="24" fill="#E5E7EB"/>
<path fill-rule="evenodd" clip-rule="evenodd" d="M16.08 13.8176C16.38 14.1176 16.5485 14.5245 16.5485 14.9488C16.5485 15.373 16.38 15.7799 16.08 16.08C15.0399 17.12 14.2148 18.3547 13.6519 19.7137C13.0889 21.0726 12.7992 22.5291 12.7992 24C12.7992 25.4709 13.0889 26.9274 13.6519 28.2863C14.2148 29.6452 15.0399 30.8799 16.08 31.92C16.2328 32.0676 16.3547 32.2441 16.4386 32.4393C16.5224 32.6345 16.5666 32.8445 16.5684 33.0569C16.5703 33.2694 16.5298 33.4801 16.4493 33.6767C16.3689 33.8733 16.2501 34.052 16.0998 34.2022C15.9496 34.3524 15.771 34.4712 15.5743 34.5517C15.3777 34.6321 15.167 34.6726 14.9546 34.6708C14.7421 34.6689 14.5322 34.6248 14.337 34.5409C14.1418 34.4571 13.9652 34.3352 13.8176 34.1824C12.4804 32.8452 11.4197 31.2578 10.696 29.5107C9.97236 27.7636 9.59988 25.891 9.59988 24C9.59988 22.1089 9.97236 20.2364 10.696 18.4893C11.4197 16.7422 12.4804 15.1547 13.8176 13.8176C14.1177 13.5176 14.5245 13.3491 14.9488 13.3491C15.3731 13.3491 15.78 13.5176 16.08 13.8176ZM31.92 13.8176C32.2201 13.5176 32.6269 13.3491 33.0512 13.3491C33.4755 13.3491 33.8824 13.5176 34.1824 13.8176C35.5196 15.1547 36.5803 16.7422 37.304 18.4893C38.0277 20.2364 38.4001 22.1089 38.4001 24C38.4001 25.891 38.0277 27.7636 37.304 29.5107C36.5803 31.2578 35.5196 32.8452 34.1824 34.1824C34.0348 34.3352 33.8583 34.4571 33.6631 34.5409C33.4678 34.6248 33.2579 34.6689 33.0455 34.6708C32.833 34.6726 32.6223 34.6321 32.4257 34.5517C32.229 34.4712 32.0504 34.3524 31.9002 34.2022C31.7499 34.052 31.6311 33.8733 31.5507 33.6767C31.4702 33.4801 31.4298 33.2694 31.4316 33.0569C31.4335 32.8445 31.4776 32.6345 31.5614 32.4393C31.6453 32.2441 31.7672 32.0676 31.92 31.92C32.9601 30.8799 33.7852 29.6452 34.3482 28.2863C34.9111 26.9274 35.2008 25.4709 35.2008 24C35.2008 22.5291 34.9111 21.0726 34.3482 19.7137C33.7852 18.3547 32.9601 17.12 31.92 16.08C31.6201 15.7799 31.4516 15.373 31.4516 14.9488C31.4516 14.5245 31.6201 14.1176 31.92 13.8176ZM20.6064 18.3424C20.9064 18.6424 21.0749 19.0493 21.0749 19.4736C21.0749 19.8978 20.9064 20.3047 20.6064 20.6048C20.1606 21.0505 19.807 21.5797 19.5657 22.1621C19.3244 22.7445 19.2002 23.3688 19.2002 23.9992C19.2002 24.6296 19.3244 25.2538 19.5657 25.8362C19.807 26.4187 20.1606 26.9478 20.6064 27.3936C20.755 27.5422 20.8728 27.7187 20.9531 27.9129C21.0335 28.1071 21.0748 28.3152 21.0747 28.5253C21.0747 28.7355 21.0332 28.9436 20.9527 29.1377C20.8722 29.3319 20.7543 29.5082 20.6056 29.6568C20.457 29.8053 20.2805 29.9231 20.0863 30.0035C19.8921 30.0839 19.684 30.1252 19.4738 30.1251C19.2637 30.125 19.0556 30.0836 18.8615 30.0031C18.6673 29.9226 18.491 29.8046 18.3424 29.656C16.8426 28.1558 16.0001 26.1213 16.0001 24C16.0001 21.8787 16.8426 19.8442 18.3424 18.344C18.491 18.1952 18.6675 18.0772 18.8617 17.9967C19.0559 17.9162 19.2641 17.8747 19.4744 17.8747C19.6847 17.8747 19.8929 17.9162 20.0871 17.9967C20.2814 18.0772 20.4578 18.1952 20.6064 18.344V18.3424ZM27.3936 18.3424C27.5422 18.1936 27.7187 18.0756 27.9129 17.9951C28.1071 17.9146 28.3153 17.8731 28.5256 17.8731C28.7359 17.8731 28.9441 17.9146 29.1383 17.9951C29.3326 18.0756 29.509 18.1936 29.6576 18.3424C30.4007 19.0853 30.9902 19.9673 31.3923 20.938C31.7945 21.9088 32.0015 22.9492 32.0015 24C32.0015 25.0507 31.7945 26.0912 31.3923 27.0619C30.9902 28.0327 30.4007 28.9147 29.6576 29.6576C29.3574 29.9578 28.9502 30.1265 28.5256 30.1265C28.101 30.1265 27.6938 29.9578 27.3936 29.6576C27.0934 29.3574 26.9247 28.9502 26.9247 28.5256C26.9247 28.101 27.0934 27.6938 27.3936 27.3936C28.2935 26.4934 28.799 25.2728 28.799 24C28.799 22.7272 28.2935 21.5065 27.3936 20.6064C27.2448 20.4578 27.1268 20.2813 27.0463 20.0871C26.9658 19.8928 26.9244 19.6846 26.9244 19.4744C26.9244 19.2641 26.9658 19.0559 27.0463 18.8617C27.1268 18.6674 27.2448 18.491 27.3936 18.3424ZM24 22.4C24.4244 22.4 24.8313 22.5686 25.1314 22.8686C25.4314 23.1687 25.6 23.5756 25.6 24V24.016C25.6 24.4403 25.4314 24.8473 25.1314 25.1474C24.8313 25.4474 24.4244 25.616 24 25.616C23.5757 25.616 23.1687 25.4474 22.8686 25.1474C22.5686 24.8473 22.4 24.4403 22.4 24.016V24C22.4 23.5756 22.5686 23.1687 22.8686 22.8686C23.1687 22.5686 23.5757 22.4 24 22.4Z" fill="#1F2937"/>
</svg>
