<?xml version="1.0" encoding="UTF-8" standalone="no"?>
<svg
   xmlns:dc="http://purl.org/dc/elements/1.1/"
   xmlns:cc="http://creativecommons.org/ns#"
   xmlns:rdf="http://www.w3.org/1999/02/22-rdf-syntax-ns#"
   xmlns:svg="http://www.w3.org/2000/svg"
   xmlns="http://www.w3.org/2000/svg"
   xmlns:sodipodi="http://sodipodi.sourceforge.net/DTD/sodipodi-0.dtd"
   xmlns:inkscape="http://www.inkscape.org/namespaces/inkscape"
   version="1.1"
   id="svg2"
   xml:space="preserve"
   width="240.86667"
   height="155.50667"
   viewBox="0 0 311.86667 155.50667"
   sodipodi:docname="safe-FBDC-Logo.eps"><metadata
     id="metadata8"><rdf:RDF><cc:Work
         rdf:about=""><dc:format>image/svg+xml</dc:format><dc:type
           rdf:resource="http://purl.org/dc/dcmitype/StillImage" /></cc:Work></rdf:RDF></metadata><defs
     id="defs6" /><sodipodi:namedview
     pagecolor="#831453"
     bordercolor="#666666"
     borderopacity="1"
     objecttolerance="10"
     gridtolerance="10"
     guidetolerance="10"
     inkscape:pageopacity="0"
     inkscape:pageshadow="2"
     inkscape:window-width="640"
     inkscape:window-height="480"
     id="namedview4" /><g
     id="g10"
     inkscape:groupmode="layer"
     inkscape:label="ink_ext_XXXXXX"
     transform="matrix(1.3333333,0,0,-1.3333333,0,155.50667)"><g
       id="g12"
       transform="scale(0.1)"><path
         d="m 1540.01,661.219 v 135.5 c 0,113.562 -60.31,159.773 -142.54,159.773 -90.85,0 -141.77,-56.394 -148.82,-110.429 h 67.36 c 0,0 10.19,48.558 79.11,48.558 61.87,0 80.67,-38.383 83.02,-86.945 -90.07,-10.957 -239.67,-21.145 -239.67,-136.278 0,-68.14 54.04,-114.351 132.37,-114.351 50.12,0 90.07,18.801 114.35,50.914 10.96,-32.895 33.67,-46.988 69.7,-46.988 h 27.41 v 51.683 c -29.76,0 -42.29,10.973 -42.29,48.563 m -236.53,7.832 c 0,57.176 81.46,69.711 173.87,79.109 v -40.73 c -3.13,-105.731 -173.87,-122.18 -173.87,-38.379 m 506.58,370.459 29.76,48.56 c -11.74,10.18 -32.89,25.06 -68.92,25.06 -68.14,0 -104.95,-50.9 -104.95,-122.181 v -38.371 h -57.96 V 897.75 h 57.96 V 560.973 h 65.79 V 897.75 h 93.99 v 54.828 h -93.99 v 32.11 c 0,51.692 21.15,65.792 46.99,65.792 14.89,0 23.5,-4.7 31.33,-10.97 m 228.22,-83.018 c -97.91,0 -185.63,-75.191 -185.63,-196.594 0,-122.175 87.72,-202.851 186.4,-202.851 71.29,0 138.63,42.301 168.4,113.57 h -72.06 c -18.79,-30.547 -51.69,-50.129 -96.34,-50.129 -67.35,0 -112.78,45.43 -119.04,118.274 h 296.05 c 7.83,148.027 -83.8,217.73 -177.78,217.73 m -0.79,-57.965 c 58.74,0 97.9,-42.289 107.3,-102.597 h -221.65 c 12.53,62.66 56.4,102.597 114.35,102.597"
         style="fill:#ffffff;fill-opacity:1;fill-rule:nonzero;stroke:none"
         id="path14" /><path
         d="m 1175.03,672.965 c 0,80.676 -72.84,101.031 -132.36,116.703 -38.38,10.176 -75.19,22.711 -75.19,58.738 0,32.114 28.188,52.481 64.22,52.481 41.51,0 72.06,-26.629 72.06,-55.614 h 63.44 c 0,54.043 -47.78,111.211 -135.5,111.211 -72.048,0 -129.231,-39.16 -129.231,-108.855 0,-78.32 72.844,-99.473 126.101,-113.57 43.08,-11.754 81.45,-24.282 81.45,-64.223 0,-38.379 -34.46,-56.387 -71.27,-56.387 -43.082,0 -84.59,25.059 -84.59,73.617 h -63.437 c 0,-71.269 58.738,-130.019 148.807,-130.019 76.76,0 135.5,43.082 135.5,115.918"
         style="fill:#ffffff;fill-opacity:1;fill-rule:nonzero;stroke:none"
         id="path16" /><path
         d="m 66.1328,555.848 c 36.5272,0 66.1292,29.613 66.1292,66.132 0,36.528 -29.602,66.137 -66.1292,66.137 C 29.5977,688.117 0,658.508 0,621.98 0,585.461 29.5977,555.848 66.1328,555.848"
         style="fill:#ffffff;fill-opacity:1;fill-rule:nonzero;stroke:none"
         id="path18" /><path
         d="M 951.941,185.574 H 893.504 V 1.30859 h 58.437 c 48.699,0 85.549,37.64061 85.549,92.13281 0,54.4886 -37.37,92.1326 -85.549,92.1326 m 0,-161.0935 H 917.98 V 162.41 h 33.961 c 38.434,0 60.019,-28.43 60.019,-68.9686 0,-40.543 -21.327,-68.9609 -60.019,-68.9609 M 1163.84,35 v 45.5391 c 0,38.1719 -20.27,53.6909 -47.91,53.6909 -30.53,0 -47.64,-18.941 -50.01,-37.1011 h 22.64 c 0,0 3.43,16.3201 26.59,16.3201 20.8,0 27.1,-12.898 27.9,-29.2302 C 1112.77,80.5391 1062.5,77.1211 1062.5,38.4219 1062.5,15.5313 1080.66,0 1106.99,0 c 16.84,0 30.26,6.30859 38.42,17.1016 3.7,-11.05082 11.32,-15.79301 23.43,-15.79301 h 9.21 V 18.6797 c -9.99,0 -14.21,3.6914 -14.21,16.3203 m -79.5,2.6406 c 0,19.211 27.38,23.418 58.44,26.5782 V 50.5313 C 1141.73,15 1084.34,9.46875 1084.34,37.6406 m 174.79,-13.1601 c -2.37,-1.8516 -5.27,-3.6914 -10.52,-3.6914 -8.96,0 -16.86,5.5195 -16.86,22.3711 v 70.5508 h 31.59 v 19.211 h -31.84 v 39.488 h -19.48 v -23.691 c 0,-10.789 -7.38,-18.16 -17.64,-18.16 h -8.17 v -17.11 h 22.91 V 41.0586 C 1209.12,17.1016 1223.06,0 1245.97,0 c 12.1,0 19.21,5 23.16,8.41016 z m 147.67,2.6289 c 0,0 -1.57,-8.4297 -8.43,-8.4297 -5,0 -8.15,3.9492 -8.15,16.3203 v 45.5391 c 0,38.1719 -20.27,53.6909 -47.9,53.6909 -30.55,0 -47.66,-18.941 -50.02,-37.1011 h 22.64 c 0,0 3.41,16.3201 26.59,16.3201 20.79,0 27.11,-12.898 27.9,-29.2302 -30.28,-3.6797 -80.56,-7.0977 -80.56,-45.7969 C 1288.87,15.5313 1307.04,0 1333.36,0 c 16.84,0 30.28,6.30859 38.43,17.1016 C 1375.75,6.05078 1383.37,0 1394.95,0 c 20.81,0 25.53,20 25.53,20 z m -96.07,10.5312 c 0,19.211 27.36,23.418 58.43,26.5782 V 50.5313 C 1368.1,15 1310.73,9.46875 1310.73,37.6406 m 334.02,16.3203 h -27.11 C 1609.22,35 1591.59,23.4102 1569.48,23.4102 c -34.76,0 -58.45,28.1796 -58.45,70.0312 0,41.8476 23.69,70.0196 58.18,70.0196 21.58,0 39.74,-11.063 48.43,-30.539 h 27.11 c -11.57,32.117 -41.85,53.969 -75.54,53.969 -44.49,0 -83.18,-38.172 -83.18,-93.4496 C 1486.03,38.1602 1524.72,0 1569.48,0 c 34.73,0 64.22,22.8984 75.27,53.9609 m 30.8,-52.65231 h 22.9 V 188.199 h -22.9 z M 1821.38,132.922 V 63.1719 C 1821.38,33.6914 1809.27,20 1789.27,20 c -27.11,0 -31.84,25.2695 -31.84,49.4883 v 63.4337 h -23.18 V 61.5898 C 1734.25,25 1750.84,0 1784.8,0 c 19.74,0 31.05,8.67969 36.85,15.2617 h 3.42 l 4.21,-13.95311 h 15.27 V 132.922 Z m 151.9,-93.9728 c 0,27.1211 -24.49,33.961 -44.5,39.2227 -12.9,3.4297 -25.27,7.6367 -25.27,19.75 0,10.7891 9.48,17.6291 21.59,17.6291 13.96,0 24.21,-8.949 24.21,-18.6916 h 21.33 c 0,18.1716 -16.06,37.3706 -45.54,37.3706 -24.22,0 -43.44,-13.148 -43.44,-36.5816 0,-26.3281 24.49,-33.4296 42.39,-38.1679 14.47,-3.9414 27.37,-8.1719 27.37,-21.5821 0,-12.8984 -11.57,-18.9492 -23.96,-18.9492 -14.47,0 -28.41,8.4219 -28.41,24.7422 h -21.33 C 1877.72,19.7383 1897.46,0 1927.74,0 c 25.78,0 45.54,14.4688 45.54,38.9492 m 86.52,-14.4687 c -2.37,-1.8516 -5.26,-3.6914 -10.54,-3.6914 -8.94,0 -16.83,5.5195 -16.83,22.3711 v 70.5508 h 31.59 v 19.211 h -31.87 v 39.488 h -19.47 v -23.691 c 0,-10.789 -7.36,-18.16 -17.64,-18.16 h -8.15 v -17.11 h 22.89 V 41.0586 C 2009.78,17.1016 2023.73,0 2046.63,0 c 12.11,0 19.22,5 23.18,8.41016 z m 85.81,109.7495 c -32.89,0 -62.38,-25.261 -62.38,-66.0581 C 2083.23,27.1094 2112.72,0 2145.87,0 c 23.97,0 46.59,14.2109 56.6,38.1602 h -24.21 c -6.32,-10.2618 -17.38,-16.8516 -32.39,-16.8516 -22.63,0 -37.9,15.2734 -40.01,39.75 h 99.51 c 2.62,49.7504 -28.17,73.1714 -59.76,73.1714 m -0.25,-19.468 c 19.73,0 32.9,-14.211 36.05,-34.4807 h -74.49 c 4.22,21.0507 18.95,34.4807 38.44,34.4807 m 149.76,19.468 c -20,0 -30.8,-10.261 -35.8,-16.05 h -3.67 l -4.48,14.742 h -15.28 V 1.30859 h 23.18 V 78.9609 c 0,24.2191 16.58,33.6991 33.42,33.6991 3.42,0 8.17,-0.531 10.8,-1.058 v 22.628 h -8.17"
         style="fill:#ffffff;fill-opacity:1;fill-rule:nonzero;stroke:none"
         id="path20" /><path
         d="m 1004.33,414.07 v 22.371 H 893.504 V 252.195 h 24.223 v 82.118 h 73.441 v 22.382 h -73.441 v 57.375 z m 41.85,-7.363 c 9.22,0 16.85,7.625 16.85,16.844 0,9.472 -7.63,16.847 -16.85,16.847 -9.47,0 -17.11,-7.375 -17.11,-16.847 0,-9.219 7.64,-16.844 17.11,-16.844 m 11.32,-22.902 h -23.17 v -131.61 h 23.17 z m 102.66,1.308 c -21.86,0 -33.69,-10.515 -38.69,-16.316 h -3.17 l -4.73,15.008 h -15.28 v -131.61 h 23.18 v 75.02 c 0,23.164 15.78,37.898 35.53,37.898 26.06,0 30.01,-26.062 30.01,-49.492 v -63.426 h 23.16 v 71.328 c 0,36.59 -16.58,61.59 -50.01,61.59 m 181.63,-99.226 v 45.535 c 0,38.164 -20.27,53.691 -47.91,53.691 -30.55,0 -47.66,-18.953 -50.01,-37.109 h 22.63 c 0,0 3.43,16.32 26.59,16.32 20.79,0 27.11,-12.902 27.9,-29.219 -30.27,-3.683 -80.56,-7.109 -80.56,-45.8 0,-22.903 18.18,-38.43 44.5,-38.43 16.85,0 30.27,6.32 38.42,17.109 3.69,-11.062 11.33,-15.789 23.44,-15.789 h 9.21 v 17.371 c -10,0 -14.21,3.672 -14.21,16.321 m -79.5,2.625 c 0,19.218 27.38,23.429 58.44,26.593 v -13.691 c -1.06,-35.539 -58.44,-41.055 -58.44,-12.902 m 182.94,96.601 c -21.86,0 -33.69,-10.515 -38.69,-16.316 h -3.17 l -4.73,15.008 h -15.28 v -131.61 h 23.18 v 75.02 c 0,23.164 15.79,37.898 35.52,37.898 26.07,0 30.01,-26.062 30.01,-49.492 v -63.426 h 23.18 v 71.328 c 0,36.59 -16.59,61.59 -50.02,61.59 m 202.42,-86.601 h -23.43 c -6.05,-15.528 -19.22,-26.055 -36.58,-26.055 -23.69,0 -40.01,19.746 -40.01,45.539 0,25.801 16.32,45.535 40.01,45.535 17.9,0 31.58,-11.316 37.11,-27.898 h 23.69 c -4.74,29.48 -33.16,49.48 -60.8,49.48 -32.91,0 -63.18,-28.164 -63.18,-67.117 0,-38.965 30.27,-67.121 63.18,-67.121 27.36,0 53.96,19.219 60.01,47.637 m 454.18,49.492 v 3.156 c 12.63,6.328 22.11,20.789 22.11,38.692 0,28.964 -25.01,46.589 -57.91,46.589 h -58.18 V 252.195 h 63.71 c 40.8,0 61.06,23.418 61.06,50.801 0,23.426 -14.75,39.219 -30.79,45.008 m -71.6,66.855 h 33.16 c 22.38,0 36.86,-8.418 36.86,-27.898 0,-16.582 -10.53,-28.684 -35.54,-28.684 h -34.48 z m 38.69,-141.082 h -38.69 v 63.438 h 38.69 c 23.69,0 39.75,-9.485 39.75,-31.848 0,-21.855 -15,-31.59 -39.75,-31.59 m 108.72,132.93 c 9.21,0 16.84,7.625 16.84,16.844 0,9.472 -7.63,16.847 -16.84,16.847 -9.48,0 -17.11,-7.375 -17.11,-16.847 0,-9.219 7.63,-16.844 17.11,-16.844 m 11.31,-22.902 h -23.16 v -131.61 h 23.16 z m 103.97,-106.082 h -18.69 c -22.36,0 -27.63,4.746 -27.63,11.054 0,5.262 3.69,9.219 8.42,11.844 6.85,-3.152 14.75,-5 23.43,-5 29.75,0 48.69,20 48.69,45.012 0,9.48 -2.89,18.164 -7.89,25.527 12.37,4.219 19.75,9.481 19.75,9.481 l -13.43,18.691 c 0,0 -6.32,-10 -19.48,-16.055 -7.63,4.473 -16.84,7.11 -27.64,7.11 -29.48,0 -48.69,-20.008 -48.69,-44.754 0,-11.32 3.94,-21.848 11.04,-29.738 -10.52,-5.274 -16.58,-13.965 -16.58,-24.754 0,-11.836 7.38,-18.418 17.64,-22.11 l -20,-13.945 c -5.26,-28.176 16.05,-51.867 55.54,-51.867 30.27,0 56.86,13.965 56.86,43.449 0,20 -12.12,36.055 -41.34,36.055 m -14.21,88.711 c 16.32,0 26.07,-11.594 26.07,-25.801 0,-14.485 -9.75,-26.055 -26.33,-26.055 -16.33,0 -26.33,11.57 -26.33,25.801 0,14.461 10.28,26.055 26.59,26.055 M 2277.4,219.02 c -18.43,0 -36.6,9.21 -34.49,24.484 l 17.64,16.582 c 7.36,-0.793 15.01,-1.055 22.11,-1.309 11.59,-0.273 29.22,-1.066 29.22,-16.593 0,-15.262 -17.37,-23.164 -34.48,-23.164"
         style="fill:#ffffff;fill-opacity:1;fill-rule:nonzero;stroke:none"
         id="path22" /><path
         d="m 1687.3,406.707 c 9.22,0 16.85,7.625 16.85,16.844 0,9.472 -7.63,16.847 -16.85,16.847 -9.47,0 -17.11,-7.375 -17.11,-16.847 0,-9.219 7.64,-16.844 17.11,-16.844 m 11.33,-22.902 h -23.17 v -131.61 h 23.17 z m 129.96,-97.918 v 45.535 c 0,38.176 -20.28,53.703 -47.91,53.703 -30.54,0 -47.65,-18.965 -50.01,-37.121 h 22.63 c 0,0 3.42,16.32 26.59,16.32 20.8,0 27.11,-12.902 27.9,-29.219 -30.28,-3.683 -80.55,-7.101 -80.55,-45.8 0,-22.903 18.16,-38.43 44.48,-38.43 16.85,0 30.28,6.32 38.43,17.109 3.69,-11.062 11.32,-15.789 23.44,-15.789 h 9.21 v 17.371 c -10,0 -14.21,3.672 -14.21,16.321 m -79.5,2.625 c 0,19.218 27.37,23.429 58.43,26.593 v -13.691 c -1.05,-35.539 -58.43,-41.055 -58.43,-12.902 m 120.82,-36.317 h 22.9 v 186.883 h -22.9 V 252.195"
         style="fill:#ffffff;fill-opacity:1;fill-rule:nonzero;stroke:none"
         id="path24" /><path
         d="m 753.18,976.609 c 0,104.781 -84.946,189.731 -189.735,189.731 -104.777,0 -189.73,-84.95 -189.73,-189.731 0,-36.308 17.652,-105.421 125.504,-166.519 8.539,-4.742 13.816,-13.742 13.797,-23.5 -0.02,-9.758 -5.352,-18.75 -13.911,-23.438 -56.558,-31.062 -88.859,-67.101 -105.996,-91.871 -4.281,-6.429 -8.472,-12.07 -11.933,-19.531 -7.68,-16.594 -10.547,-33.121 -1.09,-55.68 24.73,-58.972 79.703,-92.07 137.73,-92.215 82.602,-0.214 149.551,66.954 149.551,149.543 0,59.04 -34.293,109.942 -83.98,134.258 97.57,7.852 169.793,89.364 169.793,188.953 M 355.387,949.621 c -23.739,31.859 -61.59,52.589 -104.367,52.589 -71.922,0 -130.223,-58.312 -130.223,-130.23 0,-69.152 63.039,-125.558 131.121,-129.8 -0.012,-0.746 -0.074,-1.489 -0.113,-2.242 -2.227,-46.637 28.101,-81.579 68.394,-92.809 8.379,23.43 36.598,84.98 115.25,139.621 C 337.035,855.641 317.91,934.891 317.07,938.609 l 38.317,11.012"
         style="fill:#ffffff;fill-opacity:1;fill-rule:nonzero;stroke:none"
         id="path26" /></g></g></svg>
