<svg xmlns="http://www.w3.org/2000/svg" viewBox="0 0 340.158 155.906" width="1em" height="1em" class="Logo_logo__uoUtB">
  <path
    d="m146.175 84.75-4.482 7.93-10.035-.973 7.145 6.075-4.87 8.613 9.657-4.54 8.43 7.169-2.406-10.002 9.83-4.621-11.21-1.087Zm17.327-23.883 10.45-.066-8.815 4.275 2.83 7.31-8.237-4.69-8.677 4.21 3.953-6.896-7.108-4.045 9.462-.06 3.677-6.405Zm-9.32-29.106-3.264 5.022-7.947.659 5.862 2.543-3.477 5.35 7.33-3.68 6.644 2.887-2.081-5.172 7.428-3.726-8.641.716ZM136.1 24.61l6.914-.88-6.265 3.223 1.105 3.988-4.956-2.008-6.194 3.186 3.29-4.361-4.452-1.804 6.433-.82 3.123-4.133Zm-24.082-4.171-3.134 3.687-5.316.753 3.334 1.58-3.286 3.868 5.447-2.846 3.667 1.74-.283-3.506 5.502-2.874-5.672.804Z"
    fill="#ffd853"></path>
  <path
    d="M104.747 37.772a47.75 47.75 0 0 0-11.855 2.724 55.935 55.935 0 0 0-10.848 5.37 54.615 54.615 0 0 0-9.4 7.542 44.52 44.52 0 0 0-7.275 9.537 30.892 30.892 0 0 0-3.736 10.508 20.71 20.71 0 0 0 .837 9.965 17.824 17.824 0 0 0 6.01 8.236 24.436 24.436 0 0 0 11.777 4.612 37.285 37.285 0 0 0 9.258.044 47.782 47.782 0 0 0 9.763-2.21 55.094 55.094 0 0 0 9.547-4.273 55.61 55.61 0 0 0 8.593-5.985l-1.765 6.338 10.788 1.046 5.829-25.211-26.206-.271-2.688 7.53 6.315.244a35.736 35.736 0 0 1-5.286 4.125 36.585 36.585 0 0 1-6.054 3.133 31.863 31.863 0 0 1-6.362 1.847 24.531 24.531 0 0 1-6.2.335 16.36 16.36 0 0 1-7.483-2.312 11.22 11.22 0 0 1-4.241-4.728 12.12 12.12 0 0 1-1.042-6.15 18.207 18.207 0 0 1 2.053-6.831 27.312 27.312 0 0 1 4.64-6.406 34.548 34.548 0 0 1 6.275-5.122 35.494 35.494 0 0 1 7.326-3.584 29.617 29.617 0 0 1 7.906-1.652 22.374 22.374 0 0 1 4.672.17 16.962 16.962 0 0 1 4.073 1.11 13.117 13.117 0 0 1 3.35 2.007 11.132 11.132 0 0 1 2.464 2.867l12.623-6.206a18.664 18.664 0 0 0-4.385-4.2 22.69 22.69 0 0 0-5.584-2.777 29.01 29.01 0 0 0-6.49-1.378 37.479 37.479 0 0 0-7.2.006"
    fill="#23406c"></path>
  <path
    d="M91.677 26.485q-.682.267-1.364.547-.68.28-1.36.57t-1.363.596q-.68.303-1.36.618t-1.352.64q-.672.322-1.334.654-.663.33-1.317.669-.654.337-1.3.683l-.09 4.41q-1.07.597-2.11 1.22-1.043.62-2.06 1.268-1.015.645-2.007 1.314t-1.96 1.359l-4.39-1.595q-1.2.886-2.367 1.804-1.17.92-2.306 1.867-1.139.95-2.243 1.929-1.107.982-2.18 1.992l2.74 3.092q-.848.849-1.663 1.718-.82.871-1.607 1.762-.791.894-1.548 1.807-.761.918-1.486 1.853l-6.451.843q-.899 1.177-1.751 2.379-.858 1.21-1.668 2.445-.816 1.243-1.58 2.51-.77 1.28-1.485 2.58l5.633.936q-.503 1.042-.958 2.098-.46 1.063-.871 2.14-.414 1.084-.778 2.182-.365 1.107-.677 2.226l-8.032 4.163c-.132.47-.258.943-.378 1.416q-.182.714-.343 1.433-.164.721-.307 1.448-.143.73-.266 1.466c-.082.493-.158.984-.225 1.474q-.102.738-.181 1.47-.08.736-.135 1.467-.057.733-.09 1.463l8.422-2.62q.064 1.15.204 2.275.139 1.135.355 2.242.217 1.117.509 2.203.295 1.096.667 2.16l-8.232 8.634q.483 1.476 1.083 2.896.609 1.441 1.339 2.823.739 1.4 1.603 2.739.874 1.356 1.875 2.642l9.833-8.024q.919.888 1.925 1.713 1.015.834 2.117 1.599 1.111.772 2.31 1.474 1.209.708 2.503 1.34l-4.747 13.155q.885.444 1.802.857.922.414 1.877.797.961.385 1.953.735.999.354 2.029.67 1.02.316 2.07.595 1.057.28 2.143.524 1.092.244 2.212.452 1.126.207 2.28.375l6.669-13.748q1.777.085 3.613.067 1.848-.02 3.749-.152 1.912-.132 3.874-.386 1.972-.255 3.987-.635l3.988 13.845q1.36-.278 2.732-.603 1.377-.327 2.762-.7 1.389-.374 2.786-.796 1.4-.423 2.806-.896 1.411-.479 2.806-.995 1.396-.52 2.776-1.077 1.381-.56 2.745-1.16 1.363-.6 2.709-1.241l-8.22-28.003q-1.127.62-2.277 1.2t-2.325 1.124q-1.173.54-2.37 1.037-1.194.496-2.411.947a64.798 64.798 0 0 1-7.566 2.3 57.488 57.488 0 0 1-7.242 1.245 49.486 49.486 0 0 1-6.766.256 42.045 42.045 0 0 1-6.17-.642 32.785 32.785 0 0 1-10.405-3.671 24.76 24.76 0 0 1-7.23-6.121 22.59 22.59 0 0 1-4.011-7.81 26.306 26.306 0 0 1-.921-8.914 36.465 36.465 0 0 1 3.56-13.257 52.7 52.7 0 0 1 7.693-11.72A65.838 65.838 0 0 1 75.19 45.28a70.507 70.507 0 0 1 13.08-7.708q.747-.338 1.492-.654.747-.317 1.492-.611.748-.294 1.492-.57t1.49-.53ZM305.05 102.053v-3.195q0-.696-.86-.696h-2.005q-.942 0-1.147-.348a3.76 3.76 0 0 1-.205-1.576V84.321h3.358a.837.837 0 0 0 .819-.819v-3.317a.839.839 0 0 0-.82-.819h-3.357v-4.34a.654.654 0 0 0-.204-.512.767.767 0 0 0-.533-.185h-.122l-4.996.86a1.42 1.42 0 0 0-.574.287.661.661 0 0 0-.245.532v3.358h-3.276a.913.913 0 0 0-.86.86v2.703a.696.696 0 0 0 .266.553 1.457 1.457 0 0 0 .594.307l3.276.532v11.876a11.6 11.6 0 0 0 .45 3.542 4.883 4.883 0 0 0 1.31 2.15 4.487 4.487 0 0 0 2.15 1.044 14.836 14.836 0 0 0 2.969.266 13.716 13.716 0 0 0 1.597-.082q.696-.081 1.638-.245.778-.123.778-.819m-17.51-.082V88.334a20.351 20.351 0 0 0-.307-3.624 8.07 8.07 0 0 0-1.106-2.948 5.669 5.669 0 0 0-2.211-1.986 7.806 7.806 0 0 0-3.624-.737 11.737 11.737 0 0 0-3.481.471 11.562 11.562 0 0 0-3.194 1.658v-.983a.84.84 0 0 0-.82-.819h-4.585a.839.839 0 0 0-.82.819v21.786a.915.915 0 0 0 .86.86h4.956a.757.757 0 0 0 .573-.267.852.852 0 0 0 .246-.593V85.836a18.443 18.443 0 0 1 2.006-.942 5.05 5.05 0 0 1 1.843-.368 5.298 5.298 0 0 1 1.536.184 1.74 1.74 0 0 1 .92.635 2.777 2.777 0 0 1 .45 1.187 11.182 11.182 0 0 1 .124 1.802v13.637a.852.852 0 0 0 .246.593.757.757 0 0 0 .573.267h4.955a.915.915 0 0 0 .86-.86m-30.847-9.173v4.504a10.79 10.79 0 0 1-1.577.635 5.842 5.842 0 0 1-1.781.266 3.997 3.997 0 0 1-1.945-.368q-.636-.369-.635-1.679v-.369a4.745 4.745 0 0 1 .164-1.31 1.961 1.961 0 0 1 .573-.942 2.632 2.632 0 0 1 1.106-.553 7.023 7.023 0 0 1 1.76-.184Zm6.51 9.214v-14.62a9.711 9.711 0 0 0-.675-3.828 6.64 6.64 0 0 0-1.904-2.58 7.861 7.861 0 0 0-3.01-1.474 15.63 15.63 0 0 0-3.993-.471 27.353 27.353 0 0 0-3.992.286q-1.946.286-3.092.574a.89.89 0 0 0-.778.901v3.316a.696.696 0 0 0 .205.574.826.826 0 0 0 .532.164h.205l1.228-.103q.738-.062 1.659-.102.92-.042 1.924-.062t1.987-.02a4.102 4.102 0 0 1 2.252.532q.819.532.819 2.293v1.475h-2.212q-5.282 0-7.678 1.658a5.949 5.949 0 0 0-2.395 5.262v.369a8.356 8.356 0 0 0 .594 3.358 5.793 5.793 0 0 0 1.576 2.17 5.93 5.93 0 0 0 2.232 1.167 9.642 9.642 0 0 0 2.6.348 9.188 9.188 0 0 0 3.174-.491 10.435 10.435 0 0 0 2.518-1.352v.656a.84.84 0 0 0 .819.819h4.587a.84.84 0 0 0 .819-.819m-27.867 2.17v.328a2.42 2.42 0 0 1-.143.839 1.416 1.416 0 0 1-.573.676 3.276 3.276 0 0 1-1.208.43 11.812 11.812 0 0 1-2.048.143 6.992 6.992 0 0 1-3.235-.512 1.709 1.709 0 0 1-.86-1.576v-.328a4.85 4.85 0 0 1 .225-1.659 5.235 5.235 0 0 1 .594-1.126l3.03.656q1.393.327 2.212.573a6.858 6.858 0 0 1 1.269.491 1.433 1.433 0 0 1 .594.512 1.16 1.16 0 0 1 .143.553m-.205-17.076v.327a2.91 2.91 0 0 1-.737 2.089 4.028 4.028 0 0 1-2.907.778 6.017 6.017 0 0 1-1.904-.246 2.89 2.89 0 0 1-1.126-.655 2.085 2.085 0 0 1-.553-.921 3.847 3.847 0 0 1-.144-1.045v-.327a2.983 2.983 0 0 1 .779-2.109 3.978 3.978 0 0 1 2.948-.84 3.825 3.825 0 0 1 2.907.84 3.077 3.077 0 0 1 .737 2.109m7.576-4.341v-2.334a1.07 1.07 0 0 0-.286-.758.968.968 0 0 0-.738-.307h-10.196q-5.364 0-7.801 2.13a7.088 7.088 0 0 0-2.437 5.61v.327a8.541 8.541 0 0 0 .45 2.621 4.934 4.934 0 0 0 1.434 2.252 5.335 5.335 0 0 0-1.29 1.475 3.85 3.85 0 0 0-.512 2.006 5.088 5.088 0 0 0 .492 2.109 3.625 3.625 0 0 0 1.597 1.7 6.514 6.514 0 0 0-1.884 2.17 5.335 5.335 0 0 0-.573 2.416v.328a5.558 5.558 0 0 0 2.64 4.954q2.642 1.72 7.76 1.72 10.73 0 10.73-6.674v-.328a5.614 5.614 0 0 0-.491-2.478 4.305 4.305 0 0 0-1.618-1.719 12.013 12.013 0 0 0-2.97-1.27q-1.841-.552-4.503-1.126l-4.628-1.024a2.084 2.084 0 0 1-.982-.409 1.001 1.001 0 0 1-.246-.737 1.05 1.05 0 0 1 .123-.512 1.246 1.246 0 0 1 .45-.43 8.673 8.673 0 0 0 1.72.43 15.563 15.563 0 0 0 2.539.184q4.831 0 7.473-1.822t2.642-5.836v-.327a5.404 5.404 0 0 0-.267-1.597 5.849 5.849 0 0 0-.634-1.433l1.269-.41a1.582 1.582 0 0 0 .553-.287.804.804 0 0 0 .184-.614m-25.274 19.247V80.185a.84.84 0 0 0-.82-.819h-4.995a.84.84 0 0 0-.819.819v21.827a.84.84 0 0 0 .819.819h4.996a.84.84 0 0 0 .819-.819m.164-26.127v-3.808a.84.84 0 0 0-.819-.819h-5.324a.84.84 0 0 0-.819.819v3.808a.839.839 0 0 0 .819.819h5.324a.839.839 0 0 0 .819-.819m-11.052 2.048v-4.341q0-.49-.696-.614-1.147-.246-3.317-.594a33.726 33.726 0 0 0-5.242-.348 17.81 17.81 0 0 0-4.443.573 10.213 10.213 0 0 0-4.013 2.048 10.6 10.6 0 0 0-2.887 3.993 16.147 16.147 0 0 0-1.105 6.449v5.078a17.695 17.695 0 0 0 .532 4.566 12.037 12.037 0 0 0 1.454 3.419 10.38 10.38 0 0 0 2.109 2.416 10.66 10.66 0 0 0 2.477 1.556 11.567 11.567 0 0 0 2.621.819 13.679 13.679 0 0 0 2.477.246 45.104 45.104 0 0 0 5.283-.266q2.211-.266 3.89-.594a.89.89 0 0 0 .819-.942V87.638a.84.84 0 0 0-.819-.819h-5.242a.72.72 0 0 0-.552.246.82.82 0 0 0-.226.573v9.419q-1.473.123-3.153.122a4.715 4.715 0 0 1-1.556-.286 3.538 3.538 0 0 1-1.495-1.065 5.985 5.985 0 0 1-1.105-2.129 11.71 11.71 0 0 1-.43-3.481v-5.119a13.019 13.019 0 0 1 .368-3.358 5.39 5.39 0 0 1 1.065-2.15 3.774 3.774 0 0 1 1.7-1.126 7.167 7.167 0 0 1 2.231-.327q2.622 0 4.832.123l3.686.204h.123a.847.847 0 0 0 .45-.102.473.473 0 0 0 .164-.43"
    fill="#42bfe8"></path>
  <path
    d="M278.78 53.158v3.112a8.351 8.351 0 0 1-1.33 5.017 4.85 4.85 0 0 1-4.197 1.822 4.76 4.76 0 0 1-4.197-1.843 8.572 8.572 0 0 1-1.29-4.996v-3.112a8.457 8.457 0 0 1 1.31-5.016 5.723 5.723 0 0 1 8.395.02 8.47 8.47 0 0 1 1.31 4.996m3.604 3.112v-3.112a13.757 13.757 0 0 0-.573-4.095 8.612 8.612 0 0 0-1.72-3.153 7.656 7.656 0 0 0-2.867-2.027 10.252 10.252 0 0 0-3.972-.717 10.107 10.107 0 0 0-3.952.717 7.69 7.69 0 0 0-2.846 2.027 8.612 8.612 0 0 0-1.72 3.153 13.757 13.757 0 0 0-.573 4.095v3.112a13.747 13.747 0 0 0 .573 4.095 8.604 8.604 0 0 0 1.72 3.153 7.68 7.68 0 0 0 2.846 2.027 10.107 10.107 0 0 0 3.952.717 10.252 10.252 0 0 0 3.972-.717 7.644 7.644 0 0 0 2.867-2.027 8.604 8.604 0 0 0 1.72-3.153 13.747 13.747 0 0 0 .573-4.095M262.29 45.582v-1.679q0-.737-.86-.737a9.174 9.174 0 0 0-2.805.451 11.518 11.518 0 0 0-2.97 1.515v-.86a.82.82 0 0 0-.224-.573.721.721 0 0 0-.553-.246h-1.925a.72.72 0 0 0-.552.246.817.817 0 0 0-.226.573v20.884a.82.82 0 0 0 .226.574.718.718 0 0 0 .552.245h2.007a.839.839 0 0 0 .819-.819V47.998a12.406 12.406 0 0 1 2.887-1.33 9.81 9.81 0 0 1 2.764-.39q.86 0 .86-.696m-17.543-1.433v.532q0 3.195-1.76 4.628t-5.98 1.433q-.41 0-.961-.02t-1.126-.04c-.383-.015-.751-.036-1.106-.063s-.655-.04-.901-.04V38.58q.736-.083 1.945-.123t2.15-.041q3.972 0 5.856 1.31t1.883 4.423m3.727.532v-.532a9.135 9.135 0 0 0-.86-4.156 7.17 7.17 0 0 0-2.396-2.744 10.465 10.465 0 0 0-3.624-1.515 20.854 20.854 0 0 0-4.586-.471q-1.802 0-3.645.082t-3.153.246a.962.962 0 0 0-.983 1.023v28.542a.872.872 0 0 0 .205.574.66.66 0 0 0 .533.245h2.21a.658.658 0 0 0 .533-.245.867.867 0 0 0 .205-.574V53.649q.819.083 1.966.144t2.129.061a20.854 20.854 0 0 0 4.586-.47 10.006 10.006 0 0 0 3.624-1.557 7.416 7.416 0 0 0 2.396-2.825 9.715 9.715 0 0 0 .86-4.32m-24.242 20.474V44.272a.82.82 0 0 0-.225-.573.721.721 0 0 0-.553-.246h-2.007a.84.84 0 0 0-.82.82v17.28a21.86 21.86 0 0 1-2.824 1.146 8.739 8.739 0 0 1-2.703.451 6.773 6.773 0 0 1-2.027-.266 3.083 3.083 0 0 1-1.392-.88 3.847 3.847 0 0 1-.82-1.659 10.704 10.704 0 0 1-.265-2.6V44.271a.84.84 0 0 0-.82-.819h-1.965a.84.84 0 0 0-.82.82v13.471a10.171 10.171 0 0 0 1.7 6.307q1.7 2.211 5.426 2.211a10.874 10.874 0 0 0 3.317-.47 18.358 18.358 0 0 0 3.194-1.414v.778a.82.82 0 0 0 .226.574.718.718 0 0 0 .552.245h2.048a.72.72 0 0 0 .553-.245.823.823 0 0 0 .225-.574m-21.126.328v-2.088q0-.492-.45-.492h-7.904a12.21 12.21 0 0 1-2.621-.225 3.159 3.159 0 0 1-1.515-.737 2.562 2.562 0 0 1-.716-1.31 8.996 8.996 0 0 1-.185-1.987v-6.879h12.572a.84.84 0 0 0 .819-.819v-1.556a.839.839 0 0 0-.82-.819h-12.571V42.88a9.062 9.062 0 0 1 .185-1.966 2.572 2.572 0 0 1 .716-1.331 3.159 3.159 0 0 1 1.515-.737 12.21 12.21 0 0 1 2.62-.225h7.905q.45 0 .45-.492v-2.047a.685.685 0 0 0-.102-.369.45.45 0 0 0-.308-.204l-1.638-.103q-.983-.061-2.088-.082-1.106-.018-2.232-.041-1.125-.02-2.027-.02-4.341 0-6.531 1.761-2.192 1.761-2.191 5.856v15.765q0 4.095 2.19 5.856t6.532 1.761h2.048q1.146 0 2.272-.041t2.109-.061a13.515 13.515 0 0 0 1.556-.103.45.45 0 0 0 .308-.204.685.685 0 0 0 .102-.369"
    fill="#23406c"></path>
</svg>