<svg width="1em" height="1em" viewBox="0 0 300 61" xmlns="http://www.w3.org/2000/svg"
  xmlns:xlink="http://www.w3.org/1999/xlink" class="Logo_logo__uoUtB">
  <defs>
    <path id="fmdm-logo_svg__a" d="M0 60.518h300V0H0z"></path>
  </defs>
  <g fill="none" fill-rule="evenodd">
    <path fill="#040050" d="M81.458 9.767v2.316h-7.386v5.105h5.759v2.317h-5.759v7.57h-2.854V9.767z"></path>
    <g>
      <path
        d="M96.603 13.353v13.722h-2.855v-1.618c-.45.564-1.038 1.008-1.764 1.331a5.624 5.624 0 0 1-2.316.486c-1.085 0-2.056-.224-2.915-.673-.86-.447-1.537-1.112-2.03-1.992-.491-.88-.736-1.943-.736-3.188v-8.068h2.828v7.645c0 1.23.308 2.172.925 2.827.619.656 1.462.984 2.53.984 1.066 0 1.914-.328 2.54-.984.626-.655.938-1.598.938-2.827v-7.645h2.855ZM103.687 15.67v7.595c0 .514.12.884.363 1.107.242.224.655.337 1.238.337h1.754v2.365h-2.254c-1.285 0-2.269-.298-2.953-.896-.685-.598-1.028-1.569-1.028-2.913V15.67h-1.626v-2.316h1.626V9.942h2.88v3.412h3.355v2.316h-3.355ZM122.162 13.353v13.722h-2.854v-1.618c-.45.564-1.039 1.008-1.765 1.331a5.624 5.624 0 0 1-2.316.486c-1.085 0-2.056-.224-2.915-.673-.86-.447-1.537-1.112-2.029-1.992-.492-.88-.737-1.943-.737-3.188v-8.068h2.829v7.645c0 1.23.307 2.172.924 2.827.619.656 1.462.984 2.53.984 1.067 0 1.914-.328 2.541-.984.625-.655.938-1.598.938-2.827v-7.645h2.854ZM130.436 13.714c.692-.39 1.514-.585 2.464-.585v2.938h-.726c-1.117 0-1.964.284-2.54.848-.575.564-.864 1.543-.864 2.937v7.222h-2.852v-13.72h2.852v1.992a4.479 4.479 0 0 1 1.666-1.632M145.193 18.981c-.018-1.046-.393-1.884-1.127-2.516-.734-.63-1.644-.945-2.73-.945-.983 0-1.826.31-2.527.934-.702.622-1.118 1.465-1.251 2.527h7.635Zm2.878 2.29h-10.539c.083 1.097.492 1.977 1.228 2.64.734.665 1.634.997 2.702.997 1.537 0 2.62-.64 3.255-1.917h3.079c-.417 1.262-1.172 2.295-2.265 3.1-1.093.804-2.45 1.208-4.07 1.208-1.317 0-2.498-.295-3.541-.884a6.303 6.303 0 0 1-2.454-2.491c-.591-1.07-.888-2.311-.888-3.723 0-1.41.289-2.65.864-3.723A6.058 6.058 0 0 1 137.87 14c1.044-.58 2.24-.87 3.592-.87 1.303 0 2.462.282 3.48.846a5.985 5.985 0 0 1 2.378 2.379c.568 1.02.852 2.195.852 3.522 0 .515-.033.981-.1 1.395ZM175.809 9.767v17.308h-2.855V15.22l-5.306 11.854h-1.978l-5.332-11.854v11.854h-2.854V9.767h3.079l6.109 13.572 6.082-13.572zM187.612 24.31c.642-.349 1.165-.871 1.564-1.568.4-.698.6-1.544.6-2.54s-.19-1.839-.574-2.528c-.385-.69-.893-1.208-1.528-1.556a4.19 4.19 0 0 0-2.053-.524 4.12 4.12 0 0 0-2.04.524c-.625.348-1.122.867-1.489 1.556-.367.69-.551 1.532-.551 2.527 0 1.478.38 2.62 1.14 3.425.759.805 1.714 1.207 2.865 1.207.735 0 1.423-.173 2.066-.522m-5.595 2.104a6.362 6.362 0 0 1-2.478-2.49c-.6-1.071-.902-2.312-.902-3.724 0-1.394.31-2.631.926-3.71a6.383 6.383 0 0 1 2.53-2.49c1.066-.58 2.26-.872 3.58-.872 1.317 0 2.51.292 3.578.872a6.394 6.394 0 0 1 2.53 2.49c.616 1.079.926 2.316.926 3.71 0 1.395-.318 2.632-.952 3.71a6.58 6.58 0 0 1-2.59 2.504c-1.095.59-2.3.883-3.62.883-1.3 0-2.477-.293-3.528-.883M206.186 17.699c-.392-.69-.91-1.212-1.55-1.569a4.184 4.184 0 0 0-2.067-.535c-.718 0-1.397.182-2.04.548-.643.365-1.16.896-1.553 1.593s-.588 1.52-.588 2.466c0 .946.195 1.771.588 2.478.393.705.91 1.24 1.553 1.606a4.064 4.064 0 0 0 2.04.548c.734 0 1.423-.188 2.066-.56.641-.374 1.159-.918 1.551-1.632.392-.714.589-1.544.589-2.491 0-.946-.197-1.763-.589-2.452m-5.808-3.935c.843-.423 1.781-.634 2.816-.634 1.218 0 2.321.29 3.305.872.986.58 1.761 1.405 2.329 2.477.567 1.07.85 2.295.85 3.672 0 1.378-.283 2.612-.85 3.699-.568 1.087-1.348 1.934-2.342 2.54a6.195 6.195 0 0 1-3.292.909c-1.067 0-2.014-.208-2.841-.622-.826-.415-1.481-.947-1.965-1.595v1.993h-2.853V8.647h2.853v6.749c.484-.665 1.147-1.208 1.99-1.632"
        fill="#040050"></path>
      <mask id="fmdm-logo_svg__b" fill="#fff">
        <use xlink:href="#fmdm-logo_svg__a"></use>
      </mask>
      <path
        d="M212.508 27.075h2.854V13.353h-2.854v13.722Zm.15-16.063a1.747 1.747 0 0 1-.525-1.293c0-.517.174-.948.525-1.295.35-.35.784-.524 1.302-.524.5 0 .926.174 1.277.524.35.347.526.778.526 1.295 0 .514-.177.945-.526 1.293-.351.35-.777.524-1.277.524-.518 0-.952-.175-1.302-.524ZM219.115 27.075h2.855V8.648h-2.855zM225.725 27.075h2.854V13.353h-2.854v13.722Zm.15-16.063a1.747 1.747 0 0 1-.525-1.293c0-.517.174-.948.525-1.295.35-.35.784-.524 1.302-.524.5 0 .926.174 1.277.524.35.347.526.778.526 1.295 0 .514-.176.945-.526 1.293-.35.35-.777.524-1.277.524-.518 0-.952-.175-1.302-.524ZM235.664 15.67v7.595c0 .514.12.884.362 1.107.242.224.655.337 1.239.337h1.753v2.365h-2.253c-1.286 0-2.27-.298-2.954-.896-.684-.598-1.027-1.569-1.027-2.913V15.67h-1.627v-2.316h1.627V9.942h2.88v3.412h3.354v2.316h-3.354ZM254.063 13.353l-8.46 20.171h-2.956l2.805-6.673-5.433-13.498h3.18l3.88 10.46 4.03-10.46zM80.982 47.511c.9-.88 1.352-2.125 1.352-3.736 0-1.609-.452-2.862-1.352-3.76-.901-.895-2.162-1.344-3.781-1.344h-2.027v10.16H77.2c1.619 0 2.88-.44 3.78-1.32m1.353-11.38c1.385.73 2.457 1.756 3.217 3.075.758 1.32 1.138 2.843 1.138 4.57 0 1.71-.38 3.229-1.138 4.557-.76 1.33-1.837 2.358-3.23 3.089-1.394.729-3.008 1.094-4.844 1.094h-6.584V35.035h6.584c1.852 0 3.471.365 4.857 1.096M97.817 43.054a2.897 2.897 0 0 0-2.166-.922c-.85 0-1.573.303-2.165.909-.593.607-.89 1.44-.89 2.503 0 1.063.297 1.906.89 2.528.592.621 1.314.934 2.165.934s1.573-.308 2.166-.922c.593-.613.89-1.453.89-2.514 0-1.063-.297-1.903-.89-2.516m-8.762-1.27c.542-1.08 1.28-1.908 2.216-2.49.935-.582 1.976-.872 3.129-.872.984 0 1.848.199 2.591.598.742.399 1.314.921 1.715 1.569V38.62h4.28v13.896h-4.28V50.55c-.418.648-.998 1.17-1.74 1.57-.742.398-1.606.597-2.592.597a5.694 5.694 0 0 1-3.103-.885c-.936-.588-1.674-1.426-2.216-2.514-.543-1.088-.814-2.345-.814-3.773s.27-2.681.814-3.76M113.876 48.906v3.61h-2.178c-1.553 0-2.763-.376-3.63-1.133-.867-.754-1.301-1.987-1.301-3.697v-5.529h-1.702v-3.535h1.702v-3.387h4.28v3.387h2.803v3.535h-2.803v5.579c0 .415.1.713.3.896.2.182.534.274 1.002.274h1.527ZM124.978 43.054a2.897 2.897 0 0 0-2.165-.922c-.851 0-1.574.303-2.165.909-.593.607-.89 1.44-.89 2.503 0 1.063.297 1.906.89 2.528.591.621 1.314.934 2.165.934s1.572-.308 2.165-.922c.593-.613.89-1.453.89-2.514 0-1.063-.297-1.903-.89-2.516m-8.762-1.27c.542-1.08 1.281-1.908 2.217-2.49.934-.582 1.976-.872 3.128-.872.984 0 1.848.199 2.592.598.742.399 1.314.921 1.715 1.569V38.62h4.28v13.896h-4.28V50.55c-.419.648-.999 1.17-1.74 1.57-.743.398-1.607.597-2.592.597a5.694 5.694 0 0 1-3.103-.885c-.936-.588-1.675-1.426-2.217-2.514-.543-1.088-.814-2.345-.814-3.773s.271-2.681.814-3.76M158.46 35.035v17.482h-4.28V42.032l-3.932 10.485h-3.453l-3.956-10.509v10.509h-4.28V35.035h5.056l4.931 12.104 4.882-12.104zM170.264 43.054a2.897 2.897 0 0 0-2.165-.922c-.851 0-1.574.303-2.166.909-.593.607-.889 1.44-.889 2.503 0 1.063.296 1.906.89 2.528.59.621 1.314.934 2.165.934.85 0 1.572-.308 2.165-.922.593-.613.89-1.453.89-2.514 0-1.063-.297-1.903-.89-2.516m-8.762-1.27c.542-1.08 1.28-1.908 2.217-2.49.934-.582 1.976-.872 3.128-.872.984 0 1.848.199 2.591.598.743.399 1.315.921 1.715 1.569V38.62h4.281v13.896h-4.28V50.55c-.419.648-1 1.17-1.741 1.57-.742.398-1.606.597-2.592.597a5.694 5.694 0 0 1-3.102-.885c-.936-.588-1.675-1.426-2.217-2.514-.543-1.088-.814-2.345-.814-3.773s.27-2.681.814-3.76M184.695 39.132a4.87 4.87 0 0 1 2.504-.66v4.508h-1.177c-1.069 0-1.87.227-2.404.684-.533.457-.8 1.258-.8 2.402v6.451h-4.282V38.621h4.283v2.317a5.637 5.637 0 0 1 1.876-1.806M197.788 52.517l-4.255-5.828v5.828h-4.282V34.089h4.282v10.185l4.23-5.652h5.282l-5.808 6.971 5.86 6.924zM213.509 44.224c0-.73-.25-1.31-.75-1.743-.502-.432-1.127-.648-1.878-.648-.718 0-1.323.208-1.816.624-.492.415-.797 1.004-.914 1.767h5.358Zm4.306 2.366h-9.688c.066.864.346 1.524.838 1.979.492.457 1.098.686 1.815.686 1.069 0 1.81-.449 2.229-1.345h4.556a6.223 6.223 0 0 1-1.264 2.465 6.344 6.344 0 0 1-2.29 1.718c-.919.415-1.946.624-3.08.624-1.37 0-2.588-.292-3.655-.872a6.22 6.22 0 0 1-2.503-2.49c-.601-1.08-.903-2.342-.903-3.786s.297-2.705.89-3.786a6.14 6.14 0 0 1 2.49-2.49c1.068-.58 2.295-.872 3.68-.872 1.353 0 2.555.284 3.606.848a6.09 6.09 0 0 1 2.465 2.415c.593 1.047.89 2.266.89 3.66 0 .4-.026.815-.076 1.246ZM227.929 48.906v3.61h-2.178c-1.553 0-2.763-.376-3.63-1.133-.867-.754-1.301-1.987-1.301-3.697v-5.529h-1.702v-3.535h1.702v-3.387h4.28v3.387h2.803v3.535H225.1v5.579c0 .415.1.713.3.896.2.182.534.274 1.002.274h1.527ZM239.807 43.041c-.593-.605-1.324-.908-2.19-.908-.852 0-1.573.307-2.166.921-.593.614-.89 1.452-.89 2.515 0 1.062.297 1.9.89 2.516.593.614 1.314.92 2.165.92s1.577-.311 2.178-.933c.601-.623.9-1.465.9-2.527 0-1.063-.296-1.898-.887-2.504m-3.492-4.022c.734-.398 1.593-.596 2.579-.596 1.15 0 2.194.29 3.128.87.934.582 1.673 1.412 2.216 2.49.542 1.08.813 2.334.813 3.762 0 1.426-.27 2.684-.813 3.772-.543 1.087-1.282 1.925-2.216 2.515-.934.59-1.978.885-3.128.885-.968 0-1.824-.2-2.566-.598-.744-.4-1.324-.914-1.74-1.545v8.566h-4.282V38.621h4.281v1.968c.417-.649.992-1.171 1.728-1.57M247.305 52.518h4.28V34.09h-4.28zM263.413 43.054a2.897 2.897 0 0 0-2.165-.922c-.85 0-1.574.303-2.165.909-.593.607-.89 1.44-.89 2.503 0 1.063.297 1.906.89 2.528.591.621 1.314.934 2.165.934s1.572-.308 2.165-.922c.593-.613.89-1.453.89-2.514 0-1.063-.297-1.903-.89-2.516m-8.761-1.27c.541-1.08 1.28-1.908 2.216-2.49.934-.582 1.976-.872 3.129-.872.984 0 1.847.199 2.591.598.742.399 1.314.921 1.715 1.569V38.62h4.28v13.896h-4.28V50.55c-.418.648-.999 1.17-1.74 1.57-.743.398-1.606.597-2.592.597a5.694 5.694 0 0 1-3.103-.885c-.936-.588-1.675-1.426-2.216-2.514-.544-1.088-.814-2.345-.814-3.773s.27-2.681.814-3.76M271.724 41.784a6.168 6.168 0 0 1 2.478-2.49c1.061-.58 2.274-.873 3.643-.873 1.753 0 3.217.457 4.395 1.37 1.176.914 1.947 2.201 2.315 3.86H280c-.385-1.061-1.127-1.593-2.23-1.593-.783 0-1.41.303-1.876.909-.468.605-.702 1.472-.702 2.602 0 1.129.234 1.996.702 2.601.466.608 1.093.91 1.877.91 1.102 0 1.844-.531 2.229-1.594h4.556c-.368 1.628-1.144 2.906-2.328 3.835-1.186.93-2.646 1.395-4.382 1.395-1.369 0-2.582-.29-3.643-.872a6.149 6.149 0 0 1-2.478-2.49c-.593-1.08-.887-2.34-.887-3.785 0-1.444.294-2.707.887-3.785M295.62 44.224c0-.73-.25-1.31-.75-1.743-.503-.432-1.128-.648-1.88-.648-.717 0-1.321.208-1.815.624-.492.415-.797 1.004-.914 1.767h5.358Zm4.305 2.366h-9.688c.066.864.347 1.524.839 1.979.492.457 1.097.686 1.814.686 1.069 0 1.81-.449 2.23-1.345h4.555a6.223 6.223 0 0 1-1.264 2.465 6.344 6.344 0 0 1-2.29 1.718c-.919.415-1.946.624-3.08.624-1.37 0-2.587-.292-3.655-.872a6.22 6.22 0 0 1-2.503-2.49c-.601-1.08-.902-2.342-.902-3.786s.296-2.705.89-3.786a6.14 6.14 0 0 1 2.49-2.49c1.067-.58 2.295-.872 3.68-.872 1.352 0 2.554.284 3.605.848a6.1 6.1 0 0 1 2.465 2.415c.593 1.047.89 2.266.89 3.66 0 .4-.026.815-.076 1.246Z"
        fill="#040050" mask="url(#fmdm-logo_svg__b)"></path>
      <path
        d="M54.771 40.144c-.206 0-.413-.008-.623-.024a8.026 8.026 0 0 1-5.505-2.775 8.023 8.023 0 0 1-.777-1.078 18.374 18.374 0 0 1-4.4 7.01c-6.327 6.295-16.249 7.194-23.592 2.14a18.681 18.681 0 0 1-2.574-2.14 5.974 5.974 0 0 0-8.416 0 5.9 5.9 0 0 0 0 8.37 30.631 30.631 0 0 0 4.218 3.502 30.376 30.376 0 0 0 17.264 5.37 30.462 30.462 0 0 0 21.514-8.871 30.222 30.222 0 0 0 7.748-13.142 8.04 8.04 0 0 1-4.857 1.638"
        fill="#108A43" mask="url(#fmdm-logo_svg__b)"></path>
      <path
        d="M5.447 47.463c0-2.032.795-3.941 2.24-5.377 1.908-1.898 4.58-2.574 7.038-2.044C10.24 32.936 11.09 23.428 17.3 17.25a18.51 18.51 0 0 1 4.44-3.267c2.905-1.528 4.016-5.108 2.48-7.998-1.537-2.89-5.136-3.995-8.042-2.466a30.358 30.358 0 0 0-7.292 5.36C-1.681 19.39-2.819 35.774 5.452 47.56c0-.033-.005-.065-.005-.097"
        fill="#87C300" mask="url(#fmdm-logo_svg__b)"></path>
      <path
        d="M51.88 8.878a30.328 30.328 0 0 0-30.757-7.414 7.614 7.614 0 0 1 4.594 3.731c1.26 2.374 1.122 5.114-.113 7.295a18.453 18.453 0 0 1 17.863 4.759 18.341 18.341 0 0 1 5.364 14.419c-.248 3.26 2.205 6.103 5.483 6.351.153.011.306.016.456.016 3.082 0 5.69-2.362 5.927-5.47a30.135 30.135 0 0 0-8.816-23.687"
        fill="#00B96E" mask="url(#fmdm-logo_svg__b)"></path>
      <path
        d="M25.057 26.431a1.825 1.825 0 0 0 1.827-1.819 1.824 1.824 0 0 0-1.827-1.817 1.824 1.824 0 0 0-1.827 1.817c0 1.003.82 1.82 1.827 1.82"
        fill="#316AEA" mask="url(#fmdm-logo_svg__b)"></path>
      <path
        d="M26.203 20.506c1.814.503 3.155 2.144 3.155 4.107s-1.341 3.605-3.155 4.106v14.67l6.643-6.056a4.229 4.229 0 0 1-.459-1.886c0-1.93 1.298-3.545 3.064-4.079V14.305a16.973 16.973 0 0 0-9.248-.245v6.446ZM20.96 23.382a4.278 4.278 0 0 1 2.77-2.82v-5.668a16.752 16.752 0 0 0-5.241 3.529 16.641 16.641 0 0 0-3.425 4.959h5.896ZM34.86 35.447c0 .481.193.917.5 1.242.004.004.009.005.014.009.004.008.006.016.012.022a1.826 1.826 0 0 0 3.128-1.273c0-1.003-.82-1.819-1.826-1.819a1.825 1.825 0 0 0-1.827 1.82M23.729 28.663a4.278 4.278 0 0 1-2.77-2.82h-6.574c-.072 0-.142-.009-.211-.02-1.547 5.613-.117 11.87 4.314 16.28a16.752 16.752 0 0 0 5.241 3.529v-16.97Z"
        fill="#316AEA" mask="url(#fmdm-logo_svg__b)"></path>
      <path
        d="M42.278 18.423a16.776 16.776 0 0 0-4.353-3.119V31.37c1.766.532 3.063 2.15 3.063 4.079 0 1.917-1.283 3.526-3.031 4.067v5.692a16.77 16.77 0 0 0 4.32-3.105c6.57-6.539 6.57-17.14 0-23.68M35.483 46.187v-6.652a4.29 4.29 0 0 1-.949-.403L26.43 46.52c3.005.721 6.164.614 9.119-.333h-.066Z"
        fill="#316AEA" mask="url(#fmdm-logo_svg__b)"></path>
    </g>
  </g>
</svg>