<?xml version="1.0" encoding="utf-8"?>
<!-- Generator: Adobe Illustrator 16.0.0, SVG Export Plug-In . SVG Version: 6.00 Build 0)  -->
<!DOCTYPE svg PUBLIC "-//W3C//DTD SVG 1.1//EN" "http://www.w3.org/Graphics/SVG/1.1/DTD/svg11.dtd">
<svg version="1.1" id="Ebene_1" xmlns="http://www.w3.org/2000/svg" xmlns:xlink="http://www.w3.org/1999/xlink" x="0px" y="0px"
	 width="477.568px" height="157.434px" viewBox="0 0 477.568 157.434" enable-background="new 0 0 477.568 157.434"
	 xml:space="preserve">
<g>
	<path fill="#00417B" d="M334.372,154.761L309.391,3.273H263.64l-16.117,51.821c-3.869,11.938-6.521,22.212-8.729,35.039h-0.446
		c-2.435-13.263-4.968-23.766-8.066-34.375L214.373,3.273h-47.078l-25.082,151.488h41.99l6.295-46.858
		c1.555-11.483,3.099-22.857,4.534-37.892h0.446c1.989,15.254,5.849,30.734,9.829,44.652l11.937,40.099h39.002l12.153-45.077
		c3.871-13.918,6.742-26.519,9.177-39.673h0.436c1.328,13.045,2.89,24.192,4.526,34.368l8.283,50.511h43.552L334.372,154.761
		L334.372,154.761z M424.549,154.761l-25.328-51.818c-5.851-11.938-11.266-23.976-15.008-34.14
		c0.871,8.947,1.089,14.135,1.089,23.984v61.865h-40.101V3.273h53.366l21.983,45.08c6.523,13.48,13.265,27.189,18.459,39.229
		c-1.108-10.276-1.543-21.986-1.543-31.381V3.273h40.101v151.488H424.549L424.549,154.761z M133.709,7.58
		c-12.383-3.861-28.736-6.741-44.424-6.741C34.04,0.839,0,34.099,0,83.166c0,45.306,27.189,74.25,78.128,74.25
		c20.66,0,39.882-4.089,54.472-10.483V72.228l0,0v-9.066H75.367v32.714h15.581v22.312c-2.217,0.654-5.415,1.107-8.513,1.107
		c-25.855,0-37.02-15.462-37.02-39.01c0-24.419,14.372-41.764,41.989-41.764c15.035,0,28.508,2.871,40.108,7.404L133.709,7.58
		L133.709,7.58z"/>
</g>
</svg>
