<svg id="brand-logo_svg__logo" xmlns="http://www.w3.org/2000/svg" x="0" y="0" viewBox="0 0 200 48.6"
  xml:space="preserve" width="1em" height="1em" class="Logo_logo__uoUtB">
  <style>
    .brand-logo_svg__st0 {
      fill: #293275
    }

    .brand-logo_svg__st1 {
      fill: #05b050
    }

    .brand-logo_svg__st2 {
      fill: #263473
    }
  </style>
  <g id="brand-logo_svg__logo_00000035516555905375113810000017016709149167280289_">
    <g id="brand-logo_svg__Name">
      <path class="brand-logo_svg__st0"
        d="M90.8 18.4c-1-.7-2.3-1.1-4.1-1.1-1.1 0-2.1.2-3.1.7-1 .4-1.9 1-2.6 1.7-.7.6-1.2 1.3-1.5 2-.4-1.2-1.1-2.3-2-3-1.1-.9-2.5-1.3-4.3-1.3-.9 0-1.8.2-2.7.5-.8.3-1.6.8-2.3 1.4-.7.6-1.2 1.2-1.6 1.8v-1.8c0-.4-.1-.8-.4-1.1-.3-.3-.7-.4-1.1-.4-.4 0-.8.1-1.1.4s-.4.7-.4 1.1v17.1c0 .4.2.8.4 1.1.3.3.7.5 1.1.5s.8-.2 1.1-.5c.3-.3.5-.7.5-1.1v-11c0-1 .3-1.9.8-2.7.5-.8 1.2-1.4 2.1-1.9.9-.5 1.8-.7 2.9-.7 1.1 0 2 .2 2.7.7.7.5 1.1 1.1 1.4 1.9.3.8.4 1.7.4 2.7v10.7c0 .4.2.8.4 1.1.3.3.7.5 1.1.5.5 0 .8-.2 1.1-.5.3-.3.4-.7.4-1.1V25.6c0-1 .3-1.9.8-2.8.5-.8 1.2-1.5 2.1-2 .9-.5 1.9-.7 2.9-.7 1.1 0 2.1.2 2.7.7.7.5 1.1 1.1 1.4 2 .3.8.4 1.7.4 2.8v10.6c0 .4.1.8.4 1.1.3.3.7.5 1.1.5.4 0 .8-.2 1.1-.5.3-.3.4-.7.4-1.1V25.5c0-1.5-.2-2.9-.6-4.2-.2-1.2-.9-2.2-1.9-2.9zM113.6 18.4c-1.5-.9-3.2-1.4-5.1-1.4-1.9 0-3.6.5-5.2 1.4-1.5.9-2.8 2.2-3.7 3.8s-1.3 3.4-1.3 5.4c0 2 .4 3.8 1.3 5.4.9 1.6 2.1 2.8 3.7 3.8 1.5.9 3.3 1.4 5.2 1.4 1.9 0 3.6-.5 5.1-1.4 1.5-.9 2.7-2.2 3.6-3.8.9-1.6 1.4-3.4 1.4-5.4 0-2-.5-3.8-1.4-5.4-.9-1.6-2.1-2.9-3.6-3.8zm.9 13.2c-.6 1.1-1.4 2.1-2.5 2.7-1.1.7-2.2 1-3.6 1-1.3 0-2.5-.3-3.6-1s-1.9-1.6-2.5-2.7c-.6-1.1-.9-2.5-.9-4s.3-2.8.9-4c.6-1.1 1.5-2 2.5-2.7 1.1-.7 2.2-1 3.6-1 1.3 0 2.5.3 3.6 1s1.9 1.6 2.5 2.7c.6 1.1.9 2.5.9 4 .1 1.5-.2 2.8-.9 4zM138.5 17.2c-.7 0-1.2.3-1.4 1l-6.2 14.6-6.2-14.7c-.1-.3-.3-.6-.6-.7-.3-.2-.6-.3-.9-.3-.5 0-.9.2-1.2.4-.3.3-.4.6-.4 1 0 .2 0 .3.1.5 0 .1.1.2.1.4l7.6 17.3c.1.4.3.6.6.8.3.2.6.2 1 .2.6 0 1.1-.4 1.4-1l7.6-17.4c.1-.1.1-.2.1-.4 0-.1.1-.3.1-.4 0-.4-.1-.7-.4-1-.5-.2-.9-.3-1.3-.3zM158.8 19.6c-.9-.8-1.9-1.5-3-1.9-1.1-.4-2.3-.7-3.5-.7-1.6 0-3.1.4-4.6 1.3-1.4.8-2.6 2.1-3.5 3.7-.9 1.6-1.3 3.5-1.3 5.8 0 2 .4 3.8 1.3 5.4.9 1.6 2.1 2.8 3.7 3.7 1.6.9 3.4 1.3 5.5 1.3 1.4 0 2.7-.3 4-.9 1.3-.6 2.2-1.3 3-2.1.4-.3.6-.7.6-1.2 0-.4-.1-.7-.4-.9-.2-.3-.6-.4-1-.4-.3 0-.6.1-1 .4-.3.4-.8.7-1.3 1.1-.5.4-1.1.6-1.8.9-.7.2-1.5.4-2.4.4-1.5 0-2.7-.3-3.8-1-1.1-.7-2-1.6-2.6-2.7-.5-1-.8-2.1-.9-3.4H160c.4 0 .8-.1 1.1-.4.3-.3.5-.6.5-1.1 0-1.5-.3-2.8-.8-4-.4-1.4-1.1-2.4-2-3.3zM148 21.7c.6-.6 1.3-1.1 2.1-1.3s1.5-.4 2.3-.4c1 0 1.9.2 2.8.6.9.4 1.6 1 2.2 1.8.6.8 1 1.7 1.1 2.8v.3h-12.3c.1-.5.2-1 .4-1.4.3-1 .8-1.8 1.4-2.4z">
      </path>
      <path class="brand-logo_svg__st1"
        d="M168.6 10.4c-.5 0-.9.2-1.2.4-.3.3-.5.7-.5 1.2v24.2c0 .4.1.8.4 1.1.3.3.7.5 1.2.5.4 0 .8-.2 1.2-.5.3-.3.5-.7.5-1.1V12c0-.5-.2-.9-.5-1.2-.3-.3-.6-.4-1.1-.4zM199.3 18.9c-.5-1.7-1.2-3.1-2.2-4.4-1-1.3-2.2-2.3-3.6-3-1.4-.7-3.1-1.1-5-1.1h-9.8c-.4 0-.8.2-1.1.4-.3.3-.4.7-.4 1.1v24.2c0 .4.1.8.4 1.1.3.3.7.5 1.1.5h9.8c2.6 0 4.7-.6 6.4-1.9 1.7-1.2 3-2.9 3.8-5s1.3-4.4 1.3-6.9c0-1.6-.2-3.4-.7-5zm-3.5 10.5c-.6 1.6-1.5 2.9-2.8 3.9-1.3 1-2.9 1.4-4.9 1.4h-7.7V13.4h7.7c1.5 0 2.8.3 3.9.9 1.1.6 2 1.4 2.7 2.3.7 1 1.2 2.1 1.5 3.4.3 1.3.5 2.6.5 4-.1 2-.4 3.8-.9 5.4z">
      </path>
    </g>
    <g id="brand-logo_svg__Symbol">
      <path class="brand-logo_svg__st0"
        d="M8 43.8v3.4c0 .8-.6 1.4-1.4 1.4H2.7c-.8 0-1.4-.6-1.4-1.4v-4.4c.7.7 1.6 1 2.7 1h4zM48.9 42.7v4.4c0 .8-.6 1.4-1.4 1.4h-3.8c-.8 0-1.4-.6-1.4-1.4v-3.4h3.9c1.1.1 2-.3 2.7-1z">
      </path>
      <path class="brand-logo_svg__st2"
        d="M47.4 26c-.4-.6-2.4-3.8-3-4.9-1.4.6-2.9.9-4.5.9-1.9 0-3.6-.5-5.2-1.3H6.1c0 .1-2.8 4.5-3.3 5.2-.9 1.4-1.4 2.8-1.5 4.4v9.5c.1 1.4 1.2 2.5 2.7 2.5h42.3c1.4 0 2.6-1.1 2.6-2.5v-9.5c-.1-1.5-.6-3-1.5-4.3zm-29 9.3H9.8c-2 0-3.6-1.6-3.6-3.6v-1c0-2 1.6-3.6 3.6-3.6h8.6c1.2 0 2.3.6 3 1.6H9.8c-1.1 0-2 .9-2 2v1c0 1.1.9 2 2 2h11.6c-.7.9-1.7 1.6-3 1.6zm13.4-5.2v2.2H18.5v-2.2h13.3zM44 31.6c0 2-1.6 3.7-3.7 3.7h-9c-1.2 0-2.4-.6-3-1.6h12c1.1 0 2.1-.9 2.1-2.1v-.9c0-1.1-.9-2-2.1-2h-12c.6-1 1.8-1.6 3-1.6h9c2 0 3.7 1.6 3.7 3.6v.9zM2.7 19.3H0C0 8.7 8.7 0 19.3 0v2.7c-9.2 0-16.6 7.4-16.6 16.6z">
      </path>
      <path class="brand-logo_svg__st2" d="M8.7 19.3H6C6 12 12 6 19.3 6v2.7c-5.8 0-10.6 4.8-10.6 10.6z"></path>
      <path class="brand-logo_svg__st2"
        d="M14.7 19.3H12c0-4 3.3-7.3 7.3-7.3v2.7c-2.5 0-4.6 2.1-4.6 4.6zM28.2 10.3c0 .5 0 .9.1 1.3h-7.6V9h7.6c0 .4-.1.9-.1 1.3z">
      </path>
      <path class="brand-logo_svg__st1"
        d="M39.9 0c-5.7 0-10.4 4.6-10.4 10.3 0 5.7 4.6 10.4 10.4 10.4 5.7 0 10.3-4.6 10.3-10.4C50.3 4.6 45.6 0 39.9 0zm.5 16.1c-2.5 0-4.6-1.6-5.4-3.8h-1.8v-1.8h1.4v-.3c0-.3 0-.5.1-.8h-1.5V7.8h2c.9-1.9 2.9-3.3 5.2-3.3 2 0 4 1.1 5 2.9l-1.5.9c-.7-1.2-2.1-2-3.5-2-1.3 0-2.4.6-3.1 1.5h4.6v1.8h-5.5c0 .2-.1.5-.1.8v.3h4v1.8h-3.5c.7 1.2 2 2 3.5 2 1.4 0 2.8-.8 3.5-2l1.5.9c-.9 1.6-2.9 2.7-4.9 2.7z">
      </path>
    </g>
  </g>
</svg>