<svg xmlns="http://www.w3.org/2000/svg" width="1em" height="1em" viewBox="0 0 526.64 209.24"
  class="UdL_Logo_White_svg__Logo-module--brand--1p_cq">
  <g fill-rule="evenodd" fill="#831453">
    <path
      d="M270.16 140.02c.873-.971 1.31-1.654 1.31-2.05v-12.303c0-.412-.37-1.02-1.112-1.828-.74-.807-1.721-1.21-2.94-1.21-1.795 0-3.013 1.243-3.656 3.73-.346 1.334-.518 3.22-.518 5.657 0 2.602.164 4.562.494 5.88.609 2.388 1.777 3.581 3.508 3.581 1.087 0 2.058-.485 2.915-1.457zm-11.536-16.799c1.91-2.322 4.199-3.483 6.868-3.483 1.334 0 2.52.33 3.557.988.642.395 1.45 1.104 2.421 2.125v-9.264c0-1.268-.247-2.05-.741-2.347-.494-.313-1.516-.502-3.063-.569v-1.235h10.894v29.102c0 1.054.198 1.787.593 2.198.395.396 1.169.643 2.322.741v1.162c-2.833.28-4.661.494-5.484.642-.824.132-2.273.486-4.348 1.062v-3.335c-.956.988-1.828 1.722-2.619 2.199a7.698 7.698 0 0 1-4.051 1.136c-2.47 0-4.62-1.045-6.448-3.137-1.828-2.091-2.742-4.933-2.742-8.523 0-4.002.946-7.156 2.84-9.462zm28.236-.247c2.076-2.157 4.571-3.235 7.486-3.236 1.663 0 3.228.437 4.694 1.31 1.465.872 2.593 2.083 3.384 3.63.593 1.17 1.005 2.686 1.236 4.546.115.873.172 1.54.172 2.001h-12.895c.115 2.026.444 3.78.988 5.262.988 2.784 2.725 4.175 5.213 4.175 1.185 0 2.305-.37 3.36-1.112.642-.444 1.44-1.193 2.396-2.247l1.16.716c-1.564 2.57-3.376 4.356-5.434 5.36-1.334.643-2.866.964-4.595.964-2.487 0-4.817-.98-6.991-2.94-2.174-1.959-3.261-5.088-3.261-9.387 0-3.886 1.029-6.9 3.088-9.042zm10.747 6.374c-.033-2.98-.264-5.064-.692-6.25-.428-1.186-1.284-1.78-2.569-1.78-1.318 0-2.223.685-2.717 2.051-.478 1.367-.75 3.36-.816 5.979h6.794zm21.048 12.994c1.384-.05 2.372-.23 2.964-.543 1.005-.527 1.507-1.531 1.507-3.014v-24.482c0-1.482-.477-2.478-1.432-2.99-.56-.312-1.574-.51-3.04-.592v-1.285h17.69v1.285c-2.06.066-3.435.354-4.126.864-.676.511-1.013 1.771-1.013 3.78v23.89c0 1.12.288 1.86.864 2.222.593.363 1.738.544 3.434.544 3.047 0 5.6-.667 7.659-2.001 2.075-1.35 3.861-3.969 5.36-7.856h1.483l-2.05 11.463h-29.3v-1.285zm33.647.074c.89-.214 1.515-.493 1.878-.84.378-.362.567-1.103.568-2.223v-25.766c0-1.07-.173-1.77-.519-2.1-.346-.33-.988-.601-1.927-.816v-1.235h9.585v29.917c0 1.12.18 1.853.544 2.199.362.345 1.004.634 1.927.864v1.21h-12.056v-1.21zm17.466-19.442c2.075-2.157 4.57-3.235 7.485-3.236 1.663 0 3.228.437 4.694 1.31 1.465.872 2.593 2.083 3.385 3.63.592 1.17 1.004 2.686 1.235 4.546.115.873.172 1.54.173 2.001h-12.896c.115 2.026.444 3.78.988 5.262.988 2.784 2.725 4.175 5.213 4.175 1.186 0 2.305-.37 3.36-1.112.642-.444 1.44-1.193 2.396-2.247l1.161.716c-1.565 2.57-3.377 4.356-5.435 5.36-1.334.643-2.865.964-4.595.964-2.487 0-4.817-.98-6.991-2.94-2.174-1.959-3.261-5.088-3.261-9.387 0-3.886 1.03-6.9 3.088-9.042zm10.746 6.374c-.033-2.98-.264-5.064-.691-6.25-.429-1.186-1.285-1.78-2.57-1.78-1.318 0-2.223.685-2.717 2.051-.478 1.367-.75 3.36-.816 5.979h6.794zm11.661-19.516c.773-.774 1.703-1.16 2.791-1.162 1.07 0 1.984.388 2.742 1.162.774.758 1.16 1.68 1.162 2.766 0 1.087-.388 2.018-1.162 2.792a3.737 3.737 0 0 1-2.742 1.136c-1.087 0-2.018-.378-2.791-1.136-.758-.774-1.137-1.704-1.137-2.792 0-1.086.379-2.008 1.137-2.766zm-3.36 32.584c.89-.148 1.498-.37 1.828-.667.494-.444.741-1.243.741-2.396v-14.872c0-1.02-.173-1.712-.519-2.075-.346-.378-1.03-.659-2.05-.84v-1.235h9.709v19.22c0 1.104.164 1.812.494 2.124.329.314.946.56 1.852.741v1.21h-12.055v-1.21zm28.904-2.396c.872-.971 1.308-1.654 1.309-2.05v-12.303c0-.412-.37-1.02-1.112-1.828-.74-.807-1.721-1.21-2.94-1.21-1.795 0-3.013 1.243-3.656 3.73-.346 1.334-.518 3.22-.518 5.657 0 2.602.164 4.562.494 5.88.609 2.388 1.778 3.581 3.507 3.581 1.087 0 2.059-.485 2.916-1.457zm-11.537-16.799c1.91-2.322 4.199-3.483 6.868-3.483 1.334 0 2.52.33 3.557.988.642.395 1.449 1.104 2.42 2.125v-9.264c0-1.268-.246-2.05-.74-2.347-.494-.313-1.516-.502-3.063-.569v-1.235h10.894v29.102c0 1.054.198 1.787.593 2.198.395.396 1.169.643 2.322.741v1.162c-2.833.28-4.661.494-5.484.642-.824.132-2.273.486-4.348 1.062v-3.335c-.956.988-1.828 1.722-2.619 2.199a7.699 7.699 0 0 1-4.051 1.136c-2.47 0-4.62-1.045-6.448-3.137-1.828-2.091-2.742-4.933-2.742-8.523 0-4.002.946-7.156 2.841-9.462zm37.402 16.774c.395-.296.865-.757 1.408-1.383v-7.387c-1.35.33-2.537.849-3.557 1.557-1.73 1.202-2.594 2.734-2.594 4.595 0 1.104.247 1.943.74 2.52.511.56 1.08.84 1.706.84.823 0 1.588-.248 2.297-.742zm-8.82-6.497c2.19-1.334 5.625-2.676 10.302-4.027v-3.68c0-1.499-.321-2.602-.963-3.311-.626-.724-1.747-1.086-3.36-1.087-.907 0-1.655.173-2.248.519-.577.33-.865.75-.865 1.26 0 .197.033.363.1.494.065.132.163.272.296.42l.296.346c.23.28.412.593.544.938.148.33.222.684.222 1.063 0 .955-.321 1.697-.964 2.223-.626.511-1.359.766-2.198.766-.972 0-1.804-.288-2.496-.865-.675-.576-1.012-1.407-1.012-2.495 0-1.943.914-3.482 2.742-4.62 1.828-1.136 4.076-1.704 6.744-1.704 2.866 0 5.262.552 7.189 1.655 1.91 1.12 2.865 3.18 2.866 6.176v12.253c0 .363.09.676.271.94.198.246.412.37.643.37.197 0 .37-.033.518-.1.165-.08.412-.287.742-.617l.766 1.062c-.989 1.154-2.084 1.96-3.286 2.421a6.515 6.515 0 0 1-2.397.445c-1.499 0-2.593-.437-3.285-1.31-.396-.493-.684-1.226-.865-2.198-1.4 1.4-2.981 2.389-4.743 2.965a9.853 9.853 0 0 1-3.162.543c-1.384 0-2.677-.437-3.879-1.31-1.203-.889-1.803-2.264-1.803-4.125 0-2.273 1.095-4.076 3.286-5.41zM272.409 58.842v1.285c-1.96.066-3.27.37-3.928.914-.66.543-.988 1.787-.988 3.73v16.922c0 2.57.304 4.554.914 5.954 1.103 2.603 3.219 3.903 6.349 3.903 3.886 0 6.513-1.44 7.88-4.323.758-1.58 1.136-3.796 1.137-6.645V65.117c0-1.811-.338-3.055-1.013-3.73-.66-.692-1.96-1.112-3.903-1.26v-1.285h11.116v1.285c-1.614.313-2.684.7-3.211 1.16-.511.446-.766 1.483-.766 3.114v16.18c0 4.3-1.037 7.618-3.113 9.957-2.075 2.339-5.336 3.507-9.782 3.508-5.814 0-9.792-1.737-11.933-5.213-1.136-1.844-1.704-4.224-1.704-7.14V64.771c0-1.91-.256-3.112-.766-3.607-.494-.494-1.623-.84-3.385-1.037v-1.285h17.096zm19.442 32.98c.922-.115 1.597-.362 2.026-.741.444-.395.667-1.169.667-2.322V73.887c0-1.02-.182-1.729-.544-2.125-.346-.395-1.062-.658-2.149-.79v-1.236h9.585v3.632a10.283 10.283 0 0 1 3.064-3.014 7.508 7.508 0 0 1 4.15-1.21c2.174 0 3.854.56 5.04 1.68 1.201 1.12 1.802 3.088 1.803 5.904v12.229c0 1.136.189 1.87.568 2.198.395.33 1.045.552 1.952.667v1.21H306.13v-1.21c.906-.18 1.523-.428 1.853-.741.329-.312.493-1.02.494-2.124V76.703c0-1.153-.116-2.017-.346-2.594-.395-1.037-1.178-1.556-2.347-1.556-.873 0-1.68.321-2.42.963-.726.627-1.285 1.26-1.68 1.903v13.538c0 1.104.164 1.812.493 2.124.33.313.947.56 1.853.741v1.21h-12.179v-1.21zm31.498-32.585c.773-.773 1.704-1.16 2.791-1.16 1.07 0 1.985.387 2.743 1.16.773.759 1.16 1.68 1.16 2.767s-.387 2.018-1.16 2.792a3.737 3.737 0 0 1-2.743 1.136c-1.087 0-2.018-.378-2.791-1.136-.758-.774-1.137-1.704-1.137-2.792 0-1.087.379-2.008 1.137-2.767zm-3.36 32.585c.89-.148 1.498-.37 1.828-.667.494-.445.741-1.243.741-2.396V73.887c0-1.02-.173-1.712-.519-2.075-.345-.378-1.03-.659-2.05-.84v-1.236h9.709v19.22c0 1.105.164 1.813.494 2.125.329.313.946.56 1.853.741v1.21h-12.056v-1.21zm26.705-22.086v1.236c-.89.033-1.565.132-2.025.296-.445.166-.667.52-.667 1.063 0 .132.057.379.172.74.132.347.23.602.297.767l3.804 9.708h.396l3.409-8.646c.164-.412.295-.832.395-1.26.115-.428.172-.765.173-1.013 0-.708-.24-1.153-.716-1.334-.478-.198-1.17-.304-2.076-.321v-1.236h7.659v1.236c-.676.05-1.228.272-1.655.667-.429.379-.849 1.07-1.26 2.075l-8.153 20.035h-1.284l-6.078-14.995a97.504 97.504 0 0 0-1.26-2.965 45.124 45.124 0 0 0-1.26-2.693c-.461-.889-.823-1.449-1.086-1.68-.265-.23-.742-.378-1.433-.444v-1.236h12.648zm16.058 2.644c2.075-2.157 4.57-3.236 7.485-3.236 1.663 0 3.228.437 4.694 1.31 1.465.872 2.593 2.083 3.385 3.63.593 1.17 1.004 2.685 1.235 4.546.115.873.172 1.54.173 2.001h-12.896c.115 2.026.444 3.78.988 5.262.989 2.784 2.726 4.175 5.213 4.175 1.186 0 2.305-.37 3.36-1.111.642-.445 1.44-1.194 2.396-2.248l1.161.716c-1.565 2.57-3.377 4.356-5.435 5.36-1.334.643-2.865.964-4.595.964-2.487 0-4.817-.98-6.991-2.94-2.174-1.96-3.261-5.088-3.261-9.387 0-3.887 1.029-6.9 3.088-9.042zm10.746 6.374c-.033-2.981-.264-5.064-.691-6.25-.429-1.186-1.285-1.78-2.57-1.78-1.318 0-2.223.685-2.717 2.051-.478 1.368-.75 3.36-.815 5.979h6.793zm8.4 13.068c.971-.115 1.646-.345 2.025-.692.379-.345.585-1.012.618-2l.05-1.483v-13.76c0-1.054-.182-1.77-.544-2.15-.363-.378-1.08-.633-2.15-.765v-1.236h9.61v3.978c1.07-1.4 2.133-2.511 3.187-3.335 1.054-.823 2.272-1.235 3.657-1.235 1.037 0 1.967.338 2.791 1.013.84.659 1.26 1.63 1.26 2.915 0 .988-.296 1.803-.89 2.445-.576.643-1.333.964-2.272.964-1.07 0-2-.502-2.792-1.507-.774-1.004-1.317-1.506-1.63-1.507-.676 0-1.359.42-2.05 1.26-.676.823-1.013 2.01-1.013 3.557v9.56c0 1.68.238 2.735.716 3.163.494.412 1.465.684 2.915.815v1.21h-13.488v-1.21zm22.826-6.448h1.408c.495 2.421 1.416 4.134 2.767 5.139 1.35.988 2.734 1.482 4.15 1.482 1.301 0 2.256-.288 2.866-.865.61-.592.914-1.366.914-2.322 0-.905-.33-1.679-.988-2.322-.363-.346-.947-.717-1.754-1.112l-3.755-1.828c-1.976-.97-3.393-2.025-4.249-3.162-.873-1.136-1.31-2.478-1.31-4.027 0-1.96.684-3.647 2.051-5.064 1.367-1.433 3.277-2.15 5.731-2.15 1.07 0 2.207.182 3.41.544 1.202.346 1.95.519 2.248.519.411 0 .7-.082.864-.247.181-.18.33-.428.445-.741h1.112v7.312h-1.285c-.478-1.712-1.26-3.087-2.347-4.125-1.087-1.038-2.355-1.557-3.804-1.557-1.12 0-1.96.314-2.52.94-.544.625-.815 1.3-.815 2.025 0 .593.247 1.186.74 1.778.478.61 1.384 1.236 2.718 1.878l2.767 1.334c1.713.824 2.964 1.623 3.755 2.396 1.317 1.318 1.976 2.94 1.977 4.867 0 1.878-.684 3.632-2.05 5.262-1.352 1.614-3.385 2.42-6.103 2.421a9.772 9.772 0 0 1-2.05-.222c-.676-.132-1.516-.37-2.52-.717l-.865-.296a6.076 6.076 0 0 0-.592-.198 1.242 1.242 0 0 0-.272-.025c-.28 0-.528.116-.741.346-.198.215-.429.585-.692 1.112h-1.21v-8.375zm22.58-26.137c.773-.773 1.704-1.16 2.791-1.16 1.07 0 1.985.387 2.743 1.16.773.759 1.16 1.68 1.16 2.767s-.387 2.018-1.16 2.792a3.737 3.737 0 0 1-2.743 1.136c-1.087 0-2.018-.378-2.791-1.136-.758-.774-1.136-1.704-1.136-2.792 0-1.087.378-2.008 1.136-2.767zm-3.36 32.585c.89-.148 1.499-.37 1.828-.667.494-.445.741-1.243.741-2.396V73.887c0-1.02-.173-1.712-.518-2.075-.346-.378-1.03-.659-2.05-.84v-1.236h9.708v19.22c0 1.105.164 1.813.494 2.125.329.313.947.56 1.853.741v1.21h-12.056v-1.21zM438 71.96v-1.408c.445-.412.997-.897 1.656-1.458a39.164 39.164 0 0 0 2.47-2.495 41.883 41.883 0 0 0 4.175-5.41h1.285v8.547h4.817v2.224h-4.817v15.218c0 .709.107 1.301.321 1.779.33.74.873 1.111 1.63 1.111.66 0 1.21-.23 1.656-.692.445-.477.89-1.127 1.334-1.951l1.21.593c-.593 1.383-1.301 2.512-2.124 3.384-1.45 1.532-3.22 2.298-5.312 2.298-1.185 0-2.223-.223-3.112-.667-1.713-.856-2.57-2.413-2.57-4.67V71.96h-2.618zm29.423 17.441c.396-.296.865-.757 1.409-1.383V80.63c-1.351.33-2.537.849-3.558 1.556-1.73 1.203-2.594 2.735-2.594 4.595 0 1.105.247 1.945.741 2.52.51.56 1.079.84 1.705.84.823 0 1.589-.247 2.297-.74zm-8.819-6.497c2.19-1.334 5.624-2.676 10.302-4.027v-3.68c0-1.5-.321-2.602-.964-3.311-.626-.724-1.746-1.086-3.36-1.087-.906 0-1.655.173-2.248.519-.576.33-.864.75-.864 1.26 0 .197.032.362.099.494.065.132.164.271.296.42l.297.346c.23.28.411.592.543.938.148.33.222.684.222 1.063 0 .955-.32 1.696-.963 2.223-.626.511-1.359.766-2.199.766-.972 0-1.803-.288-2.495-.865-.675-.576-1.013-1.407-1.013-2.495 0-1.943.914-3.482 2.742-4.62 1.828-1.136 4.076-1.704 6.745-1.704 2.865 0 5.262.552 7.188 1.655 1.91 1.12 2.865 3.179 2.866 6.176v12.253c0 .363.09.676.272.939.198.247.411.37.642.37.198 0 .37-.032.519-.098.165-.082.411-.288.741-.618l.766 1.062c-.988 1.154-2.084 1.96-3.286 2.421a6.517 6.517 0 0 1-2.396.445c-1.5 0-2.594-.437-3.286-1.31-.395-.493-.684-1.226-.864-2.198-1.4 1.4-2.982 2.389-4.744 2.965a9.856 9.856 0 0 1-3.162.543c-1.383 0-2.676-.437-3.878-1.31-1.203-.889-1.804-2.264-1.804-4.125 0-2.273 1.095-4.076 3.286-5.41zm21.542-10.944v-1.408c.445-.412.996-.897 1.655-1.458a39.14 39.14 0 0 0 2.47-2.495 41.892 41.892 0 0 0 4.176-5.41h1.284v8.547h4.818v2.224h-4.818v15.218c0 .709.107 1.301.322 1.779.328.74.872 1.111 1.63 1.111.658 0 1.21-.23 1.655-.692.445-.477.89-1.127 1.334-1.951l1.21.593c-.592 1.383-1.3 2.512-2.124 3.384-1.45 1.532-3.22 2.298-5.311 2.298-1.186 0-2.224-.223-3.113-.667-1.713-.856-2.57-2.413-2.57-4.67V71.96h-2.618zm-360.69 61.296c-4.302 0-7.79-3.547-7.79-7.922l.004-66.122h-10.393v66.144c0 10.156 8.057 18.377 18.025 18.461 9.968-.084 18.115-8.305 18.115-18.46V59.211h-10.394l.004 66.122c0 4.375-3.488 7.922-7.79 7.922h.219z">
    </path>
    <path
      d="m119.276 182.95 63.732-64.594s-21.174 6.702-39.544 25.524c-18.37 18.821-21.454 30.656-24.119 35.077-2.664-4.42-5.748-16.256-24.118-35.077-18.37-18.822-39.543-25.524-39.543-25.524l63.592 64.593zm-.171-133.498c-4.868-6.93-12.276-11.81-20.96-13.033a22.527 22.527 0 0 1 11.042-2.876c1.712 0 3.332.175 4.937.538-.004-.195 0-.343 0-.538a27.549 27.549 0 0 1 5.036-15.907c3.157 4.481 5.015 9.973 5.015 15.907 0 .195.004.343 0 .538a22.158 22.158 0 0 1 4.937-.538 22.53 22.53 0 0 1 11.041 2.876c-8.683 1.224-16.18 6.104-21.048 13.033zM46.057 110.58c-8.262-1.4-16.894.477-23.884 5.855a23.286 23.286 0 0 1 5.806-9.973 22.63 22.63 0 0 1 3.866-3.17c-.138-.134-.238-.242-.374-.38-4.126-4.196-6.617-9.43-7.501-14.868 5.349.898 10.482 3.446 14.608 7.641.136.138.242.24.374.38a22.844 22.844 0 0 1 3.117-3.93 22.746 22.746 0 0 1 9.808-5.905c-5.29 7.109-7.197 15.95-5.82 24.35zm144.833.363c1.377-8.4-.469-17.178-5.758-24.286a22.747 22.747 0 0 1 9.808 5.904 22.866 22.866 0 0 1 3.117 3.931c.132-.14.238-.242.374-.38a26.634 26.634 0 0 1 14.622-7.627 27.384 27.384 0 0 1-7.515 14.854c-.136.138-.236.245-.374.38a22.61 22.61 0 0 1 3.865 3.17 23.293 23.293 0 0 1 5.807 9.972c-6.99-5.378-15.685-7.317-23.946-5.918z">
    </path>
  </g>
</svg>